%TF.GenerationSoftware,KiCad,Pcbnew,7.0.7*%
%TF.CreationDate,2024-07-05T12:18:51-04:00*%
%TF.ProjectId,MSP430FR21_Breakout,4d535034-3330-4465-9232-315f42726561,rev?*%
%TF.SameCoordinates,Original*%
%TF.FileFunction,Copper,L2,Bot*%
%TF.FilePolarity,Positive*%
%FSLAX46Y46*%
G04 Gerber Fmt 4.6, Leading zero omitted, Abs format (unit mm)*
G04 Created by KiCad (PCBNEW 7.0.7) date 2024-07-05 12:18:51*
%MOMM*%
%LPD*%
G01*
G04 APERTURE LIST*
%TA.AperFunction,ComponentPad*%
%ADD10C,2.000000*%
%TD*%
%TA.AperFunction,ComponentPad*%
%ADD11R,1.700000X1.700000*%
%TD*%
%TA.AperFunction,ComponentPad*%
%ADD12O,1.700000X1.700000*%
%TD*%
%TA.AperFunction,ViaPad*%
%ADD13C,0.800000*%
%TD*%
%TA.AperFunction,Conductor*%
%ADD14C,0.400000*%
%TD*%
%TA.AperFunction,Conductor*%
%ADD15C,0.250000*%
%TD*%
G04 APERTURE END LIST*
D10*
%TO.P,SW1,1,A*%
%TO.N,RST*%
X142530000Y-101675000D03*
X142530000Y-95175000D03*
%TO.P,SW1,2,B*%
%TO.N,GND*%
X147030000Y-101675000D03*
X147030000Y-95175000D03*
%TD*%
D11*
%TO.P,J3,1,Pin_1*%
%TO.N,GND*%
X137160000Y-76200000D03*
D12*
%TO.P,J3,2,Pin_2*%
%TO.N,+5V*%
X139700000Y-76200000D03*
%TO.P,J3,3,Pin_3*%
%TO.N,+3V3*%
X142240000Y-76200000D03*
%TO.P,J3,4,Pin_4*%
%TO.N,P1.6*%
X144780000Y-76200000D03*
%TO.P,J3,5,Pin_5*%
%TO.N,P1.7*%
X147320000Y-76200000D03*
%TO.P,J3,6,Pin_6*%
%TO.N,RST*%
X149860000Y-76200000D03*
%TO.P,J3,7,Pin_7*%
%TO.N,Test*%
X152400000Y-76200000D03*
%TD*%
D11*
%TO.P,J2,1,Pin_1*%
%TO.N,+3V3*%
X152400000Y-83820000D03*
D12*
%TO.P,J2,2,Pin_2*%
%TO.N,Test*%
X152400000Y-86360000D03*
%TO.P,J2,3,Pin_3*%
%TO.N,RST*%
X152400000Y-88900000D03*
%TO.P,J2,4,Pin_4*%
%TO.N,P2.0*%
X152400000Y-91440000D03*
%TO.P,J2,5,Pin_5*%
%TO.N,P2.1*%
X152400000Y-93980000D03*
%TO.P,J2,6,Pin_6*%
%TO.N,P2.6*%
X152400000Y-96520000D03*
%TO.P,J2,7,Pin_7*%
%TO.N,P2.7*%
X152400000Y-99060000D03*
%TO.P,J2,8,Pin_8*%
%TO.N,GND*%
X152400000Y-101600000D03*
%TD*%
D11*
%TO.P,J1,1,Pin_1*%
%TO.N,P1.0*%
X137160000Y-83820000D03*
D12*
%TO.P,J1,2,Pin_2*%
%TO.N,P1.1*%
X137160000Y-86360000D03*
%TO.P,J1,3,Pin_3*%
%TO.N,P1.2*%
X137160000Y-88900000D03*
%TO.P,J1,4,Pin_4*%
%TO.N,P1.3*%
X137160000Y-91440000D03*
%TO.P,J1,5,Pin_5*%
%TO.N,P1.4*%
X137160000Y-93980000D03*
%TO.P,J1,6,Pin_6*%
%TO.N,P1.5*%
X137160000Y-96520000D03*
%TO.P,J1,7,Pin_7*%
%TO.N,P1.6*%
X137160000Y-99060000D03*
%TO.P,J1,8,Pin_8*%
%TO.N,P1.7*%
X137160000Y-101600000D03*
%TD*%
D13*
%TO.N,+3V3*%
X140208000Y-84709000D03*
X141097000Y-94107000D03*
%TO.N,GND*%
X149504400Y-83769200D03*
%TO.N,P2.6*%
X144780000Y-92964000D03*
%TO.N,RST*%
X151257000Y-97663000D03*
X150495000Y-80819000D03*
X150926800Y-86512400D03*
%TO.N,P1.0*%
X149606000Y-88011000D03*
%TO.N,P1.1*%
X149606000Y-89154000D03*
%TO.N,P1.4*%
X138557000Y-87680800D03*
%TO.N,P1.5*%
X138836400Y-86664800D03*
%TO.N,P1.6*%
X138955832Y-85558456D03*
X136271000Y-81153000D03*
%TO.N,P1.7*%
X139037799Y-82323201D03*
X140712489Y-85822341D03*
%TO.N,Test*%
X146462500Y-87376000D03*
%TO.N,P2.0*%
X143949503Y-87698497D03*
X149770500Y-93472000D03*
%TO.N,P2.1*%
X144018000Y-88900000D03*
%TD*%
D14*
%TO.N,+3V3*%
X141605000Y-84709000D02*
X142113000Y-85217000D01*
X142113000Y-93091000D02*
X141097000Y-94107000D01*
X140208000Y-84709000D02*
X141605000Y-84709000D01*
X142113000Y-85217000D02*
X142113000Y-93091000D01*
D15*
%TO.N,P2.6*%
X144780000Y-92964000D02*
X147572604Y-92964000D01*
X147572604Y-92964000D02*
X151128604Y-96520000D01*
X151128604Y-96520000D02*
X152400000Y-96520000D01*
%TO.N,RST*%
X150926800Y-86512400D02*
X150368000Y-85953600D01*
X150368000Y-85953600D02*
X150368000Y-80946000D01*
X151257000Y-97663000D02*
X145018000Y-97663000D01*
X145018000Y-97663000D02*
X142530000Y-95175000D01*
X150368000Y-80946000D02*
X150495000Y-80819000D01*
%TO.N,P1.0*%
X149606000Y-88011000D02*
X149516000Y-88101000D01*
X145737500Y-87676305D02*
X145737500Y-85539500D01*
X137541000Y-83439000D02*
X137160000Y-83820000D01*
X149516000Y-88101000D02*
X146162195Y-88101000D01*
X143637000Y-83439000D02*
X137541000Y-83439000D01*
X146162195Y-88101000D02*
X145737500Y-87676305D01*
X145737500Y-85539500D02*
X143637000Y-83439000D01*
%TO.N,P1.1*%
X145975799Y-88551000D02*
X149003000Y-88551000D01*
X145287500Y-85725896D02*
X145287500Y-87862701D01*
X137160000Y-86360000D02*
X138335000Y-85185000D01*
X143450604Y-83889000D02*
X145287500Y-85725896D01*
X149003000Y-88551000D02*
X149606000Y-89154000D01*
X138335000Y-84169000D02*
X138615000Y-83889000D01*
X138615000Y-83889000D02*
X143450604Y-83889000D01*
X145287500Y-87862701D02*
X145975799Y-88551000D01*
X138335000Y-85185000D02*
X138335000Y-84169000D01*
%TO.N,P1.4*%
X138303000Y-93980000D02*
X137160000Y-93980000D01*
X138557000Y-87680800D02*
X138985000Y-88108800D01*
X138985000Y-88108800D02*
X138985000Y-93298000D01*
X138985000Y-93298000D02*
X138303000Y-93980000D01*
%TO.N,P1.5*%
X138836400Y-86664800D02*
X139435000Y-87263400D01*
X139435000Y-87263400D02*
X139435000Y-95261000D01*
X138176000Y-96520000D02*
X137160000Y-96520000D01*
X139435000Y-95261000D02*
X138176000Y-96520000D01*
%TO.N,P1.6*%
X138615000Y-99060000D02*
X137160000Y-99060000D01*
X139885000Y-97790000D02*
X138615000Y-99060000D01*
X139885000Y-86291000D02*
X139885000Y-97790000D01*
X144780000Y-76200000D02*
X139827000Y-81153000D01*
X138955832Y-85558456D02*
X139152456Y-85558456D01*
X139152456Y-85558456D02*
X139885000Y-86291000D01*
X139827000Y-81153000D02*
X136271000Y-81153000D01*
%TO.N,P1.7*%
X147320000Y-76200000D02*
X147320000Y-77343000D01*
X147320000Y-77343000D02*
X146812000Y-77851000D01*
X143765396Y-77851000D02*
X139293195Y-82323201D01*
X140712489Y-85822341D02*
X140335000Y-86199830D01*
X146812000Y-77851000D02*
X143765396Y-77851000D01*
X139065000Y-101600000D02*
X137160000Y-101600000D01*
X139293195Y-82323201D02*
X139037799Y-82323201D01*
X140335000Y-100330000D02*
X139065000Y-101600000D01*
X140335000Y-86199830D02*
X140335000Y-100330000D01*
%TO.N,Test*%
X152400000Y-80518000D02*
X152400000Y-76200000D01*
X152400000Y-86360000D02*
X150876000Y-84836000D01*
X150876000Y-82042000D02*
X152400000Y-80518000D01*
X146589500Y-87249000D02*
X151511000Y-87249000D01*
X150876000Y-84836000D02*
X150876000Y-82042000D01*
X151511000Y-87249000D02*
X152400000Y-86360000D01*
X146462500Y-87376000D02*
X146589500Y-87249000D01*
%TO.N,P2.0*%
X148183000Y-89001000D02*
X150622000Y-91440000D01*
X149733000Y-92329000D02*
X150622000Y-91440000D01*
X145252006Y-89001000D02*
X148183000Y-89001000D01*
X143949503Y-87698497D02*
X145252006Y-89001000D01*
X149733000Y-93434500D02*
X149733000Y-92329000D01*
X150622000Y-91440000D02*
X152400000Y-91440000D01*
X149770500Y-93472000D02*
X149733000Y-93434500D01*
%TO.N,P2.1*%
X151892000Y-94488000D02*
X152400000Y-93980000D01*
X144569000Y-89451000D02*
X147996604Y-89451000D01*
X147996604Y-89451000D02*
X148971000Y-90425396D01*
X144018000Y-88900000D02*
X144569000Y-89451000D01*
X149733000Y-94488000D02*
X151892000Y-94488000D01*
X148971000Y-93726000D02*
X149733000Y-94488000D01*
X148971000Y-90425396D02*
X148971000Y-93726000D01*
%TD*%
%TA.AperFunction,Conductor*%
%TO.N,GND*%
G36*
X153308031Y-74595799D02*
G01*
X153355947Y-74600517D01*
X153429317Y-74607744D01*
X153453145Y-74612483D01*
X153561005Y-74645202D01*
X153583453Y-74654501D01*
X153682849Y-74707629D01*
X153703059Y-74721133D01*
X153790179Y-74792630D01*
X153807369Y-74809820D01*
X153878866Y-74896940D01*
X153892370Y-74917150D01*
X153945495Y-75016538D01*
X153954798Y-75038997D01*
X153987514Y-75146848D01*
X153992256Y-75170688D01*
X154004201Y-75291967D01*
X154004500Y-75298048D01*
X154004500Y-102501951D01*
X154004201Y-102508032D01*
X153992256Y-102629311D01*
X153987514Y-102653151D01*
X153954798Y-102761002D01*
X153945495Y-102783461D01*
X153892370Y-102882849D01*
X153878866Y-102903059D01*
X153807369Y-102990179D01*
X153790179Y-103007369D01*
X153703059Y-103078866D01*
X153682849Y-103092370D01*
X153583461Y-103145495D01*
X153561002Y-103154798D01*
X153453151Y-103187514D01*
X153429311Y-103192256D01*
X153308032Y-103204201D01*
X153301951Y-103204500D01*
X136258049Y-103204500D01*
X136251968Y-103204201D01*
X136130688Y-103192256D01*
X136106848Y-103187514D01*
X135998997Y-103154798D01*
X135976541Y-103145496D01*
X135877150Y-103092370D01*
X135856940Y-103078866D01*
X135769820Y-103007369D01*
X135752630Y-102990179D01*
X135681133Y-102903059D01*
X135667629Y-102882849D01*
X135628441Y-102809534D01*
X135614501Y-102783453D01*
X135605201Y-102761002D01*
X135572483Y-102653145D01*
X135567744Y-102629317D01*
X135555799Y-102508031D01*
X135555500Y-102501951D01*
X135555500Y-91440000D01*
X136054785Y-91440000D01*
X136073602Y-91643082D01*
X136129417Y-91839247D01*
X136129422Y-91839260D01*
X136220327Y-92021821D01*
X136343237Y-92184581D01*
X136493958Y-92321980D01*
X136493960Y-92321982D01*
X136541317Y-92351304D01*
X136667363Y-92429348D01*
X136857544Y-92503024D01*
X137058024Y-92540500D01*
X137058026Y-92540500D01*
X137261974Y-92540500D01*
X137261976Y-92540500D01*
X137462456Y-92503024D01*
X137652637Y-92429348D01*
X137826041Y-92321981D01*
X137976764Y-92184579D01*
X138099673Y-92021821D01*
X138190582Y-91839250D01*
X138246397Y-91643083D01*
X138265215Y-91440000D01*
X138246397Y-91236917D01*
X138190582Y-91040750D01*
X138184323Y-91028181D01*
X138121088Y-90901186D01*
X138099673Y-90858179D01*
X137976764Y-90695421D01*
X137976762Y-90695418D01*
X137826041Y-90558019D01*
X137826039Y-90558017D01*
X137652642Y-90450655D01*
X137652635Y-90450651D01*
X137557546Y-90413813D01*
X137462456Y-90376976D01*
X137261976Y-90339500D01*
X137058024Y-90339500D01*
X136857544Y-90376976D01*
X136857541Y-90376976D01*
X136857541Y-90376977D01*
X136667364Y-90450651D01*
X136667357Y-90450655D01*
X136493960Y-90558017D01*
X136493958Y-90558019D01*
X136343237Y-90695418D01*
X136220327Y-90858178D01*
X136129422Y-91040739D01*
X136129417Y-91040752D01*
X136073602Y-91236917D01*
X136054785Y-91439999D01*
X136054785Y-91440000D01*
X135555500Y-91440000D01*
X135555500Y-81659466D01*
X135575185Y-81592427D01*
X135627989Y-81546672D01*
X135697147Y-81536728D01*
X135760703Y-81565753D01*
X135775341Y-81582094D01*
X135775543Y-81581916D01*
X135780512Y-81587525D01*
X135780515Y-81587528D01*
X135780517Y-81587530D01*
X135898760Y-81692283D01*
X135898762Y-81692284D01*
X136038634Y-81765696D01*
X136192014Y-81803500D01*
X136192015Y-81803500D01*
X136349985Y-81803500D01*
X136503365Y-81765696D01*
X136539867Y-81746538D01*
X136643240Y-81692283D01*
X136761483Y-81587530D01*
X136765257Y-81582061D01*
X136819537Y-81538071D01*
X136867308Y-81528500D01*
X138649129Y-81528500D01*
X138716168Y-81548185D01*
X138761923Y-81600989D01*
X138771867Y-81670147D01*
X138742842Y-81733703D01*
X138706755Y-81762296D01*
X138665561Y-81783916D01*
X138547315Y-81888672D01*
X138457580Y-82018676D01*
X138457579Y-82018677D01*
X138401561Y-82166382D01*
X138382521Y-82323200D01*
X138382521Y-82323201D01*
X138401561Y-82480019D01*
X138457578Y-82627723D01*
X138457579Y-82627724D01*
X138547316Y-82757731D01*
X138647725Y-82846685D01*
X138684851Y-82905873D01*
X138684084Y-82975739D01*
X138645667Y-83034099D01*
X138581797Y-83062424D01*
X138565498Y-83063500D01*
X138384500Y-83063500D01*
X138317461Y-83043815D01*
X138271706Y-82991011D01*
X138263044Y-82951194D01*
X138261097Y-82951386D01*
X138260500Y-82945331D01*
X138260500Y-82945326D01*
X138245966Y-82872260D01*
X138190601Y-82789399D01*
X138135235Y-82752405D01*
X138107739Y-82734033D01*
X138107735Y-82734032D01*
X138034677Y-82719500D01*
X138034674Y-82719500D01*
X136285326Y-82719500D01*
X136285323Y-82719500D01*
X136212264Y-82734032D01*
X136212260Y-82734033D01*
X136129399Y-82789399D01*
X136074033Y-82872260D01*
X136074032Y-82872264D01*
X136059500Y-82945321D01*
X136059500Y-84694678D01*
X136074032Y-84767735D01*
X136074033Y-84767739D01*
X136074034Y-84767740D01*
X136129399Y-84850601D01*
X136209936Y-84904413D01*
X136212260Y-84905966D01*
X136212264Y-84905967D01*
X136285321Y-84920499D01*
X136285324Y-84920500D01*
X136285326Y-84920500D01*
X137769100Y-84920500D01*
X137836139Y-84940185D01*
X137881894Y-84992989D01*
X137891838Y-85062147D01*
X137862813Y-85125703D01*
X137856781Y-85132181D01*
X137685028Y-85303933D01*
X137623705Y-85337418D01*
X137554013Y-85332434D01*
X137552554Y-85331879D01*
X137462461Y-85296977D01*
X137462456Y-85296976D01*
X137261976Y-85259500D01*
X137058024Y-85259500D01*
X136857544Y-85296976D01*
X136857541Y-85296976D01*
X136857541Y-85296977D01*
X136667364Y-85370651D01*
X136667357Y-85370655D01*
X136493960Y-85478017D01*
X136493958Y-85478019D01*
X136343237Y-85615418D01*
X136220327Y-85778178D01*
X136129422Y-85960739D01*
X136129417Y-85960752D01*
X136073602Y-86156917D01*
X136054785Y-86359999D01*
X136054785Y-86360000D01*
X136073602Y-86563082D01*
X136129417Y-86759247D01*
X136129422Y-86759260D01*
X136220327Y-86941821D01*
X136343237Y-87104581D01*
X136493958Y-87241980D01*
X136493960Y-87241982D01*
X136529469Y-87263968D01*
X136667363Y-87349348D01*
X136857544Y-87423024D01*
X137058024Y-87460500D01*
X137058026Y-87460500D01*
X137261974Y-87460500D01*
X137261976Y-87460500D01*
X137462456Y-87423024D01*
X137652637Y-87349348D01*
X137778724Y-87271278D01*
X137846082Y-87252723D01*
X137912781Y-87273531D01*
X137957643Y-87327096D01*
X137966423Y-87396412D01*
X137959941Y-87420677D01*
X137920763Y-87523981D01*
X137901722Y-87680799D01*
X137901722Y-87680800D01*
X137921030Y-87839825D01*
X137909569Y-87908749D01*
X137862665Y-87960534D01*
X137795209Y-87978741D01*
X137732657Y-87960198D01*
X137652642Y-87910655D01*
X137652635Y-87910651D01*
X137557546Y-87873814D01*
X137462456Y-87836976D01*
X137261976Y-87799500D01*
X137058024Y-87799500D01*
X136857544Y-87836976D01*
X136857541Y-87836976D01*
X136857541Y-87836977D01*
X136667364Y-87910651D01*
X136667357Y-87910655D01*
X136493960Y-88018017D01*
X136493958Y-88018019D01*
X136343237Y-88155418D01*
X136220327Y-88318178D01*
X136129422Y-88500739D01*
X136129417Y-88500752D01*
X136073602Y-88696917D01*
X136054785Y-88899999D01*
X136054785Y-88900000D01*
X136073602Y-89103082D01*
X136129417Y-89299247D01*
X136129422Y-89299260D01*
X136220327Y-89481821D01*
X136343237Y-89644581D01*
X136493958Y-89781980D01*
X136493960Y-89781982D01*
X136537063Y-89808670D01*
X136667363Y-89889348D01*
X136857544Y-89963024D01*
X137058024Y-90000500D01*
X137058026Y-90000500D01*
X137261974Y-90000500D01*
X137261976Y-90000500D01*
X137462456Y-89963024D01*
X137652637Y-89889348D01*
X137826041Y-89781981D01*
X137976764Y-89644579D01*
X138099673Y-89481821D01*
X138190582Y-89299250D01*
X138246397Y-89103083D01*
X138265215Y-88900000D01*
X138260533Y-88849477D01*
X138246397Y-88696917D01*
X138213842Y-88582500D01*
X138190582Y-88500750D01*
X138190577Y-88500739D01*
X138190575Y-88500734D01*
X138173329Y-88466099D01*
X138161068Y-88397314D01*
X138187941Y-88332819D01*
X138245417Y-88293092D01*
X138315247Y-88290744D01*
X138321431Y-88292706D01*
X138324633Y-88293495D01*
X138324635Y-88293496D01*
X138396436Y-88311193D01*
X138478014Y-88331300D01*
X138478015Y-88331300D01*
X138485500Y-88331300D01*
X138552539Y-88350985D01*
X138598294Y-88403789D01*
X138609500Y-88455300D01*
X138609500Y-93091100D01*
X138589815Y-93158139D01*
X138573181Y-93178781D01*
X138306006Y-93445955D01*
X138244683Y-93479440D01*
X138174991Y-93474456D01*
X138119058Y-93432584D01*
X138107325Y-93413546D01*
X138101016Y-93400877D01*
X138099673Y-93398179D01*
X138001762Y-93268524D01*
X137976762Y-93235418D01*
X137826041Y-93098019D01*
X137826039Y-93098017D01*
X137652642Y-92990655D01*
X137652635Y-92990651D01*
X137470450Y-92920073D01*
X137462456Y-92916976D01*
X137261976Y-92879500D01*
X137058024Y-92879500D01*
X136857544Y-92916976D01*
X136857541Y-92916976D01*
X136857541Y-92916977D01*
X136667364Y-92990651D01*
X136667357Y-92990655D01*
X136493960Y-93098017D01*
X136493958Y-93098019D01*
X136343237Y-93235418D01*
X136220327Y-93398178D01*
X136129422Y-93580739D01*
X136129417Y-93580752D01*
X136073602Y-93776917D01*
X136054785Y-93979999D01*
X136054785Y-93980000D01*
X136073602Y-94183082D01*
X136129417Y-94379247D01*
X136129422Y-94379260D01*
X136220327Y-94561821D01*
X136343237Y-94724581D01*
X136493958Y-94861980D01*
X136493960Y-94861982D01*
X136576874Y-94913320D01*
X136667363Y-94969348D01*
X136857544Y-95043024D01*
X137058024Y-95080500D01*
X137058026Y-95080500D01*
X137261974Y-95080500D01*
X137261976Y-95080500D01*
X137462456Y-95043024D01*
X137652637Y-94969348D01*
X137826041Y-94861981D01*
X137961388Y-94738596D01*
X137976762Y-94724581D01*
X137980451Y-94719696D01*
X138099673Y-94561821D01*
X138165924Y-94428769D01*
X138213424Y-94377536D01*
X138281087Y-94360114D01*
X138282058Y-94360150D01*
X138287260Y-94360365D01*
X138287268Y-94360367D01*
X138297744Y-94359061D01*
X138322492Y-94355977D01*
X138330168Y-94355500D01*
X138334112Y-94355500D01*
X138334114Y-94355500D01*
X138334116Y-94355499D01*
X138334122Y-94355499D01*
X138349487Y-94352934D01*
X138357140Y-94351657D01*
X138411626Y-94344866D01*
X138411627Y-94344865D01*
X138411629Y-94344865D01*
X138419141Y-94342628D01*
X138426606Y-94340066D01*
X138426606Y-94340065D01*
X138426610Y-94340065D01*
X138474877Y-94313944D01*
X138524211Y-94289826D01*
X138524213Y-94289823D01*
X138530594Y-94285268D01*
X138536819Y-94280422D01*
X138536826Y-94280419D01*
X138574008Y-94240028D01*
X138847821Y-93966214D01*
X138909142Y-93932731D01*
X138978833Y-93937715D01*
X139034767Y-93979586D01*
X139059184Y-94045051D01*
X139059500Y-94053897D01*
X139059500Y-95054099D01*
X139039815Y-95121138D01*
X139023181Y-95141780D01*
X138255123Y-95909837D01*
X138193800Y-95943322D01*
X138124108Y-95938338D01*
X138068488Y-95896883D01*
X137976762Y-95775418D01*
X137826041Y-95638019D01*
X137826039Y-95638017D01*
X137652642Y-95530655D01*
X137652635Y-95530651D01*
X137557546Y-95493814D01*
X137462456Y-95456976D01*
X137261976Y-95419500D01*
X137058024Y-95419500D01*
X136857544Y-95456976D01*
X136857541Y-95456976D01*
X136857541Y-95456977D01*
X136667364Y-95530651D01*
X136667357Y-95530655D01*
X136493960Y-95638017D01*
X136493958Y-95638019D01*
X136343237Y-95775418D01*
X136220327Y-95938178D01*
X136129422Y-96120739D01*
X136129417Y-96120752D01*
X136073602Y-96316917D01*
X136054785Y-96519999D01*
X136054785Y-96520000D01*
X136073602Y-96723082D01*
X136129417Y-96919247D01*
X136129422Y-96919260D01*
X136220327Y-97101821D01*
X136343237Y-97264581D01*
X136493958Y-97401980D01*
X136493960Y-97401982D01*
X136593141Y-97463392D01*
X136667363Y-97509348D01*
X136857544Y-97583024D01*
X137058024Y-97620500D01*
X137058026Y-97620500D01*
X137261974Y-97620500D01*
X137261976Y-97620500D01*
X137462456Y-97583024D01*
X137652637Y-97509348D01*
X137826041Y-97401981D01*
X137976764Y-97264579D01*
X138099673Y-97101821D01*
X138172963Y-96954633D01*
X138220463Y-96903400D01*
X138268626Y-96886860D01*
X138284626Y-96884866D01*
X138284628Y-96884864D01*
X138292141Y-96882628D01*
X138299606Y-96880066D01*
X138299606Y-96880065D01*
X138299610Y-96880065D01*
X138347877Y-96853944D01*
X138397211Y-96829826D01*
X138397213Y-96829823D01*
X138403594Y-96825268D01*
X138409819Y-96820422D01*
X138409826Y-96820419D01*
X138447007Y-96780029D01*
X139297820Y-95929216D01*
X139359142Y-95895732D01*
X139428834Y-95900716D01*
X139484767Y-95942588D01*
X139509184Y-96008052D01*
X139509500Y-96016898D01*
X139509500Y-97583100D01*
X139489815Y-97650139D01*
X139473181Y-97670781D01*
X138495781Y-98648181D01*
X138434458Y-98681666D01*
X138408100Y-98684500D01*
X138279185Y-98684500D01*
X138212146Y-98664815D01*
X138168186Y-98615774D01*
X138099673Y-98478179D01*
X137976764Y-98315421D01*
X137976762Y-98315418D01*
X137826041Y-98178019D01*
X137826039Y-98178017D01*
X137652642Y-98070655D01*
X137652635Y-98070651D01*
X137474260Y-98001549D01*
X137462456Y-97996976D01*
X137261976Y-97959500D01*
X137058024Y-97959500D01*
X136857544Y-97996976D01*
X136857541Y-97996976D01*
X136857541Y-97996977D01*
X136667364Y-98070651D01*
X136667357Y-98070655D01*
X136493960Y-98178017D01*
X136493958Y-98178019D01*
X136343237Y-98315418D01*
X136220327Y-98478178D01*
X136129422Y-98660739D01*
X136129417Y-98660752D01*
X136073602Y-98856917D01*
X136054785Y-99059999D01*
X136054785Y-99060000D01*
X136073602Y-99263082D01*
X136129417Y-99459247D01*
X136129422Y-99459260D01*
X136220327Y-99641821D01*
X136343237Y-99804581D01*
X136493958Y-99941980D01*
X136493960Y-99941982D01*
X136593141Y-100003392D01*
X136667363Y-100049348D01*
X136857544Y-100123024D01*
X137058024Y-100160500D01*
X137058026Y-100160500D01*
X137261974Y-100160500D01*
X137261976Y-100160500D01*
X137462456Y-100123024D01*
X137652637Y-100049348D01*
X137826041Y-99941981D01*
X137976764Y-99804579D01*
X138099673Y-99641821D01*
X138168186Y-99504226D01*
X138215687Y-99452992D01*
X138279185Y-99435500D01*
X138563196Y-99435500D01*
X138588641Y-99438139D01*
X138592440Y-99438935D01*
X138599268Y-99440367D01*
X138620225Y-99437754D01*
X138634492Y-99435977D01*
X138642168Y-99435500D01*
X138646112Y-99435500D01*
X138646114Y-99435500D01*
X138646116Y-99435499D01*
X138646122Y-99435499D01*
X138661487Y-99432934D01*
X138669140Y-99431657D01*
X138723626Y-99424866D01*
X138723627Y-99424865D01*
X138723629Y-99424865D01*
X138731141Y-99422628D01*
X138738606Y-99420066D01*
X138738606Y-99420065D01*
X138738610Y-99420065D01*
X138786877Y-99393944D01*
X138836211Y-99369826D01*
X138836213Y-99369823D01*
X138842594Y-99365268D01*
X138848819Y-99360422D01*
X138848826Y-99360419D01*
X138886008Y-99320028D01*
X139747820Y-98458216D01*
X139809142Y-98424732D01*
X139878834Y-98429716D01*
X139934767Y-98471588D01*
X139959184Y-98537052D01*
X139959500Y-98545898D01*
X139959500Y-100123100D01*
X139939815Y-100190139D01*
X139923181Y-100210781D01*
X138945781Y-101188181D01*
X138884458Y-101221666D01*
X138858100Y-101224500D01*
X138279185Y-101224500D01*
X138212146Y-101204815D01*
X138168186Y-101155774D01*
X138099673Y-101018179D01*
X137976764Y-100855421D01*
X137976762Y-100855418D01*
X137826041Y-100718019D01*
X137826039Y-100718017D01*
X137652642Y-100610655D01*
X137652635Y-100610651D01*
X137463705Y-100537460D01*
X137462456Y-100536976D01*
X137261976Y-100499500D01*
X137058024Y-100499500D01*
X136857544Y-100536976D01*
X136857541Y-100536976D01*
X136857541Y-100536977D01*
X136667364Y-100610651D01*
X136667357Y-100610655D01*
X136493960Y-100718017D01*
X136493958Y-100718019D01*
X136343237Y-100855418D01*
X136220327Y-101018178D01*
X136129422Y-101200739D01*
X136129417Y-101200752D01*
X136073602Y-101396917D01*
X136054785Y-101599999D01*
X136054785Y-101600000D01*
X136073602Y-101803082D01*
X136129417Y-101999247D01*
X136129422Y-101999260D01*
X136220327Y-102181821D01*
X136343237Y-102344581D01*
X136493958Y-102481980D01*
X136493960Y-102481982D01*
X136531136Y-102505000D01*
X136667363Y-102589348D01*
X136857544Y-102663024D01*
X137058024Y-102700500D01*
X137058026Y-102700500D01*
X137261974Y-102700500D01*
X137261976Y-102700500D01*
X137462456Y-102663024D01*
X137652637Y-102589348D01*
X137826041Y-102481981D01*
X137976764Y-102344579D01*
X138099673Y-102181821D01*
X138168186Y-102044226D01*
X138215687Y-101992992D01*
X138279185Y-101975500D01*
X139013196Y-101975500D01*
X139038641Y-101978139D01*
X139042440Y-101978935D01*
X139049268Y-101980367D01*
X139070225Y-101977754D01*
X139084492Y-101975977D01*
X139092168Y-101975500D01*
X139096112Y-101975500D01*
X139096114Y-101975500D01*
X139096116Y-101975499D01*
X139096122Y-101975499D01*
X139111487Y-101972934D01*
X139119140Y-101971657D01*
X139173626Y-101964866D01*
X139173627Y-101964865D01*
X139173629Y-101964865D01*
X139181141Y-101962628D01*
X139188606Y-101960066D01*
X139188606Y-101960065D01*
X139188610Y-101960065D01*
X139236877Y-101933944D01*
X139286211Y-101909826D01*
X139286213Y-101909823D01*
X139292594Y-101905268D01*
X139298819Y-101900422D01*
X139298826Y-101900419D01*
X139336008Y-101860028D01*
X139521034Y-101675002D01*
X141274723Y-101675002D01*
X141278117Y-101713794D01*
X141290910Y-101860028D01*
X141293793Y-101892975D01*
X141293793Y-101892979D01*
X141350422Y-102104322D01*
X141350424Y-102104326D01*
X141350425Y-102104330D01*
X141362605Y-102130450D01*
X141442897Y-102302638D01*
X141442898Y-102302639D01*
X141568402Y-102481877D01*
X141723123Y-102636598D01*
X141902361Y-102762102D01*
X142100670Y-102854575D01*
X142312023Y-102911207D01*
X142494926Y-102927208D01*
X142529998Y-102930277D01*
X142530000Y-102930277D01*
X142530002Y-102930277D01*
X142558254Y-102927805D01*
X142747977Y-102911207D01*
X142959330Y-102854575D01*
X143157639Y-102762102D01*
X143336877Y-102636598D01*
X143491598Y-102481877D01*
X143617102Y-102302639D01*
X143709575Y-102104330D01*
X143766207Y-101892977D01*
X143785277Y-101675000D01*
X145775225Y-101675000D01*
X145794287Y-101892884D01*
X145794289Y-101892894D01*
X145850894Y-102104150D01*
X145850898Y-102104159D01*
X145943332Y-102302386D01*
X145943333Y-102302388D01*
X146059676Y-102468545D01*
X146059677Y-102468545D01*
X146464767Y-102063454D01*
X146526090Y-102029969D01*
X146595781Y-102034953D01*
X146643111Y-102066541D01*
X146644477Y-102068005D01*
X146675820Y-102130450D01*
X146668426Y-102199927D01*
X146641495Y-102240280D01*
X146236453Y-102645321D01*
X146402612Y-102761666D01*
X146600840Y-102854101D01*
X146600849Y-102854105D01*
X146812105Y-102910710D01*
X146812115Y-102910712D01*
X147029999Y-102929775D01*
X147030001Y-102929775D01*
X147247884Y-102910712D01*
X147247894Y-102910710D01*
X147459150Y-102854105D01*
X147459159Y-102854101D01*
X147657387Y-102761666D01*
X147823545Y-102645321D01*
X147420640Y-102242417D01*
X147387155Y-102181094D01*
X147392139Y-102111403D01*
X147430100Y-102058521D01*
X147431663Y-102057249D01*
X147496099Y-102030235D01*
X147564911Y-102042346D01*
X147597563Y-102065786D01*
X148000321Y-102468545D01*
X148116666Y-102302387D01*
X148209101Y-102104159D01*
X148209105Y-102104150D01*
X148265710Y-101892894D01*
X148265712Y-101892884D01*
X148284775Y-101675000D01*
X148284775Y-101674999D01*
X148267277Y-101474999D01*
X151306869Y-101474999D01*
X151306870Y-101475000D01*
X151776000Y-101475000D01*
X151843039Y-101494685D01*
X151888794Y-101547489D01*
X151900000Y-101599000D01*
X151900000Y-101601000D01*
X151880315Y-101668039D01*
X151827511Y-101713794D01*
X151776000Y-101725000D01*
X151306870Y-101725000D01*
X151314097Y-101802989D01*
X151314097Y-101802992D01*
X151369883Y-101999063D01*
X151369886Y-101999069D01*
X151460754Y-102181556D01*
X151583608Y-102344242D01*
X151734260Y-102481578D01*
X151907584Y-102588897D01*
X152097678Y-102662539D01*
X152275000Y-102695686D01*
X152275000Y-102224000D01*
X152294685Y-102156961D01*
X152347489Y-102111206D01*
X152399000Y-102100000D01*
X152401000Y-102100000D01*
X152468039Y-102119685D01*
X152513794Y-102172489D01*
X152525000Y-102224000D01*
X152525000Y-102695686D01*
X152702321Y-102662539D01*
X152892415Y-102588897D01*
X153065739Y-102481578D01*
X153216391Y-102344242D01*
X153339245Y-102181556D01*
X153430113Y-101999069D01*
X153430116Y-101999063D01*
X153485902Y-101802992D01*
X153485902Y-101802989D01*
X153493130Y-101725000D01*
X153024000Y-101725000D01*
X152956961Y-101705315D01*
X152911206Y-101652511D01*
X152900000Y-101601000D01*
X152900000Y-101599000D01*
X152919685Y-101531961D01*
X152972489Y-101486206D01*
X153024000Y-101475000D01*
X153493130Y-101475000D01*
X153493130Y-101474999D01*
X153485902Y-101397010D01*
X153485902Y-101397007D01*
X153430116Y-101200936D01*
X153430113Y-101200930D01*
X153339245Y-101018443D01*
X153216391Y-100855757D01*
X153065739Y-100718421D01*
X152892415Y-100611102D01*
X152702321Y-100537460D01*
X152525000Y-100504312D01*
X152525000Y-100976000D01*
X152505315Y-101043039D01*
X152452511Y-101088794D01*
X152401000Y-101100000D01*
X152399000Y-101100000D01*
X152331961Y-101080315D01*
X152286206Y-101027511D01*
X152275000Y-100976000D01*
X152274999Y-100504312D01*
X152097678Y-100537460D01*
X151907584Y-100611102D01*
X151734260Y-100718421D01*
X151583608Y-100855757D01*
X151460754Y-101018443D01*
X151369886Y-101200930D01*
X151369883Y-101200936D01*
X151314097Y-101397007D01*
X151314097Y-101397010D01*
X151306869Y-101474999D01*
X148267277Y-101474999D01*
X148265712Y-101457115D01*
X148265710Y-101457105D01*
X148209105Y-101245849D01*
X148209101Y-101245840D01*
X148116668Y-101047615D01*
X148000320Y-100881454D01*
X147595231Y-101286543D01*
X147533908Y-101320028D01*
X147464216Y-101315044D01*
X147416916Y-101283487D01*
X147415550Y-101282024D01*
X147384186Y-101219590D01*
X147391555Y-101150110D01*
X147418503Y-101109718D01*
X147823545Y-100704677D01*
X147823545Y-100704676D01*
X147657388Y-100588333D01*
X147657386Y-100588332D01*
X147459159Y-100495898D01*
X147459150Y-100495894D01*
X147247894Y-100439289D01*
X147247884Y-100439287D01*
X147030001Y-100420225D01*
X147029999Y-100420225D01*
X146812115Y-100439287D01*
X146812105Y-100439289D01*
X146600849Y-100495894D01*
X146600840Y-100495898D01*
X146402613Y-100588333D01*
X146236454Y-100704678D01*
X146639359Y-101107582D01*
X146672844Y-101168905D01*
X146667860Y-101238596D01*
X146629927Y-101291456D01*
X146628367Y-101292725D01*
X146563940Y-101319759D01*
X146495124Y-101307670D01*
X146462437Y-101284213D01*
X146059678Y-100881454D01*
X145943333Y-101047613D01*
X145850898Y-101245840D01*
X145850894Y-101245849D01*
X145794289Y-101457105D01*
X145794287Y-101457115D01*
X145775225Y-101674999D01*
X145775225Y-101675000D01*
X143785277Y-101675000D01*
X143781962Y-101637114D01*
X143778803Y-101601000D01*
X143766207Y-101457023D01*
X143709575Y-101245670D01*
X143617102Y-101047362D01*
X143617100Y-101047359D01*
X143617099Y-101047357D01*
X143491599Y-100868124D01*
X143478893Y-100855418D01*
X143336877Y-100713402D01*
X143189324Y-100610084D01*
X143157638Y-100587897D01*
X143049474Y-100537460D01*
X142959330Y-100495425D01*
X142959326Y-100495424D01*
X142959322Y-100495422D01*
X142747977Y-100438793D01*
X142530002Y-100419723D01*
X142529998Y-100419723D01*
X142384681Y-100432436D01*
X142312023Y-100438793D01*
X142312020Y-100438793D01*
X142100677Y-100495422D01*
X142100668Y-100495426D01*
X141902361Y-100587898D01*
X141902357Y-100587900D01*
X141723121Y-100713402D01*
X141568402Y-100868121D01*
X141442900Y-101047357D01*
X141442898Y-101047361D01*
X141392346Y-101155771D01*
X141351042Y-101244348D01*
X141350426Y-101245668D01*
X141350422Y-101245677D01*
X141293793Y-101457020D01*
X141293793Y-101457024D01*
X141274723Y-101674997D01*
X141274723Y-101675002D01*
X139521034Y-101675002D01*
X140563889Y-100632146D01*
X140583746Y-100616022D01*
X140592836Y-100610084D01*
X140614638Y-100582071D01*
X140619733Y-100576303D01*
X140622519Y-100573518D01*
X140622528Y-100573506D01*
X140636086Y-100554516D01*
X140669807Y-100511192D01*
X140673547Y-100504278D01*
X140677006Y-100497203D01*
X140677010Y-100497199D01*
X140684196Y-100473061D01*
X140692672Y-100444593D01*
X140710500Y-100392661D01*
X140711791Y-100384924D01*
X140712768Y-100377086D01*
X140710500Y-100322244D01*
X140710500Y-94839979D01*
X140730185Y-94772940D01*
X140782989Y-94727185D01*
X140852147Y-94717241D01*
X140864175Y-94719582D01*
X140864632Y-94719694D01*
X140864635Y-94719696D01*
X141018015Y-94757500D01*
X141183485Y-94757500D01*
X141183485Y-94760249D01*
X141239673Y-94769576D01*
X141291472Y-94816465D01*
X141309699Y-94883916D01*
X141305503Y-94913320D01*
X141293793Y-94957020D01*
X141293793Y-94957024D01*
X141274723Y-95174997D01*
X141274723Y-95175002D01*
X141293793Y-95392975D01*
X141293793Y-95392979D01*
X141350422Y-95604322D01*
X141350424Y-95604326D01*
X141350425Y-95604330D01*
X141371418Y-95649349D01*
X141442897Y-95802638D01*
X141442898Y-95802639D01*
X141568402Y-95981877D01*
X141723123Y-96136598D01*
X141902361Y-96262102D01*
X142100670Y-96354575D01*
X142312023Y-96411207D01*
X142494926Y-96427208D01*
X142529998Y-96430277D01*
X142530000Y-96430277D01*
X142530002Y-96430277D01*
X142558254Y-96427805D01*
X142747977Y-96411207D01*
X142959330Y-96354575D01*
X143030137Y-96321556D01*
X143099212Y-96311065D01*
X143162996Y-96339584D01*
X143170221Y-96346258D01*
X144715849Y-97891886D01*
X144731977Y-97911745D01*
X144737916Y-97920836D01*
X144765932Y-97942641D01*
X144771693Y-97947730D01*
X144774482Y-97950519D01*
X144793483Y-97964085D01*
X144830552Y-97992937D01*
X144836811Y-97997809D01*
X144843722Y-98001549D01*
X144850800Y-98005010D01*
X144900432Y-98019786D01*
X144903405Y-98020671D01*
X144955340Y-98038500D01*
X144955342Y-98038500D01*
X144963079Y-98039791D01*
X144970909Y-98040767D01*
X144970911Y-98040768D01*
X144970912Y-98040767D01*
X144970913Y-98040768D01*
X145025755Y-98038500D01*
X150660692Y-98038500D01*
X150727731Y-98058185D01*
X150762742Y-98092061D01*
X150766517Y-98097530D01*
X150884760Y-98202283D01*
X150884762Y-98202284D01*
X151024634Y-98275696D01*
X151178014Y-98313500D01*
X151342061Y-98313500D01*
X151409100Y-98333185D01*
X151454855Y-98385989D01*
X151464799Y-98455147D01*
X151453061Y-98492772D01*
X151369422Y-98660739D01*
X151369417Y-98660752D01*
X151313602Y-98856917D01*
X151294785Y-99059999D01*
X151294785Y-99060000D01*
X151313602Y-99263082D01*
X151369417Y-99459247D01*
X151369422Y-99459260D01*
X151460327Y-99641821D01*
X151583237Y-99804581D01*
X151733958Y-99941980D01*
X151733960Y-99941982D01*
X151833141Y-100003392D01*
X151907363Y-100049348D01*
X152097544Y-100123024D01*
X152298024Y-100160500D01*
X152298026Y-100160500D01*
X152501974Y-100160500D01*
X152501976Y-100160500D01*
X152702456Y-100123024D01*
X152892637Y-100049348D01*
X153066041Y-99941981D01*
X153216764Y-99804579D01*
X153339673Y-99641821D01*
X153430582Y-99459250D01*
X153486397Y-99263083D01*
X153505215Y-99060000D01*
X153486397Y-98856917D01*
X153430582Y-98660750D01*
X153424323Y-98648181D01*
X153346939Y-98492772D01*
X153339673Y-98478179D01*
X153216764Y-98315421D01*
X153216762Y-98315418D01*
X153066041Y-98178019D01*
X153066039Y-98178017D01*
X152892642Y-98070655D01*
X152892635Y-98070651D01*
X152714260Y-98001549D01*
X152702456Y-97996976D01*
X152501976Y-97959500D01*
X152298024Y-97959500D01*
X152211801Y-97975617D01*
X152097536Y-97996977D01*
X152038660Y-98019786D01*
X151969037Y-98025647D01*
X151907297Y-97992937D01*
X151873043Y-97932040D01*
X151877150Y-97862291D01*
X151877927Y-97860186D01*
X151893237Y-97819818D01*
X151910657Y-97676342D01*
X151938278Y-97612167D01*
X151996212Y-97573110D01*
X152066065Y-97571575D01*
X152078543Y-97575663D01*
X152097544Y-97583024D01*
X152298024Y-97620500D01*
X152298026Y-97620500D01*
X152501974Y-97620500D01*
X152501976Y-97620500D01*
X152702456Y-97583024D01*
X152892637Y-97509348D01*
X153066041Y-97401981D01*
X153216764Y-97264579D01*
X153339673Y-97101821D01*
X153430582Y-96919250D01*
X153486397Y-96723083D01*
X153505215Y-96520000D01*
X153486397Y-96316917D01*
X153430582Y-96120750D01*
X153424193Y-96107920D01*
X153354793Y-95968545D01*
X153339673Y-95938179D01*
X153216764Y-95775421D01*
X153216762Y-95775418D01*
X153066041Y-95638019D01*
X153066039Y-95638017D01*
X152892642Y-95530655D01*
X152892635Y-95530651D01*
X152797546Y-95493813D01*
X152702456Y-95456976D01*
X152501976Y-95419500D01*
X152298024Y-95419500D01*
X152097544Y-95456976D01*
X152097541Y-95456976D01*
X152097541Y-95456977D01*
X151907364Y-95530651D01*
X151907357Y-95530655D01*
X151733960Y-95638017D01*
X151733958Y-95638019D01*
X151583237Y-95775418D01*
X151460325Y-95938180D01*
X151409994Y-96039261D01*
X151362492Y-96090499D01*
X151294829Y-96107920D01*
X151228488Y-96085995D01*
X151211313Y-96071671D01*
X150214823Y-95075181D01*
X150181338Y-95013858D01*
X150186322Y-94944166D01*
X150228194Y-94888233D01*
X150293658Y-94863816D01*
X150302504Y-94863500D01*
X151701131Y-94863500D01*
X151766408Y-94882073D01*
X151769385Y-94883916D01*
X151907363Y-94969348D01*
X152097544Y-95043024D01*
X152298024Y-95080500D01*
X152298026Y-95080500D01*
X152501974Y-95080500D01*
X152501976Y-95080500D01*
X152702456Y-95043024D01*
X152892637Y-94969348D01*
X153066041Y-94861981D01*
X153201388Y-94738596D01*
X153216762Y-94724581D01*
X153220451Y-94719696D01*
X153339673Y-94561821D01*
X153430582Y-94379250D01*
X153486397Y-94183083D01*
X153505215Y-93980000D01*
X153504367Y-93970853D01*
X153486397Y-93776917D01*
X153480029Y-93754536D01*
X153430582Y-93580750D01*
X153428563Y-93576696D01*
X153368713Y-93456500D01*
X153339673Y-93398179D01*
X153241762Y-93268524D01*
X153216762Y-93235418D01*
X153066041Y-93098019D01*
X153066039Y-93098017D01*
X152892642Y-92990655D01*
X152892635Y-92990651D01*
X152710450Y-92920073D01*
X152702456Y-92916976D01*
X152501976Y-92879500D01*
X152298024Y-92879500D01*
X152097544Y-92916976D01*
X152097541Y-92916976D01*
X152097541Y-92916977D01*
X151907364Y-92990651D01*
X151907357Y-92990655D01*
X151733960Y-93098017D01*
X151733958Y-93098019D01*
X151583237Y-93235418D01*
X151460327Y-93398178D01*
X151369422Y-93580739D01*
X151369417Y-93580752D01*
X151313602Y-93776917D01*
X151294785Y-93979999D01*
X151294785Y-93985733D01*
X151292819Y-93985733D01*
X151281089Y-94045644D01*
X151232725Y-94096069D01*
X151171041Y-94112500D01*
X150354026Y-94112500D01*
X150286987Y-94092815D01*
X150241232Y-94040011D01*
X150231288Y-93970853D01*
X150257575Y-93913291D01*
X150256722Y-93912703D01*
X150260038Y-93907898D01*
X150260313Y-93907297D01*
X150260972Y-93906545D01*
X150260981Y-93906531D01*
X150260983Y-93906530D01*
X150350720Y-93776523D01*
X150406737Y-93628818D01*
X150425778Y-93472000D01*
X150423232Y-93451027D01*
X150406737Y-93315181D01*
X150376488Y-93235421D01*
X150350720Y-93167477D01*
X150260983Y-93037470D01*
X150150272Y-92939390D01*
X150113146Y-92880201D01*
X150108500Y-92846575D01*
X150108500Y-92535899D01*
X150128185Y-92468860D01*
X150144819Y-92448218D01*
X150741219Y-91851819D01*
X150802542Y-91818334D01*
X150828900Y-91815500D01*
X151280815Y-91815500D01*
X151347854Y-91835185D01*
X151391813Y-91884225D01*
X151460327Y-92021821D01*
X151460329Y-92021823D01*
X151583237Y-92184581D01*
X151733958Y-92321980D01*
X151733960Y-92321982D01*
X151781317Y-92351304D01*
X151907363Y-92429348D01*
X152097544Y-92503024D01*
X152298024Y-92540500D01*
X152298026Y-92540500D01*
X152501974Y-92540500D01*
X152501976Y-92540500D01*
X152702456Y-92503024D01*
X152892637Y-92429348D01*
X153066041Y-92321981D01*
X153216764Y-92184579D01*
X153339673Y-92021821D01*
X153430582Y-91839250D01*
X153486397Y-91643083D01*
X153505215Y-91440000D01*
X153486397Y-91236917D01*
X153430582Y-91040750D01*
X153424323Y-91028181D01*
X153361088Y-90901186D01*
X153339673Y-90858179D01*
X153216764Y-90695421D01*
X153216762Y-90695418D01*
X153066041Y-90558019D01*
X153066039Y-90558017D01*
X152892642Y-90450655D01*
X152892635Y-90450651D01*
X152797546Y-90413813D01*
X152702456Y-90376976D01*
X152501976Y-90339500D01*
X152298024Y-90339500D01*
X152097544Y-90376976D01*
X152097541Y-90376976D01*
X152097541Y-90376977D01*
X151907364Y-90450651D01*
X151907357Y-90450655D01*
X151733960Y-90558017D01*
X151733958Y-90558019D01*
X151583237Y-90695418D01*
X151460329Y-90858176D01*
X151460327Y-90858179D01*
X151391813Y-90995773D01*
X151344313Y-91047008D01*
X151280815Y-91064500D01*
X150828899Y-91064500D01*
X150761860Y-91044815D01*
X150741218Y-91028181D01*
X149706111Y-89993074D01*
X149672626Y-89931751D01*
X149677610Y-89862059D01*
X149719482Y-89806126D01*
X149764118Y-89784996D01*
X149838365Y-89766696D01*
X149892053Y-89738518D01*
X149978240Y-89693283D01*
X150096483Y-89588530D01*
X150186220Y-89458523D01*
X150242237Y-89310818D01*
X150261278Y-89154000D01*
X150255096Y-89103082D01*
X150242237Y-88997181D01*
X150205380Y-88900000D01*
X151294785Y-88900000D01*
X151313602Y-89103082D01*
X151369417Y-89299247D01*
X151369422Y-89299260D01*
X151460327Y-89481821D01*
X151583237Y-89644581D01*
X151733958Y-89781980D01*
X151733960Y-89781982D01*
X151777063Y-89808670D01*
X151907363Y-89889348D01*
X152097544Y-89963024D01*
X152298024Y-90000500D01*
X152298026Y-90000500D01*
X152501974Y-90000500D01*
X152501976Y-90000500D01*
X152702456Y-89963024D01*
X152892637Y-89889348D01*
X153066041Y-89781981D01*
X153216764Y-89644579D01*
X153339673Y-89481821D01*
X153430582Y-89299250D01*
X153486397Y-89103083D01*
X153505215Y-88900000D01*
X153500533Y-88849477D01*
X153486397Y-88696917D01*
X153453842Y-88582500D01*
X153430582Y-88500750D01*
X153430574Y-88500734D01*
X153356008Y-88350985D01*
X153339673Y-88318179D01*
X153216764Y-88155421D01*
X153216762Y-88155418D01*
X153066041Y-88018019D01*
X153066039Y-88018017D01*
X152892642Y-87910655D01*
X152892635Y-87910651D01*
X152797546Y-87873814D01*
X152702456Y-87836976D01*
X152501976Y-87799500D01*
X152298024Y-87799500D01*
X152097544Y-87836976D01*
X152097541Y-87836976D01*
X152097541Y-87836977D01*
X151907364Y-87910651D01*
X151907357Y-87910655D01*
X151733960Y-88018017D01*
X151733958Y-88018019D01*
X151583237Y-88155418D01*
X151460327Y-88318178D01*
X151369422Y-88500739D01*
X151369417Y-88500752D01*
X151313602Y-88696917D01*
X151294785Y-88899999D01*
X151294785Y-88900000D01*
X150205380Y-88900000D01*
X150205380Y-88899999D01*
X150186220Y-88849477D01*
X150112850Y-88743182D01*
X150096482Y-88719468D01*
X150046643Y-88675316D01*
X150009516Y-88616127D01*
X150010282Y-88546261D01*
X150046643Y-88489684D01*
X150096482Y-88445531D01*
X150096483Y-88445530D01*
X150186220Y-88315523D01*
X150242237Y-88167818D01*
X150261278Y-88011000D01*
X150242237Y-87854182D01*
X150218832Y-87792470D01*
X150213466Y-87722808D01*
X150246613Y-87661302D01*
X150307751Y-87627481D01*
X150334775Y-87624500D01*
X151459196Y-87624500D01*
X151484641Y-87627139D01*
X151488440Y-87627935D01*
X151495268Y-87629367D01*
X151516225Y-87626754D01*
X151530492Y-87624977D01*
X151538168Y-87624500D01*
X151542112Y-87624500D01*
X151542114Y-87624500D01*
X151542116Y-87624499D01*
X151542122Y-87624499D01*
X151557487Y-87621934D01*
X151565140Y-87620657D01*
X151619626Y-87613866D01*
X151619627Y-87613865D01*
X151619629Y-87613865D01*
X151627141Y-87611628D01*
X151634606Y-87609066D01*
X151634606Y-87609065D01*
X151634610Y-87609065D01*
X151682877Y-87582944D01*
X151732211Y-87558826D01*
X151732213Y-87558823D01*
X151738594Y-87554268D01*
X151744819Y-87549422D01*
X151744826Y-87549419D01*
X151782007Y-87509029D01*
X151874973Y-87416062D01*
X151936292Y-87382580D01*
X152005984Y-87387564D01*
X152007444Y-87388119D01*
X152097544Y-87423024D01*
X152298024Y-87460500D01*
X152298026Y-87460500D01*
X152501974Y-87460500D01*
X152501976Y-87460500D01*
X152702456Y-87423024D01*
X152892637Y-87349348D01*
X153066041Y-87241981D01*
X153216764Y-87104579D01*
X153339673Y-86941821D01*
X153430582Y-86759250D01*
X153486397Y-86563083D01*
X153505215Y-86360000D01*
X153486397Y-86156917D01*
X153430582Y-85960750D01*
X153419188Y-85937868D01*
X153349445Y-85797804D01*
X153339673Y-85778179D01*
X153254599Y-85665523D01*
X153216762Y-85615418D01*
X153066041Y-85478019D01*
X153066039Y-85478017D01*
X152892642Y-85370655D01*
X152892635Y-85370651D01*
X152766266Y-85321696D01*
X152702456Y-85296976D01*
X152501976Y-85259500D01*
X152298024Y-85259500D01*
X152197783Y-85278238D01*
X152097542Y-85296976D01*
X152097534Y-85296979D01*
X152007444Y-85331879D01*
X151937821Y-85337740D01*
X151876081Y-85305030D01*
X151874971Y-85303933D01*
X151703219Y-85132181D01*
X151669734Y-85070858D01*
X151674718Y-85001166D01*
X151716590Y-84945233D01*
X151782054Y-84920816D01*
X151790900Y-84920500D01*
X153274676Y-84920500D01*
X153274677Y-84920499D01*
X153347740Y-84905966D01*
X153430601Y-84850601D01*
X153485966Y-84767740D01*
X153500500Y-84694674D01*
X153500500Y-82945326D01*
X153500500Y-82945325D01*
X153500500Y-82945323D01*
X153500499Y-82945321D01*
X153485967Y-82872264D01*
X153485966Y-82872260D01*
X153468877Y-82846684D01*
X153430601Y-82789399D01*
X153375234Y-82752405D01*
X153347739Y-82734033D01*
X153347735Y-82734032D01*
X153274677Y-82719500D01*
X153274674Y-82719500D01*
X151525326Y-82719500D01*
X151525323Y-82719500D01*
X151452264Y-82734032D01*
X151452258Y-82734034D01*
X151444387Y-82739294D01*
X151377709Y-82760169D01*
X151310329Y-82741682D01*
X151263641Y-82689702D01*
X151251500Y-82636189D01*
X151251500Y-82248898D01*
X151271185Y-82181859D01*
X151287819Y-82161217D01*
X151920536Y-81528500D01*
X152628889Y-80820146D01*
X152648746Y-80804022D01*
X152657836Y-80798084D01*
X152679638Y-80770071D01*
X152684733Y-80764303D01*
X152687519Y-80761518D01*
X152687528Y-80761506D01*
X152701086Y-80742516D01*
X152734807Y-80699192D01*
X152738547Y-80692278D01*
X152742006Y-80685203D01*
X152742010Y-80685199D01*
X152749196Y-80661061D01*
X152757672Y-80632593D01*
X152775500Y-80580661D01*
X152776791Y-80572924D01*
X152777768Y-80565086D01*
X152775500Y-80510244D01*
X152775500Y-77319668D01*
X152795185Y-77252629D01*
X152847989Y-77206874D01*
X152854679Y-77204052D01*
X152892637Y-77189348D01*
X153066041Y-77081981D01*
X153216764Y-76944579D01*
X153339673Y-76781821D01*
X153430582Y-76599250D01*
X153486397Y-76403083D01*
X153505215Y-76200000D01*
X153486397Y-75996917D01*
X153430582Y-75800750D01*
X153339673Y-75618179D01*
X153216764Y-75455421D01*
X153216762Y-75455418D01*
X153066041Y-75318019D01*
X153066039Y-75318017D01*
X152892642Y-75210655D01*
X152892635Y-75210651D01*
X152758104Y-75158534D01*
X152702456Y-75136976D01*
X152501976Y-75099500D01*
X152298024Y-75099500D01*
X152097544Y-75136976D01*
X152097541Y-75136976D01*
X152097541Y-75136977D01*
X151907364Y-75210651D01*
X151907357Y-75210655D01*
X151733960Y-75318017D01*
X151733958Y-75318019D01*
X151583237Y-75455418D01*
X151460327Y-75618178D01*
X151369422Y-75800739D01*
X151369417Y-75800752D01*
X151313602Y-75996917D01*
X151294785Y-76199999D01*
X151294785Y-76200000D01*
X151313602Y-76403082D01*
X151369417Y-76599247D01*
X151369422Y-76599260D01*
X151460327Y-76781821D01*
X151583237Y-76944581D01*
X151733958Y-77081980D01*
X151733960Y-77081982D01*
X151833141Y-77143392D01*
X151907363Y-77189348D01*
X151945293Y-77204042D01*
X152000694Y-77246612D01*
X152024286Y-77312378D01*
X152024500Y-77319668D01*
X152024500Y-80311099D01*
X152004815Y-80378138D01*
X151988181Y-80398780D01*
X151346643Y-81040317D01*
X151285320Y-81073802D01*
X151215628Y-81068818D01*
X151159695Y-81026946D01*
X151135278Y-80961482D01*
X151135865Y-80937695D01*
X151150278Y-80819000D01*
X151131237Y-80662182D01*
X151120015Y-80632593D01*
X151097386Y-80572924D01*
X151075220Y-80514477D01*
X150985483Y-80384470D01*
X150867240Y-80279717D01*
X150867238Y-80279716D01*
X150867237Y-80279715D01*
X150727365Y-80206303D01*
X150573986Y-80168500D01*
X150573985Y-80168500D01*
X150416015Y-80168500D01*
X150416014Y-80168500D01*
X150262634Y-80206303D01*
X150122762Y-80279715D01*
X150122759Y-80279717D01*
X150122760Y-80279717D01*
X150011665Y-80378138D01*
X150004516Y-80384471D01*
X149914781Y-80514475D01*
X149914780Y-80514476D01*
X149858762Y-80662181D01*
X149839722Y-80818999D01*
X149839722Y-80819000D01*
X149858762Y-80975818D01*
X149878153Y-81026946D01*
X149914780Y-81123523D01*
X149970551Y-81204321D01*
X149992433Y-81270673D01*
X149992500Y-81274759D01*
X149992500Y-85901796D01*
X149989862Y-85927234D01*
X149987633Y-85937868D01*
X149987633Y-85937869D01*
X149987633Y-85937871D01*
X149992023Y-85973091D01*
X149992500Y-85980767D01*
X149992500Y-85984716D01*
X149996342Y-86007741D01*
X150003134Y-86062227D01*
X150005373Y-86069747D01*
X150007934Y-86077208D01*
X150007935Y-86077210D01*
X150034055Y-86125476D01*
X150034055Y-86125477D01*
X150058174Y-86174811D01*
X150062742Y-86181209D01*
X150067582Y-86187427D01*
X150107971Y-86224609D01*
X150175125Y-86291762D01*
X150242282Y-86358919D01*
X150275766Y-86420240D01*
X150277696Y-86461543D01*
X150271522Y-86512397D01*
X150271522Y-86512400D01*
X150290562Y-86669217D01*
X150304334Y-86705528D01*
X150309701Y-86775191D01*
X150276554Y-86836698D01*
X150215416Y-86870519D01*
X150188392Y-86873500D01*
X146923287Y-86873500D01*
X146856248Y-86853815D01*
X146841062Y-86842318D01*
X146834740Y-86836717D01*
X146834738Y-86836716D01*
X146834737Y-86836715D01*
X146694865Y-86763303D01*
X146541486Y-86725500D01*
X146541485Y-86725500D01*
X146383515Y-86725500D01*
X146279127Y-86751229D01*
X146266675Y-86754298D01*
X146196872Y-86751229D01*
X146139810Y-86710909D01*
X146113605Y-86646139D01*
X146113000Y-86633901D01*
X146113000Y-85591303D01*
X146115639Y-85565858D01*
X146115677Y-85565675D01*
X146117867Y-85555232D01*
X146115208Y-85533898D01*
X146113477Y-85520007D01*
X146113000Y-85512331D01*
X146113000Y-85508390D01*
X146112999Y-85508381D01*
X146112830Y-85507371D01*
X146109157Y-85485357D01*
X146102366Y-85430875D01*
X146102365Y-85430873D01*
X146100121Y-85423337D01*
X146097566Y-85415892D01*
X146071441Y-85367618D01*
X146067472Y-85359500D01*
X146047326Y-85318289D01*
X146047323Y-85318286D01*
X146047323Y-85318285D01*
X146042780Y-85311921D01*
X146037920Y-85305676D01*
X146037919Y-85305674D01*
X146037219Y-85305030D01*
X145997530Y-85268493D01*
X143939149Y-83210111D01*
X143923022Y-83190252D01*
X143917086Y-83181167D01*
X143917083Y-83181163D01*
X143889074Y-83159363D01*
X143883310Y-83154272D01*
X143880515Y-83151477D01*
X143861505Y-83137906D01*
X143818189Y-83104190D01*
X143811274Y-83100448D01*
X143804200Y-83096990D01*
X143751596Y-83081329D01*
X143699658Y-83063499D01*
X143691923Y-83062208D01*
X143684085Y-83061231D01*
X143629244Y-83063500D01*
X139510100Y-83063500D01*
X139443061Y-83043815D01*
X139397306Y-82991011D01*
X139387362Y-82921853D01*
X139416387Y-82858297D01*
X139427867Y-82846689D01*
X139528282Y-82757731D01*
X139618019Y-82627724D01*
X139668645Y-82494233D01*
X139696902Y-82450529D01*
X143884613Y-78262819D01*
X143945937Y-78229334D01*
X143972295Y-78226500D01*
X146760196Y-78226500D01*
X146785641Y-78229139D01*
X146789440Y-78229935D01*
X146796268Y-78231367D01*
X146817225Y-78228754D01*
X146831492Y-78226977D01*
X146839168Y-78226500D01*
X146843112Y-78226500D01*
X146843114Y-78226500D01*
X146843116Y-78226499D01*
X146843122Y-78226499D01*
X146858487Y-78223934D01*
X146866140Y-78222657D01*
X146920626Y-78215866D01*
X146920627Y-78215865D01*
X146920629Y-78215865D01*
X146928141Y-78213628D01*
X146935606Y-78211066D01*
X146935606Y-78211065D01*
X146935610Y-78211065D01*
X146983877Y-78184944D01*
X147033211Y-78160826D01*
X147033213Y-78160823D01*
X147039594Y-78156268D01*
X147045819Y-78151422D01*
X147045826Y-78151419D01*
X147083008Y-78111028D01*
X147548889Y-77645146D01*
X147568746Y-77629022D01*
X147577836Y-77623084D01*
X147599638Y-77595071D01*
X147604733Y-77589303D01*
X147607519Y-77586518D01*
X147607528Y-77586506D01*
X147621086Y-77567516D01*
X147654807Y-77524192D01*
X147658547Y-77517278D01*
X147662006Y-77510203D01*
X147662010Y-77510199D01*
X147673184Y-77472666D01*
X147677672Y-77457593D01*
X147695500Y-77405661D01*
X147696791Y-77397924D01*
X147697768Y-77390086D01*
X147695500Y-77335244D01*
X147695500Y-77319668D01*
X147715185Y-77252629D01*
X147767989Y-77206874D01*
X147774679Y-77204052D01*
X147812637Y-77189348D01*
X147986041Y-77081981D01*
X148136764Y-76944579D01*
X148259673Y-76781821D01*
X148350582Y-76599250D01*
X148406397Y-76403083D01*
X148425215Y-76200000D01*
X148754785Y-76200000D01*
X148773602Y-76403082D01*
X148829417Y-76599247D01*
X148829422Y-76599260D01*
X148920327Y-76781821D01*
X149043237Y-76944581D01*
X149193958Y-77081980D01*
X149193960Y-77081982D01*
X149293141Y-77143392D01*
X149367363Y-77189348D01*
X149557544Y-77263024D01*
X149758024Y-77300500D01*
X149758026Y-77300500D01*
X149961974Y-77300500D01*
X149961976Y-77300500D01*
X150162456Y-77263024D01*
X150352637Y-77189348D01*
X150526041Y-77081981D01*
X150676764Y-76944579D01*
X150799673Y-76781821D01*
X150890582Y-76599250D01*
X150946397Y-76403083D01*
X150965215Y-76200000D01*
X150946397Y-75996917D01*
X150890582Y-75800750D01*
X150799673Y-75618179D01*
X150676764Y-75455421D01*
X150676762Y-75455418D01*
X150526041Y-75318019D01*
X150526039Y-75318017D01*
X150352642Y-75210655D01*
X150352635Y-75210651D01*
X150218104Y-75158534D01*
X150162456Y-75136976D01*
X149961976Y-75099500D01*
X149758024Y-75099500D01*
X149557544Y-75136976D01*
X149557541Y-75136976D01*
X149557541Y-75136977D01*
X149367364Y-75210651D01*
X149367357Y-75210655D01*
X149193960Y-75318017D01*
X149193958Y-75318019D01*
X149043237Y-75455418D01*
X148920327Y-75618178D01*
X148829422Y-75800739D01*
X148829417Y-75800752D01*
X148773602Y-75996917D01*
X148754785Y-76199999D01*
X148754785Y-76200000D01*
X148425215Y-76200000D01*
X148406397Y-75996917D01*
X148350582Y-75800750D01*
X148259673Y-75618179D01*
X148136764Y-75455421D01*
X148136762Y-75455418D01*
X147986041Y-75318019D01*
X147986039Y-75318017D01*
X147812642Y-75210655D01*
X147812635Y-75210651D01*
X147678104Y-75158534D01*
X147622456Y-75136976D01*
X147421976Y-75099500D01*
X147218024Y-75099500D01*
X147017544Y-75136976D01*
X147017541Y-75136976D01*
X147017541Y-75136977D01*
X146827364Y-75210651D01*
X146827357Y-75210655D01*
X146653960Y-75318017D01*
X146653958Y-75318019D01*
X146503237Y-75455418D01*
X146380327Y-75618178D01*
X146289422Y-75800739D01*
X146289417Y-75800752D01*
X146233602Y-75996917D01*
X146214785Y-76199999D01*
X146214785Y-76200000D01*
X146233602Y-76403082D01*
X146289417Y-76599247D01*
X146289422Y-76599260D01*
X146380327Y-76781821D01*
X146503237Y-76944581D01*
X146653958Y-77081980D01*
X146653960Y-77081982D01*
X146765441Y-77151008D01*
X146812077Y-77203036D01*
X146823181Y-77272017D01*
X146795228Y-77336052D01*
X146787851Y-77344109D01*
X146692779Y-77439182D01*
X146631459Y-77472666D01*
X146605100Y-77475500D01*
X145197335Y-77475500D01*
X145130296Y-77455815D01*
X145084541Y-77403011D01*
X145074597Y-77333853D01*
X145103622Y-77270297D01*
X145152541Y-77235873D01*
X145167084Y-77230239D01*
X145272637Y-77189348D01*
X145446041Y-77081981D01*
X145596764Y-76944579D01*
X145719673Y-76781821D01*
X145810582Y-76599250D01*
X145866397Y-76403083D01*
X145885215Y-76200000D01*
X145866397Y-75996917D01*
X145810582Y-75800750D01*
X145719673Y-75618179D01*
X145596764Y-75455421D01*
X145596762Y-75455418D01*
X145446041Y-75318019D01*
X145446039Y-75318017D01*
X145272642Y-75210655D01*
X145272635Y-75210651D01*
X145138104Y-75158534D01*
X145082456Y-75136976D01*
X144881976Y-75099500D01*
X144678024Y-75099500D01*
X144477544Y-75136976D01*
X144477541Y-75136976D01*
X144477541Y-75136977D01*
X144287364Y-75210651D01*
X144287357Y-75210655D01*
X144113960Y-75318017D01*
X144113958Y-75318019D01*
X143963237Y-75455418D01*
X143840327Y-75618178D01*
X143749422Y-75800739D01*
X143749417Y-75800752D01*
X143693602Y-75996917D01*
X143674785Y-76199999D01*
X143674785Y-76200000D01*
X143693602Y-76403082D01*
X143729941Y-76530798D01*
X143749417Y-76599247D01*
X143750987Y-76604763D01*
X143749003Y-76605327D01*
X143754098Y-76665816D01*
X143721390Y-76727557D01*
X143720290Y-76728671D01*
X139707781Y-80741181D01*
X139646458Y-80774666D01*
X139620100Y-80777500D01*
X136867308Y-80777500D01*
X136800269Y-80757815D01*
X136765257Y-80723938D01*
X136761483Y-80718470D01*
X136643240Y-80613717D01*
X136643238Y-80613716D01*
X136643237Y-80613715D01*
X136503365Y-80540303D01*
X136349986Y-80502500D01*
X136349985Y-80502500D01*
X136192015Y-80502500D01*
X136192014Y-80502500D01*
X136038634Y-80540303D01*
X135898762Y-80613715D01*
X135780512Y-80718474D01*
X135775543Y-80724084D01*
X135774221Y-80722913D01*
X135727261Y-80760966D01*
X135657812Y-80768622D01*
X135595249Y-80737515D01*
X135559435Y-80677522D01*
X135555500Y-80646533D01*
X135555500Y-77074628D01*
X136060000Y-77074628D01*
X136074503Y-77147540D01*
X136074505Y-77147544D01*
X136129760Y-77230239D01*
X136212455Y-77285494D01*
X136212459Y-77285496D01*
X136285371Y-77299999D01*
X136285374Y-77300000D01*
X137035000Y-77300000D01*
X137035000Y-76824000D01*
X137054685Y-76756961D01*
X137107489Y-76711206D01*
X137159000Y-76700000D01*
X137161000Y-76700000D01*
X137228039Y-76719685D01*
X137273794Y-76772489D01*
X137285000Y-76824000D01*
X137285000Y-77300000D01*
X138034626Y-77300000D01*
X138034628Y-77299999D01*
X138107540Y-77285496D01*
X138107544Y-77285494D01*
X138190239Y-77230239D01*
X138245494Y-77147544D01*
X138245496Y-77147540D01*
X138259999Y-77074628D01*
X138260000Y-77074626D01*
X138260000Y-76325000D01*
X137784000Y-76325000D01*
X137716961Y-76305315D01*
X137671206Y-76252511D01*
X137660000Y-76201000D01*
X137660000Y-76200000D01*
X138594785Y-76200000D01*
X138613602Y-76403082D01*
X138669417Y-76599247D01*
X138669422Y-76599260D01*
X138760327Y-76781821D01*
X138883237Y-76944581D01*
X139033958Y-77081980D01*
X139033960Y-77081982D01*
X139133141Y-77143392D01*
X139207363Y-77189348D01*
X139397544Y-77263024D01*
X139598024Y-77300500D01*
X139598026Y-77300500D01*
X139801974Y-77300500D01*
X139801976Y-77300500D01*
X140002456Y-77263024D01*
X140192637Y-77189348D01*
X140366041Y-77081981D01*
X140516764Y-76944579D01*
X140639673Y-76781821D01*
X140730582Y-76599250D01*
X140786397Y-76403083D01*
X140805215Y-76200000D01*
X141134785Y-76200000D01*
X141153602Y-76403082D01*
X141209417Y-76599247D01*
X141209422Y-76599260D01*
X141300327Y-76781821D01*
X141423237Y-76944581D01*
X141573958Y-77081980D01*
X141573960Y-77081982D01*
X141673141Y-77143392D01*
X141747363Y-77189348D01*
X141937544Y-77263024D01*
X142138024Y-77300500D01*
X142138026Y-77300500D01*
X142341974Y-77300500D01*
X142341976Y-77300500D01*
X142542456Y-77263024D01*
X142732637Y-77189348D01*
X142906041Y-77081981D01*
X143056764Y-76944579D01*
X143179673Y-76781821D01*
X143270582Y-76599250D01*
X143326397Y-76403083D01*
X143345215Y-76200000D01*
X143326397Y-75996917D01*
X143270582Y-75800750D01*
X143179673Y-75618179D01*
X143056764Y-75455421D01*
X143056762Y-75455418D01*
X142906041Y-75318019D01*
X142906039Y-75318017D01*
X142732642Y-75210655D01*
X142732635Y-75210651D01*
X142598104Y-75158534D01*
X142542456Y-75136976D01*
X142341976Y-75099500D01*
X142138024Y-75099500D01*
X141937544Y-75136976D01*
X141937541Y-75136976D01*
X141937541Y-75136977D01*
X141747364Y-75210651D01*
X141747357Y-75210655D01*
X141573960Y-75318017D01*
X141573958Y-75318019D01*
X141423237Y-75455418D01*
X141300327Y-75618178D01*
X141209422Y-75800739D01*
X141209417Y-75800752D01*
X141153602Y-75996917D01*
X141134785Y-76199999D01*
X141134785Y-76200000D01*
X140805215Y-76200000D01*
X140786397Y-75996917D01*
X140730582Y-75800750D01*
X140639673Y-75618179D01*
X140516764Y-75455421D01*
X140516762Y-75455418D01*
X140366041Y-75318019D01*
X140366039Y-75318017D01*
X140192642Y-75210655D01*
X140192635Y-75210651D01*
X140058104Y-75158534D01*
X140002456Y-75136976D01*
X139801976Y-75099500D01*
X139598024Y-75099500D01*
X139397544Y-75136976D01*
X139397541Y-75136976D01*
X139397541Y-75136977D01*
X139207364Y-75210651D01*
X139207357Y-75210655D01*
X139033960Y-75318017D01*
X139033958Y-75318019D01*
X138883237Y-75455418D01*
X138760327Y-75618178D01*
X138669422Y-75800739D01*
X138669417Y-75800752D01*
X138613602Y-75996917D01*
X138594785Y-76199999D01*
X138594785Y-76200000D01*
X137660000Y-76200000D01*
X137660000Y-76199000D01*
X137679685Y-76131961D01*
X137732489Y-76086206D01*
X137784000Y-76075000D01*
X138260000Y-76075000D01*
X138260000Y-75325373D01*
X138259999Y-75325371D01*
X138245496Y-75252459D01*
X138245494Y-75252455D01*
X138190239Y-75169760D01*
X138107544Y-75114505D01*
X138107540Y-75114503D01*
X138034627Y-75100000D01*
X137285000Y-75100000D01*
X137285000Y-75576000D01*
X137265315Y-75643039D01*
X137212511Y-75688794D01*
X137161000Y-75700000D01*
X137159000Y-75700000D01*
X137091961Y-75680315D01*
X137046206Y-75627511D01*
X137035000Y-75576000D01*
X137035000Y-75100000D01*
X136285373Y-75100000D01*
X136212459Y-75114503D01*
X136212455Y-75114505D01*
X136129760Y-75169760D01*
X136074505Y-75252455D01*
X136074503Y-75252459D01*
X136060000Y-75325371D01*
X136060000Y-76075000D01*
X136536000Y-76075000D01*
X136603039Y-76094685D01*
X136648794Y-76147489D01*
X136660000Y-76199000D01*
X136660000Y-76201000D01*
X136640315Y-76268039D01*
X136587511Y-76313794D01*
X136536000Y-76325000D01*
X136060000Y-76325000D01*
X136060000Y-77074628D01*
X135555500Y-77074628D01*
X135555500Y-75298048D01*
X135555799Y-75291968D01*
X135563807Y-75210655D01*
X135567744Y-75170680D01*
X135572483Y-75146856D01*
X135605203Y-75038990D01*
X135614499Y-75016549D01*
X135667632Y-74917144D01*
X135681133Y-74896940D01*
X135752635Y-74809814D01*
X135769814Y-74792635D01*
X135856942Y-74721131D01*
X135877144Y-74707632D01*
X135976549Y-74654499D01*
X135998990Y-74645203D01*
X136106856Y-74612483D01*
X136130682Y-74607744D01*
X136204052Y-74600517D01*
X136251969Y-74595799D01*
X136258049Y-74595500D01*
X136302595Y-74595500D01*
X153257405Y-74595500D01*
X153301951Y-74595500D01*
X153308031Y-74595799D01*
G37*
%TD.AperFunction*%
%TA.AperFunction,Conductor*%
G36*
X143310744Y-84284185D02*
G01*
X143331386Y-84300819D01*
X144875681Y-85845114D01*
X144909166Y-85906437D01*
X144912000Y-85932795D01*
X144912000Y-87810897D01*
X144909361Y-87836342D01*
X144905947Y-87852625D01*
X144872925Y-87914199D01*
X144811855Y-87948144D01*
X144742128Y-87943685D01*
X144696905Y-87914861D01*
X144634021Y-87851977D01*
X144600536Y-87790654D01*
X144598606Y-87749349D01*
X144604781Y-87698497D01*
X144585740Y-87541679D01*
X144529723Y-87393974D01*
X144439986Y-87263967D01*
X144321743Y-87159214D01*
X144321741Y-87159213D01*
X144321740Y-87159212D01*
X144181868Y-87085800D01*
X144028489Y-87047997D01*
X144028488Y-87047997D01*
X143870518Y-87047997D01*
X143870517Y-87047997D01*
X143717137Y-87085800D01*
X143577265Y-87159212D01*
X143577262Y-87159214D01*
X143577263Y-87159214D01*
X143483839Y-87241980D01*
X143459019Y-87263968D01*
X143369284Y-87393972D01*
X143369283Y-87393973D01*
X143313265Y-87541678D01*
X143294225Y-87698496D01*
X143294225Y-87698497D01*
X143313265Y-87855315D01*
X143346780Y-87943685D01*
X143369283Y-88003020D01*
X143459020Y-88133027D01*
X143576127Y-88236774D01*
X143613253Y-88295962D01*
X143612486Y-88365828D01*
X143576128Y-88422404D01*
X143527516Y-88465470D01*
X143437781Y-88595475D01*
X143437780Y-88595476D01*
X143381762Y-88743181D01*
X143362722Y-88899999D01*
X143362722Y-88900000D01*
X143381762Y-89056818D01*
X143418619Y-89154000D01*
X143437780Y-89204523D01*
X143527517Y-89334530D01*
X143645760Y-89439283D01*
X143645762Y-89439284D01*
X143785634Y-89512696D01*
X143939014Y-89550500D01*
X144086101Y-89550500D01*
X144153140Y-89570185D01*
X144173782Y-89586819D01*
X144266849Y-89679886D01*
X144282978Y-89699747D01*
X144288916Y-89708836D01*
X144316929Y-89730639D01*
X144322691Y-89735728D01*
X144325483Y-89738520D01*
X144344486Y-89752088D01*
X144387811Y-89785809D01*
X144387813Y-89785809D01*
X144394718Y-89789546D01*
X144401796Y-89793006D01*
X144401801Y-89793010D01*
X144429983Y-89801400D01*
X144454403Y-89808670D01*
X144506338Y-89826500D01*
X144514072Y-89827790D01*
X144521910Y-89828767D01*
X144521912Y-89828768D01*
X144521913Y-89828767D01*
X144521914Y-89828768D01*
X144576756Y-89826500D01*
X147789705Y-89826500D01*
X147856744Y-89846185D01*
X147877386Y-89862819D01*
X148559181Y-90544614D01*
X148592666Y-90605937D01*
X148595500Y-90632295D01*
X148595500Y-93156495D01*
X148575815Y-93223534D01*
X148523011Y-93269289D01*
X148453853Y-93279233D01*
X148390297Y-93250208D01*
X148383819Y-93244176D01*
X147874753Y-92735111D01*
X147858626Y-92715252D01*
X147852690Y-92706167D01*
X147852687Y-92706163D01*
X147824678Y-92684363D01*
X147818914Y-92679272D01*
X147816119Y-92676477D01*
X147797109Y-92662906D01*
X147753793Y-92629190D01*
X147746878Y-92625448D01*
X147739804Y-92621990D01*
X147687200Y-92606329D01*
X147635262Y-92588499D01*
X147627527Y-92587208D01*
X147619689Y-92586231D01*
X147564848Y-92588500D01*
X145376308Y-92588500D01*
X145309269Y-92568815D01*
X145274257Y-92534938D01*
X145270483Y-92529470D01*
X145152240Y-92424717D01*
X145152238Y-92424716D01*
X145152237Y-92424715D01*
X145012365Y-92351303D01*
X144858986Y-92313500D01*
X144858985Y-92313500D01*
X144701015Y-92313500D01*
X144701014Y-92313500D01*
X144547634Y-92351303D01*
X144407762Y-92424715D01*
X144289516Y-92529471D01*
X144199781Y-92659475D01*
X144199780Y-92659476D01*
X144143762Y-92807181D01*
X144124722Y-92963999D01*
X144124722Y-92964000D01*
X144143762Y-93120818D01*
X144165745Y-93178781D01*
X144199780Y-93268523D01*
X144289517Y-93398530D01*
X144407760Y-93503283D01*
X144407762Y-93503284D01*
X144547634Y-93576696D01*
X144701014Y-93614500D01*
X144701015Y-93614500D01*
X144858985Y-93614500D01*
X145012365Y-93576696D01*
X145029473Y-93567717D01*
X145152240Y-93503283D01*
X145270483Y-93398530D01*
X145274257Y-93393061D01*
X145328537Y-93349071D01*
X145376308Y-93339500D01*
X147365705Y-93339500D01*
X147432744Y-93359185D01*
X147453386Y-93375819D01*
X150826453Y-96748886D01*
X150842581Y-96768745D01*
X150848520Y-96777836D01*
X150876536Y-96799641D01*
X150882297Y-96804730D01*
X150885086Y-96807519D01*
X150904087Y-96821085D01*
X150946304Y-96853944D01*
X150947415Y-96854809D01*
X150954314Y-96858542D01*
X150960046Y-96861345D01*
X150963943Y-96864906D01*
X150969350Y-96867684D01*
X150969474Y-96867772D01*
X150968532Y-96869098D01*
X151011628Y-96908474D01*
X151029541Y-96976008D01*
X151008099Y-97042507D01*
X150963211Y-97082541D01*
X150884761Y-97123716D01*
X150766516Y-97228470D01*
X150764089Y-97231987D01*
X150762742Y-97233938D01*
X150708463Y-97277929D01*
X150660692Y-97287500D01*
X145224900Y-97287500D01*
X145157861Y-97267815D01*
X145137219Y-97251181D01*
X143701258Y-95815220D01*
X143667773Y-95753897D01*
X143672757Y-95684205D01*
X143676550Y-95675149D01*
X143709575Y-95604330D01*
X143766207Y-95392977D01*
X143785277Y-95175000D01*
X145775225Y-95175000D01*
X145794287Y-95392884D01*
X145794289Y-95392894D01*
X145850894Y-95604150D01*
X145850898Y-95604159D01*
X145943332Y-95802386D01*
X145943333Y-95802388D01*
X146059676Y-95968545D01*
X146059677Y-95968545D01*
X146464767Y-95563454D01*
X146526090Y-95529969D01*
X146595781Y-95534953D01*
X146643111Y-95566541D01*
X146644477Y-95568005D01*
X146675820Y-95630450D01*
X146668426Y-95699927D01*
X146641495Y-95740280D01*
X146236453Y-96145321D01*
X146402612Y-96261666D01*
X146600840Y-96354101D01*
X146600849Y-96354105D01*
X146812105Y-96410710D01*
X146812115Y-96410712D01*
X147029999Y-96429775D01*
X147030001Y-96429775D01*
X147247884Y-96410712D01*
X147247894Y-96410710D01*
X147459150Y-96354105D01*
X147459159Y-96354101D01*
X147657387Y-96261666D01*
X147823545Y-96145321D01*
X147420640Y-95742417D01*
X147387155Y-95681094D01*
X147392139Y-95611403D01*
X147430100Y-95558521D01*
X147431663Y-95557249D01*
X147496099Y-95530235D01*
X147564911Y-95542346D01*
X147597563Y-95565786D01*
X148000321Y-95968545D01*
X148116666Y-95802387D01*
X148209101Y-95604159D01*
X148209105Y-95604150D01*
X148265710Y-95392894D01*
X148265712Y-95392884D01*
X148284775Y-95175000D01*
X148284775Y-95174999D01*
X148265712Y-94957115D01*
X148265710Y-94957105D01*
X148209105Y-94745849D01*
X148209101Y-94745840D01*
X148116668Y-94547615D01*
X148000320Y-94381454D01*
X147595231Y-94786543D01*
X147533908Y-94820028D01*
X147464216Y-94815044D01*
X147416916Y-94783487D01*
X147415550Y-94782024D01*
X147384186Y-94719590D01*
X147391555Y-94650110D01*
X147418503Y-94609718D01*
X147823545Y-94204677D01*
X147823545Y-94204676D01*
X147657388Y-94088333D01*
X147657386Y-94088332D01*
X147459159Y-93995898D01*
X147459150Y-93995894D01*
X147247894Y-93939289D01*
X147247884Y-93939287D01*
X147030001Y-93920225D01*
X147029999Y-93920225D01*
X146812115Y-93939287D01*
X146812105Y-93939289D01*
X146600849Y-93995894D01*
X146600840Y-93995898D01*
X146402613Y-94088333D01*
X146236454Y-94204678D01*
X146639359Y-94607582D01*
X146672844Y-94668905D01*
X146667860Y-94738596D01*
X146629927Y-94791456D01*
X146628367Y-94792725D01*
X146563940Y-94819759D01*
X146495124Y-94807670D01*
X146462437Y-94784213D01*
X146059678Y-94381454D01*
X145943333Y-94547613D01*
X145850898Y-94745840D01*
X145850894Y-94745849D01*
X145794289Y-94957105D01*
X145794287Y-94957115D01*
X145775225Y-95174999D01*
X145775225Y-95175000D01*
X143785277Y-95175000D01*
X143781962Y-95137114D01*
X143779193Y-95105462D01*
X143766207Y-94957023D01*
X143715981Y-94769576D01*
X143709577Y-94745677D01*
X143709576Y-94745676D01*
X143709575Y-94745670D01*
X143617102Y-94547362D01*
X143617100Y-94547359D01*
X143617099Y-94547357D01*
X143491599Y-94368124D01*
X143437419Y-94313944D01*
X143336877Y-94213402D01*
X143192774Y-94112500D01*
X143157638Y-94087897D01*
X143054945Y-94040011D01*
X142959330Y-93995425D01*
X142959326Y-93995424D01*
X142959322Y-93995422D01*
X142747977Y-93938793D01*
X142530002Y-93919723D01*
X142529998Y-93919723D01*
X142433596Y-93928157D01*
X142312023Y-93938793D01*
X142312021Y-93938793D01*
X142312017Y-93938794D01*
X142199347Y-93968983D01*
X142129497Y-93967320D01*
X142071635Y-93928157D01*
X142044132Y-93863928D01*
X142055719Y-93795026D01*
X142079570Y-93761532D01*
X142411205Y-93429896D01*
X142416373Y-93425277D01*
X142446970Y-93400879D01*
X142480480Y-93351728D01*
X142515793Y-93303882D01*
X142515794Y-93303879D01*
X142519787Y-93296324D01*
X142523470Y-93288676D01*
X142523470Y-93288675D01*
X142523472Y-93288673D01*
X142541007Y-93231822D01*
X142560646Y-93175699D01*
X142562232Y-93167311D01*
X142563500Y-93158904D01*
X142563500Y-93099426D01*
X142565724Y-93039992D01*
X142564684Y-93030761D01*
X142565513Y-93030667D01*
X142563500Y-93015366D01*
X142563500Y-85245782D01*
X142563889Y-85238843D01*
X142568270Y-85199965D01*
X142557211Y-85141520D01*
X142548348Y-85082713D01*
X142548347Y-85082711D01*
X142545836Y-85074571D01*
X142543024Y-85066533D01*
X142543023Y-85066528D01*
X142540707Y-85062147D01*
X142517994Y-85019173D01*
X142515226Y-85013936D01*
X142489425Y-84960358D01*
X142489422Y-84960355D01*
X142489421Y-84960352D01*
X142484642Y-84953342D01*
X142479568Y-84946469D01*
X142479565Y-84946462D01*
X142437516Y-84904413D01*
X142397055Y-84860806D01*
X142389792Y-84855014D01*
X142390312Y-84854361D01*
X142378067Y-84844964D01*
X142009284Y-84476181D01*
X141975799Y-84414858D01*
X141980783Y-84345166D01*
X142022655Y-84289233D01*
X142088119Y-84264816D01*
X142096965Y-84264500D01*
X143243705Y-84264500D01*
X143310744Y-84284185D01*
G37*
%TD.AperFunction*%
%TD*%
M02*
