M48
; DRILL file {KiCad 7.0.7} date Fri Jul  5 12:18:48 2024
; FORMAT={-:-/ absolute / metric / decimal}
; #@! TF.CreationDate,2024-07-05T12:18:48-04:00
; #@! TF.GenerationSoftware,Kicad,Pcbnew,7.0.7
; #@! TF.FileFunction,Plated,1,2,PTH
FMAT,2
METRIC
; #@! TA.AperFunction,Plated,PTH,ViaDrill
T1C0.400
; #@! TA.AperFunction,Plated,PTH,ComponentDrill
T2C1.000
; #@! TA.AperFunction,Plated,PTH,ComponentDrill
T3C1.100
%
G90
G05
T1
X136.271Y-81.153
X138.557Y-87.681
X138.836Y-86.665
X138.956Y-85.558
X139.038Y-82.323
X140.208Y-84.709
X140.712Y-85.822
X141.097Y-94.107
X143.95Y-87.698
X144.018Y-88.9
X144.78Y-92.964
X146.463Y-87.376
X149.504Y-83.769
X149.606Y-88.011
X149.606Y-89.154
X149.77Y-93.472
X150.495Y-80.819
X150.927Y-86.512
X151.257Y-97.663
T2
X137.16Y-76.2
X137.16Y-83.82
X137.16Y-86.36
X137.16Y-88.9
X137.16Y-91.44
X137.16Y-93.98
X137.16Y-96.52
X137.16Y-99.06
X137.16Y-101.6
X139.7Y-76.2
X142.24Y-76.2
X144.78Y-76.2
X147.32Y-76.2
X149.86Y-76.2
X152.4Y-76.2
X152.4Y-83.82
X152.4Y-86.36
X152.4Y-88.9
X152.4Y-91.44
X152.4Y-93.98
X152.4Y-96.52
X152.4Y-99.06
X152.4Y-101.6
T3
X142.53Y-95.175
X142.53Y-101.675
X147.03Y-95.175
X147.03Y-101.675
T0
M30
