%TF.GenerationSoftware,KiCad,Pcbnew,7.0.7*%
%TF.CreationDate,2024-07-05T12:18:51-04:00*%
%TF.ProjectId,MSP430FR21_Breakout,4d535034-3330-4465-9232-315f42726561,rev?*%
%TF.SameCoordinates,Original*%
%TF.FileFunction,Copper,L1,Top*%
%TF.FilePolarity,Positive*%
%FSLAX46Y46*%
G04 Gerber Fmt 4.6, Leading zero omitted, Abs format (unit mm)*
G04 Created by KiCad (PCBNEW 7.0.7) date 2024-07-05 12:18:51*
%MOMM*%
%LPD*%
G01*
G04 APERTURE LIST*
G04 Aperture macros list*
%AMRoundRect*
0 Rectangle with rounded corners*
0 $1 Rounding radius*
0 $2 $3 $4 $5 $6 $7 $8 $9 X,Y pos of 4 corners*
0 Add a 4 corners polygon primitive as box body*
4,1,4,$2,$3,$4,$5,$6,$7,$8,$9,$2,$3,0*
0 Add four circle primitives for the rounded corners*
1,1,$1+$1,$2,$3*
1,1,$1+$1,$4,$5*
1,1,$1+$1,$6,$7*
1,1,$1+$1,$8,$9*
0 Add four rect primitives between the rounded corners*
20,1,$1+$1,$2,$3,$4,$5,0*
20,1,$1+$1,$4,$5,$6,$7,0*
20,1,$1+$1,$6,$7,$8,$9,0*
20,1,$1+$1,$8,$9,$2,$3,0*%
G04 Aperture macros list end*
%TA.AperFunction,SMDPad,CuDef*%
%ADD10RoundRect,0.225000X-0.250000X0.225000X-0.250000X-0.225000X0.250000X-0.225000X0.250000X0.225000X0*%
%TD*%
%TA.AperFunction,SMDPad,CuDef*%
%ADD11RoundRect,0.100000X0.637500X0.100000X-0.637500X0.100000X-0.637500X-0.100000X0.637500X-0.100000X0*%
%TD*%
%TA.AperFunction,SMDPad,CuDef*%
%ADD12RoundRect,0.225000X0.250000X-0.225000X0.250000X0.225000X-0.250000X0.225000X-0.250000X-0.225000X0*%
%TD*%
%TA.AperFunction,SMDPad,CuDef*%
%ADD13RoundRect,0.150000X-0.512500X-0.150000X0.512500X-0.150000X0.512500X0.150000X-0.512500X0.150000X0*%
%TD*%
%TA.AperFunction,SMDPad,CuDef*%
%ADD14R,1.750000X1.800000*%
%TD*%
%TA.AperFunction,ComponentPad*%
%ADD15C,2.000000*%
%TD*%
%TA.AperFunction,ComponentPad*%
%ADD16R,1.700000X1.700000*%
%TD*%
%TA.AperFunction,ComponentPad*%
%ADD17O,1.700000X1.700000*%
%TD*%
%TA.AperFunction,SMDPad,CuDef*%
%ADD18RoundRect,0.237500X-0.237500X0.250000X-0.237500X-0.250000X0.237500X-0.250000X0.237500X0.250000X0*%
%TD*%
%TA.AperFunction,SMDPad,CuDef*%
%ADD19RoundRect,0.237500X0.237500X-0.287500X0.237500X0.287500X-0.237500X0.287500X-0.237500X-0.287500X0*%
%TD*%
%TA.AperFunction,SMDPad,CuDef*%
%ADD20RoundRect,0.250000X-0.475000X0.250000X-0.475000X-0.250000X0.475000X-0.250000X0.475000X0.250000X0*%
%TD*%
%TA.AperFunction,SMDPad,CuDef*%
%ADD21RoundRect,0.225000X-0.225000X-0.250000X0.225000X-0.250000X0.225000X0.250000X-0.225000X0.250000X0*%
%TD*%
%TA.AperFunction,SMDPad,CuDef*%
%ADD22RoundRect,0.225000X0.225000X0.250000X-0.225000X0.250000X-0.225000X-0.250000X0.225000X-0.250000X0*%
%TD*%
%TA.AperFunction,ViaPad*%
%ADD23C,0.800000*%
%TD*%
%TA.AperFunction,Conductor*%
%ADD24C,0.400000*%
%TD*%
%TA.AperFunction,Conductor*%
%ADD25C,0.250000*%
%TD*%
G04 APERTURE END LIST*
D10*
%TO.P,C6,1*%
%TO.N,+5V*%
X138684000Y-79248000D03*
%TO.P,C6,2*%
%TO.N,GND*%
X138684000Y-80798000D03*
%TD*%
D11*
%TO.P,U1,1,P1.1/UCA0CLK/ACLK/C1/A1*%
%TO.N,P1.1*%
X147896500Y-89143000D03*
%TO.P,U1,2,P1.0/UCA0STE/SMCLK/C0/A0/VEREF+*%
%TO.N,P1.0*%
X147896500Y-88493000D03*
%TO.P,U1,3,TEST/SBWTCK*%
%TO.N,Test*%
X147896500Y-87843000D03*
%TO.P,U1,4,RST/NMI/SBWTDIO*%
%TO.N,RST*%
X147896500Y-87193000D03*
%TO.P,U1,5,DVCC*%
%TO.N,+3V3*%
X147896500Y-86543000D03*
%TO.P,U1,6,DVSS*%
%TO.N,GND*%
X147896500Y-85893000D03*
%TO.P,U1,7,P2.7/TB0CLK/XIN*%
%TO.N,P2.7*%
X147896500Y-85243000D03*
%TO.P,U1,8,P2.6/MCLK/XOUT*%
%TO.N,P2.6*%
X147896500Y-84593000D03*
%TO.P,U1,9,P2.1/TB0.2*%
%TO.N,P2.1*%
X142171500Y-84593000D03*
%TO.P,U1,10,P2.0/TB0.1/COUT*%
%TO.N,P2.0*%
X142171500Y-85243000D03*
%TO.P,U1,11,P1.7/UCA0TXD/UCA0SIMO/TB0.2/TDO/A7/VREF+*%
%TO.N,P1.7*%
X142171500Y-85893000D03*
%TO.P,U1,12,P1.6/UCA0RXD/UCA0SOMI/TB0.1/TDI/TCLK/A6*%
%TO.N,P1.6*%
X142171500Y-86543000D03*
%TO.P,U1,13,P1.5/UCA0CLK/TMS/A5*%
%TO.N,P1.5*%
X142171500Y-87193000D03*
%TO.P,U1,14,P1.4/UCA0STE/TCK/A4*%
%TO.N,P1.4*%
X142171500Y-87843000D03*
%TO.P,U1,15,P1.3/UCA0TXD/UCA0SIMO/C3/A3*%
%TO.N,P1.3*%
X142171500Y-88493000D03*
%TO.P,U1,16,P1.2/UCA0RXD/UCA0SOMI/TB0TRG/C2/A2/VEREF-*%
%TO.N,P1.2*%
X142171500Y-89143000D03*
%TD*%
D12*
%TO.P,C5,1*%
%TO.N,RST*%
X151892000Y-80798000D03*
%TO.P,C5,2*%
%TO.N,GND*%
X151892000Y-79248000D03*
%TD*%
D13*
%TO.P,U2,1,VIN*%
%TO.N,+5V*%
X141224000Y-78994000D03*
%TO.P,U2,2,GND*%
%TO.N,GND*%
X141224000Y-79944000D03*
%TO.P,U2,3,EN*%
%TO.N,+5V*%
X141224000Y-80894000D03*
%TO.P,U2,4,NC*%
%TO.N,unconnected-(U2-NC-Pad4)*%
X143499000Y-80894000D03*
%TO.P,U2,5,VOUT*%
%TO.N,+3V3*%
X143499000Y-78994000D03*
%TD*%
D14*
%TO.P,Y1,1,1*%
%TO.N,P2.7*%
X146405000Y-91440000D03*
%TO.P,Y1,2,2*%
%TO.N,P2.6*%
X143155000Y-91440000D03*
%TD*%
D15*
%TO.P,SW1,1,A*%
%TO.N,RST*%
X142530000Y-101675000D03*
X142530000Y-95175000D03*
%TO.P,SW1,2,B*%
%TO.N,GND*%
X147030000Y-101675000D03*
X147030000Y-95175000D03*
%TD*%
D16*
%TO.P,J3,1,Pin_1*%
%TO.N,GND*%
X137160000Y-76200000D03*
D17*
%TO.P,J3,2,Pin_2*%
%TO.N,+5V*%
X139700000Y-76200000D03*
%TO.P,J3,3,Pin_3*%
%TO.N,+3V3*%
X142240000Y-76200000D03*
%TO.P,J3,4,Pin_4*%
%TO.N,P1.6*%
X144780000Y-76200000D03*
%TO.P,J3,5,Pin_5*%
%TO.N,P1.7*%
X147320000Y-76200000D03*
%TO.P,J3,6,Pin_6*%
%TO.N,RST*%
X149860000Y-76200000D03*
%TO.P,J3,7,Pin_7*%
%TO.N,Test*%
X152400000Y-76200000D03*
%TD*%
D16*
%TO.P,J2,1,Pin_1*%
%TO.N,+3V3*%
X152400000Y-83820000D03*
D17*
%TO.P,J2,2,Pin_2*%
%TO.N,Test*%
X152400000Y-86360000D03*
%TO.P,J2,3,Pin_3*%
%TO.N,RST*%
X152400000Y-88900000D03*
%TO.P,J2,4,Pin_4*%
%TO.N,P2.0*%
X152400000Y-91440000D03*
%TO.P,J2,5,Pin_5*%
%TO.N,P2.1*%
X152400000Y-93980000D03*
%TO.P,J2,6,Pin_6*%
%TO.N,P2.6*%
X152400000Y-96520000D03*
%TO.P,J2,7,Pin_7*%
%TO.N,P2.7*%
X152400000Y-99060000D03*
%TO.P,J2,8,Pin_8*%
%TO.N,GND*%
X152400000Y-101600000D03*
%TD*%
D18*
%TO.P,R2,1*%
%TO.N,P2.0*%
X149606000Y-94488000D03*
%TO.P,R2,2*%
%TO.N,Net-(D1-A)*%
X149606000Y-96313000D03*
%TD*%
D19*
%TO.P,D2,1,K*%
%TO.N,GND*%
X139954000Y-102334000D03*
%TO.P,D2,2,A*%
%TO.N,Net-(D2-A)*%
X139954000Y-100584000D03*
%TD*%
D10*
%TO.P,C3,1*%
%TO.N,P2.6*%
X140716000Y-90932000D03*
%TO.P,C3,2*%
%TO.N,GND*%
X140716000Y-92482000D03*
%TD*%
D20*
%TO.P,C1,1*%
%TO.N,+3V3*%
X146050000Y-78994000D03*
%TO.P,C1,2*%
%TO.N,GND*%
X146050000Y-80894000D03*
%TD*%
D19*
%TO.P,D1,1,K*%
%TO.N,GND*%
X149606000Y-102334000D03*
%TO.P,D1,2,A*%
%TO.N,Net-(D1-A)*%
X149606000Y-100584000D03*
%TD*%
D21*
%TO.P,C2,1*%
%TO.N,+3V3*%
X146786000Y-82804000D03*
%TO.P,C2,2*%
%TO.N,GND*%
X148336000Y-82804000D03*
%TD*%
D12*
%TO.P,C4,1*%
%TO.N,GND*%
X148844000Y-92482000D03*
%TO.P,C4,2*%
%TO.N,P2.7*%
X148844000Y-90932000D03*
%TD*%
D18*
%TO.P,R3,1*%
%TO.N,+3V3*%
X139954000Y-94488000D03*
%TO.P,R3,2*%
%TO.N,Net-(D2-A)*%
X139954000Y-96313000D03*
%TD*%
D22*
%TO.P,C7,1*%
%TO.N,+3V3*%
X142748000Y-82550000D03*
%TO.P,C7,2*%
%TO.N,GND*%
X141198000Y-82550000D03*
%TD*%
D18*
%TO.P,R1,1*%
%TO.N,+3V3*%
X149098000Y-78994000D03*
%TO.P,R1,2*%
%TO.N,RST*%
X149098000Y-80819000D03*
%TD*%
D16*
%TO.P,J1,1,Pin_1*%
%TO.N,P1.0*%
X137160000Y-83820000D03*
D17*
%TO.P,J1,2,Pin_2*%
%TO.N,P1.1*%
X137160000Y-86360000D03*
%TO.P,J1,3,Pin_3*%
%TO.N,P1.2*%
X137160000Y-88900000D03*
%TO.P,J1,4,Pin_4*%
%TO.N,P1.3*%
X137160000Y-91440000D03*
%TO.P,J1,5,Pin_5*%
%TO.N,P1.4*%
X137160000Y-93980000D03*
%TO.P,J1,6,Pin_6*%
%TO.N,P1.5*%
X137160000Y-96520000D03*
%TO.P,J1,7,Pin_7*%
%TO.N,P1.6*%
X137160000Y-99060000D03*
%TO.P,J1,8,Pin_8*%
%TO.N,P1.7*%
X137160000Y-101600000D03*
%TD*%
D23*
%TO.N,+3V3*%
X140208000Y-84709000D03*
X141097000Y-94107000D03*
%TO.N,GND*%
X149504400Y-83769200D03*
%TO.N,P2.6*%
X144780000Y-92964000D03*
%TO.N,RST*%
X151257000Y-97663000D03*
X150495000Y-80819000D03*
X150926800Y-86512400D03*
%TO.N,P1.0*%
X149606000Y-88011000D03*
%TO.N,P1.1*%
X149606000Y-89154000D03*
%TO.N,P1.4*%
X138557000Y-87680800D03*
%TO.N,P1.5*%
X138836400Y-86664800D03*
%TO.N,P1.6*%
X138955832Y-85558456D03*
X136271000Y-81153000D03*
%TO.N,P1.7*%
X139037799Y-82323201D03*
X140712489Y-85822341D03*
%TO.N,Test*%
X146462500Y-87376000D03*
%TO.N,P2.0*%
X143949503Y-87698497D03*
X149770500Y-93472000D03*
%TO.N,P2.1*%
X144018000Y-88900000D03*
%TD*%
D24*
%TO.N,+3V3*%
X144526000Y-82296000D02*
X144653000Y-82169000D01*
X139954000Y-94488000D02*
X140716000Y-94488000D01*
X140208000Y-84709000D02*
X140208000Y-84455000D01*
X143499000Y-78994000D02*
X144653000Y-78994000D01*
X145034000Y-82804000D02*
X144526000Y-82296000D01*
X147066000Y-81788000D02*
X146786000Y-82068000D01*
X146050000Y-78994000D02*
X149098000Y-78994000D01*
X152400000Y-83820000D02*
X152400000Y-82931000D01*
X152400000Y-82931000D02*
X151257000Y-81788000D01*
X142240000Y-77735000D02*
X143499000Y-78994000D01*
X144653000Y-82169000D02*
X144653000Y-78994000D01*
X142113000Y-83693000D02*
X142748000Y-83058000D01*
X150460000Y-85719528D02*
X150460000Y-84388400D01*
X140716000Y-94488000D02*
X141097000Y-94107000D01*
X151257000Y-81788000D02*
X147066000Y-81788000D01*
X144272000Y-82550000D02*
X144526000Y-82296000D01*
X140208000Y-84455000D02*
X140970000Y-83693000D01*
X142748000Y-83058000D02*
X142748000Y-82550000D01*
X142240000Y-76200000D02*
X142240000Y-77735000D01*
X144653000Y-78994000D02*
X146050000Y-78994000D01*
X146786000Y-82068000D02*
X146786000Y-82804000D01*
X140970000Y-83693000D02*
X142113000Y-83693000D01*
X149636528Y-86543000D02*
X150460000Y-85719528D01*
X146786000Y-82804000D02*
X145034000Y-82804000D01*
X151028400Y-83820000D02*
X152400000Y-83820000D01*
X150460000Y-84388400D02*
X151028400Y-83820000D01*
X142748000Y-82550000D02*
X144272000Y-82550000D01*
X147896500Y-86543000D02*
X149636528Y-86543000D01*
%TO.N,GND*%
X141097000Y-93091000D02*
X143775629Y-93091000D01*
X149860000Y-85471000D02*
X149860000Y-84124800D01*
X137160000Y-80264000D02*
X137694000Y-80798000D01*
X138708200Y-80798000D02*
X138684000Y-80798000D01*
X149438000Y-85893000D02*
X149860000Y-85471000D01*
X149504400Y-83769200D02*
X149860000Y-83413600D01*
X151666000Y-102334000D02*
X152400000Y-101600000D01*
X143775629Y-93091000D02*
X145859629Y-95175000D01*
X149860000Y-84124800D02*
X149504400Y-83769200D01*
X139562200Y-79944000D02*
X138708200Y-80798000D01*
X148844000Y-92482000D02*
X148564000Y-92482000D01*
X149860000Y-83058000D02*
X149606000Y-82804000D01*
X141198000Y-82550000D02*
X140436000Y-82550000D01*
X137160000Y-76200000D02*
X137160000Y-80264000D01*
X137694000Y-80798000D02*
X138684000Y-80798000D01*
X147896500Y-85893000D02*
X149438000Y-85893000D01*
X149606000Y-82804000D02*
X148336000Y-82804000D01*
X140716000Y-92482000D02*
X140716000Y-92710000D01*
X147030000Y-94016000D02*
X147030000Y-95175000D01*
X145859629Y-95175000D02*
X147030000Y-95175000D01*
X149860000Y-83413600D02*
X149860000Y-83058000D01*
X149606000Y-102334000D02*
X151666000Y-102334000D01*
X140716000Y-92710000D02*
X141097000Y-93091000D01*
X140436000Y-82550000D02*
X138684000Y-80798000D01*
X148564000Y-92482000D02*
X147030000Y-94016000D01*
X141224000Y-79944000D02*
X139562200Y-79944000D01*
D25*
%TO.N,P2.6*%
X143155000Y-91440000D02*
X143256000Y-91440000D01*
X146039000Y-84593000D02*
X147896500Y-84593000D01*
X140716000Y-90932000D02*
X142647000Y-90932000D01*
X145288000Y-89027000D02*
X145288000Y-85344000D01*
X142647000Y-90932000D02*
X143155000Y-91440000D01*
X145288000Y-85344000D02*
X146039000Y-84593000D01*
X143256000Y-91440000D02*
X144780000Y-92964000D01*
X143155000Y-91440000D02*
X143155000Y-91160000D01*
X143155000Y-91160000D02*
X145288000Y-89027000D01*
%TO.N,P2.7*%
X151257000Y-99060000D02*
X150495000Y-98298000D01*
X146151000Y-85243000D02*
X145738000Y-85656000D01*
X147896500Y-85243000D02*
X146151000Y-85243000D01*
X146913000Y-90932000D02*
X146405000Y-91440000D01*
X145738000Y-89985000D02*
X146405000Y-90652000D01*
X145738000Y-85656000D02*
X145738000Y-89985000D01*
X149860000Y-90932000D02*
X148844000Y-90932000D01*
X146405000Y-90652000D02*
X146405000Y-91440000D01*
X152400000Y-99060000D02*
X151257000Y-99060000D01*
X150495000Y-98298000D02*
X150495000Y-91567000D01*
X148844000Y-90932000D02*
X146913000Y-90932000D01*
X150495000Y-91567000D02*
X149860000Y-90932000D01*
%TO.N,RST*%
X151003000Y-96647000D02*
X151003000Y-97409000D01*
X147896500Y-87193000D02*
X150693000Y-87193000D01*
X150495000Y-80819000D02*
X151871000Y-80819000D01*
X151003000Y-97409000D02*
X151257000Y-97663000D01*
X150495000Y-76835000D02*
X150495000Y-80819000D01*
X150693000Y-87193000D02*
X152400000Y-88900000D01*
X142530000Y-101675000D02*
X142530000Y-95175000D01*
X149098000Y-80819000D02*
X150495000Y-80819000D01*
X151871000Y-80819000D02*
X151892000Y-80798000D01*
X151003000Y-90297000D02*
X151003000Y-96647000D01*
X150693000Y-86746200D02*
X150693000Y-87193000D01*
X150926800Y-86512400D02*
X150693000Y-86746200D01*
X149860000Y-76200000D02*
X150495000Y-76835000D01*
X152400000Y-88900000D02*
X151003000Y-90297000D01*
D24*
%TO.N,+5V*%
X142443200Y-79248000D02*
X142443200Y-80619600D01*
X139700000Y-78994000D02*
X141224000Y-78994000D01*
X138938000Y-78994000D02*
X139700000Y-78994000D01*
X142443200Y-80619600D02*
X142168800Y-80894000D01*
X139700000Y-76200000D02*
X139700000Y-78994000D01*
X138684000Y-79248000D02*
X138938000Y-78994000D01*
X142189200Y-78994000D02*
X142443200Y-79248000D01*
X141224000Y-78994000D02*
X142189200Y-78994000D01*
X142168800Y-80894000D02*
X141224000Y-80894000D01*
D25*
%TO.N,Net-(D1-A)*%
X149606000Y-96313000D02*
X149606000Y-100584000D01*
%TO.N,Net-(D2-A)*%
X139954000Y-96313000D02*
X139954000Y-100584000D01*
%TO.N,P1.0*%
X149124000Y-88493000D02*
X149606000Y-88011000D01*
X147896500Y-88493000D02*
X149124000Y-88493000D01*
%TO.N,P1.1*%
X149606000Y-89154000D02*
X147907500Y-89154000D01*
X147907500Y-89154000D02*
X147896500Y-89143000D01*
%TO.N,P1.2*%
X142171500Y-89143000D02*
X137403000Y-89143000D01*
X137403000Y-89143000D02*
X137160000Y-88900000D01*
%TO.N,P1.3*%
X143293000Y-88773000D02*
X143013000Y-88493000D01*
X143013000Y-88493000D02*
X142171500Y-88493000D01*
X138811000Y-89789000D02*
X143002000Y-89789000D01*
X137160000Y-91440000D02*
X138811000Y-89789000D01*
X143293000Y-89498000D02*
X143293000Y-88773000D01*
X143002000Y-89789000D02*
X143293000Y-89498000D01*
%TO.N,P1.4*%
X138557000Y-87680800D02*
X138719200Y-87843000D01*
X138719200Y-87843000D02*
X142171500Y-87843000D01*
%TO.N,P1.5*%
X139489600Y-87318000D02*
X142046500Y-87318000D01*
X142046500Y-87318000D02*
X142171500Y-87193000D01*
X138836400Y-86664800D02*
X139489600Y-87318000D01*
%TO.N,P1.6*%
X138955832Y-85558456D02*
X139152456Y-85558456D01*
X140141341Y-86547341D02*
X141012794Y-86547341D01*
X138955832Y-83265832D02*
X138955832Y-85558456D01*
X141017135Y-86543000D02*
X142171500Y-86543000D01*
X141012794Y-86547341D02*
X141017135Y-86543000D01*
X136843000Y-81153000D02*
X138955832Y-83265832D01*
X136271000Y-81153000D02*
X136843000Y-81153000D01*
X139152456Y-85558456D02*
X140141341Y-86547341D01*
%TO.N,P1.7*%
X139441948Y-82727350D02*
X139037799Y-82323201D01*
X140245022Y-85822341D02*
X139441948Y-85019267D01*
X140712489Y-85822341D02*
X142100841Y-85822341D01*
X142100841Y-85822341D02*
X142171500Y-85893000D01*
X140712489Y-85822341D02*
X140245022Y-85822341D01*
X139441948Y-85019267D02*
X139441948Y-82727350D01*
%TO.N,Test*%
X146929500Y-87843000D02*
X146462500Y-87376000D01*
X147896500Y-87843000D02*
X146929500Y-87843000D01*
%TO.N,P2.0*%
X144388000Y-87260000D02*
X143949503Y-87698497D01*
X149606000Y-94488000D02*
X149606000Y-93636500D01*
X142171500Y-85243000D02*
X143536000Y-85243000D01*
X144388000Y-86095000D02*
X144388000Y-87260000D01*
X149606000Y-93636500D02*
X149770500Y-93472000D01*
X143536000Y-85243000D02*
X144388000Y-86095000D01*
%TO.N,P2.1*%
X144838000Y-86614000D02*
X144838000Y-88080000D01*
X142171500Y-84593000D02*
X143522396Y-84593000D01*
X144838000Y-88080000D02*
X144018000Y-88900000D01*
X144838000Y-85908604D02*
X144838000Y-86614000D01*
X143522396Y-84593000D02*
X144838000Y-85908604D01*
%TD*%
%TA.AperFunction,Conductor*%
%TO.N,GND*%
G36*
X153308031Y-74595799D02*
G01*
X153355947Y-74600517D01*
X153429317Y-74607744D01*
X153453145Y-74612483D01*
X153561005Y-74645202D01*
X153583453Y-74654501D01*
X153682849Y-74707629D01*
X153703059Y-74721133D01*
X153790179Y-74792630D01*
X153807369Y-74809820D01*
X153878866Y-74896940D01*
X153892370Y-74917150D01*
X153945495Y-75016538D01*
X153954798Y-75038997D01*
X153987514Y-75146848D01*
X153992256Y-75170688D01*
X154004201Y-75291967D01*
X154004500Y-75298048D01*
X154004500Y-102501951D01*
X154004201Y-102508032D01*
X153992256Y-102629311D01*
X153987514Y-102653151D01*
X153954798Y-102761002D01*
X153945495Y-102783461D01*
X153892370Y-102882849D01*
X153878866Y-102903059D01*
X153807369Y-102990179D01*
X153790179Y-103007369D01*
X153703059Y-103078866D01*
X153682849Y-103092370D01*
X153583461Y-103145495D01*
X153561002Y-103154798D01*
X153453151Y-103187514D01*
X153429311Y-103192256D01*
X153308032Y-103204201D01*
X153301951Y-103204500D01*
X150250742Y-103204500D01*
X150183703Y-103184815D01*
X150137948Y-103132011D01*
X150128004Y-103062853D01*
X150157029Y-102999297D01*
X150176431Y-102981234D01*
X150191756Y-102969761D01*
X150275767Y-102857537D01*
X150324758Y-102726187D01*
X150330999Y-102668146D01*
X150331000Y-102668129D01*
X150331000Y-102459000D01*
X148881000Y-102459000D01*
X148881000Y-102668146D01*
X148887241Y-102726187D01*
X148936232Y-102857537D01*
X149020243Y-102969761D01*
X149035569Y-102981234D01*
X149077440Y-103037168D01*
X149082424Y-103106859D01*
X149048938Y-103168182D01*
X148987615Y-103201666D01*
X148961258Y-103204500D01*
X140598742Y-103204500D01*
X140531703Y-103184815D01*
X140485948Y-103132011D01*
X140476004Y-103062853D01*
X140505029Y-102999297D01*
X140524431Y-102981234D01*
X140539756Y-102969761D01*
X140623767Y-102857537D01*
X140672758Y-102726187D01*
X140678999Y-102668146D01*
X140679000Y-102668129D01*
X140679000Y-102459000D01*
X139229000Y-102459000D01*
X139229000Y-102668146D01*
X139235241Y-102726187D01*
X139284232Y-102857537D01*
X139368243Y-102969761D01*
X139383569Y-102981234D01*
X139425440Y-103037168D01*
X139430424Y-103106859D01*
X139396938Y-103168182D01*
X139335615Y-103201666D01*
X139309258Y-103204500D01*
X136258049Y-103204500D01*
X136251968Y-103204201D01*
X136130688Y-103192256D01*
X136106848Y-103187514D01*
X135998997Y-103154798D01*
X135976541Y-103145496D01*
X135877150Y-103092370D01*
X135856940Y-103078866D01*
X135769820Y-103007369D01*
X135752630Y-102990179D01*
X135681133Y-102903059D01*
X135667629Y-102882849D01*
X135614501Y-102783453D01*
X135605201Y-102761002D01*
X135572483Y-102653145D01*
X135567744Y-102629317D01*
X135555799Y-102508031D01*
X135555500Y-102501951D01*
X135555500Y-101600000D01*
X136054785Y-101600000D01*
X136073602Y-101803082D01*
X136129417Y-101999247D01*
X136129422Y-101999260D01*
X136220327Y-102181821D01*
X136343237Y-102344581D01*
X136493958Y-102481980D01*
X136493960Y-102481982D01*
X136531136Y-102505000D01*
X136667363Y-102589348D01*
X136857544Y-102663024D01*
X137058024Y-102700500D01*
X137058026Y-102700500D01*
X137261974Y-102700500D01*
X137261976Y-102700500D01*
X137462456Y-102663024D01*
X137652637Y-102589348D01*
X137826041Y-102481981D01*
X137976764Y-102344579D01*
X138099673Y-102181821D01*
X138190582Y-101999250D01*
X138246397Y-101803083D01*
X138265215Y-101600000D01*
X138246397Y-101396917D01*
X138190582Y-101200750D01*
X138165366Y-101150110D01*
X138114204Y-101047362D01*
X138099673Y-101018179D01*
X138024165Y-100918190D01*
X139228500Y-100918190D01*
X139234748Y-100976299D01*
X139261348Y-101047615D01*
X139283788Y-101107778D01*
X139367884Y-101220116D01*
X139480222Y-101304212D01*
X139584445Y-101343085D01*
X139640379Y-101384957D01*
X139664795Y-101450422D01*
X139649943Y-101518694D01*
X139600537Y-101568100D01*
X139584445Y-101575449D01*
X139480462Y-101614232D01*
X139368241Y-101698241D01*
X139284232Y-101810462D01*
X139235241Y-101941812D01*
X139229000Y-101999853D01*
X139229000Y-102209000D01*
X140679000Y-102209000D01*
X140679000Y-101999870D01*
X140678999Y-101999853D01*
X140672758Y-101941812D01*
X140623767Y-101810462D01*
X140539758Y-101698241D01*
X140427537Y-101614232D01*
X140323554Y-101575449D01*
X140267621Y-101533577D01*
X140243204Y-101468113D01*
X140258056Y-101399840D01*
X140307461Y-101350435D01*
X140323548Y-101343087D01*
X140427778Y-101304212D01*
X140540116Y-101220116D01*
X140624212Y-101107778D01*
X140673251Y-100976299D01*
X140673283Y-100976000D01*
X140679499Y-100918190D01*
X140679500Y-100918173D01*
X140679500Y-100249826D01*
X140679499Y-100249809D01*
X140673251Y-100191700D01*
X140647635Y-100123022D01*
X140624212Y-100060222D01*
X140540116Y-99947884D01*
X140427778Y-99863788D01*
X140427776Y-99863787D01*
X140427777Y-99863787D01*
X140410163Y-99857217D01*
X140354230Y-99815344D01*
X140329816Y-99749879D01*
X140329500Y-99741037D01*
X140329500Y-97118462D01*
X140349185Y-97051423D01*
X140401989Y-97005668D01*
X140410171Y-97002279D01*
X140427774Y-96995714D01*
X140427775Y-96995712D01*
X140427778Y-96995712D01*
X140540116Y-96911616D01*
X140624212Y-96799278D01*
X140673251Y-96667799D01*
X140673250Y-96667799D01*
X140679499Y-96609690D01*
X140679500Y-96609673D01*
X140679500Y-96016326D01*
X140679499Y-96016309D01*
X140673251Y-95958200D01*
X140658665Y-95919094D01*
X140624212Y-95826722D01*
X140540116Y-95714384D01*
X140467499Y-95660023D01*
X140427780Y-95630289D01*
X140427778Y-95630288D01*
X140401144Y-95620354D01*
X140296299Y-95581248D01*
X140238190Y-95575000D01*
X140238174Y-95575000D01*
X139669826Y-95575000D01*
X139669809Y-95575000D01*
X139611700Y-95581248D01*
X139480219Y-95630289D01*
X139367884Y-95714384D01*
X139283789Y-95826719D01*
X139234748Y-95958200D01*
X139228500Y-96016309D01*
X139228500Y-96609690D01*
X139234748Y-96667799D01*
X139273854Y-96772644D01*
X139283788Y-96799278D01*
X139367884Y-96911616D01*
X139440500Y-96965976D01*
X139480222Y-96995712D01*
X139480225Y-96995714D01*
X139497829Y-97002279D01*
X139553765Y-97044148D01*
X139578184Y-97109612D01*
X139578500Y-97118462D01*
X139578500Y-99741037D01*
X139558815Y-99808076D01*
X139506011Y-99853831D01*
X139497837Y-99857217D01*
X139480222Y-99863787D01*
X139367884Y-99947884D01*
X139283789Y-100060219D01*
X139234748Y-100191700D01*
X139228500Y-100249809D01*
X139228500Y-100918190D01*
X138024165Y-100918190D01*
X137976764Y-100855421D01*
X137976762Y-100855418D01*
X137826041Y-100718019D01*
X137826039Y-100718017D01*
X137652642Y-100610655D01*
X137652635Y-100610651D01*
X137463705Y-100537460D01*
X137462456Y-100536976D01*
X137261976Y-100499500D01*
X137058024Y-100499500D01*
X136857544Y-100536976D01*
X136857541Y-100536976D01*
X136857541Y-100536977D01*
X136667364Y-100610651D01*
X136667357Y-100610655D01*
X136493960Y-100718017D01*
X136493958Y-100718019D01*
X136343237Y-100855418D01*
X136220327Y-101018178D01*
X136129422Y-101200739D01*
X136129417Y-101200752D01*
X136073602Y-101396917D01*
X136054785Y-101599999D01*
X136054785Y-101600000D01*
X135555500Y-101600000D01*
X135555500Y-99060000D01*
X136054785Y-99060000D01*
X136073602Y-99263082D01*
X136129417Y-99459247D01*
X136129422Y-99459260D01*
X136220327Y-99641821D01*
X136343237Y-99804581D01*
X136493958Y-99941980D01*
X136493960Y-99941982D01*
X136593141Y-100003392D01*
X136667363Y-100049348D01*
X136857544Y-100123024D01*
X137058024Y-100160500D01*
X137058026Y-100160500D01*
X137261974Y-100160500D01*
X137261976Y-100160500D01*
X137462456Y-100123024D01*
X137652637Y-100049348D01*
X137826041Y-99941981D01*
X137976764Y-99804579D01*
X138099673Y-99641821D01*
X138190582Y-99459250D01*
X138246397Y-99263083D01*
X138265215Y-99060000D01*
X138246397Y-98856917D01*
X138190582Y-98660750D01*
X138184143Y-98647819D01*
X138126386Y-98531826D01*
X138099673Y-98478179D01*
X138004493Y-98352140D01*
X137976762Y-98315418D01*
X137826041Y-98178019D01*
X137826039Y-98178017D01*
X137652642Y-98070655D01*
X137652635Y-98070651D01*
X137521336Y-98019786D01*
X137462456Y-97996976D01*
X137261976Y-97959500D01*
X137058024Y-97959500D01*
X136857544Y-97996976D01*
X136857541Y-97996976D01*
X136857541Y-97996977D01*
X136667364Y-98070651D01*
X136667357Y-98070655D01*
X136493960Y-98178017D01*
X136493958Y-98178019D01*
X136343237Y-98315418D01*
X136220327Y-98478178D01*
X136129422Y-98660739D01*
X136129417Y-98660752D01*
X136073602Y-98856917D01*
X136054785Y-99059999D01*
X136054785Y-99060000D01*
X135555500Y-99060000D01*
X135555500Y-96520000D01*
X136054785Y-96520000D01*
X136073602Y-96723082D01*
X136129417Y-96919247D01*
X136129422Y-96919260D01*
X136220327Y-97101821D01*
X136343237Y-97264581D01*
X136493958Y-97401980D01*
X136493960Y-97401982D01*
X136593141Y-97463392D01*
X136667363Y-97509348D01*
X136857544Y-97583024D01*
X137058024Y-97620500D01*
X137058026Y-97620500D01*
X137261974Y-97620500D01*
X137261976Y-97620500D01*
X137462456Y-97583024D01*
X137652637Y-97509348D01*
X137826041Y-97401981D01*
X137976764Y-97264579D01*
X138099673Y-97101821D01*
X138190582Y-96919250D01*
X138246397Y-96723083D01*
X138265215Y-96520000D01*
X138246397Y-96316917D01*
X138190582Y-96120750D01*
X138099673Y-95938179D01*
X138015505Y-95826722D01*
X137976762Y-95775418D01*
X137826041Y-95638019D01*
X137826039Y-95638017D01*
X137652642Y-95530655D01*
X137652635Y-95530651D01*
X137557546Y-95493814D01*
X137462456Y-95456976D01*
X137261976Y-95419500D01*
X137058024Y-95419500D01*
X136857544Y-95456976D01*
X136857541Y-95456976D01*
X136857541Y-95456977D01*
X136667364Y-95530651D01*
X136667357Y-95530655D01*
X136493960Y-95638017D01*
X136493958Y-95638019D01*
X136343237Y-95775418D01*
X136220327Y-95938178D01*
X136129422Y-96120739D01*
X136129417Y-96120752D01*
X136073602Y-96316917D01*
X136054785Y-96519999D01*
X136054785Y-96520000D01*
X135555500Y-96520000D01*
X135555500Y-93980000D01*
X136054785Y-93980000D01*
X136073602Y-94183082D01*
X136129417Y-94379247D01*
X136129422Y-94379260D01*
X136220327Y-94561821D01*
X136343237Y-94724581D01*
X136472917Y-94842799D01*
X136490230Y-94858582D01*
X136493958Y-94861980D01*
X136493960Y-94861982D01*
X136497906Y-94864425D01*
X136667363Y-94969348D01*
X136857544Y-95043024D01*
X137058024Y-95080500D01*
X137058026Y-95080500D01*
X137261974Y-95080500D01*
X137261976Y-95080500D01*
X137462456Y-95043024D01*
X137652637Y-94969348D01*
X137826041Y-94861981D01*
X137910825Y-94784690D01*
X139228500Y-94784690D01*
X139234748Y-94842799D01*
X139283789Y-94974280D01*
X139317351Y-95019112D01*
X139367884Y-95086616D01*
X139480222Y-95170712D01*
X139572594Y-95205165D01*
X139611700Y-95219751D01*
X139669809Y-95225999D01*
X139669826Y-95226000D01*
X140238174Y-95226000D01*
X140238190Y-95225999D01*
X140296299Y-95219751D01*
X140301085Y-95217966D01*
X140427778Y-95170712D01*
X140540116Y-95086616D01*
X140611518Y-94991233D01*
X140667450Y-94949365D01*
X140724668Y-94942327D01*
X140733035Y-94943270D01*
X140791479Y-94932211D01*
X140850287Y-94923348D01*
X140850290Y-94923346D01*
X140858447Y-94920830D01*
X140866469Y-94918023D01*
X140866472Y-94918023D01*
X140919072Y-94890222D01*
X140972642Y-94864425D01*
X140972642Y-94864424D01*
X140972644Y-94864424D01*
X140979695Y-94859616D01*
X140986538Y-94854566D01*
X141028600Y-94812503D01*
X141052207Y-94790600D01*
X141114739Y-94759432D01*
X141136546Y-94757500D01*
X141183485Y-94757500D01*
X141183485Y-94760249D01*
X141239673Y-94769576D01*
X141291472Y-94816465D01*
X141309699Y-94883916D01*
X141305503Y-94913320D01*
X141293793Y-94957020D01*
X141293793Y-94957024D01*
X141274723Y-95174997D01*
X141274723Y-95175002D01*
X141293793Y-95392975D01*
X141293793Y-95392979D01*
X141350422Y-95604322D01*
X141350424Y-95604326D01*
X141350425Y-95604330D01*
X141371418Y-95649349D01*
X141442897Y-95802638D01*
X141442898Y-95802639D01*
X141568402Y-95981877D01*
X141723123Y-96136598D01*
X141902361Y-96262102D01*
X142082905Y-96346291D01*
X142135344Y-96392462D01*
X142154500Y-96458672D01*
X142154500Y-100391327D01*
X142134815Y-100458366D01*
X142082905Y-100503709D01*
X141902361Y-100587898D01*
X141902357Y-100587900D01*
X141723121Y-100713402D01*
X141568402Y-100868121D01*
X141442900Y-101047357D01*
X141442898Y-101047361D01*
X141387673Y-101165791D01*
X141351042Y-101244348D01*
X141350426Y-101245668D01*
X141350422Y-101245677D01*
X141293793Y-101457020D01*
X141293793Y-101457024D01*
X141274723Y-101674997D01*
X141274723Y-101675002D01*
X141293793Y-101892975D01*
X141293793Y-101892979D01*
X141350422Y-102104322D01*
X141350424Y-102104326D01*
X141350425Y-102104330D01*
X141362605Y-102130450D01*
X141442897Y-102302638D01*
X141442898Y-102302639D01*
X141568402Y-102481877D01*
X141723123Y-102636598D01*
X141902361Y-102762102D01*
X142100670Y-102854575D01*
X142312023Y-102911207D01*
X142494926Y-102927208D01*
X142529998Y-102930277D01*
X142530000Y-102930277D01*
X142530002Y-102930277D01*
X142558254Y-102927805D01*
X142747977Y-102911207D01*
X142959330Y-102854575D01*
X143157639Y-102762102D01*
X143336877Y-102636598D01*
X143491598Y-102481877D01*
X143617102Y-102302639D01*
X143709575Y-102104330D01*
X143766207Y-101892977D01*
X143785277Y-101675000D01*
X145775225Y-101675000D01*
X145794287Y-101892884D01*
X145794289Y-101892894D01*
X145850894Y-102104150D01*
X145850898Y-102104159D01*
X145943332Y-102302386D01*
X145943333Y-102302388D01*
X146059676Y-102468545D01*
X146059677Y-102468545D01*
X146464767Y-102063454D01*
X146526090Y-102029969D01*
X146595781Y-102034953D01*
X146643111Y-102066541D01*
X146644477Y-102068005D01*
X146675820Y-102130450D01*
X146668426Y-102199927D01*
X146641495Y-102240280D01*
X146236453Y-102645321D01*
X146402612Y-102761666D01*
X146600840Y-102854101D01*
X146600849Y-102854105D01*
X146812105Y-102910710D01*
X146812115Y-102910712D01*
X147029999Y-102929775D01*
X147030001Y-102929775D01*
X147247884Y-102910712D01*
X147247894Y-102910710D01*
X147459150Y-102854105D01*
X147459159Y-102854101D01*
X147657387Y-102761666D01*
X147823545Y-102645321D01*
X147420640Y-102242417D01*
X147387155Y-102181094D01*
X147392139Y-102111403D01*
X147430100Y-102058521D01*
X147431663Y-102057249D01*
X147496099Y-102030235D01*
X147564911Y-102042346D01*
X147597563Y-102065786D01*
X148000321Y-102468545D01*
X148116666Y-102302387D01*
X148209101Y-102104159D01*
X148209105Y-102104150D01*
X148265710Y-101892894D01*
X148265712Y-101892884D01*
X148284775Y-101675000D01*
X148284775Y-101674999D01*
X148265712Y-101457115D01*
X148265710Y-101457105D01*
X148209105Y-101245849D01*
X148209101Y-101245840D01*
X148116668Y-101047615D01*
X148000320Y-100881454D01*
X147595231Y-101286543D01*
X147533908Y-101320028D01*
X147464216Y-101315044D01*
X147416916Y-101283487D01*
X147415550Y-101282024D01*
X147384186Y-101219590D01*
X147391555Y-101150110D01*
X147418503Y-101109718D01*
X147823545Y-100704677D01*
X147823545Y-100704676D01*
X147657388Y-100588333D01*
X147657386Y-100588332D01*
X147459159Y-100495898D01*
X147459150Y-100495894D01*
X147247894Y-100439289D01*
X147247884Y-100439287D01*
X147030001Y-100420225D01*
X147029999Y-100420225D01*
X146812115Y-100439287D01*
X146812105Y-100439289D01*
X146600849Y-100495894D01*
X146600840Y-100495898D01*
X146402613Y-100588333D01*
X146236454Y-100704678D01*
X146639359Y-101107582D01*
X146672844Y-101168905D01*
X146667860Y-101238596D01*
X146629927Y-101291456D01*
X146628367Y-101292725D01*
X146563940Y-101319759D01*
X146495124Y-101307670D01*
X146462437Y-101284213D01*
X146059678Y-100881454D01*
X145943333Y-101047613D01*
X145850898Y-101245840D01*
X145850894Y-101245849D01*
X145794289Y-101457105D01*
X145794287Y-101457115D01*
X145775225Y-101674999D01*
X145775225Y-101675000D01*
X143785277Y-101675000D01*
X143781962Y-101637114D01*
X143778803Y-101601000D01*
X143766207Y-101457023D01*
X143709575Y-101245670D01*
X143617102Y-101047362D01*
X143617100Y-101047359D01*
X143617099Y-101047357D01*
X143491599Y-100868124D01*
X143478893Y-100855418D01*
X143336877Y-100713402D01*
X143190134Y-100610651D01*
X143157638Y-100587897D01*
X142977095Y-100503709D01*
X142924656Y-100457537D01*
X142905500Y-100391327D01*
X142905500Y-96458672D01*
X142925185Y-96391633D01*
X142977094Y-96346291D01*
X143157639Y-96262102D01*
X143336877Y-96136598D01*
X143491598Y-95981877D01*
X143617102Y-95802639D01*
X143709575Y-95604330D01*
X143766207Y-95392977D01*
X143785277Y-95175000D01*
X145775225Y-95175000D01*
X145794287Y-95392884D01*
X145794289Y-95392894D01*
X145850894Y-95604150D01*
X145850898Y-95604159D01*
X145943332Y-95802386D01*
X145943333Y-95802388D01*
X146059676Y-95968545D01*
X146059677Y-95968545D01*
X146464767Y-95563454D01*
X146526090Y-95529969D01*
X146595781Y-95534953D01*
X146643111Y-95566541D01*
X146644477Y-95568005D01*
X146675820Y-95630450D01*
X146668426Y-95699927D01*
X146641495Y-95740280D01*
X146236453Y-96145321D01*
X146402612Y-96261666D01*
X146600840Y-96354101D01*
X146600849Y-96354105D01*
X146812105Y-96410710D01*
X146812115Y-96410712D01*
X147029999Y-96429775D01*
X147030001Y-96429775D01*
X147247884Y-96410712D01*
X147247894Y-96410710D01*
X147459150Y-96354105D01*
X147459159Y-96354101D01*
X147657387Y-96261666D01*
X147823545Y-96145321D01*
X147420640Y-95742417D01*
X147387155Y-95681094D01*
X147392139Y-95611403D01*
X147430100Y-95558521D01*
X147431663Y-95557249D01*
X147496099Y-95530235D01*
X147564911Y-95542346D01*
X147597563Y-95565786D01*
X148000321Y-95968545D01*
X148116666Y-95802387D01*
X148209101Y-95604159D01*
X148209105Y-95604150D01*
X148265710Y-95392894D01*
X148265712Y-95392884D01*
X148284775Y-95175000D01*
X148284775Y-95174999D01*
X148265712Y-94957115D01*
X148265710Y-94957105D01*
X148209105Y-94745849D01*
X148209101Y-94745840D01*
X148116668Y-94547615D01*
X148000320Y-94381454D01*
X147595231Y-94786543D01*
X147533908Y-94820028D01*
X147464216Y-94815044D01*
X147416916Y-94783487D01*
X147415550Y-94782024D01*
X147384186Y-94719590D01*
X147391555Y-94650110D01*
X147418503Y-94609718D01*
X147823545Y-94204677D01*
X147823545Y-94204676D01*
X147657388Y-94088333D01*
X147657386Y-94088332D01*
X147459159Y-93995898D01*
X147459150Y-93995894D01*
X147247894Y-93939289D01*
X147247884Y-93939287D01*
X147030001Y-93920225D01*
X147029999Y-93920225D01*
X146812115Y-93939287D01*
X146812105Y-93939289D01*
X146600849Y-93995894D01*
X146600840Y-93995898D01*
X146402613Y-94088333D01*
X146236454Y-94204678D01*
X146639359Y-94607582D01*
X146672844Y-94668905D01*
X146667860Y-94738596D01*
X146629927Y-94791456D01*
X146628367Y-94792725D01*
X146563940Y-94819759D01*
X146495124Y-94807670D01*
X146462437Y-94784213D01*
X146059678Y-94381454D01*
X145943333Y-94547613D01*
X145850898Y-94745840D01*
X145850894Y-94745849D01*
X145794289Y-94957105D01*
X145794287Y-94957115D01*
X145775225Y-95174999D01*
X145775225Y-95175000D01*
X143785277Y-95175000D01*
X143781962Y-95137114D01*
X143781569Y-95132618D01*
X143766207Y-94957023D01*
X143714651Y-94764613D01*
X143709577Y-94745677D01*
X143709576Y-94745676D01*
X143709575Y-94745670D01*
X143617102Y-94547362D01*
X143617100Y-94547359D01*
X143617099Y-94547357D01*
X143491599Y-94368124D01*
X143491598Y-94368123D01*
X143336877Y-94213402D01*
X143198978Y-94116844D01*
X143157638Y-94087897D01*
X143058484Y-94041661D01*
X142959330Y-93995425D01*
X142959326Y-93995424D01*
X142959322Y-93995422D01*
X142747977Y-93938793D01*
X142530002Y-93919723D01*
X142529998Y-93919723D01*
X142384682Y-93932436D01*
X142312023Y-93938793D01*
X142312020Y-93938793D01*
X142100677Y-93995422D01*
X142100663Y-93995427D01*
X141913024Y-94082925D01*
X141843947Y-94093417D01*
X141780163Y-94064897D01*
X141741924Y-94006420D01*
X141737524Y-93985489D01*
X141733237Y-93950182D01*
X141677220Y-93802477D01*
X141587483Y-93672470D01*
X141469240Y-93567717D01*
X141469238Y-93567716D01*
X141469237Y-93567715D01*
X141329365Y-93494303D01*
X141175986Y-93456500D01*
X141175985Y-93456500D01*
X141018015Y-93456500D01*
X141018014Y-93456500D01*
X140864634Y-93494303D01*
X140724762Y-93567715D01*
X140606516Y-93672471D01*
X140551889Y-93751612D01*
X140497606Y-93795602D01*
X140428157Y-93803262D01*
X140406508Y-93797355D01*
X140365815Y-93782177D01*
X140296299Y-93756248D01*
X140238190Y-93750000D01*
X140238174Y-93750000D01*
X139669826Y-93750000D01*
X139669809Y-93750000D01*
X139611700Y-93756248D01*
X139480219Y-93805289D01*
X139367884Y-93889384D01*
X139283789Y-94001719D01*
X139234748Y-94133200D01*
X139228500Y-94191309D01*
X139228500Y-94784690D01*
X137910825Y-94784690D01*
X137961388Y-94738596D01*
X137976762Y-94724581D01*
X137980451Y-94719696D01*
X138099673Y-94561821D01*
X138190582Y-94379250D01*
X138246397Y-94183083D01*
X138265215Y-93980000D01*
X138261442Y-93939287D01*
X138246397Y-93776917D01*
X138238738Y-93750000D01*
X138190582Y-93580750D01*
X138188563Y-93576696D01*
X138128713Y-93456500D01*
X138099673Y-93398179D01*
X138001762Y-93268524D01*
X137976762Y-93235418D01*
X137826041Y-93098019D01*
X137826039Y-93098017D01*
X137652642Y-92990655D01*
X137652635Y-92990651D01*
X137503088Y-92932717D01*
X137462456Y-92916976D01*
X137261976Y-92879500D01*
X137058024Y-92879500D01*
X136857544Y-92916976D01*
X136857541Y-92916976D01*
X136857541Y-92916977D01*
X136667364Y-92990651D01*
X136667357Y-92990655D01*
X136493960Y-93098017D01*
X136493958Y-93098019D01*
X136343237Y-93235418D01*
X136220327Y-93398178D01*
X136129422Y-93580739D01*
X136129417Y-93580752D01*
X136073602Y-93776917D01*
X136054785Y-93979999D01*
X136054785Y-93980000D01*
X135555500Y-93980000D01*
X135555500Y-92607000D01*
X139991001Y-92607000D01*
X139991001Y-92752439D01*
X139997081Y-92809007D01*
X140044813Y-92936981D01*
X140044815Y-92936984D01*
X140126670Y-93046329D01*
X140236015Y-93128184D01*
X140236016Y-93128185D01*
X140363991Y-93175917D01*
X140363994Y-93175918D01*
X140420555Y-93181999D01*
X140590999Y-93181999D01*
X140591000Y-93181998D01*
X140591000Y-92607000D01*
X140841000Y-92607000D01*
X140841000Y-93181999D01*
X141011433Y-93181999D01*
X141011439Y-93181998D01*
X141068007Y-93175918D01*
X141195981Y-93128186D01*
X141195984Y-93128184D01*
X141305329Y-93046329D01*
X141387184Y-92936984D01*
X141387185Y-92936983D01*
X141434916Y-92809010D01*
X141440999Y-92752428D01*
X141441000Y-92752427D01*
X141441000Y-92607000D01*
X140841000Y-92607000D01*
X140591000Y-92607000D01*
X139991001Y-92607000D01*
X135555500Y-92607000D01*
X135555500Y-81659466D01*
X135575185Y-81592427D01*
X135627989Y-81546672D01*
X135697147Y-81536728D01*
X135760703Y-81565753D01*
X135775341Y-81582094D01*
X135775543Y-81581916D01*
X135780512Y-81587525D01*
X135780515Y-81587528D01*
X135780517Y-81587530D01*
X135898760Y-81692283D01*
X135898762Y-81692284D01*
X136038634Y-81765696D01*
X136192014Y-81803500D01*
X136192015Y-81803500D01*
X136349985Y-81803500D01*
X136503365Y-81765696D01*
X136643233Y-81692287D01*
X136643234Y-81692285D01*
X136643240Y-81692283D01*
X136666163Y-81671974D01*
X136729392Y-81642253D01*
X136798656Y-81651434D01*
X136836071Y-81677108D01*
X137666782Y-82507819D01*
X137700267Y-82569142D01*
X137695283Y-82638834D01*
X137653411Y-82694767D01*
X137587947Y-82719184D01*
X137579101Y-82719500D01*
X136285323Y-82719500D01*
X136212264Y-82734032D01*
X136212260Y-82734033D01*
X136129399Y-82789399D01*
X136074033Y-82872260D01*
X136074032Y-82872264D01*
X136059500Y-82945321D01*
X136059500Y-84694678D01*
X136074032Y-84767735D01*
X136074033Y-84767739D01*
X136074034Y-84767740D01*
X136129399Y-84850601D01*
X136208700Y-84903587D01*
X136212260Y-84905966D01*
X136212264Y-84905967D01*
X136285321Y-84920499D01*
X136285324Y-84920500D01*
X136285326Y-84920500D01*
X138034676Y-84920500D01*
X138034677Y-84920499D01*
X138107740Y-84905966D01*
X138190601Y-84850601D01*
X138245966Y-84767740D01*
X138260500Y-84694674D01*
X138260500Y-83400898D01*
X138280185Y-83333859D01*
X138332989Y-83288104D01*
X138402147Y-83278160D01*
X138465703Y-83307185D01*
X138472171Y-83313208D01*
X138544014Y-83385050D01*
X138577498Y-83446372D01*
X138580332Y-83472730D01*
X138580332Y-84966252D01*
X138560647Y-85033291D01*
X138538559Y-85059067D01*
X138465350Y-85123924D01*
X138375613Y-85253931D01*
X138375612Y-85253932D01*
X138319594Y-85401637D01*
X138300554Y-85558455D01*
X138300554Y-85558456D01*
X138315314Y-85680019D01*
X138303853Y-85748942D01*
X138256949Y-85800728D01*
X138189494Y-85818935D01*
X138122903Y-85797782D01*
X138093264Y-85769692D01*
X137976762Y-85615418D01*
X137826041Y-85478019D01*
X137826039Y-85478017D01*
X137652642Y-85370655D01*
X137652635Y-85370651D01*
X137557546Y-85333813D01*
X137462456Y-85296976D01*
X137261976Y-85259500D01*
X137058024Y-85259500D01*
X136857544Y-85296976D01*
X136857541Y-85296976D01*
X136857541Y-85296977D01*
X136667364Y-85370651D01*
X136667357Y-85370655D01*
X136493960Y-85478017D01*
X136493958Y-85478019D01*
X136343237Y-85615418D01*
X136220327Y-85778178D01*
X136129422Y-85960739D01*
X136129417Y-85960752D01*
X136073602Y-86156917D01*
X136054785Y-86359999D01*
X136054785Y-86360000D01*
X136073602Y-86563082D01*
X136129417Y-86759247D01*
X136129422Y-86759260D01*
X136220327Y-86941821D01*
X136343237Y-87104581D01*
X136493958Y-87241980D01*
X136493960Y-87241982D01*
X136529469Y-87263968D01*
X136667363Y-87349348D01*
X136857544Y-87423024D01*
X137058024Y-87460500D01*
X137058026Y-87460500D01*
X137261974Y-87460500D01*
X137261976Y-87460500D01*
X137462456Y-87423024D01*
X137652637Y-87349348D01*
X137778724Y-87271278D01*
X137846082Y-87252723D01*
X137912781Y-87273531D01*
X137957643Y-87327096D01*
X137966423Y-87396412D01*
X137959941Y-87420677D01*
X137920763Y-87523981D01*
X137901722Y-87680799D01*
X137901722Y-87680800D01*
X137921030Y-87839825D01*
X137909569Y-87908749D01*
X137862665Y-87960534D01*
X137795209Y-87978741D01*
X137732657Y-87960198D01*
X137652642Y-87910655D01*
X137652635Y-87910651D01*
X137552552Y-87871879D01*
X137462456Y-87836976D01*
X137261976Y-87799500D01*
X137058024Y-87799500D01*
X136857544Y-87836976D01*
X136857541Y-87836976D01*
X136857541Y-87836977D01*
X136667364Y-87910651D01*
X136667357Y-87910655D01*
X136493960Y-88018017D01*
X136493958Y-88018019D01*
X136343237Y-88155418D01*
X136220327Y-88318178D01*
X136129422Y-88500739D01*
X136129417Y-88500752D01*
X136073602Y-88696917D01*
X136054785Y-88899999D01*
X136054785Y-88900000D01*
X136073602Y-89103082D01*
X136129417Y-89299247D01*
X136129422Y-89299260D01*
X136220327Y-89481821D01*
X136343237Y-89644581D01*
X136493958Y-89781980D01*
X136493960Y-89781982D01*
X136593141Y-89843392D01*
X136667363Y-89889348D01*
X136857544Y-89963024D01*
X137058024Y-90000500D01*
X137058026Y-90000500D01*
X137261974Y-90000500D01*
X137261976Y-90000500D01*
X137462456Y-89963024D01*
X137652637Y-89889348D01*
X137826041Y-89781981D01*
X137976764Y-89644579D01*
X138034764Y-89567773D01*
X138090872Y-89526137D01*
X138133718Y-89518500D01*
X138251100Y-89518500D01*
X138318139Y-89538185D01*
X138363894Y-89590989D01*
X138373838Y-89660147D01*
X138344813Y-89723703D01*
X138338781Y-89730181D01*
X137685028Y-90383933D01*
X137623705Y-90417418D01*
X137554013Y-90412434D01*
X137552554Y-90411879D01*
X137462461Y-90376977D01*
X137462456Y-90376976D01*
X137261976Y-90339500D01*
X137058024Y-90339500D01*
X136857544Y-90376976D01*
X136857541Y-90376976D01*
X136857541Y-90376977D01*
X136667364Y-90450651D01*
X136667357Y-90450655D01*
X136493960Y-90558017D01*
X136493958Y-90558019D01*
X136343237Y-90695418D01*
X136220327Y-90858178D01*
X136129422Y-91040739D01*
X136129417Y-91040752D01*
X136073602Y-91236917D01*
X136054785Y-91439999D01*
X136054785Y-91440000D01*
X136073602Y-91643082D01*
X136129417Y-91839247D01*
X136129422Y-91839260D01*
X136220327Y-92021821D01*
X136343237Y-92184581D01*
X136493958Y-92321980D01*
X136493960Y-92321982D01*
X136562911Y-92364674D01*
X136667363Y-92429348D01*
X136857544Y-92503024D01*
X137058024Y-92540500D01*
X137058026Y-92540500D01*
X137261974Y-92540500D01*
X137261976Y-92540500D01*
X137462456Y-92503024D01*
X137652637Y-92429348D01*
X137826041Y-92321981D01*
X137954122Y-92205219D01*
X137976762Y-92184581D01*
X137990812Y-92165976D01*
X138099673Y-92021821D01*
X138190582Y-91839250D01*
X138246397Y-91643083D01*
X138265215Y-91440000D01*
X138246397Y-91236917D01*
X138190582Y-91040750D01*
X138190581Y-91040748D01*
X138189013Y-91035237D01*
X138190994Y-91034673D01*
X138185902Y-90974174D01*
X138218614Y-90912435D01*
X138219624Y-90911411D01*
X138930217Y-90200819D01*
X138991541Y-90167334D01*
X139017899Y-90164500D01*
X140030417Y-90164500D01*
X140097456Y-90184185D01*
X140143211Y-90236989D01*
X140153155Y-90306147D01*
X140129684Y-90362811D01*
X140126314Y-90367311D01*
X140126313Y-90367313D01*
X140094730Y-90409502D01*
X140044373Y-90476771D01*
X140029993Y-90515326D01*
X140014070Y-90558017D01*
X139996587Y-90604889D01*
X139990500Y-90661498D01*
X139990500Y-91202481D01*
X139990501Y-91202490D01*
X139996587Y-91259114D01*
X140035881Y-91364461D01*
X140044372Y-91387226D01*
X140126313Y-91496687D01*
X140235774Y-91578628D01*
X140269174Y-91591085D01*
X140325105Y-91632956D01*
X140349522Y-91698420D01*
X140334670Y-91766693D01*
X140285265Y-91816098D01*
X140269172Y-91823447D01*
X140236023Y-91835811D01*
X140236015Y-91835815D01*
X140126670Y-91917670D01*
X140044815Y-92027015D01*
X140044814Y-92027016D01*
X139997083Y-92154989D01*
X139991000Y-92211571D01*
X139991000Y-92357000D01*
X141440999Y-92357000D01*
X141440999Y-92211566D01*
X141440998Y-92211560D01*
X141434918Y-92154992D01*
X141387186Y-92027018D01*
X141387184Y-92027015D01*
X141305329Y-91917670D01*
X141195984Y-91835815D01*
X141195983Y-91835814D01*
X141162827Y-91823448D01*
X141106894Y-91781576D01*
X141082477Y-91716112D01*
X141097329Y-91647839D01*
X141146734Y-91598434D01*
X141162816Y-91591089D01*
X141196226Y-91578628D01*
X141305687Y-91496687D01*
X141387628Y-91387226D01*
X141387630Y-91387220D01*
X141391877Y-91379444D01*
X141393246Y-91380191D01*
X141429150Y-91332232D01*
X141494615Y-91307816D01*
X141503459Y-91307500D01*
X141905500Y-91307500D01*
X141972539Y-91327185D01*
X142018294Y-91379989D01*
X142029500Y-91431500D01*
X142029500Y-92364678D01*
X142044032Y-92437735D01*
X142044033Y-92437739D01*
X142044034Y-92437740D01*
X142099399Y-92520601D01*
X142182260Y-92575966D01*
X142182264Y-92575967D01*
X142255321Y-92590499D01*
X142255324Y-92590500D01*
X142255326Y-92590500D01*
X143824101Y-92590500D01*
X143891140Y-92610185D01*
X143911782Y-92626819D01*
X144095481Y-92810518D01*
X144128966Y-92871841D01*
X144130896Y-92913143D01*
X144124722Y-92963997D01*
X144124722Y-92964000D01*
X144143762Y-93120818D01*
X144174431Y-93201684D01*
X144199780Y-93268523D01*
X144289517Y-93398530D01*
X144407760Y-93503283D01*
X144407762Y-93503284D01*
X144547634Y-93576696D01*
X144701014Y-93614500D01*
X144701015Y-93614500D01*
X144858985Y-93614500D01*
X145012365Y-93576696D01*
X145039394Y-93562510D01*
X145152240Y-93503283D01*
X145270483Y-93398530D01*
X145360220Y-93268523D01*
X145416237Y-93120818D01*
X145435278Y-92964000D01*
X145429998Y-92920519D01*
X145416237Y-92807182D01*
X145416236Y-92807182D01*
X145397762Y-92758469D01*
X145392396Y-92688809D01*
X145425543Y-92627303D01*
X145462244Y-92607000D01*
X148119001Y-92607000D01*
X148119001Y-92752439D01*
X148125081Y-92809007D01*
X148172813Y-92936981D01*
X148172815Y-92936984D01*
X148254670Y-93046329D01*
X148364015Y-93128184D01*
X148364016Y-93128185D01*
X148491991Y-93175917D01*
X148491994Y-93175918D01*
X148548555Y-93181999D01*
X148718999Y-93181999D01*
X148719000Y-93181998D01*
X148719000Y-92607000D01*
X148119001Y-92607000D01*
X145462244Y-92607000D01*
X145486681Y-92593481D01*
X145513705Y-92590500D01*
X147304676Y-92590500D01*
X147304677Y-92590499D01*
X147377740Y-92575966D01*
X147460601Y-92520601D01*
X147515966Y-92437740D01*
X147530500Y-92364674D01*
X147530500Y-91431499D01*
X147550185Y-91364461D01*
X147602989Y-91318706D01*
X147654500Y-91307500D01*
X148056541Y-91307500D01*
X148123580Y-91327185D01*
X148169335Y-91379989D01*
X148172209Y-91386928D01*
X148172372Y-91387226D01*
X148254313Y-91496687D01*
X148363774Y-91578628D01*
X148397174Y-91591085D01*
X148453105Y-91632956D01*
X148477522Y-91698420D01*
X148462670Y-91766693D01*
X148413265Y-91816098D01*
X148397172Y-91823447D01*
X148364023Y-91835811D01*
X148364015Y-91835815D01*
X148254670Y-91917670D01*
X148172815Y-92027015D01*
X148172814Y-92027016D01*
X148125083Y-92154989D01*
X148119000Y-92211571D01*
X148119000Y-92357000D01*
X149568999Y-92357000D01*
X149568999Y-92211566D01*
X149568998Y-92211560D01*
X149562918Y-92154992D01*
X149515186Y-92027018D01*
X149515184Y-92027015D01*
X149433329Y-91917670D01*
X149323984Y-91835815D01*
X149323983Y-91835814D01*
X149290827Y-91823448D01*
X149234894Y-91781576D01*
X149210477Y-91716112D01*
X149225329Y-91647839D01*
X149274734Y-91598434D01*
X149290816Y-91591089D01*
X149324226Y-91578628D01*
X149433687Y-91496687D01*
X149515628Y-91387226D01*
X149515630Y-91387220D01*
X149519877Y-91379444D01*
X149521246Y-91380191D01*
X149557150Y-91332232D01*
X149622615Y-91307816D01*
X149631459Y-91307500D01*
X149653101Y-91307500D01*
X149720140Y-91327185D01*
X149740782Y-91343819D01*
X150083181Y-91686218D01*
X150116666Y-91747541D01*
X150119500Y-91773899D01*
X150119500Y-92729777D01*
X150099815Y-92796816D01*
X150047011Y-92842571D01*
X149977853Y-92852515D01*
X149965826Y-92850174D01*
X149849486Y-92821500D01*
X149849485Y-92821500D01*
X149693000Y-92821500D01*
X149625961Y-92801815D01*
X149580206Y-92749011D01*
X149569000Y-92697500D01*
X149569000Y-92607000D01*
X148969000Y-92607000D01*
X148969000Y-93181999D01*
X149010467Y-93181999D01*
X149077506Y-93201684D01*
X149123261Y-93254488D01*
X149133563Y-93320945D01*
X149115222Y-93471999D01*
X149115222Y-93472000D01*
X149134263Y-93628819D01*
X149134263Y-93628821D01*
X149152833Y-93677786D01*
X149158200Y-93747449D01*
X149125052Y-93808955D01*
X149111203Y-93821022D01*
X149019884Y-93889383D01*
X148935789Y-94001719D01*
X148886748Y-94133200D01*
X148880500Y-94191309D01*
X148880500Y-94784690D01*
X148886748Y-94842799D01*
X148935789Y-94974280D01*
X148969351Y-95019112D01*
X149019884Y-95086616D01*
X149132222Y-95170712D01*
X149224594Y-95205165D01*
X149263700Y-95219751D01*
X149321809Y-95225999D01*
X149321826Y-95226000D01*
X149890174Y-95226000D01*
X149890190Y-95225999D01*
X149940750Y-95220562D01*
X149948299Y-95219751D01*
X149952159Y-95218310D01*
X149955368Y-95218081D01*
X149955856Y-95217966D01*
X149955874Y-95218045D01*
X150021850Y-95213322D01*
X150083175Y-95246803D01*
X150116664Y-95308124D01*
X150119500Y-95334490D01*
X150119500Y-95466509D01*
X150099815Y-95533548D01*
X150047011Y-95579303D01*
X149977853Y-95589247D01*
X149952168Y-95582691D01*
X149948304Y-95581250D01*
X149948300Y-95581249D01*
X149890190Y-95575000D01*
X149890174Y-95575000D01*
X149321826Y-95575000D01*
X149321809Y-95575000D01*
X149263700Y-95581248D01*
X149132219Y-95630289D01*
X149019884Y-95714384D01*
X148935789Y-95826719D01*
X148886748Y-95958200D01*
X148880500Y-96016309D01*
X148880500Y-96609690D01*
X148886748Y-96667799D01*
X148925854Y-96772644D01*
X148935788Y-96799278D01*
X149019884Y-96911616D01*
X149092500Y-96965976D01*
X149132222Y-96995712D01*
X149132225Y-96995714D01*
X149149829Y-97002279D01*
X149205765Y-97044148D01*
X149230184Y-97109612D01*
X149230500Y-97118462D01*
X149230500Y-99741037D01*
X149210815Y-99808076D01*
X149158011Y-99853831D01*
X149149837Y-99857217D01*
X149132222Y-99863787D01*
X149019884Y-99947884D01*
X148935789Y-100060219D01*
X148886748Y-100191700D01*
X148880500Y-100249809D01*
X148880500Y-100918190D01*
X148886748Y-100976299D01*
X148913348Y-101047615D01*
X148935788Y-101107778D01*
X149019884Y-101220116D01*
X149132222Y-101304212D01*
X149236445Y-101343085D01*
X149292379Y-101384957D01*
X149316795Y-101450422D01*
X149301943Y-101518694D01*
X149252537Y-101568100D01*
X149236445Y-101575449D01*
X149132462Y-101614232D01*
X149020241Y-101698241D01*
X148936232Y-101810462D01*
X148887241Y-101941812D01*
X148881000Y-101999853D01*
X148881000Y-102209000D01*
X150331000Y-102209000D01*
X150331000Y-101999870D01*
X150330999Y-101999853D01*
X150324758Y-101941812D01*
X150275767Y-101810462D01*
X150191758Y-101698241D01*
X150079537Y-101614232D01*
X149975554Y-101575449D01*
X149919621Y-101533577D01*
X149897772Y-101474999D01*
X151306869Y-101474999D01*
X151306870Y-101475000D01*
X151776000Y-101475000D01*
X151843039Y-101494685D01*
X151888794Y-101547489D01*
X151900000Y-101599000D01*
X151900000Y-101601000D01*
X151880315Y-101668039D01*
X151827511Y-101713794D01*
X151776000Y-101725000D01*
X151306870Y-101725000D01*
X151314097Y-101802989D01*
X151314097Y-101802992D01*
X151369883Y-101999063D01*
X151369886Y-101999069D01*
X151460754Y-102181556D01*
X151583608Y-102344242D01*
X151734260Y-102481578D01*
X151907584Y-102588897D01*
X152097678Y-102662539D01*
X152275000Y-102695686D01*
X152275000Y-102224000D01*
X152294685Y-102156961D01*
X152347489Y-102111206D01*
X152399000Y-102100000D01*
X152401000Y-102100000D01*
X152468039Y-102119685D01*
X152513794Y-102172489D01*
X152525000Y-102224000D01*
X152525000Y-102695686D01*
X152702321Y-102662539D01*
X152892415Y-102588897D01*
X153065739Y-102481578D01*
X153216391Y-102344242D01*
X153339245Y-102181556D01*
X153430113Y-101999069D01*
X153430116Y-101999063D01*
X153485902Y-101802992D01*
X153485902Y-101802989D01*
X153493130Y-101725000D01*
X153024000Y-101725000D01*
X152956961Y-101705315D01*
X152911206Y-101652511D01*
X152900000Y-101601000D01*
X152900000Y-101599000D01*
X152919685Y-101531961D01*
X152972489Y-101486206D01*
X153024000Y-101475000D01*
X153493130Y-101475000D01*
X153493130Y-101474999D01*
X153485902Y-101397010D01*
X153485902Y-101397007D01*
X153430116Y-101200936D01*
X153430113Y-101200930D01*
X153339245Y-101018443D01*
X153216391Y-100855757D01*
X153065739Y-100718421D01*
X152892415Y-100611102D01*
X152702321Y-100537460D01*
X152525000Y-100504312D01*
X152525000Y-100976000D01*
X152505315Y-101043039D01*
X152452511Y-101088794D01*
X152401000Y-101100000D01*
X152399000Y-101100000D01*
X152331961Y-101080315D01*
X152286206Y-101027511D01*
X152275000Y-100976000D01*
X152274999Y-100504312D01*
X152097678Y-100537460D01*
X151907584Y-100611102D01*
X151734260Y-100718421D01*
X151583608Y-100855757D01*
X151460754Y-101018443D01*
X151369886Y-101200930D01*
X151369883Y-101200936D01*
X151314097Y-101397007D01*
X151314097Y-101397010D01*
X151306869Y-101474999D01*
X149897772Y-101474999D01*
X149895204Y-101468113D01*
X149910056Y-101399840D01*
X149959461Y-101350435D01*
X149975548Y-101343087D01*
X150079778Y-101304212D01*
X150192116Y-101220116D01*
X150276212Y-101107778D01*
X150325251Y-100976299D01*
X150325283Y-100976000D01*
X150331499Y-100918190D01*
X150331500Y-100918173D01*
X150331500Y-100249826D01*
X150331499Y-100249809D01*
X150325251Y-100191700D01*
X150299635Y-100123022D01*
X150276212Y-100060222D01*
X150192116Y-99947884D01*
X150079778Y-99863788D01*
X150079776Y-99863787D01*
X150079777Y-99863787D01*
X150062163Y-99857217D01*
X150006230Y-99815344D01*
X149981816Y-99749879D01*
X149981500Y-99741037D01*
X149981500Y-98618362D01*
X150001185Y-98551323D01*
X150053989Y-98505568D01*
X150123147Y-98495624D01*
X150186703Y-98524649D01*
X150189485Y-98527134D01*
X150194580Y-98531824D01*
X150194581Y-98531826D01*
X150215760Y-98551323D01*
X150234972Y-98569009D01*
X150954849Y-99288886D01*
X150970978Y-99308747D01*
X150976916Y-99317836D01*
X151004929Y-99339639D01*
X151010691Y-99344728D01*
X151013483Y-99347520D01*
X151032486Y-99361088D01*
X151075811Y-99394809D01*
X151075813Y-99394809D01*
X151082718Y-99398546D01*
X151089796Y-99402006D01*
X151089801Y-99402010D01*
X151142402Y-99417670D01*
X151142403Y-99417670D01*
X151194338Y-99435500D01*
X151202072Y-99436790D01*
X151209910Y-99437767D01*
X151209912Y-99437768D01*
X151209913Y-99437767D01*
X151209914Y-99437768D01*
X151264756Y-99435500D01*
X151280815Y-99435500D01*
X151347854Y-99455185D01*
X151391813Y-99504225D01*
X151460327Y-99641821D01*
X151460329Y-99641823D01*
X151583237Y-99804581D01*
X151733958Y-99941980D01*
X151733960Y-99941982D01*
X151833141Y-100003392D01*
X151907363Y-100049348D01*
X152097544Y-100123024D01*
X152298024Y-100160500D01*
X152298026Y-100160500D01*
X152501974Y-100160500D01*
X152501976Y-100160500D01*
X152702456Y-100123024D01*
X152892637Y-100049348D01*
X153066041Y-99941981D01*
X153216764Y-99804579D01*
X153339673Y-99641821D01*
X153430582Y-99459250D01*
X153486397Y-99263083D01*
X153505215Y-99060000D01*
X153486397Y-98856917D01*
X153430582Y-98660750D01*
X153424143Y-98647819D01*
X153366386Y-98531826D01*
X153339673Y-98478179D01*
X153244493Y-98352140D01*
X153216762Y-98315418D01*
X153066041Y-98178019D01*
X153066039Y-98178017D01*
X152892642Y-98070655D01*
X152892635Y-98070651D01*
X152761336Y-98019786D01*
X152702456Y-97996976D01*
X152501976Y-97959500D01*
X152298024Y-97959500D01*
X152211801Y-97975617D01*
X152097536Y-97996977D01*
X152038660Y-98019786D01*
X151969037Y-98025647D01*
X151907297Y-97992937D01*
X151873043Y-97932040D01*
X151877150Y-97862291D01*
X151877927Y-97860186D01*
X151893237Y-97819818D01*
X151910657Y-97676342D01*
X151938278Y-97612167D01*
X151996212Y-97573110D01*
X152066065Y-97571575D01*
X152078543Y-97575663D01*
X152097544Y-97583024D01*
X152298024Y-97620500D01*
X152298026Y-97620500D01*
X152501974Y-97620500D01*
X152501976Y-97620500D01*
X152702456Y-97583024D01*
X152892637Y-97509348D01*
X153066041Y-97401981D01*
X153216764Y-97264579D01*
X153339673Y-97101821D01*
X153430582Y-96919250D01*
X153486397Y-96723083D01*
X153505215Y-96520000D01*
X153486397Y-96316917D01*
X153430582Y-96120750D01*
X153339673Y-95938179D01*
X153255505Y-95826722D01*
X153216762Y-95775418D01*
X153066041Y-95638019D01*
X153066039Y-95638017D01*
X152892642Y-95530655D01*
X152892635Y-95530651D01*
X152797546Y-95493813D01*
X152702456Y-95456976D01*
X152501976Y-95419500D01*
X152298024Y-95419500D01*
X152097544Y-95456976D01*
X152097541Y-95456976D01*
X152097541Y-95456977D01*
X151907364Y-95530651D01*
X151907357Y-95530655D01*
X151733960Y-95638017D01*
X151733958Y-95638019D01*
X151586038Y-95772866D01*
X151523234Y-95803483D01*
X151453847Y-95795285D01*
X151399907Y-95750875D01*
X151378539Y-95684353D01*
X151378500Y-95681229D01*
X151378500Y-94818770D01*
X151398185Y-94751731D01*
X151450989Y-94705976D01*
X151520147Y-94696032D01*
X151583703Y-94725057D01*
X151586022Y-94727118D01*
X151731365Y-94859616D01*
X151733958Y-94861980D01*
X151733960Y-94861982D01*
X151737906Y-94864425D01*
X151907363Y-94969348D01*
X152097544Y-95043024D01*
X152298024Y-95080500D01*
X152298026Y-95080500D01*
X152501974Y-95080500D01*
X152501976Y-95080500D01*
X152702456Y-95043024D01*
X152892637Y-94969348D01*
X153066041Y-94861981D01*
X153201388Y-94738596D01*
X153216762Y-94724581D01*
X153220451Y-94719696D01*
X153339673Y-94561821D01*
X153430582Y-94379250D01*
X153486397Y-94183083D01*
X153505215Y-93980000D01*
X153501442Y-93939287D01*
X153486397Y-93776917D01*
X153478738Y-93750000D01*
X153430582Y-93580750D01*
X153428563Y-93576696D01*
X153368713Y-93456500D01*
X153339673Y-93398179D01*
X153241762Y-93268524D01*
X153216762Y-93235418D01*
X153066041Y-93098019D01*
X153066039Y-93098017D01*
X152892642Y-92990655D01*
X152892635Y-92990651D01*
X152743088Y-92932717D01*
X152702456Y-92916976D01*
X152501976Y-92879500D01*
X152298024Y-92879500D01*
X152097544Y-92916976D01*
X152097541Y-92916976D01*
X152097541Y-92916977D01*
X151907364Y-92990651D01*
X151907357Y-92990655D01*
X151733960Y-93098017D01*
X151733958Y-93098019D01*
X151586038Y-93232866D01*
X151523234Y-93263483D01*
X151453847Y-93255285D01*
X151399907Y-93210875D01*
X151378539Y-93144353D01*
X151378500Y-93141229D01*
X151378500Y-92278770D01*
X151398185Y-92211731D01*
X151450989Y-92165976D01*
X151520147Y-92156032D01*
X151583703Y-92185057D01*
X151586022Y-92187118D01*
X151684816Y-92277181D01*
X151733958Y-92321980D01*
X151733960Y-92321982D01*
X151802911Y-92364674D01*
X151907363Y-92429348D01*
X152097544Y-92503024D01*
X152298024Y-92540500D01*
X152298026Y-92540500D01*
X152501974Y-92540500D01*
X152501976Y-92540500D01*
X152702456Y-92503024D01*
X152892637Y-92429348D01*
X153066041Y-92321981D01*
X153194122Y-92205219D01*
X153216762Y-92184581D01*
X153230812Y-92165976D01*
X153339673Y-92021821D01*
X153430582Y-91839250D01*
X153486397Y-91643083D01*
X153505215Y-91440000D01*
X153486397Y-91236917D01*
X153430582Y-91040750D01*
X153401275Y-90981894D01*
X153345111Y-90869100D01*
X153339673Y-90858179D01*
X153280704Y-90780091D01*
X153216762Y-90695418D01*
X153066041Y-90558019D01*
X153066039Y-90558017D01*
X152892642Y-90450655D01*
X152892635Y-90450651D01*
X152720414Y-90383933D01*
X152702456Y-90376976D01*
X152501976Y-90339500D01*
X152298024Y-90339500D01*
X152097544Y-90376976D01*
X152097541Y-90376976D01*
X152097541Y-90376977D01*
X151907364Y-90450651D01*
X151907357Y-90450655D01*
X151733960Y-90558017D01*
X151733958Y-90558019D01*
X151586038Y-90692866D01*
X151523234Y-90723483D01*
X151453847Y-90715285D01*
X151399907Y-90670875D01*
X151378539Y-90604353D01*
X151378500Y-90601229D01*
X151378500Y-90503898D01*
X151398185Y-90436859D01*
X151414815Y-90416221D01*
X151874972Y-89956063D01*
X151936293Y-89922580D01*
X152005984Y-89927564D01*
X152007444Y-89928119D01*
X152097544Y-89963024D01*
X152298024Y-90000500D01*
X152298026Y-90000500D01*
X152501974Y-90000500D01*
X152501976Y-90000500D01*
X152702456Y-89963024D01*
X152892637Y-89889348D01*
X153066041Y-89781981D01*
X153216764Y-89644579D01*
X153339673Y-89481821D01*
X153430582Y-89299250D01*
X153486397Y-89103083D01*
X153505215Y-88900000D01*
X153500533Y-88849477D01*
X153486397Y-88696917D01*
X153467565Y-88630731D01*
X153430582Y-88500750D01*
X153430574Y-88500734D01*
X153360366Y-88359737D01*
X153339673Y-88318179D01*
X153254546Y-88205453D01*
X153216762Y-88155418D01*
X153066041Y-88018019D01*
X153066039Y-88018017D01*
X152892642Y-87910655D01*
X152892635Y-87910651D01*
X152792552Y-87871879D01*
X152702456Y-87836976D01*
X152501976Y-87799500D01*
X152298024Y-87799500D01*
X152146739Y-87827779D01*
X152097538Y-87836977D01*
X152007445Y-87871879D01*
X151937821Y-87877740D01*
X151876081Y-87845030D01*
X151874971Y-87843933D01*
X151276269Y-87245231D01*
X151242784Y-87183908D01*
X151247768Y-87114216D01*
X151289640Y-87058283D01*
X151293510Y-87055500D01*
X151299036Y-87051684D01*
X151299040Y-87051683D01*
X151345012Y-87010955D01*
X151408246Y-86981233D01*
X151477509Y-86990417D01*
X151526194Y-87029043D01*
X151583237Y-87104581D01*
X151733958Y-87241980D01*
X151733960Y-87241982D01*
X151769469Y-87263968D01*
X151907363Y-87349348D01*
X152097544Y-87423024D01*
X152298024Y-87460500D01*
X152298026Y-87460500D01*
X152501974Y-87460500D01*
X152501976Y-87460500D01*
X152702456Y-87423024D01*
X152892637Y-87349348D01*
X153066041Y-87241981D01*
X153216764Y-87104579D01*
X153339673Y-86941821D01*
X153430582Y-86759250D01*
X153486397Y-86563083D01*
X153505215Y-86360000D01*
X153486397Y-86156917D01*
X153430582Y-85960750D01*
X153427770Y-85955103D01*
X153381243Y-85861663D01*
X153339673Y-85778179D01*
X153265546Y-85680019D01*
X153216762Y-85615418D01*
X153066041Y-85478019D01*
X153066039Y-85478017D01*
X152892642Y-85370655D01*
X152892635Y-85370651D01*
X152797546Y-85333813D01*
X152702456Y-85296976D01*
X152501976Y-85259500D01*
X152298024Y-85259500D01*
X152097544Y-85296976D01*
X152097541Y-85296976D01*
X152097541Y-85296977D01*
X151907364Y-85370651D01*
X151907357Y-85370655D01*
X151733960Y-85478017D01*
X151733958Y-85478019D01*
X151583237Y-85615418D01*
X151460327Y-85778178D01*
X151406416Y-85886445D01*
X151358913Y-85937682D01*
X151291250Y-85955103D01*
X151237790Y-85940970D01*
X151159163Y-85899703D01*
X151004825Y-85861663D01*
X150944445Y-85826507D01*
X150912656Y-85764288D01*
X150910500Y-85741266D01*
X150910500Y-85727954D01*
X150912724Y-85668520D01*
X150911684Y-85659289D01*
X150912513Y-85659195D01*
X150910500Y-85643894D01*
X150910500Y-84626365D01*
X150930185Y-84559326D01*
X150946819Y-84538684D01*
X151087819Y-84397684D01*
X151149142Y-84364199D01*
X151218834Y-84369183D01*
X151274767Y-84411055D01*
X151299184Y-84476519D01*
X151299500Y-84485365D01*
X151299500Y-84694678D01*
X151314032Y-84767735D01*
X151314033Y-84767739D01*
X151314034Y-84767740D01*
X151369399Y-84850601D01*
X151448700Y-84903587D01*
X151452260Y-84905966D01*
X151452264Y-84905967D01*
X151525321Y-84920499D01*
X151525324Y-84920500D01*
X151525326Y-84920500D01*
X153274676Y-84920500D01*
X153274677Y-84920499D01*
X153347740Y-84905966D01*
X153430601Y-84850601D01*
X153485966Y-84767740D01*
X153500500Y-84694674D01*
X153500500Y-82945326D01*
X153500500Y-82945325D01*
X153500500Y-82945323D01*
X153500499Y-82945321D01*
X153485967Y-82872264D01*
X153485966Y-82872260D01*
X153468045Y-82845439D01*
X153430601Y-82789399D01*
X153347740Y-82734034D01*
X153347739Y-82734033D01*
X153347735Y-82734032D01*
X153274677Y-82719500D01*
X153274674Y-82719500D01*
X152872485Y-82719500D01*
X152805446Y-82699815D01*
X152774518Y-82666142D01*
X152772083Y-82667940D01*
X152766568Y-82660469D01*
X152766565Y-82660462D01*
X152724516Y-82618413D01*
X152684055Y-82574806D01*
X152676792Y-82569014D01*
X152677312Y-82568361D01*
X152665067Y-82558964D01*
X151816283Y-81710180D01*
X151782798Y-81648857D01*
X151787782Y-81579165D01*
X151829654Y-81523232D01*
X151895118Y-81498815D01*
X151903964Y-81498499D01*
X152187481Y-81498499D01*
X152187484Y-81498499D01*
X152244114Y-81492412D01*
X152372226Y-81444628D01*
X152481687Y-81362687D01*
X152563628Y-81253226D01*
X152611412Y-81125114D01*
X152616744Y-81075518D01*
X152617499Y-81068501D01*
X152617499Y-81068494D01*
X152617500Y-81068485D01*
X152617499Y-80527516D01*
X152613254Y-80488025D01*
X152611412Y-80470885D01*
X152571110Y-80362835D01*
X152563628Y-80342774D01*
X152481687Y-80233313D01*
X152372226Y-80151372D01*
X152369623Y-80150401D01*
X152338826Y-80138914D01*
X152282893Y-80097042D01*
X152258477Y-80031577D01*
X152273330Y-79963304D01*
X152322736Y-79913900D01*
X152338830Y-79906550D01*
X152371983Y-79894185D01*
X152371984Y-79894184D01*
X152481329Y-79812329D01*
X152563184Y-79702984D01*
X152563185Y-79702983D01*
X152610916Y-79575010D01*
X152616999Y-79518428D01*
X152617000Y-79518427D01*
X152617000Y-79373000D01*
X151167001Y-79373000D01*
X151167001Y-79518439D01*
X151173081Y-79575007D01*
X151220813Y-79702981D01*
X151220815Y-79702984D01*
X151302670Y-79812329D01*
X151412015Y-79894184D01*
X151412020Y-79894187D01*
X151445170Y-79906551D01*
X151501104Y-79948421D01*
X151525522Y-80013885D01*
X151510671Y-80082158D01*
X151461266Y-80131564D01*
X151445174Y-80138914D01*
X151411772Y-80151372D01*
X151302313Y-80233313D01*
X151221745Y-80340940D01*
X151220372Y-80342774D01*
X151212889Y-80362834D01*
X151171020Y-80418767D01*
X151105555Y-80443184D01*
X151096709Y-80443500D01*
X151091308Y-80443500D01*
X151024269Y-80423815D01*
X150989257Y-80389938D01*
X150985483Y-80384470D01*
X150985481Y-80384467D01*
X150912273Y-80319611D01*
X150875146Y-80260422D01*
X150870500Y-80226796D01*
X150870500Y-79123000D01*
X151167000Y-79123000D01*
X151767000Y-79123000D01*
X151767000Y-78548000D01*
X152017000Y-78548000D01*
X152017000Y-79123000D01*
X152616999Y-79123000D01*
X152616999Y-78977566D01*
X152616998Y-78977560D01*
X152610918Y-78920992D01*
X152563186Y-78793018D01*
X152563184Y-78793015D01*
X152481329Y-78683670D01*
X152371984Y-78601815D01*
X152371983Y-78601814D01*
X152244010Y-78554083D01*
X152187428Y-78548000D01*
X152017000Y-78548000D01*
X151767000Y-78548000D01*
X151596566Y-78548000D01*
X151596559Y-78548001D01*
X151539992Y-78554081D01*
X151412018Y-78601813D01*
X151412015Y-78601815D01*
X151302670Y-78683670D01*
X151220815Y-78793015D01*
X151220814Y-78793016D01*
X151173083Y-78920989D01*
X151167000Y-78977571D01*
X151167000Y-79123000D01*
X150870500Y-79123000D01*
X150870500Y-76886803D01*
X150873139Y-76861358D01*
X150873177Y-76861175D01*
X150875367Y-76850732D01*
X150872035Y-76824000D01*
X150870977Y-76815507D01*
X150870500Y-76807831D01*
X150870500Y-76803890D01*
X150870499Y-76803881D01*
X150866657Y-76780856D01*
X150858595Y-76716179D01*
X150861568Y-76715808D01*
X150861361Y-76662442D01*
X150869471Y-76641645D01*
X150890582Y-76599250D01*
X150946397Y-76403083D01*
X150965215Y-76200000D01*
X151294785Y-76200000D01*
X151313602Y-76403082D01*
X151369417Y-76599247D01*
X151369422Y-76599260D01*
X151460327Y-76781821D01*
X151583237Y-76944581D01*
X151733958Y-77081980D01*
X151733960Y-77081982D01*
X151833141Y-77143392D01*
X151907363Y-77189348D01*
X152097544Y-77263024D01*
X152298024Y-77300500D01*
X152298026Y-77300500D01*
X152501974Y-77300500D01*
X152501976Y-77300500D01*
X152702456Y-77263024D01*
X152892637Y-77189348D01*
X153066041Y-77081981D01*
X153216764Y-76944579D01*
X153339673Y-76781821D01*
X153430582Y-76599250D01*
X153486397Y-76403083D01*
X153505215Y-76200000D01*
X153486397Y-75996917D01*
X153430582Y-75800750D01*
X153339673Y-75618179D01*
X153216764Y-75455421D01*
X153216762Y-75455418D01*
X153066041Y-75318019D01*
X153066039Y-75318017D01*
X152892642Y-75210655D01*
X152892635Y-75210651D01*
X152758104Y-75158534D01*
X152702456Y-75136976D01*
X152501976Y-75099500D01*
X152298024Y-75099500D01*
X152097544Y-75136976D01*
X152097541Y-75136976D01*
X152097541Y-75136977D01*
X151907364Y-75210651D01*
X151907357Y-75210655D01*
X151733960Y-75318017D01*
X151733958Y-75318019D01*
X151583237Y-75455418D01*
X151460327Y-75618178D01*
X151369422Y-75800739D01*
X151369417Y-75800752D01*
X151313602Y-75996917D01*
X151294785Y-76199999D01*
X151294785Y-76200000D01*
X150965215Y-76200000D01*
X150946397Y-75996917D01*
X150890582Y-75800750D01*
X150799673Y-75618179D01*
X150676764Y-75455421D01*
X150676762Y-75455418D01*
X150526041Y-75318019D01*
X150526039Y-75318017D01*
X150352642Y-75210655D01*
X150352635Y-75210651D01*
X150218104Y-75158534D01*
X150162456Y-75136976D01*
X149961976Y-75099500D01*
X149758024Y-75099500D01*
X149557544Y-75136976D01*
X149557541Y-75136976D01*
X149557541Y-75136977D01*
X149367364Y-75210651D01*
X149367357Y-75210655D01*
X149193960Y-75318017D01*
X149193958Y-75318019D01*
X149043237Y-75455418D01*
X148920327Y-75618178D01*
X148829422Y-75800739D01*
X148829417Y-75800752D01*
X148773602Y-75996917D01*
X148754785Y-76199999D01*
X148754785Y-76200000D01*
X148773602Y-76403082D01*
X148829417Y-76599247D01*
X148829422Y-76599260D01*
X148920327Y-76781821D01*
X149043237Y-76944581D01*
X149193958Y-77081980D01*
X149193960Y-77081982D01*
X149293141Y-77143392D01*
X149367363Y-77189348D01*
X149557544Y-77263024D01*
X149758024Y-77300500D01*
X149758026Y-77300500D01*
X149961975Y-77300500D01*
X149961976Y-77300500D01*
X149966669Y-77299622D01*
X149972714Y-77298493D01*
X150042229Y-77305523D01*
X150096908Y-77349020D01*
X150119391Y-77415173D01*
X150119500Y-77420381D01*
X150119500Y-80226796D01*
X150099815Y-80293835D01*
X150077727Y-80319611D01*
X150004518Y-80384467D01*
X150002031Y-80388070D01*
X150000742Y-80389938D01*
X149946463Y-80433929D01*
X149898692Y-80443500D01*
X149895625Y-80443500D01*
X149828586Y-80423815D01*
X149782831Y-80371011D01*
X149779444Y-80362835D01*
X149771277Y-80340940D01*
X149768212Y-80332722D01*
X149684116Y-80220384D01*
X149616612Y-80169851D01*
X149571780Y-80136289D01*
X149571778Y-80136288D01*
X149540605Y-80124661D01*
X149440299Y-80087248D01*
X149382190Y-80081000D01*
X149382174Y-80081000D01*
X148813826Y-80081000D01*
X148813809Y-80081000D01*
X148755700Y-80087248D01*
X148624219Y-80136289D01*
X148511884Y-80220384D01*
X148427789Y-80332719D01*
X148378748Y-80464200D01*
X148372500Y-80522309D01*
X148372500Y-81115690D01*
X148378749Y-81173800D01*
X148380534Y-81181356D01*
X148378232Y-81181899D01*
X148382380Y-81239852D01*
X148348898Y-81301177D01*
X148287576Y-81334665D01*
X148261212Y-81337500D01*
X147147385Y-81337500D01*
X147080346Y-81317815D01*
X147034591Y-81265011D01*
X147024096Y-81200244D01*
X147024999Y-81191844D01*
X147025000Y-81191827D01*
X147025000Y-81019000D01*
X146175000Y-81019000D01*
X146175000Y-81644000D01*
X146293389Y-81644000D01*
X146360428Y-81663685D01*
X146406183Y-81716489D01*
X146416127Y-81785647D01*
X146393161Y-81841630D01*
X146383758Y-81854370D01*
X146383204Y-81855122D01*
X146379216Y-81862667D01*
X146375528Y-81870326D01*
X146357992Y-81927177D01*
X146338353Y-81983301D01*
X146336771Y-81991659D01*
X146335500Y-82000100D01*
X146335500Y-82059579D01*
X146335046Y-82071686D01*
X146312862Y-82137940D01*
X146285444Y-82166305D01*
X146221311Y-82214314D01*
X146154317Y-82303810D01*
X146098384Y-82345682D01*
X146055050Y-82353500D01*
X145271965Y-82353500D01*
X145204926Y-82333815D01*
X145184284Y-82317181D01*
X145139819Y-82272716D01*
X145106334Y-82211393D01*
X145103500Y-82185035D01*
X145103500Y-82177426D01*
X145105724Y-82117992D01*
X145104684Y-82108761D01*
X145105513Y-82108667D01*
X145103500Y-82093366D01*
X145103500Y-81663338D01*
X145123185Y-81596299D01*
X145175989Y-81550544D01*
X145245147Y-81540600D01*
X145301812Y-81564072D01*
X145332910Y-81587352D01*
X145332913Y-81587354D01*
X145467620Y-81637596D01*
X145467627Y-81637598D01*
X145527155Y-81643999D01*
X145527172Y-81644000D01*
X145925000Y-81644000D01*
X145925000Y-80144000D01*
X146175000Y-80144000D01*
X146175000Y-80769000D01*
X147025000Y-80769000D01*
X147025000Y-80596172D01*
X147024999Y-80596155D01*
X147018598Y-80536627D01*
X147018596Y-80536620D01*
X146968354Y-80401913D01*
X146968350Y-80401906D01*
X146882190Y-80286812D01*
X146882187Y-80286809D01*
X146767093Y-80200649D01*
X146767086Y-80200645D01*
X146632379Y-80150403D01*
X146632372Y-80150401D01*
X146572844Y-80144000D01*
X146175000Y-80144000D01*
X145925000Y-80144000D01*
X145527155Y-80144000D01*
X145467627Y-80150401D01*
X145467620Y-80150403D01*
X145332913Y-80200645D01*
X145332906Y-80200649D01*
X145301810Y-80223928D01*
X145236346Y-80248345D01*
X145168073Y-80233493D01*
X145118668Y-80184088D01*
X145103500Y-80124661D01*
X145103500Y-79763962D01*
X145123185Y-79696923D01*
X145175989Y-79651168D01*
X145245147Y-79641224D01*
X145301810Y-79664695D01*
X145317860Y-79676710D01*
X145332668Y-79687795D01*
X145332671Y-79687797D01*
X145467517Y-79738091D01*
X145467516Y-79738091D01*
X145474444Y-79738835D01*
X145527127Y-79744500D01*
X146572872Y-79744499D01*
X146632483Y-79738091D01*
X146767331Y-79687796D01*
X146882546Y-79601546D01*
X146962914Y-79494188D01*
X147018847Y-79452318D01*
X147062180Y-79444500D01*
X148338935Y-79444500D01*
X148405974Y-79464185D01*
X148438201Y-79494188D01*
X148511884Y-79592616D01*
X148624222Y-79676712D01*
X148716594Y-79711165D01*
X148755700Y-79725751D01*
X148813809Y-79731999D01*
X148813826Y-79732000D01*
X149382174Y-79732000D01*
X149382190Y-79731999D01*
X149440299Y-79725751D01*
X149440298Y-79725751D01*
X149571778Y-79676712D01*
X149684116Y-79592616D01*
X149768212Y-79480278D01*
X149817251Y-79348799D01*
X149817250Y-79348799D01*
X149823499Y-79290690D01*
X149823500Y-79290673D01*
X149823500Y-78697326D01*
X149823499Y-78697309D01*
X149817251Y-78639200D01*
X149796486Y-78583528D01*
X149768212Y-78507722D01*
X149684116Y-78395384D01*
X149599204Y-78331819D01*
X149571780Y-78311289D01*
X149571778Y-78311288D01*
X149542055Y-78300202D01*
X149440299Y-78262248D01*
X149382190Y-78256000D01*
X149382174Y-78256000D01*
X148813826Y-78256000D01*
X148813809Y-78256000D01*
X148755700Y-78262248D01*
X148624219Y-78311289D01*
X148523813Y-78386454D01*
X148511884Y-78395384D01*
X148475865Y-78443500D01*
X148438202Y-78493811D01*
X148382268Y-78535682D01*
X148338935Y-78543500D01*
X147062180Y-78543500D01*
X146995141Y-78523815D01*
X146962913Y-78493811D01*
X146882546Y-78386454D01*
X146859709Y-78369358D01*
X146767335Y-78300206D01*
X146767328Y-78300202D01*
X146632482Y-78249908D01*
X146632483Y-78249908D01*
X146572883Y-78243501D01*
X146572881Y-78243500D01*
X146572873Y-78243500D01*
X146572864Y-78243500D01*
X145527129Y-78243500D01*
X145527123Y-78243501D01*
X145467516Y-78249908D01*
X145332671Y-78300202D01*
X145332664Y-78300206D01*
X145217456Y-78386452D01*
X145217455Y-78386453D01*
X145217454Y-78386454D01*
X145137087Y-78493811D01*
X145081153Y-78535682D01*
X145037820Y-78543500D01*
X144717732Y-78543500D01*
X144690140Y-78540391D01*
X144687046Y-78539685D01*
X144687042Y-78539684D01*
X144655709Y-78542033D01*
X144638438Y-78543327D01*
X144633822Y-78543500D01*
X144328052Y-78543500D01*
X144261013Y-78523815D01*
X144255171Y-78519821D01*
X144249846Y-78515953D01*
X144249843Y-78515951D01*
X144249842Y-78515950D01*
X144161645Y-78471011D01*
X144136801Y-78458352D01*
X144043024Y-78443500D01*
X144043019Y-78443500D01*
X143636966Y-78443500D01*
X143569927Y-78423815D01*
X143549285Y-78407181D01*
X142726819Y-77584715D01*
X142693334Y-77523392D01*
X142690500Y-77497034D01*
X142690500Y-77284505D01*
X142710185Y-77217466D01*
X142749221Y-77179079D01*
X142906041Y-77081981D01*
X143056764Y-76944579D01*
X143179673Y-76781821D01*
X143270582Y-76599250D01*
X143326397Y-76403083D01*
X143345215Y-76200000D01*
X143674785Y-76200000D01*
X143693602Y-76403082D01*
X143749417Y-76599247D01*
X143749422Y-76599260D01*
X143840327Y-76781821D01*
X143963237Y-76944581D01*
X144113958Y-77081980D01*
X144113960Y-77081982D01*
X144213141Y-77143392D01*
X144287363Y-77189348D01*
X144477544Y-77263024D01*
X144678024Y-77300500D01*
X144678026Y-77300500D01*
X144881974Y-77300500D01*
X144881976Y-77300500D01*
X145082456Y-77263024D01*
X145272637Y-77189348D01*
X145446041Y-77081981D01*
X145596764Y-76944579D01*
X145719673Y-76781821D01*
X145810582Y-76599250D01*
X145866397Y-76403083D01*
X145885215Y-76200000D01*
X146214785Y-76200000D01*
X146233602Y-76403082D01*
X146289417Y-76599247D01*
X146289422Y-76599260D01*
X146380327Y-76781821D01*
X146503237Y-76944581D01*
X146653958Y-77081980D01*
X146653960Y-77081982D01*
X146753141Y-77143392D01*
X146827363Y-77189348D01*
X147017544Y-77263024D01*
X147218024Y-77300500D01*
X147218026Y-77300500D01*
X147421974Y-77300500D01*
X147421976Y-77300500D01*
X147622456Y-77263024D01*
X147812637Y-77189348D01*
X147986041Y-77081981D01*
X148136764Y-76944579D01*
X148259673Y-76781821D01*
X148350582Y-76599250D01*
X148406397Y-76403083D01*
X148425215Y-76200000D01*
X148406397Y-75996917D01*
X148350582Y-75800750D01*
X148259673Y-75618179D01*
X148136764Y-75455421D01*
X148136762Y-75455418D01*
X147986041Y-75318019D01*
X147986039Y-75318017D01*
X147812642Y-75210655D01*
X147812635Y-75210651D01*
X147678104Y-75158534D01*
X147622456Y-75136976D01*
X147421976Y-75099500D01*
X147218024Y-75099500D01*
X147017544Y-75136976D01*
X147017541Y-75136976D01*
X147017541Y-75136977D01*
X146827364Y-75210651D01*
X146827357Y-75210655D01*
X146653960Y-75318017D01*
X146653958Y-75318019D01*
X146503237Y-75455418D01*
X146380327Y-75618178D01*
X146289422Y-75800739D01*
X146289417Y-75800752D01*
X146233602Y-75996917D01*
X146214785Y-76199999D01*
X146214785Y-76200000D01*
X145885215Y-76200000D01*
X145866397Y-75996917D01*
X145810582Y-75800750D01*
X145719673Y-75618179D01*
X145596764Y-75455421D01*
X145596762Y-75455418D01*
X145446041Y-75318019D01*
X145446039Y-75318017D01*
X145272642Y-75210655D01*
X145272635Y-75210651D01*
X145138104Y-75158534D01*
X145082456Y-75136976D01*
X144881976Y-75099500D01*
X144678024Y-75099500D01*
X144477544Y-75136976D01*
X144477541Y-75136976D01*
X144477541Y-75136977D01*
X144287364Y-75210651D01*
X144287357Y-75210655D01*
X144113960Y-75318017D01*
X144113958Y-75318019D01*
X143963237Y-75455418D01*
X143840327Y-75618178D01*
X143749422Y-75800739D01*
X143749417Y-75800752D01*
X143693602Y-75996917D01*
X143674785Y-76199999D01*
X143674785Y-76200000D01*
X143345215Y-76200000D01*
X143326397Y-75996917D01*
X143270582Y-75800750D01*
X143179673Y-75618179D01*
X143056764Y-75455421D01*
X143056762Y-75455418D01*
X142906041Y-75318019D01*
X142906039Y-75318017D01*
X142732642Y-75210655D01*
X142732635Y-75210651D01*
X142598104Y-75158534D01*
X142542456Y-75136976D01*
X142341976Y-75099500D01*
X142138024Y-75099500D01*
X141937544Y-75136976D01*
X141937541Y-75136976D01*
X141937541Y-75136977D01*
X141747364Y-75210651D01*
X141747357Y-75210655D01*
X141573960Y-75318017D01*
X141573958Y-75318019D01*
X141423237Y-75455418D01*
X141300327Y-75618178D01*
X141209422Y-75800739D01*
X141209417Y-75800752D01*
X141153602Y-75996917D01*
X141134785Y-76199999D01*
X141134785Y-76200000D01*
X141153602Y-76403082D01*
X141209417Y-76599247D01*
X141209422Y-76599260D01*
X141300327Y-76781821D01*
X141423237Y-76944581D01*
X141573958Y-77081980D01*
X141573960Y-77081982D01*
X141650074Y-77129109D01*
X141730777Y-77179078D01*
X141777413Y-77231105D01*
X141789500Y-77284505D01*
X141789500Y-77706217D01*
X141789110Y-77713155D01*
X141787724Y-77725454D01*
X141784729Y-77752034D01*
X141795788Y-77810479D01*
X141804652Y-77869290D01*
X141807162Y-77877427D01*
X141809978Y-77885475D01*
X141837777Y-77938072D01*
X141863576Y-77991644D01*
X141868362Y-77998665D01*
X141873431Y-78005532D01*
X141873434Y-78005538D01*
X141873438Y-78005542D01*
X141915495Y-78047599D01*
X141955947Y-78091196D01*
X141963210Y-78096988D01*
X141962689Y-78097641D01*
X141974930Y-78107034D01*
X142199715Y-78331819D01*
X142233200Y-78393142D01*
X142228216Y-78462834D01*
X142186344Y-78518767D01*
X142120880Y-78543184D01*
X142112034Y-78543500D01*
X142053052Y-78543500D01*
X141986013Y-78523815D01*
X141980171Y-78519821D01*
X141974846Y-78515953D01*
X141974843Y-78515951D01*
X141974842Y-78515950D01*
X141886645Y-78471011D01*
X141861801Y-78458352D01*
X141768024Y-78443500D01*
X140679982Y-78443500D01*
X140599019Y-78456323D01*
X140586196Y-78458354D01*
X140473158Y-78515950D01*
X140473157Y-78515950D01*
X140473153Y-78515953D01*
X140467829Y-78519821D01*
X140402022Y-78543298D01*
X140394948Y-78543500D01*
X140274500Y-78543500D01*
X140207461Y-78523815D01*
X140161706Y-78471011D01*
X140150500Y-78419500D01*
X140150500Y-77284505D01*
X140170185Y-77217466D01*
X140209221Y-77179079D01*
X140366041Y-77081981D01*
X140516764Y-76944579D01*
X140639673Y-76781821D01*
X140730582Y-76599250D01*
X140786397Y-76403083D01*
X140805215Y-76200000D01*
X140786397Y-75996917D01*
X140730582Y-75800750D01*
X140639673Y-75618179D01*
X140516764Y-75455421D01*
X140516762Y-75455418D01*
X140366041Y-75318019D01*
X140366039Y-75318017D01*
X140192642Y-75210655D01*
X140192635Y-75210651D01*
X140058104Y-75158534D01*
X140002456Y-75136976D01*
X139801976Y-75099500D01*
X139598024Y-75099500D01*
X139397544Y-75136976D01*
X139397541Y-75136976D01*
X139397541Y-75136977D01*
X139207364Y-75210651D01*
X139207357Y-75210655D01*
X139033960Y-75318017D01*
X139033958Y-75318019D01*
X138883237Y-75455418D01*
X138760327Y-75618178D01*
X138669422Y-75800739D01*
X138669417Y-75800752D01*
X138613602Y-75996917D01*
X138594785Y-76199999D01*
X138594785Y-76200000D01*
X138613602Y-76403082D01*
X138669417Y-76599247D01*
X138669422Y-76599260D01*
X138760327Y-76781821D01*
X138883237Y-76944581D01*
X139033958Y-77081980D01*
X139033960Y-77081982D01*
X139110074Y-77129109D01*
X139190777Y-77179078D01*
X139237413Y-77231105D01*
X139249500Y-77284505D01*
X139249500Y-78419500D01*
X139229815Y-78486539D01*
X139177011Y-78532294D01*
X139125500Y-78543500D01*
X138966783Y-78543500D01*
X138959844Y-78543110D01*
X138945569Y-78541502D01*
X138920964Y-78538729D01*
X138886039Y-78545338D01*
X138862986Y-78547500D01*
X138388518Y-78547500D01*
X138388509Y-78547501D01*
X138331885Y-78553587D01*
X138203773Y-78601372D01*
X138094313Y-78683313D01*
X138012373Y-78792771D01*
X137964587Y-78920889D01*
X137958500Y-78977498D01*
X137958500Y-79518481D01*
X137958501Y-79518490D01*
X137964587Y-79575114D01*
X138006616Y-79687793D01*
X138012372Y-79703226D01*
X138094313Y-79812687D01*
X138182177Y-79878461D01*
X138199580Y-79891489D01*
X138203774Y-79894628D01*
X138237174Y-79907085D01*
X138293105Y-79948956D01*
X138317522Y-80014420D01*
X138302670Y-80082693D01*
X138253265Y-80132098D01*
X138237172Y-80139447D01*
X138204023Y-80151811D01*
X138204015Y-80151815D01*
X138094670Y-80233670D01*
X138012815Y-80343015D01*
X138012814Y-80343016D01*
X137965083Y-80470989D01*
X137959000Y-80527571D01*
X137959000Y-80673000D01*
X139408999Y-80673000D01*
X139408999Y-80527566D01*
X139408998Y-80527560D01*
X139402918Y-80470992D01*
X139355186Y-80343018D01*
X139355184Y-80343015D01*
X139273329Y-80233670D01*
X139163984Y-80151815D01*
X139163983Y-80151814D01*
X139130827Y-80139448D01*
X139074894Y-80097576D01*
X139050477Y-80032112D01*
X139065329Y-79963839D01*
X139114734Y-79914434D01*
X139130816Y-79907089D01*
X139164226Y-79894628D01*
X139273687Y-79812687D01*
X139355628Y-79703226D01*
X139403412Y-79575114D01*
X139405499Y-79555705D01*
X139405549Y-79555242D01*
X139432289Y-79490691D01*
X139489682Y-79450845D01*
X139528838Y-79444500D01*
X139632098Y-79444500D01*
X139635268Y-79444500D01*
X139662859Y-79447608D01*
X139665954Y-79448315D01*
X139714561Y-79444672D01*
X139719178Y-79444500D01*
X140238299Y-79444500D01*
X140305338Y-79464185D01*
X140351093Y-79516989D01*
X140361037Y-79586147D01*
X140348784Y-79624795D01*
X140326333Y-79668855D01*
X140311500Y-79762513D01*
X140311500Y-79819000D01*
X141225000Y-79819000D01*
X141292039Y-79838685D01*
X141337794Y-79891489D01*
X141349000Y-79943000D01*
X141349000Y-79945000D01*
X141329315Y-80012039D01*
X141276511Y-80057794D01*
X141225000Y-80069000D01*
X140311501Y-80069000D01*
X140311501Y-80125479D01*
X140326335Y-80219149D01*
X140326337Y-80219155D01*
X140383856Y-80332041D01*
X140389598Y-80339944D01*
X140388225Y-80340940D01*
X140416264Y-80392289D01*
X140411280Y-80461981D01*
X140388573Y-80497311D01*
X140389189Y-80497759D01*
X140383451Y-80505657D01*
X140383450Y-80505658D01*
X140365797Y-80540303D01*
X140325852Y-80618698D01*
X140311000Y-80712475D01*
X140311000Y-81075517D01*
X140321792Y-81143657D01*
X140325854Y-81169304D01*
X140383450Y-81282342D01*
X140383452Y-81282344D01*
X140383454Y-81282347D01*
X140473152Y-81372045D01*
X140473154Y-81372046D01*
X140473158Y-81372050D01*
X140586194Y-81429645D01*
X140586198Y-81429647D01*
X140679975Y-81444499D01*
X140679981Y-81444500D01*
X141768018Y-81444499D01*
X141861804Y-81429646D01*
X141974842Y-81372050D01*
X141974847Y-81372045D01*
X141980171Y-81368179D01*
X142045978Y-81344702D01*
X142053052Y-81344500D01*
X142140017Y-81344500D01*
X142146955Y-81344889D01*
X142178850Y-81348483D01*
X142185834Y-81349270D01*
X142185834Y-81349269D01*
X142185835Y-81349270D01*
X142244279Y-81338211D01*
X142303087Y-81329348D01*
X142303090Y-81329346D01*
X142311247Y-81326830D01*
X142319269Y-81324023D01*
X142319272Y-81324023D01*
X142371872Y-81296222D01*
X142425442Y-81270425D01*
X142425442Y-81270424D01*
X142425444Y-81270424D01*
X142432495Y-81265616D01*
X142439333Y-81260569D01*
X142439333Y-81260568D01*
X142439338Y-81260566D01*
X142456457Y-81243446D01*
X142517776Y-81209961D01*
X142587468Y-81214942D01*
X142643403Y-81256811D01*
X142654619Y-81274823D01*
X142658450Y-81282342D01*
X142658451Y-81282343D01*
X142658454Y-81282347D01*
X142748152Y-81372045D01*
X142748154Y-81372046D01*
X142748158Y-81372050D01*
X142861194Y-81429645D01*
X142861198Y-81429647D01*
X142954975Y-81444499D01*
X142954981Y-81444500D01*
X144043018Y-81444499D01*
X144043021Y-81444499D01*
X144059101Y-81441952D01*
X144128394Y-81450906D01*
X144181847Y-81495902D01*
X144202487Y-81562653D01*
X144202500Y-81564425D01*
X144202500Y-81931033D01*
X144182815Y-81998072D01*
X144166182Y-82018713D01*
X144121716Y-82063180D01*
X144060393Y-82096666D01*
X144034034Y-82099500D01*
X143478950Y-82099500D01*
X143411911Y-82079815D01*
X143379683Y-82049810D01*
X143312688Y-81960314D01*
X143203228Y-81878373D01*
X143203226Y-81878372D01*
X143075114Y-81830588D01*
X143075112Y-81830587D01*
X143075110Y-81830587D01*
X143018493Y-81824500D01*
X142477518Y-81824500D01*
X142477509Y-81824501D01*
X142420885Y-81830587D01*
X142292773Y-81878372D01*
X142183313Y-81960313D01*
X142101372Y-82069772D01*
X142088914Y-82103174D01*
X142047041Y-82159107D01*
X141981576Y-82183522D01*
X141913304Y-82168669D01*
X141863899Y-82119262D01*
X141856551Y-82103170D01*
X141844187Y-82070020D01*
X141844184Y-82070015D01*
X141762329Y-81960670D01*
X141652984Y-81878815D01*
X141652983Y-81878814D01*
X141525010Y-81831083D01*
X141468428Y-81825000D01*
X141323000Y-81825000D01*
X141323000Y-82551000D01*
X141303315Y-82618039D01*
X141250511Y-82663794D01*
X141199000Y-82675000D01*
X140498001Y-82675000D01*
X140498001Y-82845439D01*
X140504081Y-82902007D01*
X140551813Y-83029981D01*
X140551815Y-83029984D01*
X140633671Y-83139330D01*
X140663737Y-83161837D01*
X140705609Y-83217770D01*
X140710594Y-83287462D01*
X140677112Y-83348784D01*
X140657413Y-83368483D01*
X140637277Y-83387167D01*
X140613803Y-83408947D01*
X140608013Y-83416208D01*
X140607362Y-83415688D01*
X140597967Y-83427928D01*
X140029129Y-83996766D01*
X139967806Y-84030251D01*
X139898114Y-84025267D01*
X139842181Y-83983395D01*
X139817764Y-83917931D01*
X139817448Y-83909085D01*
X139817448Y-82779154D01*
X139820087Y-82753709D01*
X139820733Y-82750625D01*
X139822315Y-82743082D01*
X139819376Y-82719500D01*
X139817925Y-82707856D01*
X139817448Y-82700180D01*
X139817448Y-82696239D01*
X139817446Y-82696226D01*
X139816441Y-82690206D01*
X139813605Y-82673209D01*
X139806814Y-82618724D01*
X139806812Y-82618720D01*
X139804570Y-82611190D01*
X139802013Y-82603742D01*
X139802013Y-82603740D01*
X139775892Y-82555472D01*
X139751774Y-82506139D01*
X139751772Y-82506137D01*
X139751772Y-82506136D01*
X139747224Y-82499766D01*
X139742369Y-82493527D01*
X139742367Y-82493524D01*
X139742363Y-82493520D01*
X139726206Y-82478646D01*
X139693967Y-82425000D01*
X140498000Y-82425000D01*
X141073000Y-82425000D01*
X141073000Y-81825000D01*
X140927566Y-81825000D01*
X140927559Y-81825001D01*
X140870992Y-81831081D01*
X140743018Y-81878813D01*
X140743015Y-81878815D01*
X140633670Y-81960670D01*
X140551815Y-82070015D01*
X140551814Y-82070016D01*
X140504083Y-82197989D01*
X140498000Y-82254571D01*
X140498000Y-82425000D01*
X139693967Y-82425000D01*
X139690216Y-82418759D01*
X139687094Y-82372469D01*
X139693077Y-82323201D01*
X139674036Y-82166383D01*
X139618019Y-82018678D01*
X139528282Y-81888671D01*
X139410039Y-81783918D01*
X139410037Y-81783917D01*
X139410036Y-81783916D01*
X139270165Y-81710505D01*
X139166444Y-81684940D01*
X139106063Y-81649783D01*
X139074275Y-81587564D01*
X139081171Y-81518035D01*
X139124562Y-81463273D01*
X139152791Y-81448359D01*
X139163984Y-81444184D01*
X139273329Y-81362329D01*
X139355184Y-81252984D01*
X139355185Y-81252983D01*
X139402916Y-81125010D01*
X139408999Y-81068428D01*
X139409000Y-81068427D01*
X139409000Y-80923000D01*
X138809000Y-80923000D01*
X138809000Y-81497999D01*
X138827973Y-81516972D01*
X138861458Y-81578295D01*
X138856474Y-81647987D01*
X138814602Y-81703920D01*
X138797918Y-81714449D01*
X138665561Y-81783915D01*
X138547315Y-81888672D01*
X138453318Y-82024851D01*
X138450632Y-82022997D01*
X138412168Y-82062637D01*
X138344126Y-82078514D01*
X138278302Y-82055085D01*
X138263429Y-82042392D01*
X137767709Y-81546672D01*
X137145149Y-80924111D01*
X137144247Y-80923000D01*
X137959001Y-80923000D01*
X137959001Y-81068439D01*
X137965081Y-81125007D01*
X138012813Y-81252981D01*
X138012815Y-81252984D01*
X138094670Y-81362329D01*
X138204015Y-81444184D01*
X138204016Y-81444185D01*
X138331991Y-81491917D01*
X138331994Y-81491918D01*
X138388555Y-81497999D01*
X138558999Y-81497999D01*
X138559000Y-81497998D01*
X138559000Y-80923000D01*
X137959001Y-80923000D01*
X137144247Y-80923000D01*
X137129022Y-80904252D01*
X137123086Y-80895167D01*
X137123083Y-80895163D01*
X137095074Y-80873363D01*
X137089310Y-80868272D01*
X137086515Y-80865477D01*
X137067505Y-80851906D01*
X137024189Y-80818190D01*
X137017274Y-80814448D01*
X137010200Y-80810990D01*
X136957596Y-80795329D01*
X136905658Y-80777499D01*
X136897923Y-80776208D01*
X136890083Y-80775231D01*
X136871469Y-80776001D01*
X136803673Y-80759102D01*
X136764297Y-80722547D01*
X136761483Y-80718470D01*
X136754716Y-80712475D01*
X136643240Y-80613717D01*
X136643238Y-80613716D01*
X136643237Y-80613715D01*
X136503365Y-80540303D01*
X136349986Y-80502500D01*
X136349985Y-80502500D01*
X136192015Y-80502500D01*
X136192014Y-80502500D01*
X136038634Y-80540303D01*
X135898762Y-80613715D01*
X135780512Y-80718474D01*
X135775543Y-80724084D01*
X135774221Y-80722913D01*
X135727261Y-80760966D01*
X135657812Y-80768622D01*
X135595249Y-80737515D01*
X135559435Y-80677522D01*
X135555500Y-80646533D01*
X135555500Y-77074628D01*
X136060000Y-77074628D01*
X136074503Y-77147540D01*
X136074505Y-77147544D01*
X136129760Y-77230239D01*
X136212455Y-77285494D01*
X136212459Y-77285496D01*
X136285371Y-77299999D01*
X136285374Y-77300000D01*
X137035000Y-77300000D01*
X137035000Y-76824000D01*
X137054685Y-76756961D01*
X137107489Y-76711206D01*
X137159000Y-76700000D01*
X137161000Y-76700000D01*
X137228039Y-76719685D01*
X137273794Y-76772489D01*
X137285000Y-76824000D01*
X137285000Y-77300000D01*
X138034626Y-77300000D01*
X138034628Y-77299999D01*
X138107540Y-77285496D01*
X138107544Y-77285494D01*
X138190239Y-77230239D01*
X138245494Y-77147544D01*
X138245496Y-77147540D01*
X138259999Y-77074628D01*
X138260000Y-77074626D01*
X138260000Y-76325000D01*
X137784000Y-76325000D01*
X137716961Y-76305315D01*
X137671206Y-76252511D01*
X137660000Y-76201000D01*
X137660000Y-76199000D01*
X137679685Y-76131961D01*
X137732489Y-76086206D01*
X137784000Y-76075000D01*
X138260000Y-76075000D01*
X138260000Y-75325373D01*
X138259999Y-75325371D01*
X138245496Y-75252459D01*
X138245494Y-75252455D01*
X138190239Y-75169760D01*
X138107544Y-75114505D01*
X138107540Y-75114503D01*
X138034627Y-75100000D01*
X137285000Y-75100000D01*
X137285000Y-75576000D01*
X137265315Y-75643039D01*
X137212511Y-75688794D01*
X137161000Y-75700000D01*
X137159000Y-75700000D01*
X137091961Y-75680315D01*
X137046206Y-75627511D01*
X137035000Y-75576000D01*
X137035000Y-75100000D01*
X136285373Y-75100000D01*
X136212459Y-75114503D01*
X136212455Y-75114505D01*
X136129760Y-75169760D01*
X136074505Y-75252455D01*
X136074503Y-75252459D01*
X136060000Y-75325371D01*
X136060000Y-76075000D01*
X136536000Y-76075000D01*
X136603039Y-76094685D01*
X136648794Y-76147489D01*
X136660000Y-76199000D01*
X136660000Y-76201000D01*
X136640315Y-76268039D01*
X136587511Y-76313794D01*
X136536000Y-76325000D01*
X136060000Y-76325000D01*
X136060000Y-77074628D01*
X135555500Y-77074628D01*
X135555500Y-75298048D01*
X135555799Y-75291968D01*
X135563807Y-75210655D01*
X135567744Y-75170680D01*
X135572483Y-75146856D01*
X135605203Y-75038990D01*
X135614499Y-75016549D01*
X135667632Y-74917144D01*
X135681133Y-74896940D01*
X135752635Y-74809814D01*
X135769814Y-74792635D01*
X135856942Y-74721131D01*
X135877144Y-74707632D01*
X135976549Y-74654499D01*
X135998990Y-74645203D01*
X136106856Y-74612483D01*
X136130682Y-74607744D01*
X136204052Y-74600517D01*
X136251969Y-74595799D01*
X136258049Y-74595500D01*
X136302595Y-74595500D01*
X153257405Y-74595500D01*
X153301951Y-74595500D01*
X153308031Y-74595799D01*
G37*
%TD.AperFunction*%
%TA.AperFunction,Conductor*%
G36*
X151086073Y-82258185D02*
G01*
X151106715Y-82274819D01*
X151310542Y-82478646D01*
X151413560Y-82581663D01*
X151447045Y-82642986D01*
X151442061Y-82712677D01*
X151400190Y-82768611D01*
X151394772Y-82772445D01*
X151369399Y-82789398D01*
X151314033Y-82872260D01*
X151314032Y-82872264D01*
X151299500Y-82945321D01*
X151299500Y-83245500D01*
X151279815Y-83312539D01*
X151227011Y-83358294D01*
X151175500Y-83369500D01*
X151057183Y-83369500D01*
X151050244Y-83369110D01*
X151035969Y-83367502D01*
X151011364Y-83364729D01*
X150960943Y-83374270D01*
X150952920Y-83375788D01*
X150940232Y-83377700D01*
X150894116Y-83384651D01*
X150885958Y-83387167D01*
X150877922Y-83389979D01*
X150825327Y-83417777D01*
X150771756Y-83443576D01*
X150764710Y-83448379D01*
X150757859Y-83453435D01*
X150736111Y-83475184D01*
X150715800Y-83495495D01*
X150695575Y-83514260D01*
X150672207Y-83535943D01*
X150666415Y-83543207D01*
X150665763Y-83542687D01*
X150656369Y-83554925D01*
X150161804Y-84049492D01*
X150156617Y-84054127D01*
X150126033Y-84078517D01*
X150126029Y-84078521D01*
X150092519Y-84127671D01*
X150057206Y-84175518D01*
X150053216Y-84183067D01*
X150049528Y-84190726D01*
X150031992Y-84247577D01*
X150012353Y-84303701D01*
X150010771Y-84312059D01*
X150009500Y-84320500D01*
X150009500Y-84379973D01*
X150007275Y-84439409D01*
X150008316Y-84448643D01*
X150007485Y-84448736D01*
X150009500Y-84464035D01*
X150009500Y-85481562D01*
X149989815Y-85548601D01*
X149973181Y-85569243D01*
X149486244Y-86056181D01*
X149424921Y-86089666D01*
X149398563Y-86092500D01*
X149008000Y-86092500D01*
X148940961Y-86072815D01*
X148922791Y-86051846D01*
X148920319Y-86054319D01*
X148884000Y-86018000D01*
X146909001Y-86018000D01*
X146909001Y-86026217D01*
X146918912Y-86094250D01*
X146952508Y-86162972D01*
X146964266Y-86231845D01*
X146952508Y-86271890D01*
X146918426Y-86341606D01*
X146918426Y-86341607D01*
X146908500Y-86409739D01*
X146908500Y-86670307D01*
X146888815Y-86737346D01*
X146836011Y-86783101D01*
X146766853Y-86793045D01*
X146726875Y-86780104D01*
X146694864Y-86763303D01*
X146541486Y-86725500D01*
X146541485Y-86725500D01*
X146383515Y-86725500D01*
X146383514Y-86725500D01*
X146267174Y-86754174D01*
X146197372Y-86751104D01*
X146140310Y-86710784D01*
X146114105Y-86646015D01*
X146113500Y-86633777D01*
X146113500Y-85862899D01*
X146133185Y-85795860D01*
X146149819Y-85775218D01*
X146270218Y-85654819D01*
X146331541Y-85621334D01*
X146357899Y-85618500D01*
X146786209Y-85618500D01*
X146853248Y-85638185D01*
X146899003Y-85690989D01*
X146908240Y-85755231D01*
X146909324Y-85755310D01*
X146909000Y-85759778D01*
X146909000Y-85768000D01*
X148883999Y-85768000D01*
X148883999Y-85759782D01*
X148874087Y-85691750D01*
X148840491Y-85623028D01*
X148828732Y-85554155D01*
X148840492Y-85514107D01*
X148858135Y-85478017D01*
X148874573Y-85444393D01*
X148884500Y-85376260D01*
X148884500Y-85109740D01*
X148874573Y-85041607D01*
X148840768Y-84972458D01*
X148829010Y-84903587D01*
X148840769Y-84863540D01*
X148874573Y-84794393D01*
X148884500Y-84726260D01*
X148884500Y-84459740D01*
X148874573Y-84391607D01*
X148823198Y-84286517D01*
X148823196Y-84286515D01*
X148823196Y-84286514D01*
X148740485Y-84203803D01*
X148635391Y-84152426D01*
X148567261Y-84142500D01*
X148567260Y-84142500D01*
X147225740Y-84142500D01*
X147225739Y-84142500D01*
X147157608Y-84152426D01*
X147050269Y-84204901D01*
X146995809Y-84217500D01*
X146090804Y-84217500D01*
X146065357Y-84214861D01*
X146062713Y-84214306D01*
X146054729Y-84212632D01*
X146019509Y-84217023D01*
X146011832Y-84217500D01*
X146007886Y-84217500D01*
X145990606Y-84220383D01*
X145984846Y-84221344D01*
X145930368Y-84228135D01*
X145922844Y-84230375D01*
X145915392Y-84232934D01*
X145867119Y-84259057D01*
X145817790Y-84283172D01*
X145811398Y-84287735D01*
X145805174Y-84292580D01*
X145768003Y-84332958D01*
X145059108Y-85041852D01*
X145039254Y-85057976D01*
X145030165Y-85063914D01*
X145030164Y-85063915D01*
X145008363Y-85091923D01*
X145003286Y-85097674D01*
X145000484Y-85100477D01*
X145000474Y-85100488D01*
X144986905Y-85119495D01*
X144953192Y-85162808D01*
X144949447Y-85169729D01*
X144945990Y-85176801D01*
X144934533Y-85215280D01*
X144896535Y-85273914D01*
X144832870Y-85302697D01*
X144763749Y-85292491D01*
X144728008Y-85267574D01*
X143824545Y-84364111D01*
X143808418Y-84344252D01*
X143802482Y-84335167D01*
X143802479Y-84335163D01*
X143774470Y-84313363D01*
X143768706Y-84308272D01*
X143765911Y-84305477D01*
X143746901Y-84291906D01*
X143703585Y-84258190D01*
X143696670Y-84254448D01*
X143689596Y-84250990D01*
X143636992Y-84235329D01*
X143585054Y-84217499D01*
X143577319Y-84216208D01*
X143569481Y-84215231D01*
X143514640Y-84217500D01*
X143072191Y-84217500D01*
X143017731Y-84204901D01*
X142910391Y-84152426D01*
X142842261Y-84142500D01*
X142842260Y-84142500D01*
X142599965Y-84142500D01*
X142532926Y-84122815D01*
X142487171Y-84070011D01*
X142477227Y-84000853D01*
X142506252Y-83937297D01*
X142512284Y-83930819D01*
X142907159Y-83535943D01*
X143046205Y-83396896D01*
X143051373Y-83392277D01*
X143081970Y-83367879D01*
X143115480Y-83318728D01*
X143150793Y-83270882D01*
X143150792Y-83270882D01*
X143156313Y-83263403D01*
X143158375Y-83264925D01*
X143197395Y-83224825D01*
X143198877Y-83224002D01*
X143203218Y-83221630D01*
X143203226Y-83221628D01*
X143312687Y-83139687D01*
X143379683Y-83050189D01*
X143435616Y-83008318D01*
X143478950Y-83000500D01*
X144243217Y-83000500D01*
X144250155Y-83000889D01*
X144282050Y-83004483D01*
X144289034Y-83005270D01*
X144289034Y-83005269D01*
X144289035Y-83005270D01*
X144347479Y-82994211D01*
X144406287Y-82985348D01*
X144406290Y-82985346D01*
X144414447Y-82982830D01*
X144422469Y-82980023D01*
X144422472Y-82980023D01*
X144439983Y-82970767D01*
X144508450Y-82956842D01*
X144573577Y-82982144D01*
X144585610Y-82992714D01*
X144695094Y-83102198D01*
X144699730Y-83107386D01*
X144724121Y-83137970D01*
X144724122Y-83137971D01*
X144773264Y-83171476D01*
X144821116Y-83206792D01*
X144828672Y-83210785D01*
X144836321Y-83214468D01*
X144836327Y-83214472D01*
X144869321Y-83224649D01*
X144893179Y-83232009D01*
X144949300Y-83251646D01*
X144957688Y-83253232D01*
X144966095Y-83254500D01*
X144966098Y-83254500D01*
X145025573Y-83254500D01*
X145085009Y-83256724D01*
X145085009Y-83256723D01*
X145085010Y-83256724D01*
X145085010Y-83256723D01*
X145094243Y-83255684D01*
X145094336Y-83256513D01*
X145109636Y-83254500D01*
X146055050Y-83254500D01*
X146122089Y-83274185D01*
X146154317Y-83304190D01*
X146221311Y-83393685D01*
X146221312Y-83393685D01*
X146221313Y-83393687D01*
X146253494Y-83417777D01*
X146330183Y-83475186D01*
X146330774Y-83475628D01*
X146458886Y-83523412D01*
X146515515Y-83529500D01*
X147056484Y-83529499D01*
X147113114Y-83523412D01*
X147241226Y-83475628D01*
X147350687Y-83393687D01*
X147432628Y-83284226D01*
X147445085Y-83250825D01*
X147486955Y-83194894D01*
X147552419Y-83170477D01*
X147620692Y-83185328D01*
X147670098Y-83234733D01*
X147677448Y-83250827D01*
X147689814Y-83283983D01*
X147689815Y-83283984D01*
X147771670Y-83393329D01*
X147881015Y-83475184D01*
X147881016Y-83475185D01*
X148008991Y-83522917D01*
X148008994Y-83522918D01*
X148065555Y-83528999D01*
X148210999Y-83528999D01*
X148211000Y-83528998D01*
X148211000Y-82929000D01*
X148461000Y-82929000D01*
X148461000Y-83528999D01*
X148606433Y-83528999D01*
X148606439Y-83528998D01*
X148663007Y-83522918D01*
X148790981Y-83475186D01*
X148790984Y-83475184D01*
X148900329Y-83393329D01*
X148982184Y-83283984D01*
X148982185Y-83283983D01*
X149029916Y-83156010D01*
X149035999Y-83099428D01*
X149036000Y-83099427D01*
X149036000Y-82929000D01*
X148461000Y-82929000D01*
X148211000Y-82929000D01*
X148211000Y-82803000D01*
X148230685Y-82735961D01*
X148283489Y-82690206D01*
X148335000Y-82679000D01*
X149035999Y-82679000D01*
X149035999Y-82508566D01*
X149035998Y-82508560D01*
X149029917Y-82451990D01*
X149012702Y-82405834D01*
X149007717Y-82336143D01*
X149041201Y-82274819D01*
X149102524Y-82241334D01*
X149128883Y-82238500D01*
X151019034Y-82238500D01*
X151086073Y-82258185D01*
G37*
%TD.AperFunction*%
%TD*%
M02*
