%TF.GenerationSoftware,KiCad,Pcbnew,7.0.7*%
%TF.CreationDate,2024-07-05T12:18:51-04:00*%
%TF.ProjectId,MSP430FR21_Breakout,4d535034-3330-4465-9232-315f42726561,rev?*%
%TF.SameCoordinates,Original*%
%TF.FileFunction,Legend,Bot*%
%TF.FilePolarity,Positive*%
%FSLAX46Y46*%
G04 Gerber Fmt 4.6, Leading zero omitted, Abs format (unit mm)*
G04 Created by KiCad (PCBNEW 7.0.7) date 2024-07-05 12:18:51*
%MOMM*%
%LPD*%
G01*
G04 APERTURE LIST*
%ADD10C,0.200000*%
%ADD11C,0.187500*%
G04 APERTURE END LIST*
D10*
G36*
X140419676Y-81249353D02*
G01*
X138933962Y-81249353D01*
X138933962Y-81011917D01*
X139076821Y-81011917D01*
X139096366Y-81070549D01*
X139146640Y-81106496D01*
X139208442Y-81106026D01*
X140208441Y-80772693D01*
X140232704Y-80754782D01*
X140257272Y-80737216D01*
X140257523Y-80736461D01*
X140258165Y-80735988D01*
X140267280Y-80707191D01*
X140276816Y-80678584D01*
X140276575Y-80677824D01*
X140276816Y-80677066D01*
X140267280Y-80648458D01*
X140258165Y-80619662D01*
X140257523Y-80619188D01*
X140257272Y-80618434D01*
X140232704Y-80600867D01*
X140208441Y-80582957D01*
X139208442Y-80249624D01*
X139146640Y-80249154D01*
X139096366Y-80285101D01*
X139076821Y-80343733D01*
X139095473Y-80402655D01*
X139145196Y-80439360D01*
X139860591Y-80677825D01*
X139145196Y-80916290D01*
X139095473Y-80952995D01*
X139076821Y-81011917D01*
X138933962Y-81011917D01*
X138933962Y-80011158D01*
X139076819Y-80011158D01*
X139095917Y-80069937D01*
X139145917Y-80106264D01*
X139207721Y-80106264D01*
X139257721Y-80069937D01*
X139276819Y-80011158D01*
X139276819Y-79625467D01*
X139465142Y-79606634D01*
X139464894Y-79608282D01*
X139457771Y-79630206D01*
X139457771Y-79868301D01*
X139464894Y-79890224D01*
X139468328Y-79913022D01*
X139515947Y-80008260D01*
X139527320Y-80019807D01*
X139534679Y-80034250D01*
X139582298Y-80081868D01*
X139596739Y-80089226D01*
X139608288Y-80100601D01*
X139703525Y-80148220D01*
X139726323Y-80151653D01*
X139748247Y-80158777D01*
X139986342Y-80158777D01*
X140008265Y-80151653D01*
X140031063Y-80148220D01*
X140126301Y-80100601D01*
X140137848Y-80089227D01*
X140152290Y-80081869D01*
X140199910Y-80034251D01*
X140207269Y-80019807D01*
X140218643Y-80008260D01*
X140266262Y-79913023D01*
X140269695Y-79890224D01*
X140276819Y-79868301D01*
X140276819Y-79630206D01*
X140269695Y-79608282D01*
X140266262Y-79585484D01*
X140218643Y-79490247D01*
X140207269Y-79478699D01*
X140199910Y-79464256D01*
X140152290Y-79416638D01*
X140097222Y-79388579D01*
X140036180Y-79398248D01*
X139992478Y-79441951D01*
X139982811Y-79502993D01*
X140010870Y-79558060D01*
X140047014Y-79594203D01*
X140076819Y-79653812D01*
X140076819Y-79844694D01*
X140047014Y-79904303D01*
X140022346Y-79928970D01*
X139962735Y-79958777D01*
X139771854Y-79958777D01*
X139712244Y-79928972D01*
X139687576Y-79904303D01*
X139657771Y-79844693D01*
X139657771Y-79653813D01*
X139687576Y-79594203D01*
X139723719Y-79558060D01*
X139736505Y-79532966D01*
X139750718Y-79508634D01*
X139750420Y-79505657D01*
X139751778Y-79502993D01*
X139747371Y-79475170D01*
X139744568Y-79447137D01*
X139742577Y-79444904D01*
X139742110Y-79441950D01*
X139722190Y-79422030D01*
X139703446Y-79401000D01*
X139700523Y-79400363D01*
X139698408Y-79398248D01*
X139670584Y-79393841D01*
X139643059Y-79387845D01*
X139166869Y-79435464D01*
X139156855Y-79439862D01*
X139145917Y-79439862D01*
X139129200Y-79452007D01*
X139110282Y-79460316D01*
X139104765Y-79469760D01*
X139095917Y-79476189D01*
X139089532Y-79495840D01*
X139079110Y-79513683D01*
X139080198Y-79524566D01*
X139076819Y-79534968D01*
X139076819Y-80011158D01*
X138933962Y-80011158D01*
X138933962Y-78708727D01*
X139319808Y-78708727D01*
X139356135Y-78758727D01*
X139414914Y-78777825D01*
X139695866Y-78777825D01*
X139695866Y-79058778D01*
X139714964Y-79117557D01*
X139764964Y-79153884D01*
X139826768Y-79153884D01*
X139876768Y-79117557D01*
X139895866Y-79058778D01*
X139895866Y-78777825D01*
X140176819Y-78777825D01*
X140235598Y-78758727D01*
X140271925Y-78708727D01*
X140271925Y-78646923D01*
X140235598Y-78596923D01*
X140176819Y-78577825D01*
X139895866Y-78577825D01*
X139895866Y-78296873D01*
X139876768Y-78238094D01*
X139826768Y-78201767D01*
X139764964Y-78201767D01*
X139714964Y-78238094D01*
X139695866Y-78296873D01*
X139695866Y-78577825D01*
X139414914Y-78577825D01*
X139356135Y-78596923D01*
X139319808Y-78646923D01*
X139319808Y-78708727D01*
X138933962Y-78708727D01*
X138933962Y-78058910D01*
X140419676Y-78058910D01*
X140419676Y-81249353D01*
G37*
D11*
G36*
X148915397Y-96524141D02*
G01*
X148929593Y-96538338D01*
X148948608Y-96576367D01*
X148948608Y-96710674D01*
X148929593Y-96748703D01*
X148915397Y-96762900D01*
X148877369Y-96781914D01*
X148778776Y-96781914D01*
X148740749Y-96762900D01*
X148726550Y-96748702D01*
X148707537Y-96710675D01*
X148707537Y-96576366D01*
X148726550Y-96538339D01*
X148740749Y-96524141D01*
X148778776Y-96505128D01*
X148877369Y-96505128D01*
X148915397Y-96524141D01*
G37*
G36*
X150734323Y-96424771D02*
G01*
X150564491Y-96424771D01*
X150526462Y-96405757D01*
X150512266Y-96391560D01*
X150493252Y-96353532D01*
X150493252Y-96290652D01*
X150512266Y-96252623D01*
X150526461Y-96238428D01*
X150564491Y-96219414D01*
X150734323Y-96219414D01*
X150734323Y-96424771D01*
G37*
G36*
X151028966Y-97076557D02*
G01*
X148412894Y-97076557D01*
X148412894Y-96732807D01*
X148520037Y-96732807D01*
X148526714Y-96753359D01*
X148529934Y-96774733D01*
X148565648Y-96846161D01*
X148576311Y-96856987D01*
X148583210Y-96870526D01*
X148618925Y-96906242D01*
X148632464Y-96913140D01*
X148643290Y-96923803D01*
X148714718Y-96959517D01*
X148736091Y-96962735D01*
X148756644Y-96969414D01*
X148899501Y-96969414D01*
X148920055Y-96962735D01*
X148941427Y-96959517D01*
X149012856Y-96923803D01*
X149023684Y-96913138D01*
X149037222Y-96906240D01*
X149072936Y-96870525D01*
X149079833Y-96856987D01*
X149082170Y-96854615D01*
X149235477Y-96854615D01*
X149242218Y-96867846D01*
X149244542Y-96882513D01*
X149255041Y-96893012D01*
X149261782Y-96906241D01*
X149297496Y-96941955D01*
X149310723Y-96948694D01*
X149321225Y-96959196D01*
X149328696Y-96960379D01*
X149334817Y-96964826D01*
X149342383Y-96964826D01*
X149349121Y-96968259D01*
X149363784Y-96965936D01*
X149378452Y-96968260D01*
X149385192Y-96964826D01*
X149392757Y-96964826D01*
X149398877Y-96960379D01*
X149406349Y-96959196D01*
X149416849Y-96948695D01*
X149430078Y-96941955D01*
X149465792Y-96906241D01*
X149472531Y-96893013D01*
X149483032Y-96882513D01*
X149485355Y-96867845D01*
X149492096Y-96854616D01*
X149489773Y-96839952D01*
X149492097Y-96825286D01*
X149485355Y-96812055D01*
X149483033Y-96797388D01*
X149472532Y-96786887D01*
X149465793Y-96773660D01*
X149430079Y-96737945D01*
X149416850Y-96731204D01*
X149406348Y-96720702D01*
X149398876Y-96719518D01*
X149392757Y-96715073D01*
X149385191Y-96715073D01*
X149378454Y-96711640D01*
X149363787Y-96713962D01*
X149349120Y-96711640D01*
X149342383Y-96715073D01*
X149334817Y-96715073D01*
X149328697Y-96719518D01*
X149321226Y-96720702D01*
X149310723Y-96731204D01*
X149297495Y-96737945D01*
X149261781Y-96773660D01*
X149255041Y-96786887D01*
X149244541Y-96797388D01*
X149242217Y-96812056D01*
X149235477Y-96825286D01*
X149237799Y-96839949D01*
X149235477Y-96854615D01*
X149082170Y-96854615D01*
X149090497Y-96846161D01*
X149126211Y-96774733D01*
X149129429Y-96753359D01*
X149136108Y-96732807D01*
X149136108Y-96447092D01*
X149132502Y-96435994D01*
X149133309Y-96424355D01*
X149112208Y-96339950D01*
X149591466Y-96339950D01*
X149596161Y-96354401D01*
X149596277Y-96369596D01*
X149631991Y-96476739D01*
X149644828Y-96494128D01*
X149654639Y-96513383D01*
X149923170Y-96781914D01*
X149685216Y-96781914D01*
X149630111Y-96799819D01*
X149596054Y-96846694D01*
X149596054Y-96904634D01*
X149630111Y-96951509D01*
X149685216Y-96969414D01*
X150149502Y-96969414D01*
X150170381Y-96962629D01*
X150192064Y-96959196D01*
X150197413Y-96953846D01*
X150204607Y-96951509D01*
X150217509Y-96933750D01*
X150233034Y-96918226D01*
X150234217Y-96910754D01*
X150238664Y-96904634D01*
X150238664Y-96882675D01*
X150242097Y-96860998D01*
X150238664Y-96854260D01*
X150238664Y-96846694D01*
X150225757Y-96828930D01*
X150215793Y-96809373D01*
X149802870Y-96396450D01*
X149795941Y-96375664D01*
X150305752Y-96375664D01*
X150312429Y-96396216D01*
X150315649Y-96417590D01*
X150351363Y-96489018D01*
X150362026Y-96499844D01*
X150368924Y-96513382D01*
X150404638Y-96549097D01*
X150418175Y-96555995D01*
X150429004Y-96566660D01*
X150500433Y-96602374D01*
X150521806Y-96605592D01*
X150542359Y-96612271D01*
X150734323Y-96612271D01*
X150734323Y-96875664D01*
X150752228Y-96930769D01*
X150799103Y-96964826D01*
X150857043Y-96964826D01*
X150903918Y-96930769D01*
X150921823Y-96875664D01*
X150921823Y-96125664D01*
X150917235Y-96111543D01*
X150917235Y-96096694D01*
X150908506Y-96084680D01*
X150903918Y-96070559D01*
X150891905Y-96061831D01*
X150883178Y-96049819D01*
X150869056Y-96045230D01*
X150857043Y-96036502D01*
X150842193Y-96036502D01*
X150828073Y-96031914D01*
X150542359Y-96031914D01*
X150521806Y-96038592D01*
X150500433Y-96041811D01*
X150429004Y-96077525D01*
X150418176Y-96088189D01*
X150404639Y-96095087D01*
X150368925Y-96130801D01*
X150362027Y-96144338D01*
X150351363Y-96155166D01*
X150315649Y-96226595D01*
X150312430Y-96247966D01*
X150305752Y-96268521D01*
X150305752Y-96375664D01*
X149795941Y-96375664D01*
X149778966Y-96324737D01*
X149778966Y-96290652D01*
X149797979Y-96252624D01*
X149812176Y-96238428D01*
X149850205Y-96219414D01*
X149984513Y-96219414D01*
X150022541Y-96238428D01*
X150047496Y-96263383D01*
X150099121Y-96289687D01*
X150156349Y-96280624D01*
X150197319Y-96239654D01*
X150206382Y-96182426D01*
X150180078Y-96130801D01*
X150144364Y-96095087D01*
X150130825Y-96088188D01*
X150119999Y-96077525D01*
X150048571Y-96041811D01*
X150027197Y-96038591D01*
X150006645Y-96031914D01*
X149828073Y-96031914D01*
X149807520Y-96038592D01*
X149786147Y-96041811D01*
X149714719Y-96077525D01*
X149703892Y-96088188D01*
X149690355Y-96095086D01*
X149654640Y-96130800D01*
X149647741Y-96144337D01*
X149637077Y-96155166D01*
X149601363Y-96226595D01*
X149598144Y-96247966D01*
X149591466Y-96268521D01*
X149591466Y-96339950D01*
X149112208Y-96339950D01*
X149097595Y-96281497D01*
X149089019Y-96267793D01*
X149084649Y-96252232D01*
X149013221Y-96145089D01*
X149005799Y-96139225D01*
X149001506Y-96130800D01*
X148965791Y-96095086D01*
X148952253Y-96088188D01*
X148941427Y-96077525D01*
X148869999Y-96041811D01*
X148848625Y-96038591D01*
X148828073Y-96031914D01*
X148685216Y-96031914D01*
X148630111Y-96049819D01*
X148596054Y-96096694D01*
X148596054Y-96154634D01*
X148630111Y-96201509D01*
X148685216Y-96219414D01*
X148805941Y-96219414D01*
X148843969Y-96238428D01*
X148862359Y-96256817D01*
X148903839Y-96319037D01*
X148899501Y-96317628D01*
X148756644Y-96317628D01*
X148736091Y-96324306D01*
X148714718Y-96327525D01*
X148643290Y-96363239D01*
X148632464Y-96373901D01*
X148618925Y-96380800D01*
X148583210Y-96416516D01*
X148576311Y-96430054D01*
X148565648Y-96440881D01*
X148529934Y-96512309D01*
X148526714Y-96533682D01*
X148520037Y-96554235D01*
X148520037Y-96732807D01*
X148412894Y-96732807D01*
X148412894Y-95924771D01*
X151028966Y-95924771D01*
X151028966Y-97076557D01*
G37*
G36*
X150581923Y-98964771D02*
G01*
X150412091Y-98964771D01*
X150374062Y-98945757D01*
X150359866Y-98931560D01*
X150340852Y-98893532D01*
X150340852Y-98830652D01*
X150359866Y-98792623D01*
X150374061Y-98778428D01*
X150412091Y-98759414D01*
X150581923Y-98759414D01*
X150581923Y-98964771D01*
G37*
G36*
X150876566Y-99616557D02*
G01*
X148227111Y-99616557D01*
X148227111Y-98644891D01*
X148334254Y-98644891D01*
X148336511Y-98669702D01*
X148336511Y-98694634D01*
X148339103Y-98698202D01*
X148339503Y-98702594D01*
X148660931Y-99452593D01*
X148699095Y-99496190D01*
X148755596Y-99509028D01*
X148808851Y-99486205D01*
X148838520Y-99436436D01*
X148834716Y-99394615D01*
X149083077Y-99394615D01*
X149089818Y-99407846D01*
X149092142Y-99422513D01*
X149102641Y-99433012D01*
X149109382Y-99446241D01*
X149145096Y-99481955D01*
X149158323Y-99488694D01*
X149168825Y-99499196D01*
X149176296Y-99500379D01*
X149182417Y-99504826D01*
X149189983Y-99504826D01*
X149196721Y-99508259D01*
X149211384Y-99505936D01*
X149226052Y-99508260D01*
X149232792Y-99504826D01*
X149240357Y-99504826D01*
X149246477Y-99500379D01*
X149253949Y-99499196D01*
X149264449Y-99488695D01*
X149277678Y-99481955D01*
X149313392Y-99446241D01*
X149320131Y-99433013D01*
X149330632Y-99422513D01*
X149332955Y-99407845D01*
X149339696Y-99394616D01*
X149337373Y-99379952D01*
X149339697Y-99365286D01*
X149332955Y-99352055D01*
X149330633Y-99337388D01*
X149320132Y-99326887D01*
X149313393Y-99313660D01*
X149277679Y-99277945D01*
X149264450Y-99271204D01*
X149253948Y-99260702D01*
X149246476Y-99259518D01*
X149240357Y-99255073D01*
X149232791Y-99255073D01*
X149226054Y-99251640D01*
X149211387Y-99253962D01*
X149196720Y-99251640D01*
X149189983Y-99255073D01*
X149182417Y-99255073D01*
X149176297Y-99259518D01*
X149168826Y-99260702D01*
X149158323Y-99271204D01*
X149145095Y-99277945D01*
X149109381Y-99313660D01*
X149102641Y-99326887D01*
X149092141Y-99337388D01*
X149089817Y-99352056D01*
X149083077Y-99365286D01*
X149085399Y-99379949D01*
X149083077Y-99394615D01*
X148834716Y-99394615D01*
X148833271Y-99378734D01*
X148619507Y-98879950D01*
X149439066Y-98879950D01*
X149443761Y-98894401D01*
X149443877Y-98909596D01*
X149479591Y-99016739D01*
X149492428Y-99034128D01*
X149502239Y-99053383D01*
X149770770Y-99321914D01*
X149532816Y-99321914D01*
X149477711Y-99339819D01*
X149443654Y-99386694D01*
X149443654Y-99444634D01*
X149477711Y-99491509D01*
X149532816Y-99509414D01*
X149997102Y-99509414D01*
X150017981Y-99502629D01*
X150039664Y-99499196D01*
X150045013Y-99493846D01*
X150052207Y-99491509D01*
X150065109Y-99473750D01*
X150080634Y-99458226D01*
X150081817Y-99450754D01*
X150086264Y-99444634D01*
X150086264Y-99422675D01*
X150089697Y-99400998D01*
X150086264Y-99394260D01*
X150086264Y-99386694D01*
X150073357Y-99368930D01*
X150063393Y-99349373D01*
X149650470Y-98936450D01*
X149643542Y-98915664D01*
X150153352Y-98915664D01*
X150160029Y-98936216D01*
X150163249Y-98957590D01*
X150198963Y-99029018D01*
X150209626Y-99039844D01*
X150216524Y-99053382D01*
X150252238Y-99089097D01*
X150265775Y-99095995D01*
X150276604Y-99106660D01*
X150348033Y-99142374D01*
X150369406Y-99145592D01*
X150389959Y-99152271D01*
X150581923Y-99152271D01*
X150581923Y-99415664D01*
X150599828Y-99470769D01*
X150646703Y-99504826D01*
X150704643Y-99504826D01*
X150751518Y-99470769D01*
X150769423Y-99415664D01*
X150769423Y-98665664D01*
X150764835Y-98651543D01*
X150764835Y-98636694D01*
X150756106Y-98624680D01*
X150751518Y-98610559D01*
X150739505Y-98601831D01*
X150730778Y-98589819D01*
X150716656Y-98585230D01*
X150704643Y-98576502D01*
X150689793Y-98576502D01*
X150675673Y-98571914D01*
X150389959Y-98571914D01*
X150369406Y-98578592D01*
X150348033Y-98581811D01*
X150276604Y-98617525D01*
X150265776Y-98628189D01*
X150252239Y-98635087D01*
X150216525Y-98670801D01*
X150209627Y-98684338D01*
X150198963Y-98695166D01*
X150163249Y-98766595D01*
X150160030Y-98787966D01*
X150153352Y-98808521D01*
X150153352Y-98915664D01*
X149643542Y-98915664D01*
X149626566Y-98864736D01*
X149626566Y-98830652D01*
X149645579Y-98792624D01*
X149659776Y-98778428D01*
X149697805Y-98759414D01*
X149832113Y-98759414D01*
X149870141Y-98778428D01*
X149895096Y-98803383D01*
X149946721Y-98829687D01*
X150003949Y-98820624D01*
X150044919Y-98779654D01*
X150053982Y-98722426D01*
X150027678Y-98670801D01*
X149991964Y-98635087D01*
X149978425Y-98628188D01*
X149967599Y-98617525D01*
X149896171Y-98581811D01*
X149874797Y-98578591D01*
X149854245Y-98571914D01*
X149675673Y-98571914D01*
X149655120Y-98578592D01*
X149633747Y-98581811D01*
X149562319Y-98617525D01*
X149551492Y-98628188D01*
X149537955Y-98635086D01*
X149502240Y-98670800D01*
X149495341Y-98684337D01*
X149484677Y-98695166D01*
X149448963Y-98766595D01*
X149445744Y-98787966D01*
X149439066Y-98808521D01*
X149439066Y-98879950D01*
X148619507Y-98879950D01*
X148567849Y-98759414D01*
X148925673Y-98759414D01*
X148980778Y-98741509D01*
X149014835Y-98694634D01*
X149014835Y-98636694D01*
X148980778Y-98589819D01*
X148925673Y-98571914D01*
X148425673Y-98571914D01*
X148421479Y-98573276D01*
X148417178Y-98572299D01*
X148394262Y-98582119D01*
X148370568Y-98589819D01*
X148367976Y-98593385D01*
X148363923Y-98595123D01*
X148351162Y-98616528D01*
X148336511Y-98636694D01*
X148336511Y-98641105D01*
X148334254Y-98644891D01*
X148227111Y-98644891D01*
X148227111Y-98464771D01*
X150876566Y-98464771D01*
X150876566Y-99616557D01*
G37*
G36*
X140929923Y-96424771D02*
G01*
X140760091Y-96424771D01*
X140722062Y-96405757D01*
X140707866Y-96391560D01*
X140688852Y-96353531D01*
X140688852Y-96290652D01*
X140707866Y-96252623D01*
X140722061Y-96238428D01*
X140760091Y-96219414D01*
X140929923Y-96219414D01*
X140929923Y-96424771D01*
G37*
G36*
X141224566Y-97076557D02*
G01*
X138608494Y-97076557D01*
X138608494Y-96732807D01*
X138715637Y-96732807D01*
X138722314Y-96753359D01*
X138725534Y-96774733D01*
X138761248Y-96846161D01*
X138771911Y-96856987D01*
X138778810Y-96870526D01*
X138814525Y-96906242D01*
X138828064Y-96913140D01*
X138838890Y-96923803D01*
X138910318Y-96959517D01*
X138931691Y-96962735D01*
X138952244Y-96969414D01*
X139130816Y-96969414D01*
X139151368Y-96962736D01*
X139172742Y-96959517D01*
X139244170Y-96923803D01*
X139254997Y-96913138D01*
X139268536Y-96906240D01*
X139304250Y-96870525D01*
X139312356Y-96854615D01*
X139431077Y-96854615D01*
X139437818Y-96867846D01*
X139440142Y-96882513D01*
X139450641Y-96893012D01*
X139457382Y-96906241D01*
X139493096Y-96941955D01*
X139506323Y-96948694D01*
X139516825Y-96959196D01*
X139524296Y-96960379D01*
X139530417Y-96964826D01*
X139537983Y-96964826D01*
X139544721Y-96968259D01*
X139559384Y-96965936D01*
X139574052Y-96968260D01*
X139580792Y-96964826D01*
X139588357Y-96964826D01*
X139594477Y-96960379D01*
X139601949Y-96959196D01*
X139612449Y-96948695D01*
X139625678Y-96941955D01*
X139661392Y-96906241D01*
X139662211Y-96904634D01*
X139791654Y-96904634D01*
X139825711Y-96951509D01*
X139880816Y-96969414D01*
X140309387Y-96969414D01*
X140364492Y-96951509D01*
X140398549Y-96904634D01*
X140398549Y-96846694D01*
X140364492Y-96799819D01*
X140309387Y-96781914D01*
X140188852Y-96781914D01*
X140188852Y-96381015D01*
X140196032Y-96388087D01*
X140267459Y-96423802D01*
X140324754Y-96432432D01*
X140376179Y-96405737D01*
X140391216Y-96375664D01*
X140501352Y-96375664D01*
X140508029Y-96396216D01*
X140511249Y-96417590D01*
X140546963Y-96489018D01*
X140557626Y-96499844D01*
X140564524Y-96513382D01*
X140600238Y-96549097D01*
X140613775Y-96555995D01*
X140624604Y-96566660D01*
X140696033Y-96602374D01*
X140717406Y-96605592D01*
X140737959Y-96612271D01*
X140929923Y-96612271D01*
X140929923Y-96875664D01*
X140947828Y-96930769D01*
X140994703Y-96964826D01*
X141052643Y-96964826D01*
X141099518Y-96930769D01*
X141117423Y-96875664D01*
X141117423Y-96125664D01*
X141112835Y-96111543D01*
X141112835Y-96096694D01*
X141104106Y-96084680D01*
X141099518Y-96070559D01*
X141087505Y-96061831D01*
X141078778Y-96049819D01*
X141064656Y-96045230D01*
X141052643Y-96036502D01*
X141037793Y-96036502D01*
X141023673Y-96031914D01*
X140737959Y-96031914D01*
X140717406Y-96038592D01*
X140696033Y-96041811D01*
X140624604Y-96077525D01*
X140613776Y-96088189D01*
X140600239Y-96095087D01*
X140564525Y-96130801D01*
X140557627Y-96144338D01*
X140546963Y-96155166D01*
X140511249Y-96226595D01*
X140508030Y-96247966D01*
X140501352Y-96268521D01*
X140501352Y-96375664D01*
X140391216Y-96375664D01*
X140402091Y-96353914D01*
X140392593Y-96296757D01*
X140351314Y-96256098D01*
X140293494Y-96227187D01*
X140239384Y-96173078D01*
X140173107Y-96073661D01*
X140171557Y-96072436D01*
X140170947Y-96070559D01*
X140148957Y-96054582D01*
X140127642Y-96037743D01*
X140125670Y-96037663D01*
X140124072Y-96036502D01*
X140096886Y-96036502D01*
X140069749Y-96035407D01*
X140068106Y-96036502D01*
X140066132Y-96036502D01*
X140044153Y-96052470D01*
X140021540Y-96067546D01*
X140020854Y-96069398D01*
X140019257Y-96070559D01*
X140010861Y-96096398D01*
X140001428Y-96121885D01*
X140001962Y-96123786D01*
X140001352Y-96125664D01*
X140001352Y-96781914D01*
X139880816Y-96781914D01*
X139825711Y-96799819D01*
X139791654Y-96846694D01*
X139791654Y-96904634D01*
X139662211Y-96904634D01*
X139668131Y-96893013D01*
X139678632Y-96882513D01*
X139680955Y-96867845D01*
X139687696Y-96854616D01*
X139685373Y-96839952D01*
X139687697Y-96825286D01*
X139680955Y-96812055D01*
X139678633Y-96797388D01*
X139668132Y-96786887D01*
X139661393Y-96773660D01*
X139625679Y-96737945D01*
X139612450Y-96731204D01*
X139601948Y-96720702D01*
X139594476Y-96719518D01*
X139588357Y-96715073D01*
X139580791Y-96715073D01*
X139574054Y-96711640D01*
X139559387Y-96713962D01*
X139544720Y-96711640D01*
X139537983Y-96715073D01*
X139530417Y-96715073D01*
X139524297Y-96719518D01*
X139516826Y-96720702D01*
X139506323Y-96731204D01*
X139493095Y-96737945D01*
X139457381Y-96773660D01*
X139450641Y-96786887D01*
X139440141Y-96797388D01*
X139437817Y-96812056D01*
X139431077Y-96825286D01*
X139433399Y-96839949D01*
X139431077Y-96854615D01*
X139312356Y-96854615D01*
X139330554Y-96818899D01*
X139321489Y-96761672D01*
X139280519Y-96720702D01*
X139223291Y-96711640D01*
X139171666Y-96737945D01*
X139146711Y-96762900D01*
X139108684Y-96781914D01*
X138974376Y-96781914D01*
X138936349Y-96762900D01*
X138922150Y-96748702D01*
X138903137Y-96710675D01*
X138903137Y-96576367D01*
X138922150Y-96538339D01*
X138936349Y-96524141D01*
X138974376Y-96505128D01*
X139108684Y-96505128D01*
X139146711Y-96524141D01*
X139171666Y-96549097D01*
X139195192Y-96561084D01*
X139218004Y-96574409D01*
X139220794Y-96574129D01*
X139223291Y-96575402D01*
X139249368Y-96571272D01*
X139275656Y-96568644D01*
X139277748Y-96566778D01*
X139280519Y-96566340D01*
X139299201Y-96547657D01*
X139318910Y-96530091D01*
X139319506Y-96527352D01*
X139321489Y-96525370D01*
X139325620Y-96499285D01*
X139331243Y-96473478D01*
X139295529Y-96116336D01*
X139291406Y-96106948D01*
X139291406Y-96096694D01*
X139280017Y-96081019D01*
X139272229Y-96063286D01*
X139263376Y-96058115D01*
X139257349Y-96049819D01*
X139238925Y-96043832D01*
X139222198Y-96034062D01*
X139211994Y-96035082D01*
X139202244Y-96031914D01*
X138845101Y-96031914D01*
X138789996Y-96049819D01*
X138755939Y-96096694D01*
X138755939Y-96154634D01*
X138789996Y-96201509D01*
X138845101Y-96219414D01*
X139117401Y-96219414D01*
X139127222Y-96317628D01*
X138952244Y-96317628D01*
X138931691Y-96324306D01*
X138910318Y-96327525D01*
X138838890Y-96363239D01*
X138828064Y-96373901D01*
X138814525Y-96380800D01*
X138778810Y-96416516D01*
X138771911Y-96430054D01*
X138761248Y-96440881D01*
X138725534Y-96512309D01*
X138722314Y-96533682D01*
X138715637Y-96554235D01*
X138715637Y-96732807D01*
X138608494Y-96732807D01*
X138608494Y-95924771D01*
X141224566Y-95924771D01*
X141224566Y-97076557D01*
G37*
G36*
X139110997Y-99013341D02*
G01*
X139125193Y-99027538D01*
X139144208Y-99065566D01*
X139144208Y-99199875D01*
X139125193Y-99237903D01*
X139110997Y-99252100D01*
X139072969Y-99271114D01*
X138974376Y-99271114D01*
X138936349Y-99252100D01*
X138922150Y-99237902D01*
X138903137Y-99199874D01*
X138903137Y-99065567D01*
X138922150Y-99027539D01*
X138936349Y-99013341D01*
X138974376Y-98994328D01*
X139072969Y-98994328D01*
X139110997Y-99013341D01*
G37*
G36*
X140929923Y-98913971D02*
G01*
X140760091Y-98913971D01*
X140722062Y-98894957D01*
X140707866Y-98880760D01*
X140688852Y-98842731D01*
X140688852Y-98779852D01*
X140707866Y-98741823D01*
X140722061Y-98727628D01*
X140760091Y-98708614D01*
X140929923Y-98708614D01*
X140929923Y-98913971D01*
G37*
G36*
X141224566Y-99565757D02*
G01*
X138608494Y-99565757D01*
X138608494Y-99222007D01*
X138715637Y-99222007D01*
X138722314Y-99242559D01*
X138725534Y-99263933D01*
X138761248Y-99335361D01*
X138771911Y-99346187D01*
X138778810Y-99359726D01*
X138814525Y-99395442D01*
X138828064Y-99402340D01*
X138838890Y-99413003D01*
X138910318Y-99448717D01*
X138931691Y-99451935D01*
X138952244Y-99458614D01*
X139095101Y-99458614D01*
X139115655Y-99451935D01*
X139137027Y-99448717D01*
X139208456Y-99413003D01*
X139219284Y-99402338D01*
X139232822Y-99395440D01*
X139268536Y-99359725D01*
X139275433Y-99346187D01*
X139277770Y-99343815D01*
X139431077Y-99343815D01*
X139437818Y-99357046D01*
X139440142Y-99371713D01*
X139450641Y-99382212D01*
X139457382Y-99395441D01*
X139493096Y-99431155D01*
X139506323Y-99437894D01*
X139516825Y-99448396D01*
X139524296Y-99449579D01*
X139530417Y-99454026D01*
X139537983Y-99454026D01*
X139544721Y-99457459D01*
X139559384Y-99455136D01*
X139574052Y-99457460D01*
X139580792Y-99454026D01*
X139588357Y-99454026D01*
X139594477Y-99449579D01*
X139601949Y-99448396D01*
X139612449Y-99437895D01*
X139625678Y-99431155D01*
X139661392Y-99395441D01*
X139662211Y-99393834D01*
X139791654Y-99393834D01*
X139825711Y-99440709D01*
X139880816Y-99458614D01*
X140309387Y-99458614D01*
X140364492Y-99440709D01*
X140398549Y-99393834D01*
X140398549Y-99335894D01*
X140364492Y-99289019D01*
X140309387Y-99271114D01*
X140188852Y-99271114D01*
X140188852Y-98870215D01*
X140196032Y-98877287D01*
X140267459Y-98913002D01*
X140324754Y-98921632D01*
X140376179Y-98894937D01*
X140391216Y-98864864D01*
X140501352Y-98864864D01*
X140508029Y-98885416D01*
X140511249Y-98906790D01*
X140546963Y-98978218D01*
X140557626Y-98989044D01*
X140564524Y-99002582D01*
X140600238Y-99038297D01*
X140613775Y-99045195D01*
X140624604Y-99055860D01*
X140696033Y-99091574D01*
X140717406Y-99094792D01*
X140737959Y-99101471D01*
X140929923Y-99101471D01*
X140929923Y-99364864D01*
X140947828Y-99419969D01*
X140994703Y-99454026D01*
X141052643Y-99454026D01*
X141099518Y-99419969D01*
X141117423Y-99364864D01*
X141117423Y-98614864D01*
X141112835Y-98600743D01*
X141112835Y-98585894D01*
X141104106Y-98573880D01*
X141099518Y-98559759D01*
X141087505Y-98551031D01*
X141078778Y-98539019D01*
X141064656Y-98534430D01*
X141052643Y-98525702D01*
X141037793Y-98525702D01*
X141023673Y-98521114D01*
X140737959Y-98521114D01*
X140717406Y-98527792D01*
X140696033Y-98531011D01*
X140624604Y-98566725D01*
X140613776Y-98577389D01*
X140600239Y-98584287D01*
X140564525Y-98620001D01*
X140557627Y-98633538D01*
X140546963Y-98644366D01*
X140511249Y-98715795D01*
X140508030Y-98737166D01*
X140501352Y-98757721D01*
X140501352Y-98864864D01*
X140391216Y-98864864D01*
X140402091Y-98843114D01*
X140392593Y-98785957D01*
X140351314Y-98745298D01*
X140293494Y-98716387D01*
X140239384Y-98662278D01*
X140173107Y-98562861D01*
X140171557Y-98561636D01*
X140170947Y-98559759D01*
X140148957Y-98543782D01*
X140127642Y-98526943D01*
X140125670Y-98526863D01*
X140124072Y-98525702D01*
X140096886Y-98525702D01*
X140069749Y-98524607D01*
X140068106Y-98525702D01*
X140066132Y-98525702D01*
X140044153Y-98541670D01*
X140021540Y-98556746D01*
X140020854Y-98558598D01*
X140019257Y-98559759D01*
X140010861Y-98585598D01*
X140001428Y-98611085D01*
X140001962Y-98612986D01*
X140001352Y-98614864D01*
X140001352Y-99271114D01*
X139880816Y-99271114D01*
X139825711Y-99289019D01*
X139791654Y-99335894D01*
X139791654Y-99393834D01*
X139662211Y-99393834D01*
X139668131Y-99382213D01*
X139678632Y-99371713D01*
X139680955Y-99357045D01*
X139687696Y-99343816D01*
X139685373Y-99329152D01*
X139687697Y-99314486D01*
X139680955Y-99301255D01*
X139678633Y-99286588D01*
X139668132Y-99276087D01*
X139661393Y-99262860D01*
X139625679Y-99227145D01*
X139612450Y-99220404D01*
X139601948Y-99209902D01*
X139594476Y-99208718D01*
X139588357Y-99204273D01*
X139580791Y-99204273D01*
X139574054Y-99200840D01*
X139559387Y-99203162D01*
X139544720Y-99200840D01*
X139537983Y-99204273D01*
X139530417Y-99204273D01*
X139524297Y-99208718D01*
X139516826Y-99209902D01*
X139506323Y-99220404D01*
X139493095Y-99227145D01*
X139457381Y-99262860D01*
X139450641Y-99276087D01*
X139440141Y-99286588D01*
X139437817Y-99301256D01*
X139431077Y-99314486D01*
X139433399Y-99329149D01*
X139431077Y-99343815D01*
X139277770Y-99343815D01*
X139286097Y-99335361D01*
X139321811Y-99263933D01*
X139325029Y-99242559D01*
X139331708Y-99222007D01*
X139331708Y-98936292D01*
X139328102Y-98925194D01*
X139328909Y-98913555D01*
X139293195Y-98770697D01*
X139284619Y-98756993D01*
X139280249Y-98741432D01*
X139208821Y-98634289D01*
X139201399Y-98628425D01*
X139197106Y-98620000D01*
X139161391Y-98584286D01*
X139147853Y-98577388D01*
X139137027Y-98566725D01*
X139065599Y-98531011D01*
X139044225Y-98527791D01*
X139023673Y-98521114D01*
X138880816Y-98521114D01*
X138825711Y-98539019D01*
X138791654Y-98585894D01*
X138791654Y-98643834D01*
X138825711Y-98690709D01*
X138880816Y-98708614D01*
X139001541Y-98708614D01*
X139039569Y-98727628D01*
X139057959Y-98746017D01*
X139099439Y-98808237D01*
X139095101Y-98806828D01*
X138952244Y-98806828D01*
X138931691Y-98813506D01*
X138910318Y-98816725D01*
X138838890Y-98852439D01*
X138828064Y-98863101D01*
X138814525Y-98870000D01*
X138778810Y-98905716D01*
X138771911Y-98919254D01*
X138761248Y-98930081D01*
X138725534Y-99001509D01*
X138722314Y-99022882D01*
X138715637Y-99043435D01*
X138715637Y-99222007D01*
X138608494Y-99222007D01*
X138608494Y-98413971D01*
X141224566Y-98413971D01*
X141224566Y-99565757D01*
G37*
G36*
X148879684Y-91209228D02*
G01*
X148893879Y-91223423D01*
X148918188Y-91272042D01*
X148948608Y-91393719D01*
X148948608Y-91549208D01*
X148918188Y-91670885D01*
X148893879Y-91719503D01*
X148879683Y-91733700D01*
X148841655Y-91752714D01*
X148814490Y-91752714D01*
X148776462Y-91733700D01*
X148762265Y-91719503D01*
X148737955Y-91670885D01*
X148707537Y-91549208D01*
X148707537Y-91393719D01*
X148737956Y-91272042D01*
X148762264Y-91223425D01*
X148776462Y-91209227D01*
X148814490Y-91190214D01*
X148841655Y-91190214D01*
X148879684Y-91209228D01*
G37*
G36*
X150734323Y-91395571D02*
G01*
X150564491Y-91395571D01*
X150526462Y-91376557D01*
X150512266Y-91362360D01*
X150493252Y-91324332D01*
X150493252Y-91261452D01*
X150512266Y-91223423D01*
X150526461Y-91209228D01*
X150564491Y-91190214D01*
X150734323Y-91190214D01*
X150734323Y-91395571D01*
G37*
G36*
X151028966Y-92047357D02*
G01*
X148412894Y-92047357D01*
X148412894Y-91560750D01*
X148520037Y-91560750D01*
X148523642Y-91571847D01*
X148522836Y-91583488D01*
X148558550Y-91726345D01*
X148564092Y-91735202D01*
X148565649Y-91745534D01*
X148601364Y-91816962D01*
X148612026Y-91827786D01*
X148618924Y-91841325D01*
X148654638Y-91877040D01*
X148668176Y-91883938D01*
X148679004Y-91894603D01*
X148750432Y-91930317D01*
X148771805Y-91933535D01*
X148792358Y-91940214D01*
X148863787Y-91940214D01*
X148884341Y-91933535D01*
X148905713Y-91930317D01*
X148977142Y-91894603D01*
X148987970Y-91883938D01*
X149001508Y-91877040D01*
X149037222Y-91841325D01*
X149044119Y-91827787D01*
X149046456Y-91825415D01*
X149235477Y-91825415D01*
X149242218Y-91838646D01*
X149244542Y-91853313D01*
X149255041Y-91863812D01*
X149261782Y-91877041D01*
X149297496Y-91912755D01*
X149310723Y-91919494D01*
X149321225Y-91929996D01*
X149328696Y-91931179D01*
X149334817Y-91935626D01*
X149342383Y-91935626D01*
X149349121Y-91939059D01*
X149363784Y-91936736D01*
X149378452Y-91939060D01*
X149385192Y-91935626D01*
X149392757Y-91935626D01*
X149398877Y-91931179D01*
X149406349Y-91929996D01*
X149416849Y-91919495D01*
X149430078Y-91912755D01*
X149465792Y-91877041D01*
X149472531Y-91863813D01*
X149483032Y-91853313D01*
X149485355Y-91838645D01*
X149492096Y-91825416D01*
X149489773Y-91810752D01*
X149492097Y-91796086D01*
X149485355Y-91782855D01*
X149483033Y-91768188D01*
X149472532Y-91757687D01*
X149465793Y-91744460D01*
X149430079Y-91708745D01*
X149416850Y-91702004D01*
X149406348Y-91691502D01*
X149398876Y-91690318D01*
X149392757Y-91685873D01*
X149385191Y-91685873D01*
X149378454Y-91682440D01*
X149363787Y-91684762D01*
X149349120Y-91682440D01*
X149342383Y-91685873D01*
X149334817Y-91685873D01*
X149328697Y-91690318D01*
X149321226Y-91691502D01*
X149310723Y-91702004D01*
X149297495Y-91708745D01*
X149261781Y-91744460D01*
X149255041Y-91757687D01*
X149244541Y-91768188D01*
X149242217Y-91782856D01*
X149235477Y-91796086D01*
X149237799Y-91810749D01*
X149235477Y-91825415D01*
X149046456Y-91825415D01*
X149054783Y-91816961D01*
X149090497Y-91745533D01*
X149092052Y-91735201D01*
X149097595Y-91726345D01*
X149133309Y-91583487D01*
X149132502Y-91571847D01*
X149136108Y-91560750D01*
X149136108Y-91382178D01*
X149132502Y-91371080D01*
X149133309Y-91359441D01*
X149121136Y-91310750D01*
X149591466Y-91310750D01*
X149596161Y-91325201D01*
X149596277Y-91340396D01*
X149631991Y-91447539D01*
X149644828Y-91464928D01*
X149654639Y-91484183D01*
X149923170Y-91752714D01*
X149685216Y-91752714D01*
X149630111Y-91770619D01*
X149596054Y-91817494D01*
X149596054Y-91875434D01*
X149630111Y-91922309D01*
X149685216Y-91940214D01*
X150149502Y-91940214D01*
X150170381Y-91933429D01*
X150192064Y-91929996D01*
X150197413Y-91924646D01*
X150204607Y-91922309D01*
X150217509Y-91904550D01*
X150233034Y-91889026D01*
X150234217Y-91881554D01*
X150238664Y-91875434D01*
X150238664Y-91853475D01*
X150242097Y-91831798D01*
X150238664Y-91825060D01*
X150238664Y-91817494D01*
X150225757Y-91799730D01*
X150215793Y-91780173D01*
X149802870Y-91367250D01*
X149795941Y-91346464D01*
X150305752Y-91346464D01*
X150312429Y-91367016D01*
X150315649Y-91388390D01*
X150351363Y-91459818D01*
X150362026Y-91470644D01*
X150368924Y-91484182D01*
X150404638Y-91519897D01*
X150418175Y-91526795D01*
X150429004Y-91537460D01*
X150500433Y-91573174D01*
X150521806Y-91576392D01*
X150542359Y-91583071D01*
X150734323Y-91583071D01*
X150734323Y-91846464D01*
X150752228Y-91901569D01*
X150799103Y-91935626D01*
X150857043Y-91935626D01*
X150903918Y-91901569D01*
X150921823Y-91846464D01*
X150921823Y-91096464D01*
X150917235Y-91082343D01*
X150917235Y-91067494D01*
X150908506Y-91055480D01*
X150903918Y-91041359D01*
X150891905Y-91032631D01*
X150883178Y-91020619D01*
X150869056Y-91016030D01*
X150857043Y-91007302D01*
X150842193Y-91007302D01*
X150828073Y-91002714D01*
X150542359Y-91002714D01*
X150521806Y-91009392D01*
X150500433Y-91012611D01*
X150429004Y-91048325D01*
X150418176Y-91058989D01*
X150404639Y-91065887D01*
X150368925Y-91101601D01*
X150362027Y-91115138D01*
X150351363Y-91125966D01*
X150315649Y-91197395D01*
X150312430Y-91218766D01*
X150305752Y-91239321D01*
X150305752Y-91346464D01*
X149795941Y-91346464D01*
X149778966Y-91295537D01*
X149778966Y-91261452D01*
X149797979Y-91223424D01*
X149812176Y-91209228D01*
X149850205Y-91190214D01*
X149984513Y-91190214D01*
X150022541Y-91209228D01*
X150047496Y-91234183D01*
X150099121Y-91260487D01*
X150156349Y-91251424D01*
X150197319Y-91210454D01*
X150206382Y-91153226D01*
X150180078Y-91101601D01*
X150144364Y-91065887D01*
X150130825Y-91058988D01*
X150119999Y-91048325D01*
X150048571Y-91012611D01*
X150027197Y-91009391D01*
X150006645Y-91002714D01*
X149828073Y-91002714D01*
X149807520Y-91009392D01*
X149786147Y-91012611D01*
X149714719Y-91048325D01*
X149703892Y-91058988D01*
X149690355Y-91065886D01*
X149654640Y-91101600D01*
X149647741Y-91115137D01*
X149637077Y-91125966D01*
X149601363Y-91197395D01*
X149598144Y-91218766D01*
X149591466Y-91239321D01*
X149591466Y-91310750D01*
X149121136Y-91310750D01*
X149097595Y-91216583D01*
X149092052Y-91207726D01*
X149090497Y-91197395D01*
X149054783Y-91125966D01*
X149044118Y-91115138D01*
X149037221Y-91101601D01*
X149001507Y-91065887D01*
X148987969Y-91058989D01*
X148977142Y-91048325D01*
X148905713Y-91012611D01*
X148884341Y-91009392D01*
X148863787Y-91002714D01*
X148792358Y-91002714D01*
X148771805Y-91009392D01*
X148750432Y-91012611D01*
X148679004Y-91048325D01*
X148668177Y-91058989D01*
X148654639Y-91065887D01*
X148618925Y-91101601D01*
X148612026Y-91115140D01*
X148601364Y-91125966D01*
X148565649Y-91197394D01*
X148564092Y-91207724D01*
X148558550Y-91216583D01*
X148522836Y-91359440D01*
X148523642Y-91371080D01*
X148520037Y-91382178D01*
X148520037Y-91560750D01*
X148412894Y-91560750D01*
X148412894Y-90895571D01*
X151028966Y-90895571D01*
X151028966Y-92047357D01*
G37*
G36*
X150979121Y-86967357D02*
G01*
X148193654Y-86967357D01*
X148193654Y-86045434D01*
X148300797Y-86045434D01*
X148334854Y-86092309D01*
X148389959Y-86110214D01*
X148510494Y-86110214D01*
X148510494Y-86766464D01*
X148528399Y-86821569D01*
X148575274Y-86855626D01*
X148633214Y-86855626D01*
X148680089Y-86821569D01*
X148697994Y-86766464D01*
X148697994Y-86623607D01*
X148939066Y-86623607D01*
X148945743Y-86644159D01*
X148948963Y-86665533D01*
X148984677Y-86736961D01*
X148995340Y-86747787D01*
X149002239Y-86761326D01*
X149037954Y-86797042D01*
X149051493Y-86803940D01*
X149062319Y-86814603D01*
X149133747Y-86850317D01*
X149155120Y-86853535D01*
X149175673Y-86860214D01*
X149354245Y-86860214D01*
X149368696Y-86855518D01*
X149383891Y-86855403D01*
X149491034Y-86819689D01*
X149523890Y-86795434D01*
X149657939Y-86795434D01*
X149691996Y-86842309D01*
X149747101Y-86860214D01*
X150104244Y-86860214D01*
X150118364Y-86855626D01*
X150133214Y-86855626D01*
X150145227Y-86846897D01*
X150159349Y-86842309D01*
X150168076Y-86830296D01*
X150180089Y-86821569D01*
X150184677Y-86807447D01*
X150193406Y-86795434D01*
X150193406Y-86780584D01*
X150197994Y-86766464D01*
X150197994Y-86045434D01*
X150265083Y-86045434D01*
X150299140Y-86092309D01*
X150354245Y-86110214D01*
X150474780Y-86110214D01*
X150474780Y-86766464D01*
X150492685Y-86821569D01*
X150539560Y-86855626D01*
X150597500Y-86855626D01*
X150644375Y-86821569D01*
X150662280Y-86766464D01*
X150662280Y-86110214D01*
X150782816Y-86110214D01*
X150837921Y-86092309D01*
X150871978Y-86045434D01*
X150871978Y-85987494D01*
X150837921Y-85940619D01*
X150782816Y-85922714D01*
X150354245Y-85922714D01*
X150299140Y-85940619D01*
X150265083Y-85987494D01*
X150265083Y-86045434D01*
X150197994Y-86045434D01*
X150197994Y-86016464D01*
X150193406Y-86002343D01*
X150193406Y-85987494D01*
X150184677Y-85975480D01*
X150180089Y-85961359D01*
X150168076Y-85952631D01*
X150159349Y-85940619D01*
X150145227Y-85936030D01*
X150133214Y-85927302D01*
X150118364Y-85927302D01*
X150104244Y-85922714D01*
X149747101Y-85922714D01*
X149691996Y-85940619D01*
X149657939Y-85987494D01*
X149657939Y-86045434D01*
X149691996Y-86092309D01*
X149747101Y-86110214D01*
X150010494Y-86110214D01*
X150010494Y-86279857D01*
X149854244Y-86279857D01*
X149799139Y-86297762D01*
X149765082Y-86344637D01*
X149765082Y-86402577D01*
X149799139Y-86449452D01*
X149854244Y-86467357D01*
X150010494Y-86467357D01*
X150010494Y-86672714D01*
X149747101Y-86672714D01*
X149691996Y-86690619D01*
X149657939Y-86737494D01*
X149657939Y-86795434D01*
X149523890Y-86795434D01*
X149537649Y-86785277D01*
X149555135Y-86730038D01*
X149536813Y-86675071D01*
X149489680Y-86641371D01*
X149431741Y-86641811D01*
X149339032Y-86672714D01*
X149197805Y-86672714D01*
X149159778Y-86653700D01*
X149145579Y-86639502D01*
X149126566Y-86601475D01*
X149126566Y-86574310D01*
X149145579Y-86536282D01*
X149159778Y-86522084D01*
X149208394Y-86497776D01*
X149341268Y-86464558D01*
X149350126Y-86459015D01*
X149360457Y-86457459D01*
X149431885Y-86421744D01*
X149442710Y-86411081D01*
X149456250Y-86404183D01*
X149491964Y-86368469D01*
X149498861Y-86354930D01*
X149509526Y-86344104D01*
X149545240Y-86272676D01*
X149548458Y-86251302D01*
X149555137Y-86230750D01*
X149555137Y-86159321D01*
X149548458Y-86138768D01*
X149545240Y-86117395D01*
X149509526Y-86045966D01*
X149498861Y-86035138D01*
X149491964Y-86021601D01*
X149456250Y-85985887D01*
X149442712Y-85978989D01*
X149431885Y-85968325D01*
X149360456Y-85932611D01*
X149339084Y-85929392D01*
X149318530Y-85922714D01*
X149139959Y-85922714D01*
X149125507Y-85927409D01*
X149110313Y-85927525D01*
X149003170Y-85963239D01*
X148956555Y-85997651D01*
X148939068Y-86052890D01*
X148957390Y-86107857D01*
X149004523Y-86141557D01*
X149062462Y-86141117D01*
X149155173Y-86110214D01*
X149296398Y-86110214D01*
X149334427Y-86129228D01*
X149348622Y-86143423D01*
X149367637Y-86181452D01*
X149367637Y-86208618D01*
X149348623Y-86246645D01*
X149334425Y-86260843D01*
X149285808Y-86285151D01*
X149152935Y-86318370D01*
X149144078Y-86323912D01*
X149133747Y-86325468D01*
X149062319Y-86361182D01*
X149051493Y-86371844D01*
X149037954Y-86378743D01*
X149002239Y-86414459D01*
X148995340Y-86427997D01*
X148984677Y-86438824D01*
X148948963Y-86510252D01*
X148945743Y-86531625D01*
X148939066Y-86552178D01*
X148939066Y-86623607D01*
X148697994Y-86623607D01*
X148697994Y-86110214D01*
X148818530Y-86110214D01*
X148873635Y-86092309D01*
X148907692Y-86045434D01*
X148907692Y-85987494D01*
X148873635Y-85940619D01*
X148818530Y-85922714D01*
X148389959Y-85922714D01*
X148334854Y-85940619D01*
X148300797Y-85987494D01*
X148300797Y-86045434D01*
X148193654Y-86045434D01*
X148193654Y-85815571D01*
X150979121Y-85815571D01*
X150979121Y-86967357D01*
G37*
D10*
G36*
X153221276Y-81734855D02*
G01*
X151735562Y-81734855D01*
X151735562Y-81496892D01*
X151878419Y-81496892D01*
X151897517Y-81555671D01*
X151947517Y-81591998D01*
X152009321Y-81591998D01*
X152059321Y-81555671D01*
X152078419Y-81496892D01*
X152078419Y-81311178D01*
X152978419Y-81311178D01*
X153037198Y-81292080D01*
X153073525Y-81242080D01*
X153073525Y-81180276D01*
X153037198Y-81130276D01*
X152978419Y-81111178D01*
X152078419Y-81111178D01*
X152078419Y-80925464D01*
X152059321Y-80866685D01*
X152009321Y-80830358D01*
X151947517Y-80830358D01*
X151897517Y-80866685D01*
X151878419Y-80925464D01*
X151878419Y-81496892D01*
X151735562Y-81496892D01*
X151735562Y-80496892D01*
X151878419Y-80496892D01*
X151883427Y-80512307D01*
X151883551Y-80528515D01*
X151931170Y-80671371D01*
X151967875Y-80721095D01*
X152026797Y-80739746D01*
X152085429Y-80720202D01*
X152121376Y-80669928D01*
X152120906Y-80608126D01*
X152078419Y-80480665D01*
X152078419Y-80282404D01*
X152108224Y-80222794D01*
X152132892Y-80198125D01*
X152192502Y-80168321D01*
X152240526Y-80168321D01*
X152300135Y-80198126D01*
X152324804Y-80222794D01*
X152360257Y-80293701D01*
X152405214Y-80473526D01*
X152411124Y-80482972D01*
X152412785Y-80493994D01*
X152460404Y-80589232D01*
X152471777Y-80600779D01*
X152479136Y-80615222D01*
X152526755Y-80662840D01*
X152541196Y-80670198D01*
X152552745Y-80681573D01*
X152647982Y-80729192D01*
X152670780Y-80732625D01*
X152692704Y-80739749D01*
X152787942Y-80739749D01*
X152809865Y-80732625D01*
X152832663Y-80729192D01*
X152927901Y-80681573D01*
X152939448Y-80670199D01*
X152953890Y-80662841D01*
X153001510Y-80615223D01*
X153008869Y-80600779D01*
X153020243Y-80589232D01*
X153067862Y-80493995D01*
X153071295Y-80471196D01*
X153078419Y-80449273D01*
X153078419Y-80211178D01*
X153073410Y-80195762D01*
X153073287Y-80179555D01*
X153025668Y-80036698D01*
X152988963Y-79986975D01*
X152930041Y-79968323D01*
X152871409Y-79987868D01*
X152835462Y-80038142D01*
X152835932Y-80099944D01*
X152878419Y-80227404D01*
X152878419Y-80425666D01*
X152848614Y-80485275D01*
X152823946Y-80509942D01*
X152764335Y-80539749D01*
X152716311Y-80539749D01*
X152656701Y-80509944D01*
X152632033Y-80485275D01*
X152596579Y-80414368D01*
X152551623Y-80234543D01*
X152545712Y-80225096D01*
X152544052Y-80214075D01*
X152496433Y-80118838D01*
X152485058Y-80107289D01*
X152477700Y-80092848D01*
X152430082Y-80045229D01*
X152415639Y-80037870D01*
X152404092Y-80026497D01*
X152308854Y-79978878D01*
X152286056Y-79975444D01*
X152264133Y-79968321D01*
X152168895Y-79968321D01*
X152146971Y-79975444D01*
X152124173Y-79978878D01*
X152028936Y-80026497D01*
X152017387Y-80037871D01*
X152002946Y-80045230D01*
X151955327Y-80092848D01*
X151947968Y-80107290D01*
X151936595Y-80118838D01*
X151888976Y-80214076D01*
X151885542Y-80236873D01*
X151878419Y-80258797D01*
X151878419Y-80496892D01*
X151735562Y-80496892D01*
X151735562Y-79687368D01*
X151878419Y-79687368D01*
X151897517Y-79746147D01*
X151947517Y-79782474D01*
X152009321Y-79782474D01*
X152059321Y-79746147D01*
X152078419Y-79687368D01*
X152078419Y-79311178D01*
X152354609Y-79311178D01*
X152354609Y-79544511D01*
X152373707Y-79603290D01*
X152423707Y-79639617D01*
X152485511Y-79639617D01*
X152535511Y-79603290D01*
X152554609Y-79544511D01*
X152554609Y-79311178D01*
X152878419Y-79311178D01*
X152878419Y-79687368D01*
X152897517Y-79746147D01*
X152947517Y-79782474D01*
X153009321Y-79782474D01*
X153059321Y-79746147D01*
X153078419Y-79687368D01*
X153078419Y-79211178D01*
X153073525Y-79196115D01*
X153073525Y-79180276D01*
X153064215Y-79167462D01*
X153059321Y-79152399D01*
X153046507Y-79143089D01*
X153037198Y-79130276D01*
X153022134Y-79125381D01*
X153009321Y-79116072D01*
X152993482Y-79116072D01*
X152978419Y-79111178D01*
X151978419Y-79111178D01*
X151963356Y-79116072D01*
X151947517Y-79116072D01*
X151934703Y-79125381D01*
X151919640Y-79130276D01*
X151910330Y-79143089D01*
X151897517Y-79152399D01*
X151892622Y-79167462D01*
X151883313Y-79180276D01*
X151883313Y-79196115D01*
X151878419Y-79211178D01*
X151878419Y-79687368D01*
X151735562Y-79687368D01*
X151735562Y-78877844D01*
X151878419Y-78877844D01*
X151897517Y-78936623D01*
X151947517Y-78972950D01*
X152009321Y-78972950D01*
X152059321Y-78936623D01*
X152078419Y-78877844D01*
X152078419Y-78692130D01*
X152978419Y-78692130D01*
X153037198Y-78673032D01*
X153073525Y-78623032D01*
X153073525Y-78561228D01*
X153037198Y-78511228D01*
X152978419Y-78492130D01*
X152078419Y-78492130D01*
X152078419Y-78306416D01*
X152059321Y-78247637D01*
X152009321Y-78211310D01*
X151947517Y-78211310D01*
X151897517Y-78247637D01*
X151878419Y-78306416D01*
X151878419Y-78877844D01*
X151735562Y-78877844D01*
X151735562Y-78068453D01*
X153221276Y-78068453D01*
X153221276Y-81734855D01*
G37*
G36*
X149862228Y-78705017D02*
G01*
X149832423Y-78764627D01*
X149807754Y-78789295D01*
X149748145Y-78819101D01*
X149652502Y-78819101D01*
X149592892Y-78789296D01*
X149568224Y-78764627D01*
X149538419Y-78705017D01*
X149538419Y-78447673D01*
X149862228Y-78447673D01*
X149862228Y-78705017D01*
G37*
G36*
X150681276Y-80966588D02*
G01*
X149195562Y-80966588D01*
X149195562Y-80728625D01*
X149338419Y-80728625D01*
X149357517Y-80787404D01*
X149407517Y-80823731D01*
X149469321Y-80823731D01*
X149519321Y-80787404D01*
X149538419Y-80728625D01*
X149538419Y-80542911D01*
X150438419Y-80542911D01*
X150497198Y-80523813D01*
X150533525Y-80473813D01*
X150533525Y-80412009D01*
X150497198Y-80362009D01*
X150438419Y-80342911D01*
X149538419Y-80342911D01*
X149538419Y-80157197D01*
X149519321Y-80098418D01*
X149469321Y-80062091D01*
X149407517Y-80062091D01*
X149357517Y-80098418D01*
X149338419Y-80157197D01*
X149338419Y-80728625D01*
X149195562Y-80728625D01*
X149195562Y-79728625D01*
X149338419Y-79728625D01*
X149343427Y-79744040D01*
X149343551Y-79760248D01*
X149391170Y-79903104D01*
X149427875Y-79952828D01*
X149486797Y-79971479D01*
X149545429Y-79951935D01*
X149581376Y-79901661D01*
X149580906Y-79839859D01*
X149538419Y-79712398D01*
X149538419Y-79514137D01*
X149568224Y-79454527D01*
X149592892Y-79429858D01*
X149652502Y-79400054D01*
X149700526Y-79400054D01*
X149760135Y-79429859D01*
X149784804Y-79454527D01*
X149820257Y-79525434D01*
X149865214Y-79705259D01*
X149871124Y-79714705D01*
X149872785Y-79725727D01*
X149920404Y-79820965D01*
X149931777Y-79832512D01*
X149939136Y-79846955D01*
X149986755Y-79894573D01*
X150001196Y-79901931D01*
X150012745Y-79913306D01*
X150107982Y-79960925D01*
X150130780Y-79964358D01*
X150152704Y-79971482D01*
X150247942Y-79971482D01*
X150269865Y-79964358D01*
X150292663Y-79960925D01*
X150387901Y-79913306D01*
X150399448Y-79901932D01*
X150413890Y-79894574D01*
X150461510Y-79846956D01*
X150468869Y-79832512D01*
X150480243Y-79820965D01*
X150527862Y-79725728D01*
X150531295Y-79702929D01*
X150538419Y-79681006D01*
X150538419Y-79442911D01*
X150533410Y-79427495D01*
X150533287Y-79411288D01*
X150485668Y-79268431D01*
X150448963Y-79218708D01*
X150390041Y-79200056D01*
X150331409Y-79219601D01*
X150295462Y-79269875D01*
X150295932Y-79331677D01*
X150338419Y-79459137D01*
X150338419Y-79657399D01*
X150308614Y-79717008D01*
X150283946Y-79741675D01*
X150224335Y-79771482D01*
X150176311Y-79771482D01*
X150116701Y-79741677D01*
X150092033Y-79717008D01*
X150056579Y-79646101D01*
X150011623Y-79466276D01*
X150005712Y-79456829D01*
X150004052Y-79445808D01*
X149956433Y-79350571D01*
X149945058Y-79339022D01*
X149937700Y-79324581D01*
X149890082Y-79276962D01*
X149875639Y-79269603D01*
X149864092Y-79258230D01*
X149768854Y-79210611D01*
X149746056Y-79207177D01*
X149724133Y-79200054D01*
X149628895Y-79200054D01*
X149606971Y-79207177D01*
X149584173Y-79210611D01*
X149488936Y-79258230D01*
X149477387Y-79269604D01*
X149462946Y-79276963D01*
X149415327Y-79324581D01*
X149407968Y-79339023D01*
X149396595Y-79350571D01*
X149348976Y-79445809D01*
X149345542Y-79468606D01*
X149338419Y-79490530D01*
X149338419Y-79728625D01*
X149195562Y-79728625D01*
X149195562Y-78728625D01*
X149338419Y-78728625D01*
X149345542Y-78750548D01*
X149348976Y-78773346D01*
X149396595Y-78868584D01*
X149407968Y-78880131D01*
X149415327Y-78894574D01*
X149462946Y-78942192D01*
X149477387Y-78949550D01*
X149488936Y-78960925D01*
X149584173Y-79008544D01*
X149606971Y-79011977D01*
X149628895Y-79019101D01*
X149771752Y-79019101D01*
X149793675Y-79011977D01*
X149816473Y-79008544D01*
X149911711Y-78960925D01*
X149923258Y-78949551D01*
X149937701Y-78942193D01*
X149985319Y-78894574D01*
X149992677Y-78880132D01*
X150004052Y-78868584D01*
X150051671Y-78773347D01*
X150052066Y-78770720D01*
X150381073Y-79001024D01*
X150440179Y-79019086D01*
X150498612Y-78998957D01*
X150534054Y-78948325D01*
X150532967Y-78886531D01*
X150495765Y-78837178D01*
X150062228Y-78533702D01*
X150062228Y-78447673D01*
X150438419Y-78447673D01*
X150497198Y-78428575D01*
X150533525Y-78378575D01*
X150533525Y-78316771D01*
X150497198Y-78266771D01*
X150438419Y-78247673D01*
X149438419Y-78247673D01*
X149423356Y-78252567D01*
X149407517Y-78252567D01*
X149394703Y-78261876D01*
X149379640Y-78266771D01*
X149370330Y-78279584D01*
X149357517Y-78288894D01*
X149352622Y-78303957D01*
X149343313Y-78316771D01*
X149343313Y-78332610D01*
X149338419Y-78347673D01*
X149338419Y-78728625D01*
X149195562Y-78728625D01*
X149195562Y-78104816D01*
X150681276Y-78104816D01*
X150681276Y-80966588D01*
G37*
D11*
G36*
X149097009Y-101811114D02*
G01*
X149027402Y-101811114D01*
X148955686Y-101787209D01*
X148910666Y-101742189D01*
X148886356Y-101693569D01*
X148855938Y-101571893D01*
X148855938Y-101487833D01*
X148886356Y-101366157D01*
X148910665Y-101317539D01*
X148955686Y-101272518D01*
X149027402Y-101248614D01*
X149097009Y-101248614D01*
X149097009Y-101811114D01*
G37*
G36*
X150963080Y-102105757D02*
G01*
X148561295Y-102105757D01*
X148561295Y-101583435D01*
X148668438Y-101583435D01*
X148672043Y-101594532D01*
X148671237Y-101606173D01*
X148706951Y-101749030D01*
X148712493Y-101757886D01*
X148714049Y-101768218D01*
X148749763Y-101839647D01*
X148760427Y-101850474D01*
X148767325Y-101864012D01*
X148838754Y-101935441D01*
X148858011Y-101945253D01*
X148875399Y-101958089D01*
X148982542Y-101993803D01*
X148997736Y-101993918D01*
X149012188Y-101998614D01*
X149190759Y-101998614D01*
X149204879Y-101994026D01*
X149219729Y-101994026D01*
X149231742Y-101985297D01*
X149245864Y-101980709D01*
X149254591Y-101968696D01*
X149266604Y-101959969D01*
X149271192Y-101945847D01*
X149279921Y-101933834D01*
X149279921Y-101918984D01*
X149284509Y-101904864D01*
X149454152Y-101904864D01*
X149455787Y-101909897D01*
X149454710Y-101915079D01*
X149464611Y-101937053D01*
X149472057Y-101959969D01*
X149476337Y-101963079D01*
X149478512Y-101967905D01*
X149499437Y-101979862D01*
X149518932Y-101994026D01*
X149524224Y-101994026D01*
X149528818Y-101996651D01*
X149552767Y-101994026D01*
X149576872Y-101994026D01*
X149581154Y-101990914D01*
X149586414Y-101990338D01*
X149604249Y-101974135D01*
X149623747Y-101959969D01*
X149625382Y-101954936D01*
X149629300Y-101951377D01*
X149882723Y-101507886D01*
X149882723Y-101904864D01*
X149900628Y-101959969D01*
X149947503Y-101994026D01*
X150005443Y-101994026D01*
X150052318Y-101959969D01*
X150070223Y-101904864D01*
X150070223Y-101833435D01*
X150204152Y-101833435D01*
X150206489Y-101840628D01*
X150205306Y-101848099D01*
X150215272Y-101867660D01*
X150222057Y-101888540D01*
X150228176Y-101892986D01*
X150231610Y-101899725D01*
X150267324Y-101935440D01*
X150286581Y-101945252D01*
X150303970Y-101958089D01*
X150411113Y-101993803D01*
X150426307Y-101993918D01*
X150440759Y-101998614D01*
X150512187Y-101998614D01*
X150526638Y-101993918D01*
X150541833Y-101993803D01*
X150648977Y-101958089D01*
X150666366Y-101945251D01*
X150685621Y-101935441D01*
X150757050Y-101864012D01*
X150763947Y-101850474D01*
X150774612Y-101839647D01*
X150810326Y-101768218D01*
X150811881Y-101757886D01*
X150817424Y-101749030D01*
X150853138Y-101606172D01*
X150852331Y-101594532D01*
X150855937Y-101583435D01*
X150855937Y-101476292D01*
X150852331Y-101465194D01*
X150853138Y-101453555D01*
X150817424Y-101310697D01*
X150811881Y-101301840D01*
X150810326Y-101291509D01*
X150774612Y-101220081D01*
X150763948Y-101209254D01*
X150757050Y-101195716D01*
X150685621Y-101124287D01*
X150666366Y-101114476D01*
X150648977Y-101101639D01*
X150541833Y-101065925D01*
X150526638Y-101065809D01*
X150512187Y-101061114D01*
X150405045Y-101061114D01*
X150384492Y-101067792D01*
X150363119Y-101071011D01*
X150291690Y-101106725D01*
X150250410Y-101147383D01*
X150240911Y-101204540D01*
X150266822Y-101256364D01*
X150318247Y-101283059D01*
X150375542Y-101274431D01*
X150427177Y-101248614D01*
X150496974Y-101248614D01*
X150568688Y-101272518D01*
X150613709Y-101317539D01*
X150638017Y-101366156D01*
X150668437Y-101487833D01*
X150668437Y-101571893D01*
X150638017Y-101693570D01*
X150613708Y-101742189D01*
X150568688Y-101787209D01*
X150496974Y-101811114D01*
X150455973Y-101811114D01*
X150391652Y-101789674D01*
X150391652Y-101677185D01*
X150440759Y-101677185D01*
X150495864Y-101659280D01*
X150529921Y-101612405D01*
X150529921Y-101554465D01*
X150495864Y-101507590D01*
X150440759Y-101489685D01*
X150297902Y-101489685D01*
X150283782Y-101494273D01*
X150268932Y-101494273D01*
X150256918Y-101503001D01*
X150242797Y-101507590D01*
X150234069Y-101519602D01*
X150222057Y-101528330D01*
X150217468Y-101542451D01*
X150208740Y-101554465D01*
X150208739Y-101569314D01*
X150204152Y-101583435D01*
X150204152Y-101833435D01*
X150070223Y-101833435D01*
X150070223Y-101154864D01*
X150068587Y-101149830D01*
X150069665Y-101144649D01*
X150059763Y-101122674D01*
X150052318Y-101099759D01*
X150048037Y-101096648D01*
X150045863Y-101091823D01*
X150024937Y-101079865D01*
X150005443Y-101065702D01*
X150000151Y-101065702D01*
X149995557Y-101063077D01*
X149971608Y-101065702D01*
X149947503Y-101065702D01*
X149943220Y-101068813D01*
X149937961Y-101069390D01*
X149920125Y-101085592D01*
X149900628Y-101099759D01*
X149898992Y-101104791D01*
X149895075Y-101108351D01*
X149641652Y-101551841D01*
X149641652Y-101154864D01*
X149623747Y-101099759D01*
X149576872Y-101065702D01*
X149518932Y-101065702D01*
X149472057Y-101099759D01*
X149454152Y-101154864D01*
X149454152Y-101904864D01*
X149284509Y-101904864D01*
X149284509Y-101154864D01*
X149279921Y-101140743D01*
X149279921Y-101125894D01*
X149271192Y-101113880D01*
X149266604Y-101099759D01*
X149254591Y-101091031D01*
X149245864Y-101079019D01*
X149231742Y-101074430D01*
X149219729Y-101065702D01*
X149204879Y-101065702D01*
X149190759Y-101061114D01*
X149012188Y-101061114D01*
X148997736Y-101065809D01*
X148982542Y-101065925D01*
X148875399Y-101101639D01*
X148858011Y-101114474D01*
X148838754Y-101124287D01*
X148767325Y-101195716D01*
X148760426Y-101209254D01*
X148749763Y-101220081D01*
X148714049Y-101291509D01*
X148712492Y-101301840D01*
X148706951Y-101310697D01*
X148671237Y-101453554D01*
X148672043Y-101465194D01*
X148668438Y-101476292D01*
X148668438Y-101583435D01*
X148561295Y-101583435D01*
X148561295Y-100953971D01*
X150963080Y-100953971D01*
X150963080Y-102105757D01*
G37*
G36*
X150734323Y-93884771D02*
G01*
X150564491Y-93884771D01*
X150526462Y-93865757D01*
X150512266Y-93851560D01*
X150493252Y-93813532D01*
X150493252Y-93750652D01*
X150512266Y-93712623D01*
X150526461Y-93698428D01*
X150564491Y-93679414D01*
X150734323Y-93679414D01*
X150734323Y-93884771D01*
G37*
G36*
X151028966Y-94536557D02*
G01*
X148417482Y-94536557D01*
X148417482Y-94364634D01*
X148524625Y-94364634D01*
X148558682Y-94411509D01*
X148613787Y-94429414D01*
X149042358Y-94429414D01*
X149097463Y-94411509D01*
X149131520Y-94364634D01*
X149131520Y-94314615D01*
X149235477Y-94314615D01*
X149242218Y-94327846D01*
X149244542Y-94342513D01*
X149255041Y-94353012D01*
X149261782Y-94366241D01*
X149297496Y-94401955D01*
X149310723Y-94408694D01*
X149321225Y-94419196D01*
X149328696Y-94420379D01*
X149334817Y-94424826D01*
X149342383Y-94424826D01*
X149349121Y-94428259D01*
X149363784Y-94425936D01*
X149378452Y-94428260D01*
X149385192Y-94424826D01*
X149392757Y-94424826D01*
X149398877Y-94420379D01*
X149406349Y-94419196D01*
X149416849Y-94408695D01*
X149430078Y-94401955D01*
X149465792Y-94366241D01*
X149472531Y-94353013D01*
X149483032Y-94342513D01*
X149485355Y-94327845D01*
X149492096Y-94314616D01*
X149489773Y-94299952D01*
X149492097Y-94285286D01*
X149485355Y-94272055D01*
X149483033Y-94257388D01*
X149472532Y-94246887D01*
X149465793Y-94233660D01*
X149430079Y-94197945D01*
X149416850Y-94191204D01*
X149406348Y-94180702D01*
X149398876Y-94179518D01*
X149392757Y-94175073D01*
X149385191Y-94175073D01*
X149378454Y-94171640D01*
X149363787Y-94173962D01*
X149349120Y-94171640D01*
X149342383Y-94175073D01*
X149334817Y-94175073D01*
X149328697Y-94179518D01*
X149321226Y-94180702D01*
X149310723Y-94191204D01*
X149297495Y-94197945D01*
X149261781Y-94233660D01*
X149255041Y-94246887D01*
X149244541Y-94257388D01*
X149242217Y-94272056D01*
X149235477Y-94285286D01*
X149237799Y-94299949D01*
X149235477Y-94314615D01*
X149131520Y-94314615D01*
X149131520Y-94306694D01*
X149097463Y-94259819D01*
X149042358Y-94241914D01*
X148921823Y-94241914D01*
X148921823Y-93841015D01*
X148929003Y-93848087D01*
X149000430Y-93883802D01*
X149057725Y-93892432D01*
X149109150Y-93865737D01*
X149135062Y-93813914D01*
X149132742Y-93799950D01*
X149591466Y-93799950D01*
X149596161Y-93814401D01*
X149596277Y-93829596D01*
X149631991Y-93936739D01*
X149644828Y-93954128D01*
X149654639Y-93973383D01*
X149923170Y-94241914D01*
X149685216Y-94241914D01*
X149630111Y-94259819D01*
X149596054Y-94306694D01*
X149596054Y-94364634D01*
X149630111Y-94411509D01*
X149685216Y-94429414D01*
X150149502Y-94429414D01*
X150170381Y-94422629D01*
X150192064Y-94419196D01*
X150197413Y-94413846D01*
X150204607Y-94411509D01*
X150217509Y-94393750D01*
X150233034Y-94378226D01*
X150234217Y-94370754D01*
X150238664Y-94364634D01*
X150238664Y-94342675D01*
X150242097Y-94320998D01*
X150238664Y-94314260D01*
X150238664Y-94306694D01*
X150225757Y-94288930D01*
X150215793Y-94269373D01*
X149802870Y-93856450D01*
X149795942Y-93835664D01*
X150305752Y-93835664D01*
X150312429Y-93856216D01*
X150315649Y-93877590D01*
X150351363Y-93949018D01*
X150362026Y-93959844D01*
X150368924Y-93973382D01*
X150404638Y-94009097D01*
X150418175Y-94015995D01*
X150429004Y-94026660D01*
X150500433Y-94062374D01*
X150521806Y-94065592D01*
X150542359Y-94072271D01*
X150734323Y-94072271D01*
X150734323Y-94335664D01*
X150752228Y-94390769D01*
X150799103Y-94424826D01*
X150857043Y-94424826D01*
X150903918Y-94390769D01*
X150921823Y-94335664D01*
X150921823Y-93585664D01*
X150917235Y-93571543D01*
X150917235Y-93556694D01*
X150908506Y-93544680D01*
X150903918Y-93530559D01*
X150891905Y-93521831D01*
X150883178Y-93509819D01*
X150869056Y-93505230D01*
X150857043Y-93496502D01*
X150842193Y-93496502D01*
X150828073Y-93491914D01*
X150542359Y-93491914D01*
X150521806Y-93498592D01*
X150500433Y-93501811D01*
X150429004Y-93537525D01*
X150418176Y-93548189D01*
X150404639Y-93555087D01*
X150368925Y-93590801D01*
X150362027Y-93604338D01*
X150351363Y-93615166D01*
X150315649Y-93686595D01*
X150312430Y-93707966D01*
X150305752Y-93728521D01*
X150305752Y-93835664D01*
X149795942Y-93835664D01*
X149778966Y-93784736D01*
X149778966Y-93750652D01*
X149797979Y-93712624D01*
X149812176Y-93698428D01*
X149850205Y-93679414D01*
X149984513Y-93679414D01*
X150022541Y-93698428D01*
X150047496Y-93723383D01*
X150099121Y-93749687D01*
X150156349Y-93740624D01*
X150197319Y-93699654D01*
X150206382Y-93642426D01*
X150180078Y-93590801D01*
X150144364Y-93555087D01*
X150130825Y-93548188D01*
X150119999Y-93537525D01*
X150048571Y-93501811D01*
X150027197Y-93498591D01*
X150006645Y-93491914D01*
X149828073Y-93491914D01*
X149807520Y-93498592D01*
X149786147Y-93501811D01*
X149714719Y-93537525D01*
X149703892Y-93548188D01*
X149690355Y-93555086D01*
X149654640Y-93590800D01*
X149647741Y-93604337D01*
X149637077Y-93615166D01*
X149601363Y-93686595D01*
X149598144Y-93707966D01*
X149591466Y-93728521D01*
X149591466Y-93799950D01*
X149132742Y-93799950D01*
X149125564Y-93756757D01*
X149084285Y-93716098D01*
X149026465Y-93687187D01*
X148972355Y-93633078D01*
X148906078Y-93533661D01*
X148904528Y-93532436D01*
X148903918Y-93530559D01*
X148881928Y-93514582D01*
X148860613Y-93497743D01*
X148858641Y-93497663D01*
X148857043Y-93496502D01*
X148829857Y-93496502D01*
X148802720Y-93495407D01*
X148801077Y-93496502D01*
X148799103Y-93496502D01*
X148777124Y-93512470D01*
X148754511Y-93527546D01*
X148753825Y-93529398D01*
X148752228Y-93530559D01*
X148743832Y-93556398D01*
X148734399Y-93581885D01*
X148734933Y-93583786D01*
X148734323Y-93585664D01*
X148734323Y-94241914D01*
X148613787Y-94241914D01*
X148558682Y-94259819D01*
X148524625Y-94306694D01*
X148524625Y-94364634D01*
X148417482Y-94364634D01*
X148417482Y-93384771D01*
X151028966Y-93384771D01*
X151028966Y-94536557D01*
G37*
G36*
X151099241Y-84376557D02*
G01*
X148877180Y-84376557D01*
X148877180Y-84032807D01*
X148984323Y-84032807D01*
X148991000Y-84053359D01*
X148994220Y-84074733D01*
X149029934Y-84146161D01*
X149040597Y-84156987D01*
X149047496Y-84170526D01*
X149083211Y-84206242D01*
X149096750Y-84213140D01*
X149107576Y-84223803D01*
X149179004Y-84259517D01*
X149200377Y-84262735D01*
X149220930Y-84269414D01*
X149435216Y-84269414D01*
X149455768Y-84262736D01*
X149477142Y-84259517D01*
X149548570Y-84223803D01*
X149559396Y-84213139D01*
X149572935Y-84206241D01*
X149608651Y-84170526D01*
X149634955Y-84118900D01*
X149625891Y-84061673D01*
X149584921Y-84020703D01*
X149527694Y-84011639D01*
X149476068Y-84037943D01*
X149451111Y-84062900D01*
X149413084Y-84081914D01*
X149243062Y-84081914D01*
X149205035Y-84062900D01*
X149190836Y-84048702D01*
X149171823Y-84010675D01*
X149171823Y-83876367D01*
X149190836Y-83838339D01*
X149205035Y-83824141D01*
X149243062Y-83805128D01*
X149328073Y-83805128D01*
X149346102Y-83799269D01*
X149364985Y-83797556D01*
X149373023Y-83790522D01*
X149383178Y-83787223D01*
X149394319Y-83771887D01*
X149408589Y-83759402D01*
X149410957Y-83748987D01*
X149417235Y-83740348D01*
X149417235Y-83721388D01*
X149421439Y-83702905D01*
X149417235Y-83693089D01*
X149417235Y-83682408D01*
X149406090Y-83667069D01*
X149398627Y-83649643D01*
X149284677Y-83519414D01*
X149542359Y-83519414D01*
X149597464Y-83501509D01*
X149631521Y-83454634D01*
X149631521Y-83397371D01*
X149631551Y-83397371D01*
X149631991Y-83455310D01*
X149881991Y-84205310D01*
X149898770Y-84228039D01*
X149915251Y-84251089D01*
X149915960Y-84251325D01*
X149916403Y-84251925D01*
X149943316Y-84260444D01*
X149970218Y-84269412D01*
X149970931Y-84269186D01*
X149971642Y-84269411D01*
X149998483Y-84260463D01*
X150025457Y-84251925D01*
X150025899Y-84251325D01*
X150026609Y-84251089D01*
X150043074Y-84228060D01*
X150059869Y-84205310D01*
X150117370Y-84032807D01*
X150341466Y-84032807D01*
X150348143Y-84053359D01*
X150351363Y-84074733D01*
X150387077Y-84146161D01*
X150397740Y-84156987D01*
X150404639Y-84170526D01*
X150440354Y-84206242D01*
X150453893Y-84213140D01*
X150464719Y-84223803D01*
X150536147Y-84259517D01*
X150557520Y-84262735D01*
X150578073Y-84269414D01*
X150792359Y-84269414D01*
X150812911Y-84262736D01*
X150834285Y-84259517D01*
X150905713Y-84223803D01*
X150916539Y-84213139D01*
X150930078Y-84206241D01*
X150965794Y-84170526D01*
X150992098Y-84118900D01*
X150983034Y-84061673D01*
X150942064Y-84020703D01*
X150884837Y-84011639D01*
X150833211Y-84037943D01*
X150808254Y-84062900D01*
X150770227Y-84081914D01*
X150600205Y-84081914D01*
X150562178Y-84062900D01*
X150547979Y-84048702D01*
X150528966Y-84010675D01*
X150528966Y-83876367D01*
X150547979Y-83838339D01*
X150562178Y-83824141D01*
X150600205Y-83805128D01*
X150685216Y-83805128D01*
X150703245Y-83799269D01*
X150722128Y-83797556D01*
X150730166Y-83790522D01*
X150740321Y-83787223D01*
X150751462Y-83771887D01*
X150765732Y-83759402D01*
X150768100Y-83748987D01*
X150774378Y-83740348D01*
X150774378Y-83721388D01*
X150778582Y-83702905D01*
X150774378Y-83693089D01*
X150774378Y-83682408D01*
X150763233Y-83667069D01*
X150755770Y-83649643D01*
X150641820Y-83519414D01*
X150899502Y-83519414D01*
X150954607Y-83501509D01*
X150988664Y-83454634D01*
X150988664Y-83396694D01*
X150954607Y-83349819D01*
X150899502Y-83331914D01*
X150435216Y-83331914D01*
X150417185Y-83337772D01*
X150398305Y-83339486D01*
X150390267Y-83346518D01*
X150380111Y-83349819D01*
X150368968Y-83365155D01*
X150354700Y-83377640D01*
X150352331Y-83388053D01*
X150346054Y-83396694D01*
X150346054Y-83415654D01*
X150341850Y-83434138D01*
X150346054Y-83443953D01*
X150346054Y-83454634D01*
X150357198Y-83469972D01*
X150364662Y-83487399D01*
X150502147Y-83644524D01*
X150464719Y-83663239D01*
X150453893Y-83673901D01*
X150440354Y-83680800D01*
X150404639Y-83716516D01*
X150397740Y-83730054D01*
X150387077Y-83740881D01*
X150351363Y-83812309D01*
X150348143Y-83833682D01*
X150341466Y-83854235D01*
X150341466Y-84032807D01*
X150117370Y-84032807D01*
X150309869Y-83455311D01*
X150310308Y-83397371D01*
X150276609Y-83350239D01*
X150221642Y-83331917D01*
X150166403Y-83349403D01*
X150131991Y-83396018D01*
X149970930Y-83879200D01*
X149809869Y-83396018D01*
X149775457Y-83349403D01*
X149720218Y-83331916D01*
X149665251Y-83350239D01*
X149631551Y-83397371D01*
X149631521Y-83397371D01*
X149631521Y-83396694D01*
X149597464Y-83349819D01*
X149542359Y-83331914D01*
X149078073Y-83331914D01*
X149060042Y-83337772D01*
X149041162Y-83339486D01*
X149033124Y-83346518D01*
X149022968Y-83349819D01*
X149011825Y-83365155D01*
X148997557Y-83377640D01*
X148995188Y-83388053D01*
X148988911Y-83396694D01*
X148988911Y-83415654D01*
X148984707Y-83434138D01*
X148988911Y-83443953D01*
X148988911Y-83454634D01*
X149000055Y-83469972D01*
X149007519Y-83487399D01*
X149145004Y-83644524D01*
X149107576Y-83663239D01*
X149096750Y-83673901D01*
X149083211Y-83680800D01*
X149047496Y-83716516D01*
X149040597Y-83730054D01*
X149029934Y-83740881D01*
X148994220Y-83812309D01*
X148991000Y-83833682D01*
X148984323Y-83854235D01*
X148984323Y-84032807D01*
X148877180Y-84032807D01*
X148877180Y-83224771D01*
X151099241Y-83224771D01*
X151099241Y-84376557D01*
G37*
D10*
G36*
X137536819Y-80617160D02*
G01*
X137501797Y-80722225D01*
X137434727Y-80789295D01*
X137363818Y-80824749D01*
X137195937Y-80866720D01*
X137077699Y-80866720D01*
X136909818Y-80824749D01*
X136838913Y-80789297D01*
X136771840Y-80722224D01*
X136736819Y-80617160D01*
X136736819Y-80495292D01*
X137536819Y-80495292D01*
X137536819Y-80617160D01*
G37*
G36*
X137879676Y-81209577D02*
G01*
X136393962Y-81209577D01*
X136393962Y-80633387D01*
X136536819Y-80633387D01*
X136541827Y-80648802D01*
X136541951Y-80665010D01*
X136589570Y-80807866D01*
X136603259Y-80826411D01*
X136613727Y-80846955D01*
X136708965Y-80942193D01*
X136723407Y-80949551D01*
X136734955Y-80960925D01*
X136830192Y-81008544D01*
X136841213Y-81010204D01*
X136850660Y-81016115D01*
X137041136Y-81063734D01*
X137053552Y-81062873D01*
X137065390Y-81066720D01*
X137208247Y-81066720D01*
X137220084Y-81062873D01*
X137232501Y-81063734D01*
X137422976Y-81016115D01*
X137432422Y-81010204D01*
X137443444Y-81008544D01*
X137538682Y-80960925D01*
X137550230Y-80949550D01*
X137564671Y-80942193D01*
X137659911Y-80846955D01*
X137670379Y-80826410D01*
X137684068Y-80807867D01*
X137731687Y-80665010D01*
X137731810Y-80648802D01*
X137736819Y-80633387D01*
X137736819Y-80395292D01*
X137731925Y-80380229D01*
X137731925Y-80364390D01*
X137722615Y-80351576D01*
X137717721Y-80336513D01*
X137704907Y-80327203D01*
X137695598Y-80314390D01*
X137680534Y-80309495D01*
X137667721Y-80300186D01*
X137651882Y-80300186D01*
X137636819Y-80295292D01*
X136636819Y-80295292D01*
X136621756Y-80300186D01*
X136605917Y-80300186D01*
X136593103Y-80309495D01*
X136578040Y-80314390D01*
X136568730Y-80327203D01*
X136555917Y-80336513D01*
X136551022Y-80351576D01*
X136541713Y-80364390D01*
X136541713Y-80380229D01*
X136536819Y-80395292D01*
X136536819Y-80633387D01*
X136393962Y-80633387D01*
X136393962Y-79327318D01*
X136538912Y-79327318D01*
X136541713Y-79352871D01*
X136541713Y-79378575D01*
X136545030Y-79383141D01*
X136545646Y-79388753D01*
X136562928Y-79407776D01*
X136578040Y-79428575D01*
X136583409Y-79430319D01*
X136587205Y-79434497D01*
X137260263Y-79819101D01*
X136636819Y-79819101D01*
X136578040Y-79838199D01*
X136541713Y-79888199D01*
X136541713Y-79950003D01*
X136578040Y-80000003D01*
X136636819Y-80019101D01*
X137636819Y-80019101D01*
X137642187Y-80017356D01*
X137647715Y-80018506D01*
X137671152Y-80007945D01*
X137695598Y-80000003D01*
X137698916Y-79995436D01*
X137704063Y-79993117D01*
X137716816Y-79970798D01*
X137731925Y-79950003D01*
X137731925Y-79944357D01*
X137734726Y-79939456D01*
X137731925Y-79913902D01*
X137731925Y-79888199D01*
X137728607Y-79883632D01*
X137727992Y-79878021D01*
X137710709Y-79858997D01*
X137695598Y-79838199D01*
X137690228Y-79836454D01*
X137686433Y-79832277D01*
X137013375Y-79447673D01*
X137636819Y-79447673D01*
X137695598Y-79428575D01*
X137731925Y-79378575D01*
X137731925Y-79316771D01*
X137695598Y-79266771D01*
X137636819Y-79247673D01*
X136636819Y-79247673D01*
X136631450Y-79249417D01*
X136625923Y-79248268D01*
X136602486Y-79258827D01*
X136578040Y-79266771D01*
X136574721Y-79271338D01*
X136569576Y-79273657D01*
X136556824Y-79295971D01*
X136541713Y-79316771D01*
X136541713Y-79322416D01*
X136538912Y-79327318D01*
X136393962Y-79327318D01*
X136393962Y-78776244D01*
X136536819Y-78776244D01*
X136543942Y-78798167D01*
X136547376Y-78820965D01*
X136594995Y-78916203D01*
X136638364Y-78960236D01*
X136699331Y-78970367D01*
X136754610Y-78942727D01*
X136783086Y-78887875D01*
X136773881Y-78826760D01*
X136736819Y-78752636D01*
X136736819Y-78649613D01*
X136771840Y-78544549D01*
X136838913Y-78477477D01*
X136909818Y-78442024D01*
X137077699Y-78400054D01*
X137195937Y-78400054D01*
X137363818Y-78442024D01*
X137434727Y-78477478D01*
X137501797Y-78544548D01*
X137536819Y-78649613D01*
X137536819Y-78712398D01*
X137501797Y-78817463D01*
X137500160Y-78819101D01*
X137308247Y-78819101D01*
X137308247Y-78728625D01*
X137289149Y-78669846D01*
X137239149Y-78633519D01*
X137177345Y-78633519D01*
X137127345Y-78669846D01*
X137108247Y-78728625D01*
X137108247Y-78919101D01*
X137113141Y-78934163D01*
X137113141Y-78950003D01*
X137122450Y-78962816D01*
X137127345Y-78977880D01*
X137140158Y-78987189D01*
X137149468Y-79000003D01*
X137164531Y-79004897D01*
X137177345Y-79014207D01*
X137193184Y-79014207D01*
X137208247Y-79019101D01*
X137541580Y-79019101D01*
X137549251Y-79016608D01*
X137557222Y-79017871D01*
X137578087Y-79007239D01*
X137600359Y-79000003D01*
X137605102Y-78993474D01*
X137612290Y-78989812D01*
X137659910Y-78942194D01*
X137670376Y-78921651D01*
X137684068Y-78903105D01*
X137731687Y-78760248D01*
X137731810Y-78744040D01*
X137736819Y-78728625D01*
X137736819Y-78633387D01*
X137731810Y-78617971D01*
X137731687Y-78601764D01*
X137684068Y-78458907D01*
X137670379Y-78440363D01*
X137659911Y-78419819D01*
X137564671Y-78324581D01*
X137550230Y-78317223D01*
X137538682Y-78305849D01*
X137443444Y-78258230D01*
X137432422Y-78256569D01*
X137422976Y-78250659D01*
X137232501Y-78203040D01*
X137220084Y-78203900D01*
X137208247Y-78200054D01*
X137065390Y-78200054D01*
X137053552Y-78203900D01*
X137041136Y-78203040D01*
X136850660Y-78250659D01*
X136841213Y-78256569D01*
X136830192Y-78258230D01*
X136734955Y-78305849D01*
X136723407Y-78317222D01*
X136708965Y-78324581D01*
X136613727Y-78419819D01*
X136603259Y-78440362D01*
X136589570Y-78458908D01*
X136541951Y-78601764D01*
X136541827Y-78617971D01*
X136536819Y-78633387D01*
X136536819Y-78776244D01*
X136393962Y-78776244D01*
X136393962Y-78057197D01*
X137879676Y-78057197D01*
X137879676Y-81209577D01*
G37*
D11*
G36*
X140929923Y-88753971D02*
G01*
X140760091Y-88753971D01*
X140722062Y-88734957D01*
X140707866Y-88720760D01*
X140688852Y-88682731D01*
X140688852Y-88619852D01*
X140707866Y-88581823D01*
X140722061Y-88567628D01*
X140760091Y-88548614D01*
X140929923Y-88548614D01*
X140929923Y-88753971D01*
G37*
G36*
X141224566Y-89405757D02*
G01*
X138608494Y-89405757D01*
X138608494Y-88669150D01*
X138715637Y-88669150D01*
X138720332Y-88683601D01*
X138720448Y-88698796D01*
X138756162Y-88805939D01*
X138768999Y-88823328D01*
X138778810Y-88842583D01*
X139047341Y-89111114D01*
X138809387Y-89111114D01*
X138754282Y-89129019D01*
X138720225Y-89175894D01*
X138720225Y-89233834D01*
X138754282Y-89280709D01*
X138809387Y-89298614D01*
X139273673Y-89298614D01*
X139294552Y-89291829D01*
X139316235Y-89288396D01*
X139321584Y-89283046D01*
X139328778Y-89280709D01*
X139341680Y-89262950D01*
X139357205Y-89247426D01*
X139358388Y-89239954D01*
X139362835Y-89233834D01*
X139362835Y-89211875D01*
X139366268Y-89190198D01*
X139363016Y-89183815D01*
X139431077Y-89183815D01*
X139437818Y-89197046D01*
X139440142Y-89211713D01*
X139450641Y-89222212D01*
X139457382Y-89235441D01*
X139493096Y-89271155D01*
X139506323Y-89277894D01*
X139516825Y-89288396D01*
X139524296Y-89289579D01*
X139530417Y-89294026D01*
X139537983Y-89294026D01*
X139544721Y-89297459D01*
X139559384Y-89295136D01*
X139574052Y-89297460D01*
X139580792Y-89294026D01*
X139588357Y-89294026D01*
X139594477Y-89289579D01*
X139601949Y-89288396D01*
X139612449Y-89277895D01*
X139625678Y-89271155D01*
X139661392Y-89235441D01*
X139662211Y-89233834D01*
X139791654Y-89233834D01*
X139825711Y-89280709D01*
X139880816Y-89298614D01*
X140309387Y-89298614D01*
X140364492Y-89280709D01*
X140398549Y-89233834D01*
X140398549Y-89175894D01*
X140364492Y-89129019D01*
X140309387Y-89111114D01*
X140188852Y-89111114D01*
X140188852Y-88710215D01*
X140196032Y-88717287D01*
X140267459Y-88753002D01*
X140324754Y-88761632D01*
X140376179Y-88734937D01*
X140391216Y-88704864D01*
X140501352Y-88704864D01*
X140508029Y-88725416D01*
X140511249Y-88746790D01*
X140546963Y-88818218D01*
X140557626Y-88829044D01*
X140564524Y-88842582D01*
X140600238Y-88878297D01*
X140613775Y-88885195D01*
X140624604Y-88895860D01*
X140696033Y-88931574D01*
X140717406Y-88934792D01*
X140737959Y-88941471D01*
X140929923Y-88941471D01*
X140929923Y-89204864D01*
X140947828Y-89259969D01*
X140994703Y-89294026D01*
X141052643Y-89294026D01*
X141099518Y-89259969D01*
X141117423Y-89204864D01*
X141117423Y-88454864D01*
X141112835Y-88440743D01*
X141112835Y-88425894D01*
X141104106Y-88413880D01*
X141099518Y-88399759D01*
X141087505Y-88391031D01*
X141078778Y-88379019D01*
X141064656Y-88374430D01*
X141052643Y-88365702D01*
X141037793Y-88365702D01*
X141023673Y-88361114D01*
X140737959Y-88361114D01*
X140717406Y-88367792D01*
X140696033Y-88371011D01*
X140624604Y-88406725D01*
X140613776Y-88417389D01*
X140600239Y-88424287D01*
X140564525Y-88460001D01*
X140557627Y-88473538D01*
X140546963Y-88484366D01*
X140511249Y-88555795D01*
X140508030Y-88577166D01*
X140501352Y-88597721D01*
X140501352Y-88704864D01*
X140391216Y-88704864D01*
X140402091Y-88683114D01*
X140392593Y-88625957D01*
X140351314Y-88585298D01*
X140293494Y-88556387D01*
X140239384Y-88502278D01*
X140173107Y-88402861D01*
X140171557Y-88401636D01*
X140170947Y-88399759D01*
X140148957Y-88383782D01*
X140127642Y-88366943D01*
X140125670Y-88366863D01*
X140124072Y-88365702D01*
X140096886Y-88365702D01*
X140069749Y-88364607D01*
X140068106Y-88365702D01*
X140066132Y-88365702D01*
X140044153Y-88381670D01*
X140021540Y-88396746D01*
X140020854Y-88398598D01*
X140019257Y-88399759D01*
X140010861Y-88425598D01*
X140001428Y-88451085D01*
X140001962Y-88452986D01*
X140001352Y-88454864D01*
X140001352Y-89111114D01*
X139880816Y-89111114D01*
X139825711Y-89129019D01*
X139791654Y-89175894D01*
X139791654Y-89233834D01*
X139662211Y-89233834D01*
X139668131Y-89222213D01*
X139678632Y-89211713D01*
X139680955Y-89197045D01*
X139687696Y-89183816D01*
X139685373Y-89169152D01*
X139687697Y-89154486D01*
X139680955Y-89141255D01*
X139678633Y-89126588D01*
X139668132Y-89116087D01*
X139661393Y-89102860D01*
X139625679Y-89067145D01*
X139612450Y-89060404D01*
X139601948Y-89049902D01*
X139594476Y-89048718D01*
X139588357Y-89044273D01*
X139580791Y-89044273D01*
X139574054Y-89040840D01*
X139559387Y-89043162D01*
X139544720Y-89040840D01*
X139537983Y-89044273D01*
X139530417Y-89044273D01*
X139524297Y-89048718D01*
X139516826Y-89049902D01*
X139506323Y-89060404D01*
X139493095Y-89067145D01*
X139457381Y-89102860D01*
X139450641Y-89116087D01*
X139440141Y-89126588D01*
X139437817Y-89141256D01*
X139431077Y-89154486D01*
X139433399Y-89169149D01*
X139431077Y-89183815D01*
X139363016Y-89183815D01*
X139362835Y-89183460D01*
X139362835Y-89175894D01*
X139349928Y-89158130D01*
X139339964Y-89138573D01*
X138927041Y-88725650D01*
X138903137Y-88653937D01*
X138903137Y-88619852D01*
X138922150Y-88581824D01*
X138936347Y-88567628D01*
X138974376Y-88548614D01*
X139108684Y-88548614D01*
X139146712Y-88567628D01*
X139171667Y-88592583D01*
X139223292Y-88618887D01*
X139280520Y-88609824D01*
X139321490Y-88568854D01*
X139330553Y-88511626D01*
X139304249Y-88460001D01*
X139268535Y-88424287D01*
X139254996Y-88417388D01*
X139244170Y-88406725D01*
X139172742Y-88371011D01*
X139151368Y-88367791D01*
X139130816Y-88361114D01*
X138952244Y-88361114D01*
X138931691Y-88367792D01*
X138910318Y-88371011D01*
X138838890Y-88406725D01*
X138828063Y-88417388D01*
X138814526Y-88424286D01*
X138778811Y-88460000D01*
X138771912Y-88473537D01*
X138761248Y-88484366D01*
X138725534Y-88555795D01*
X138722315Y-88577166D01*
X138715637Y-88597721D01*
X138715637Y-88669150D01*
X138608494Y-88669150D01*
X138608494Y-88253971D01*
X141224566Y-88253971D01*
X141224566Y-89405757D01*
G37*
G36*
X140929923Y-91395571D02*
G01*
X140760091Y-91395571D01*
X140722062Y-91376557D01*
X140707866Y-91362360D01*
X140688852Y-91324331D01*
X140688852Y-91261452D01*
X140707866Y-91223423D01*
X140722061Y-91209228D01*
X140760091Y-91190214D01*
X140929923Y-91190214D01*
X140929923Y-91395571D01*
G37*
G36*
X141224566Y-92047357D02*
G01*
X138608494Y-92047357D01*
X138608494Y-91703607D01*
X138715637Y-91703607D01*
X138722314Y-91724159D01*
X138725534Y-91745533D01*
X138761248Y-91816961D01*
X138771911Y-91827787D01*
X138778810Y-91841326D01*
X138814525Y-91877042D01*
X138828064Y-91883940D01*
X138838890Y-91894603D01*
X138910318Y-91930317D01*
X138931691Y-91933535D01*
X138952244Y-91940214D01*
X139166530Y-91940214D01*
X139187082Y-91933536D01*
X139208456Y-91930317D01*
X139279884Y-91894603D01*
X139290710Y-91883939D01*
X139304249Y-91877041D01*
X139339965Y-91841326D01*
X139348072Y-91825415D01*
X139431077Y-91825415D01*
X139437818Y-91838646D01*
X139440142Y-91853313D01*
X139450641Y-91863812D01*
X139457382Y-91877041D01*
X139493096Y-91912755D01*
X139506323Y-91919494D01*
X139516825Y-91929996D01*
X139524296Y-91931179D01*
X139530417Y-91935626D01*
X139537983Y-91935626D01*
X139544721Y-91939059D01*
X139559384Y-91936736D01*
X139574052Y-91939060D01*
X139580792Y-91935626D01*
X139588357Y-91935626D01*
X139594477Y-91931179D01*
X139601949Y-91929996D01*
X139612449Y-91919495D01*
X139625678Y-91912755D01*
X139661392Y-91877041D01*
X139662211Y-91875434D01*
X139791654Y-91875434D01*
X139825711Y-91922309D01*
X139880816Y-91940214D01*
X140309387Y-91940214D01*
X140364492Y-91922309D01*
X140398549Y-91875434D01*
X140398549Y-91817494D01*
X140364492Y-91770619D01*
X140309387Y-91752714D01*
X140188852Y-91752714D01*
X140188852Y-91351815D01*
X140196032Y-91358887D01*
X140267459Y-91394602D01*
X140324754Y-91403232D01*
X140376179Y-91376537D01*
X140391216Y-91346464D01*
X140501352Y-91346464D01*
X140508029Y-91367016D01*
X140511249Y-91388390D01*
X140546963Y-91459818D01*
X140557626Y-91470644D01*
X140564524Y-91484182D01*
X140600238Y-91519897D01*
X140613775Y-91526795D01*
X140624604Y-91537460D01*
X140696033Y-91573174D01*
X140717406Y-91576392D01*
X140737959Y-91583071D01*
X140929923Y-91583071D01*
X140929923Y-91846464D01*
X140947828Y-91901569D01*
X140994703Y-91935626D01*
X141052643Y-91935626D01*
X141099518Y-91901569D01*
X141117423Y-91846464D01*
X141117423Y-91096464D01*
X141112835Y-91082343D01*
X141112835Y-91067494D01*
X141104106Y-91055480D01*
X141099518Y-91041359D01*
X141087505Y-91032631D01*
X141078778Y-91020619D01*
X141064656Y-91016030D01*
X141052643Y-91007302D01*
X141037793Y-91007302D01*
X141023673Y-91002714D01*
X140737959Y-91002714D01*
X140717406Y-91009392D01*
X140696033Y-91012611D01*
X140624604Y-91048325D01*
X140613776Y-91058989D01*
X140600239Y-91065887D01*
X140564525Y-91101601D01*
X140557627Y-91115138D01*
X140546963Y-91125966D01*
X140511249Y-91197395D01*
X140508030Y-91218766D01*
X140501352Y-91239321D01*
X140501352Y-91346464D01*
X140391216Y-91346464D01*
X140402091Y-91324714D01*
X140392593Y-91267557D01*
X140351314Y-91226898D01*
X140293494Y-91197987D01*
X140239384Y-91143878D01*
X140173107Y-91044461D01*
X140171557Y-91043236D01*
X140170947Y-91041359D01*
X140148957Y-91025382D01*
X140127642Y-91008543D01*
X140125670Y-91008463D01*
X140124072Y-91007302D01*
X140096886Y-91007302D01*
X140069749Y-91006207D01*
X140068106Y-91007302D01*
X140066132Y-91007302D01*
X140044153Y-91023270D01*
X140021540Y-91038346D01*
X140020854Y-91040198D01*
X140019257Y-91041359D01*
X140010861Y-91067198D01*
X140001428Y-91092685D01*
X140001962Y-91094586D01*
X140001352Y-91096464D01*
X140001352Y-91752714D01*
X139880816Y-91752714D01*
X139825711Y-91770619D01*
X139791654Y-91817494D01*
X139791654Y-91875434D01*
X139662211Y-91875434D01*
X139668131Y-91863813D01*
X139678632Y-91853313D01*
X139680955Y-91838645D01*
X139687696Y-91825416D01*
X139685373Y-91810752D01*
X139687697Y-91796086D01*
X139680955Y-91782855D01*
X139678633Y-91768188D01*
X139668132Y-91757687D01*
X139661393Y-91744460D01*
X139625679Y-91708745D01*
X139612450Y-91702004D01*
X139601948Y-91691502D01*
X139594476Y-91690318D01*
X139588357Y-91685873D01*
X139580791Y-91685873D01*
X139574054Y-91682440D01*
X139559387Y-91684762D01*
X139544720Y-91682440D01*
X139537983Y-91685873D01*
X139530417Y-91685873D01*
X139524297Y-91690318D01*
X139516826Y-91691502D01*
X139506323Y-91702004D01*
X139493095Y-91708745D01*
X139457381Y-91744460D01*
X139450641Y-91757687D01*
X139440141Y-91768188D01*
X139437817Y-91782856D01*
X139431077Y-91796086D01*
X139433399Y-91810749D01*
X139431077Y-91825415D01*
X139348072Y-91825415D01*
X139366269Y-91789700D01*
X139357205Y-91732473D01*
X139316235Y-91691503D01*
X139259008Y-91682439D01*
X139207382Y-91708743D01*
X139182425Y-91733700D01*
X139144398Y-91752714D01*
X138974376Y-91752714D01*
X138936349Y-91733700D01*
X138922150Y-91719502D01*
X138903137Y-91681474D01*
X138903137Y-91547167D01*
X138922150Y-91509139D01*
X138936349Y-91494941D01*
X138974376Y-91475928D01*
X139059387Y-91475928D01*
X139077416Y-91470069D01*
X139096299Y-91468356D01*
X139104337Y-91461322D01*
X139114492Y-91458023D01*
X139125633Y-91442687D01*
X139139903Y-91430202D01*
X139142271Y-91419787D01*
X139148549Y-91411148D01*
X139148549Y-91392188D01*
X139152753Y-91373705D01*
X139148549Y-91363889D01*
X139148549Y-91353208D01*
X139137404Y-91337869D01*
X139129941Y-91320443D01*
X139015991Y-91190214D01*
X139273673Y-91190214D01*
X139328778Y-91172309D01*
X139362835Y-91125434D01*
X139362835Y-91067494D01*
X139328778Y-91020619D01*
X139273673Y-91002714D01*
X138809387Y-91002714D01*
X138791356Y-91008572D01*
X138772476Y-91010286D01*
X138764438Y-91017318D01*
X138754282Y-91020619D01*
X138743139Y-91035955D01*
X138728871Y-91048440D01*
X138726502Y-91058853D01*
X138720225Y-91067494D01*
X138720225Y-91086454D01*
X138716021Y-91104938D01*
X138720225Y-91114753D01*
X138720225Y-91125434D01*
X138731369Y-91140772D01*
X138738833Y-91158199D01*
X138876318Y-91315324D01*
X138838890Y-91334039D01*
X138828064Y-91344701D01*
X138814525Y-91351600D01*
X138778810Y-91387316D01*
X138771911Y-91400854D01*
X138761248Y-91411681D01*
X138725534Y-91483109D01*
X138722314Y-91504482D01*
X138715637Y-91525035D01*
X138715637Y-91703607D01*
X138608494Y-91703607D01*
X138608494Y-90895571D01*
X141224566Y-90895571D01*
X141224566Y-92047357D01*
G37*
G36*
X150632723Y-88804771D02*
G01*
X150462891Y-88804771D01*
X150424862Y-88785757D01*
X150410666Y-88771560D01*
X150391652Y-88733532D01*
X150391652Y-88670652D01*
X150410666Y-88632623D01*
X150424861Y-88618428D01*
X150462891Y-88599414D01*
X150632723Y-88599414D01*
X150632723Y-88804771D01*
G37*
G36*
X150927366Y-89456557D02*
G01*
X148744454Y-89456557D01*
X148744454Y-88534634D01*
X148851597Y-88534634D01*
X148885654Y-88581509D01*
X148940759Y-88599414D01*
X149061294Y-88599414D01*
X149061294Y-89255664D01*
X149079199Y-89310769D01*
X149126074Y-89344826D01*
X149184014Y-89344826D01*
X149230889Y-89310769D01*
X149248794Y-89255664D01*
X149248794Y-89112807D01*
X149489866Y-89112807D01*
X149496543Y-89133359D01*
X149499763Y-89154733D01*
X149535477Y-89226161D01*
X149546140Y-89236987D01*
X149553039Y-89250526D01*
X149588754Y-89286242D01*
X149602293Y-89293140D01*
X149613119Y-89303803D01*
X149684547Y-89339517D01*
X149705920Y-89342735D01*
X149726473Y-89349414D01*
X149905045Y-89349414D01*
X149919496Y-89344718D01*
X149934691Y-89344603D01*
X150041834Y-89308889D01*
X150088449Y-89274477D01*
X150105935Y-89219238D01*
X150087613Y-89164271D01*
X150040480Y-89130571D01*
X149982541Y-89131011D01*
X149889832Y-89161914D01*
X149748605Y-89161914D01*
X149710578Y-89142900D01*
X149696379Y-89128702D01*
X149677366Y-89090674D01*
X149677366Y-89063510D01*
X149696379Y-89025482D01*
X149710578Y-89011284D01*
X149759194Y-88986976D01*
X149892068Y-88953758D01*
X149900926Y-88948215D01*
X149911257Y-88946659D01*
X149982685Y-88910944D01*
X149993510Y-88900281D01*
X150007050Y-88893383D01*
X150042764Y-88857669D01*
X150049661Y-88844130D01*
X150060326Y-88833304D01*
X150096040Y-88761876D01*
X150096975Y-88755664D01*
X150204152Y-88755664D01*
X150210829Y-88776216D01*
X150214049Y-88797590D01*
X150249763Y-88869018D01*
X150260426Y-88879844D01*
X150267324Y-88893382D01*
X150303038Y-88929097D01*
X150316575Y-88935995D01*
X150327404Y-88946660D01*
X150381007Y-88973461D01*
X150221099Y-89201902D01*
X150204167Y-89257314D01*
X150223038Y-89312095D01*
X150270504Y-89345322D01*
X150328436Y-89344302D01*
X150374705Y-89309426D01*
X150596713Y-88992271D01*
X150632723Y-88992271D01*
X150632723Y-89255664D01*
X150650628Y-89310769D01*
X150697503Y-89344826D01*
X150755443Y-89344826D01*
X150802318Y-89310769D01*
X150820223Y-89255664D01*
X150820223Y-88505664D01*
X150815635Y-88491543D01*
X150815635Y-88476694D01*
X150806906Y-88464680D01*
X150802318Y-88450559D01*
X150790305Y-88441831D01*
X150781578Y-88429819D01*
X150767456Y-88425230D01*
X150755443Y-88416502D01*
X150740593Y-88416502D01*
X150726473Y-88411914D01*
X150440759Y-88411914D01*
X150420206Y-88418592D01*
X150398833Y-88421811D01*
X150327404Y-88457525D01*
X150316576Y-88468189D01*
X150303039Y-88475087D01*
X150267325Y-88510801D01*
X150260427Y-88524338D01*
X150249763Y-88535166D01*
X150214049Y-88606595D01*
X150210830Y-88627966D01*
X150204152Y-88648521D01*
X150204152Y-88755664D01*
X150096975Y-88755664D01*
X150099258Y-88740502D01*
X150105937Y-88719950D01*
X150105937Y-88648521D01*
X150099258Y-88627968D01*
X150096040Y-88606595D01*
X150060326Y-88535166D01*
X150049661Y-88524338D01*
X150042764Y-88510801D01*
X150007050Y-88475087D01*
X149993512Y-88468189D01*
X149982685Y-88457525D01*
X149911256Y-88421811D01*
X149889884Y-88418592D01*
X149869330Y-88411914D01*
X149690759Y-88411914D01*
X149676307Y-88416609D01*
X149661113Y-88416725D01*
X149553970Y-88452439D01*
X149507355Y-88486851D01*
X149489868Y-88542090D01*
X149508190Y-88597057D01*
X149555323Y-88630757D01*
X149613262Y-88630317D01*
X149705973Y-88599414D01*
X149847198Y-88599414D01*
X149885227Y-88618428D01*
X149899422Y-88632623D01*
X149918437Y-88670652D01*
X149918437Y-88697818D01*
X149899423Y-88735845D01*
X149885225Y-88750043D01*
X149836608Y-88774351D01*
X149703735Y-88807570D01*
X149694878Y-88813112D01*
X149684547Y-88814668D01*
X149613119Y-88850382D01*
X149602293Y-88861044D01*
X149588754Y-88867943D01*
X149553039Y-88903659D01*
X149546140Y-88917197D01*
X149535477Y-88928024D01*
X149499763Y-88999452D01*
X149496543Y-89020825D01*
X149489866Y-89041378D01*
X149489866Y-89112807D01*
X149248794Y-89112807D01*
X149248794Y-88599414D01*
X149369330Y-88599414D01*
X149424435Y-88581509D01*
X149458492Y-88534634D01*
X149458492Y-88476694D01*
X149424435Y-88429819D01*
X149369330Y-88411914D01*
X148940759Y-88411914D01*
X148885654Y-88429819D01*
X148851597Y-88476694D01*
X148851597Y-88534634D01*
X148744454Y-88534634D01*
X148744454Y-88304771D01*
X150927366Y-88304771D01*
X150927366Y-89456557D01*
G37*
D10*
G36*
X144680628Y-78654218D02*
G01*
X144650823Y-78713827D01*
X144626154Y-78738495D01*
X144566545Y-78768301D01*
X144470902Y-78768301D01*
X144411292Y-78738496D01*
X144386624Y-78713827D01*
X144356819Y-78654217D01*
X144356819Y-78396873D01*
X144680628Y-78396873D01*
X144680628Y-78654218D01*
G37*
G36*
X145495950Y-80111077D02*
G01*
X144013962Y-80111077D01*
X144013962Y-79895344D01*
X144160545Y-79895344D01*
X144194827Y-79946768D01*
X144252788Y-79968220D01*
X144312289Y-79951506D01*
X144756819Y-79655152D01*
X145201349Y-79951506D01*
X145260850Y-79968220D01*
X145318811Y-79946768D01*
X145353093Y-79895344D01*
X145350602Y-79833591D01*
X145312289Y-79785096D01*
X144937096Y-79534968D01*
X145312289Y-79284840D01*
X145350602Y-79236345D01*
X145353093Y-79174592D01*
X145318811Y-79123168D01*
X145260850Y-79101716D01*
X145201349Y-79118430D01*
X144756819Y-79414783D01*
X144312289Y-79118430D01*
X144252788Y-79101716D01*
X144194827Y-79123168D01*
X144160545Y-79174592D01*
X144163036Y-79236345D01*
X144201349Y-79284840D01*
X144576541Y-79534968D01*
X144201349Y-79785096D01*
X144163036Y-79833591D01*
X144160545Y-79895344D01*
X144013962Y-79895344D01*
X144013962Y-78677825D01*
X144156819Y-78677825D01*
X144163942Y-78699748D01*
X144167376Y-78722546D01*
X144214995Y-78817784D01*
X144226368Y-78829331D01*
X144233727Y-78843774D01*
X144281346Y-78891392D01*
X144295787Y-78898750D01*
X144307336Y-78910125D01*
X144402573Y-78957744D01*
X144425371Y-78961177D01*
X144447295Y-78968301D01*
X144590152Y-78968301D01*
X144612075Y-78961177D01*
X144634873Y-78957744D01*
X144730111Y-78910125D01*
X144741658Y-78898751D01*
X144756101Y-78891393D01*
X144803719Y-78843774D01*
X144811077Y-78829332D01*
X144822452Y-78817784D01*
X144870071Y-78722547D01*
X144870466Y-78719920D01*
X145199473Y-78950224D01*
X145258579Y-78968286D01*
X145317012Y-78948157D01*
X145352454Y-78897525D01*
X145351367Y-78835731D01*
X145314165Y-78786378D01*
X144880628Y-78482902D01*
X144880628Y-78396873D01*
X145256819Y-78396873D01*
X145315598Y-78377775D01*
X145351925Y-78327775D01*
X145351925Y-78265971D01*
X145315598Y-78215971D01*
X145256819Y-78196873D01*
X144256819Y-78196873D01*
X144241756Y-78201767D01*
X144225917Y-78201767D01*
X144213103Y-78211076D01*
X144198040Y-78215971D01*
X144188730Y-78228784D01*
X144175917Y-78238094D01*
X144171022Y-78253157D01*
X144161713Y-78265971D01*
X144161713Y-78281810D01*
X144156819Y-78296873D01*
X144156819Y-78677825D01*
X144013962Y-78677825D01*
X144013962Y-78054016D01*
X145495950Y-78054016D01*
X145495950Y-80111077D01*
G37*
G36*
X142959676Y-82111158D02*
G01*
X141473962Y-82111158D01*
X141473962Y-81868301D01*
X141616819Y-81868301D01*
X141623067Y-81887530D01*
X141624895Y-81907673D01*
X141632397Y-81916246D01*
X141635917Y-81927080D01*
X141652277Y-81938966D01*
X141665594Y-81954185D01*
X141676701Y-81956711D01*
X141685917Y-81963407D01*
X141706139Y-81963407D01*
X141725858Y-81967892D01*
X141736329Y-81963407D01*
X141747721Y-81963407D01*
X141764081Y-81951520D01*
X141782669Y-81943559D01*
X142016523Y-81738936D01*
X142055947Y-81817784D01*
X142067320Y-81829331D01*
X142074679Y-81843774D01*
X142122298Y-81891392D01*
X142136739Y-81898750D01*
X142148288Y-81910125D01*
X142243525Y-81957744D01*
X142266323Y-81961177D01*
X142288247Y-81968301D01*
X142526342Y-81968301D01*
X142548265Y-81961177D01*
X142571063Y-81957744D01*
X142666301Y-81910125D01*
X142677848Y-81898751D01*
X142692290Y-81891393D01*
X142739910Y-81843775D01*
X142747269Y-81829331D01*
X142758643Y-81817784D01*
X142806262Y-81722547D01*
X142809695Y-81699748D01*
X142816819Y-81677825D01*
X142816819Y-81392111D01*
X142809695Y-81370187D01*
X142806262Y-81347389D01*
X142758643Y-81252152D01*
X142747269Y-81240604D01*
X142739910Y-81226161D01*
X142692290Y-81178543D01*
X142637222Y-81150484D01*
X142576180Y-81160153D01*
X142532478Y-81203856D01*
X142522811Y-81264898D01*
X142550870Y-81319965D01*
X142587014Y-81356108D01*
X142616819Y-81415718D01*
X142616819Y-81654218D01*
X142587014Y-81713827D01*
X142562346Y-81738494D01*
X142502735Y-81768301D01*
X142311854Y-81768301D01*
X142252244Y-81738496D01*
X142227576Y-81713827D01*
X142197771Y-81654217D01*
X142197771Y-81534968D01*
X142191522Y-81515738D01*
X142189695Y-81495596D01*
X142182192Y-81487022D01*
X142178673Y-81476189D01*
X142162314Y-81464303D01*
X142148997Y-81449084D01*
X142137888Y-81446557D01*
X142128673Y-81439862D01*
X142108451Y-81439862D01*
X142088732Y-81435377D01*
X142078261Y-81439862D01*
X142066869Y-81439862D01*
X142050508Y-81451748D01*
X142031921Y-81459710D01*
X141816819Y-81647924D01*
X141816819Y-81249254D01*
X141797721Y-81190475D01*
X141747721Y-81154148D01*
X141685917Y-81154148D01*
X141635917Y-81190475D01*
X141616819Y-81249254D01*
X141616819Y-81868301D01*
X141473962Y-81868301D01*
X141473962Y-81011917D01*
X141616821Y-81011917D01*
X141636366Y-81070549D01*
X141686640Y-81106496D01*
X141748442Y-81106026D01*
X142748441Y-80772693D01*
X142772704Y-80754782D01*
X142797272Y-80737216D01*
X142797523Y-80736461D01*
X142798165Y-80735988D01*
X142807280Y-80707191D01*
X142816816Y-80678584D01*
X142816575Y-80677824D01*
X142816816Y-80677066D01*
X142807280Y-80648458D01*
X142798165Y-80619662D01*
X142797523Y-80619188D01*
X142797272Y-80618434D01*
X142772704Y-80600867D01*
X142748441Y-80582957D01*
X141748442Y-80249624D01*
X141686640Y-80249154D01*
X141636366Y-80285101D01*
X141616821Y-80343733D01*
X141635473Y-80402655D01*
X141685196Y-80439360D01*
X142400591Y-80677825D01*
X141685196Y-80916290D01*
X141635473Y-80952995D01*
X141616821Y-81011917D01*
X141473962Y-81011917D01*
X141473962Y-80058777D01*
X141616819Y-80058777D01*
X141623067Y-80078006D01*
X141624895Y-80098149D01*
X141632397Y-80106722D01*
X141635917Y-80117556D01*
X141652277Y-80129442D01*
X141665594Y-80144661D01*
X141676701Y-80147187D01*
X141685917Y-80153883D01*
X141706139Y-80153883D01*
X141725858Y-80158368D01*
X141736329Y-80153883D01*
X141747721Y-80153883D01*
X141764081Y-80141996D01*
X141782669Y-80134035D01*
X142016523Y-79929412D01*
X142055947Y-80008260D01*
X142067320Y-80019807D01*
X142074679Y-80034250D01*
X142122298Y-80081868D01*
X142136739Y-80089226D01*
X142148288Y-80100601D01*
X142243525Y-80148220D01*
X142266323Y-80151653D01*
X142288247Y-80158777D01*
X142526342Y-80158777D01*
X142548265Y-80151653D01*
X142571063Y-80148220D01*
X142666301Y-80100601D01*
X142677848Y-80089227D01*
X142692290Y-80081869D01*
X142739910Y-80034251D01*
X142747269Y-80019807D01*
X142758643Y-80008260D01*
X142806262Y-79913023D01*
X142809695Y-79890224D01*
X142816819Y-79868301D01*
X142816819Y-79582587D01*
X142809695Y-79560663D01*
X142806262Y-79537865D01*
X142758643Y-79442628D01*
X142747269Y-79431080D01*
X142739910Y-79416637D01*
X142692290Y-79369019D01*
X142637222Y-79340960D01*
X142576180Y-79350629D01*
X142532478Y-79394332D01*
X142522811Y-79455374D01*
X142550870Y-79510441D01*
X142587014Y-79546584D01*
X142616819Y-79606194D01*
X142616819Y-79844694D01*
X142587014Y-79904303D01*
X142562346Y-79928970D01*
X142502735Y-79958777D01*
X142311854Y-79958777D01*
X142252244Y-79928972D01*
X142227576Y-79904303D01*
X142197771Y-79844693D01*
X142197771Y-79725444D01*
X142191522Y-79706214D01*
X142189695Y-79686072D01*
X142182192Y-79677498D01*
X142178673Y-79666665D01*
X142162314Y-79654779D01*
X142148997Y-79639560D01*
X142137888Y-79637033D01*
X142128673Y-79630338D01*
X142108451Y-79630338D01*
X142088732Y-79625853D01*
X142078261Y-79630338D01*
X142066869Y-79630338D01*
X142050508Y-79642224D01*
X142031921Y-79650186D01*
X141816819Y-79838400D01*
X141816819Y-79439730D01*
X141797721Y-79380951D01*
X141747721Y-79344624D01*
X141685917Y-79344624D01*
X141635917Y-79380951D01*
X141616819Y-79439730D01*
X141616819Y-80058777D01*
X141473962Y-80058777D01*
X141473962Y-78708727D01*
X141859808Y-78708727D01*
X141896135Y-78758727D01*
X141954914Y-78777825D01*
X142235866Y-78777825D01*
X142235866Y-79058778D01*
X142254964Y-79117557D01*
X142304964Y-79153884D01*
X142366768Y-79153884D01*
X142416768Y-79117557D01*
X142435866Y-79058778D01*
X142435866Y-78777825D01*
X142716819Y-78777825D01*
X142775598Y-78758727D01*
X142811925Y-78708727D01*
X142811925Y-78646923D01*
X142775598Y-78596923D01*
X142716819Y-78577825D01*
X142435866Y-78577825D01*
X142435866Y-78296873D01*
X142416768Y-78238094D01*
X142366768Y-78201767D01*
X142304964Y-78201767D01*
X142254964Y-78238094D01*
X142235866Y-78296873D01*
X142235866Y-78577825D01*
X141954914Y-78577825D01*
X141896135Y-78596923D01*
X141859808Y-78646923D01*
X141859808Y-78708727D01*
X141473962Y-78708727D01*
X141473962Y-78058910D01*
X142959676Y-78058910D01*
X142959676Y-82111158D01*
G37*
D11*
G36*
X140929923Y-86163171D02*
G01*
X140760091Y-86163171D01*
X140722062Y-86144157D01*
X140707866Y-86129960D01*
X140688852Y-86091932D01*
X140688852Y-86029052D01*
X140707866Y-85991023D01*
X140722061Y-85976828D01*
X140760091Y-85957814D01*
X140929923Y-85957814D01*
X140929923Y-86163171D01*
G37*
G36*
X141224566Y-86814957D02*
G01*
X138613082Y-86814957D01*
X138613082Y-86643034D01*
X138720225Y-86643034D01*
X138754282Y-86689909D01*
X138809387Y-86707814D01*
X139237958Y-86707814D01*
X139293063Y-86689909D01*
X139327120Y-86643034D01*
X139327120Y-86593015D01*
X139431077Y-86593015D01*
X139437818Y-86606246D01*
X139440142Y-86620913D01*
X139450641Y-86631412D01*
X139457382Y-86644641D01*
X139493096Y-86680355D01*
X139506323Y-86687094D01*
X139516825Y-86697596D01*
X139524296Y-86698779D01*
X139530417Y-86703226D01*
X139537983Y-86703226D01*
X139544721Y-86706659D01*
X139559384Y-86704336D01*
X139574052Y-86706660D01*
X139580792Y-86703226D01*
X139588357Y-86703226D01*
X139594477Y-86698779D01*
X139601949Y-86697596D01*
X139612449Y-86687095D01*
X139625678Y-86680355D01*
X139661392Y-86644641D01*
X139662211Y-86643034D01*
X139791654Y-86643034D01*
X139825711Y-86689909D01*
X139880816Y-86707814D01*
X140309387Y-86707814D01*
X140364492Y-86689909D01*
X140398549Y-86643034D01*
X140398549Y-86585094D01*
X140364492Y-86538219D01*
X140309387Y-86520314D01*
X140188852Y-86520314D01*
X140188852Y-86119415D01*
X140196032Y-86126487D01*
X140267459Y-86162202D01*
X140324754Y-86170832D01*
X140376179Y-86144137D01*
X140391216Y-86114064D01*
X140501352Y-86114064D01*
X140508029Y-86134616D01*
X140511249Y-86155990D01*
X140546963Y-86227418D01*
X140557626Y-86238244D01*
X140564524Y-86251782D01*
X140600238Y-86287497D01*
X140613775Y-86294395D01*
X140624604Y-86305060D01*
X140696033Y-86340774D01*
X140717406Y-86343992D01*
X140737959Y-86350671D01*
X140929923Y-86350671D01*
X140929923Y-86614064D01*
X140947828Y-86669169D01*
X140994703Y-86703226D01*
X141052643Y-86703226D01*
X141099518Y-86669169D01*
X141117423Y-86614064D01*
X141117423Y-85864064D01*
X141112835Y-85849943D01*
X141112835Y-85835094D01*
X141104106Y-85823080D01*
X141099518Y-85808959D01*
X141087505Y-85800231D01*
X141078778Y-85788219D01*
X141064656Y-85783630D01*
X141052643Y-85774902D01*
X141037793Y-85774902D01*
X141023673Y-85770314D01*
X140737959Y-85770314D01*
X140717406Y-85776992D01*
X140696033Y-85780211D01*
X140624604Y-85815925D01*
X140613776Y-85826589D01*
X140600239Y-85833487D01*
X140564525Y-85869201D01*
X140557627Y-85882738D01*
X140546963Y-85893566D01*
X140511249Y-85964995D01*
X140508030Y-85986366D01*
X140501352Y-86006921D01*
X140501352Y-86114064D01*
X140391216Y-86114064D01*
X140402091Y-86092314D01*
X140392593Y-86035157D01*
X140351314Y-85994498D01*
X140293494Y-85965587D01*
X140239384Y-85911478D01*
X140173107Y-85812061D01*
X140171557Y-85810836D01*
X140170947Y-85808959D01*
X140148957Y-85792982D01*
X140127642Y-85776143D01*
X140125670Y-85776063D01*
X140124072Y-85774902D01*
X140096886Y-85774902D01*
X140069749Y-85773807D01*
X140068106Y-85774902D01*
X140066132Y-85774902D01*
X140044153Y-85790870D01*
X140021540Y-85805946D01*
X140020854Y-85807798D01*
X140019257Y-85808959D01*
X140010861Y-85834798D01*
X140001428Y-85860285D01*
X140001962Y-85862186D01*
X140001352Y-85864064D01*
X140001352Y-86520314D01*
X139880816Y-86520314D01*
X139825711Y-86538219D01*
X139791654Y-86585094D01*
X139791654Y-86643034D01*
X139662211Y-86643034D01*
X139668131Y-86631413D01*
X139678632Y-86620913D01*
X139680955Y-86606245D01*
X139687696Y-86593016D01*
X139685373Y-86578352D01*
X139687697Y-86563686D01*
X139680955Y-86550455D01*
X139678633Y-86535788D01*
X139668132Y-86525287D01*
X139661393Y-86512060D01*
X139625679Y-86476345D01*
X139612450Y-86469604D01*
X139601948Y-86459102D01*
X139594476Y-86457918D01*
X139588357Y-86453473D01*
X139580791Y-86453473D01*
X139574054Y-86450040D01*
X139559387Y-86452362D01*
X139544720Y-86450040D01*
X139537983Y-86453473D01*
X139530417Y-86453473D01*
X139524297Y-86457918D01*
X139516826Y-86459102D01*
X139506323Y-86469604D01*
X139493095Y-86476345D01*
X139457381Y-86512060D01*
X139450641Y-86525287D01*
X139440141Y-86535788D01*
X139437817Y-86550456D01*
X139431077Y-86563686D01*
X139433399Y-86578349D01*
X139431077Y-86593015D01*
X139327120Y-86593015D01*
X139327120Y-86585094D01*
X139293063Y-86538219D01*
X139237958Y-86520314D01*
X139117423Y-86520314D01*
X139117423Y-86119415D01*
X139124603Y-86126487D01*
X139196030Y-86162202D01*
X139253325Y-86170832D01*
X139304750Y-86144137D01*
X139330662Y-86092314D01*
X139321164Y-86035157D01*
X139279885Y-85994498D01*
X139222065Y-85965587D01*
X139167955Y-85911478D01*
X139101678Y-85812061D01*
X139100128Y-85810836D01*
X139099518Y-85808959D01*
X139077528Y-85792982D01*
X139056213Y-85776143D01*
X139054241Y-85776063D01*
X139052643Y-85774902D01*
X139025457Y-85774902D01*
X138998320Y-85773807D01*
X138996677Y-85774902D01*
X138994703Y-85774902D01*
X138972724Y-85790870D01*
X138950111Y-85805946D01*
X138949425Y-85807798D01*
X138947828Y-85808959D01*
X138939432Y-85834798D01*
X138929999Y-85860285D01*
X138930533Y-85862186D01*
X138929923Y-85864064D01*
X138929923Y-86520314D01*
X138809387Y-86520314D01*
X138754282Y-86538219D01*
X138720225Y-86585094D01*
X138720225Y-86643034D01*
X138613082Y-86643034D01*
X138613082Y-85663171D01*
X141224566Y-85663171D01*
X141224566Y-86814957D01*
G37*
G36*
X139075284Y-83589228D02*
G01*
X139089479Y-83603423D01*
X139113788Y-83652042D01*
X139144208Y-83773719D01*
X139144208Y-83929208D01*
X139113788Y-84050885D01*
X139089479Y-84099503D01*
X139075283Y-84113700D01*
X139037255Y-84132714D01*
X139010090Y-84132714D01*
X138972062Y-84113700D01*
X138957865Y-84099503D01*
X138933555Y-84050885D01*
X138903137Y-83929208D01*
X138903137Y-83773719D01*
X138933556Y-83652042D01*
X138957864Y-83603425D01*
X138972062Y-83589227D01*
X139010090Y-83570214D01*
X139037255Y-83570214D01*
X139075284Y-83589228D01*
G37*
G36*
X140929923Y-83775571D02*
G01*
X140760091Y-83775571D01*
X140722062Y-83756557D01*
X140707866Y-83742360D01*
X140688852Y-83704331D01*
X140688852Y-83641452D01*
X140707866Y-83603423D01*
X140722061Y-83589228D01*
X140760091Y-83570214D01*
X140929923Y-83570214D01*
X140929923Y-83775571D01*
G37*
G36*
X141224566Y-84427357D02*
G01*
X138608494Y-84427357D01*
X138608494Y-83940750D01*
X138715637Y-83940750D01*
X138719242Y-83951847D01*
X138718436Y-83963488D01*
X138754150Y-84106345D01*
X138759692Y-84115202D01*
X138761249Y-84125534D01*
X138796964Y-84196962D01*
X138807626Y-84207786D01*
X138814524Y-84221325D01*
X138850238Y-84257040D01*
X138863776Y-84263938D01*
X138874604Y-84274603D01*
X138946032Y-84310317D01*
X138967405Y-84313535D01*
X138987958Y-84320214D01*
X139059387Y-84320214D01*
X139079941Y-84313535D01*
X139101313Y-84310317D01*
X139172742Y-84274603D01*
X139183570Y-84263938D01*
X139197108Y-84257040D01*
X139232822Y-84221325D01*
X139239719Y-84207787D01*
X139242056Y-84205415D01*
X139431077Y-84205415D01*
X139437818Y-84218646D01*
X139440142Y-84233313D01*
X139450641Y-84243812D01*
X139457382Y-84257041D01*
X139493096Y-84292755D01*
X139506323Y-84299494D01*
X139516825Y-84309996D01*
X139524296Y-84311179D01*
X139530417Y-84315626D01*
X139537983Y-84315626D01*
X139544721Y-84319059D01*
X139559384Y-84316736D01*
X139574052Y-84319060D01*
X139580792Y-84315626D01*
X139588357Y-84315626D01*
X139594477Y-84311179D01*
X139601949Y-84309996D01*
X139612449Y-84299495D01*
X139625678Y-84292755D01*
X139661392Y-84257041D01*
X139662211Y-84255434D01*
X139791654Y-84255434D01*
X139825711Y-84302309D01*
X139880816Y-84320214D01*
X140309387Y-84320214D01*
X140364492Y-84302309D01*
X140398549Y-84255434D01*
X140398549Y-84197494D01*
X140364492Y-84150619D01*
X140309387Y-84132714D01*
X140188852Y-84132714D01*
X140188852Y-83731815D01*
X140196032Y-83738887D01*
X140267459Y-83774602D01*
X140324754Y-83783232D01*
X140376179Y-83756537D01*
X140391216Y-83726464D01*
X140501352Y-83726464D01*
X140508029Y-83747016D01*
X140511249Y-83768390D01*
X140546963Y-83839818D01*
X140557626Y-83850644D01*
X140564524Y-83864182D01*
X140600238Y-83899897D01*
X140613775Y-83906795D01*
X140624604Y-83917460D01*
X140696033Y-83953174D01*
X140717406Y-83956392D01*
X140737959Y-83963071D01*
X140929923Y-83963071D01*
X140929923Y-84226464D01*
X140947828Y-84281569D01*
X140994703Y-84315626D01*
X141052643Y-84315626D01*
X141099518Y-84281569D01*
X141117423Y-84226464D01*
X141117423Y-83476464D01*
X141112835Y-83462343D01*
X141112835Y-83447494D01*
X141104106Y-83435480D01*
X141099518Y-83421359D01*
X141087505Y-83412631D01*
X141078778Y-83400619D01*
X141064656Y-83396030D01*
X141052643Y-83387302D01*
X141037793Y-83387302D01*
X141023673Y-83382714D01*
X140737959Y-83382714D01*
X140717406Y-83389392D01*
X140696033Y-83392611D01*
X140624604Y-83428325D01*
X140613776Y-83438989D01*
X140600239Y-83445887D01*
X140564525Y-83481601D01*
X140557627Y-83495138D01*
X140546963Y-83505966D01*
X140511249Y-83577395D01*
X140508030Y-83598766D01*
X140501352Y-83619321D01*
X140501352Y-83726464D01*
X140391216Y-83726464D01*
X140402091Y-83704714D01*
X140392593Y-83647557D01*
X140351314Y-83606898D01*
X140293494Y-83577987D01*
X140239384Y-83523878D01*
X140173107Y-83424461D01*
X140171557Y-83423236D01*
X140170947Y-83421359D01*
X140148957Y-83405382D01*
X140127642Y-83388543D01*
X140125670Y-83388463D01*
X140124072Y-83387302D01*
X140096886Y-83387302D01*
X140069749Y-83386207D01*
X140068106Y-83387302D01*
X140066132Y-83387302D01*
X140044153Y-83403270D01*
X140021540Y-83418346D01*
X140020854Y-83420198D01*
X140019257Y-83421359D01*
X140010861Y-83447198D01*
X140001428Y-83472685D01*
X140001962Y-83474586D01*
X140001352Y-83476464D01*
X140001352Y-84132714D01*
X139880816Y-84132714D01*
X139825711Y-84150619D01*
X139791654Y-84197494D01*
X139791654Y-84255434D01*
X139662211Y-84255434D01*
X139668131Y-84243813D01*
X139678632Y-84233313D01*
X139680955Y-84218645D01*
X139687696Y-84205416D01*
X139685373Y-84190752D01*
X139687697Y-84176086D01*
X139680955Y-84162855D01*
X139678633Y-84148188D01*
X139668132Y-84137687D01*
X139661393Y-84124460D01*
X139625679Y-84088745D01*
X139612450Y-84082004D01*
X139601948Y-84071502D01*
X139594476Y-84070318D01*
X139588357Y-84065873D01*
X139580791Y-84065873D01*
X139574054Y-84062440D01*
X139559387Y-84064762D01*
X139544720Y-84062440D01*
X139537983Y-84065873D01*
X139530417Y-84065873D01*
X139524297Y-84070318D01*
X139516826Y-84071502D01*
X139506323Y-84082004D01*
X139493095Y-84088745D01*
X139457381Y-84124460D01*
X139450641Y-84137687D01*
X139440141Y-84148188D01*
X139437817Y-84162856D01*
X139431077Y-84176086D01*
X139433399Y-84190749D01*
X139431077Y-84205415D01*
X139242056Y-84205415D01*
X139250383Y-84196961D01*
X139286097Y-84125533D01*
X139287652Y-84115201D01*
X139293195Y-84106345D01*
X139328909Y-83963487D01*
X139328102Y-83951847D01*
X139331708Y-83940750D01*
X139331708Y-83762178D01*
X139328102Y-83751080D01*
X139328909Y-83739441D01*
X139293195Y-83596583D01*
X139287652Y-83587726D01*
X139286097Y-83577395D01*
X139250383Y-83505966D01*
X139239718Y-83495138D01*
X139232821Y-83481601D01*
X139197107Y-83445887D01*
X139183569Y-83438989D01*
X139172742Y-83428325D01*
X139101313Y-83392611D01*
X139079941Y-83389392D01*
X139059387Y-83382714D01*
X138987958Y-83382714D01*
X138967405Y-83389392D01*
X138946032Y-83392611D01*
X138874604Y-83428325D01*
X138863777Y-83438989D01*
X138850239Y-83445887D01*
X138814525Y-83481601D01*
X138807626Y-83495140D01*
X138796964Y-83505966D01*
X138761249Y-83577394D01*
X138759692Y-83587724D01*
X138754150Y-83596583D01*
X138718436Y-83739440D01*
X138719242Y-83751080D01*
X138715637Y-83762178D01*
X138715637Y-83940750D01*
X138608494Y-83940750D01*
X138608494Y-83275571D01*
X141224566Y-83275571D01*
X141224566Y-84427357D01*
G37*
G36*
X140929923Y-93884771D02*
G01*
X140760091Y-93884771D01*
X140722062Y-93865757D01*
X140707866Y-93851560D01*
X140688852Y-93813532D01*
X140688852Y-93750652D01*
X140707866Y-93712623D01*
X140722061Y-93698428D01*
X140760091Y-93679414D01*
X140929923Y-93679414D01*
X140929923Y-93884771D01*
G37*
G36*
X141224566Y-94536557D02*
G01*
X138577368Y-94536557D01*
X138577368Y-94114634D01*
X138684511Y-94114634D01*
X138718568Y-94161509D01*
X138773673Y-94179414D01*
X138787066Y-94179414D01*
X138787066Y-94335664D01*
X138804971Y-94390769D01*
X138851846Y-94424826D01*
X138909786Y-94424826D01*
X138956661Y-94390769D01*
X138974566Y-94335664D01*
X138974566Y-94314615D01*
X139431077Y-94314615D01*
X139437818Y-94327846D01*
X139440142Y-94342513D01*
X139450641Y-94353012D01*
X139457382Y-94366241D01*
X139493096Y-94401955D01*
X139506323Y-94408694D01*
X139516825Y-94419196D01*
X139524296Y-94420379D01*
X139530417Y-94424826D01*
X139537983Y-94424826D01*
X139544721Y-94428259D01*
X139559384Y-94425936D01*
X139574052Y-94428260D01*
X139580792Y-94424826D01*
X139588357Y-94424826D01*
X139594477Y-94420379D01*
X139601949Y-94419196D01*
X139612449Y-94408695D01*
X139625678Y-94401955D01*
X139661392Y-94366241D01*
X139662211Y-94364634D01*
X139791654Y-94364634D01*
X139825711Y-94411509D01*
X139880816Y-94429414D01*
X140309387Y-94429414D01*
X140364492Y-94411509D01*
X140398549Y-94364634D01*
X140398549Y-94306694D01*
X140364492Y-94259819D01*
X140309387Y-94241914D01*
X140188852Y-94241914D01*
X140188852Y-93841015D01*
X140196032Y-93848087D01*
X140267459Y-93883802D01*
X140324754Y-93892432D01*
X140376179Y-93865737D01*
X140391216Y-93835664D01*
X140501352Y-93835664D01*
X140508029Y-93856216D01*
X140511249Y-93877590D01*
X140546963Y-93949018D01*
X140557626Y-93959844D01*
X140564524Y-93973382D01*
X140600238Y-94009097D01*
X140613775Y-94015995D01*
X140624604Y-94026660D01*
X140696033Y-94062374D01*
X140717406Y-94065592D01*
X140737959Y-94072271D01*
X140929923Y-94072271D01*
X140929923Y-94335664D01*
X140947828Y-94390769D01*
X140994703Y-94424826D01*
X141052643Y-94424826D01*
X141099518Y-94390769D01*
X141117423Y-94335664D01*
X141117423Y-93585664D01*
X141112835Y-93571543D01*
X141112835Y-93556694D01*
X141104106Y-93544680D01*
X141099518Y-93530559D01*
X141087505Y-93521831D01*
X141078778Y-93509819D01*
X141064656Y-93505230D01*
X141052643Y-93496502D01*
X141037793Y-93496502D01*
X141023673Y-93491914D01*
X140737959Y-93491914D01*
X140717406Y-93498592D01*
X140696033Y-93501811D01*
X140624604Y-93537525D01*
X140613776Y-93548189D01*
X140600239Y-93555087D01*
X140564525Y-93590801D01*
X140557627Y-93604338D01*
X140546963Y-93615166D01*
X140511249Y-93686595D01*
X140508030Y-93707966D01*
X140501352Y-93728521D01*
X140501352Y-93835664D01*
X140391216Y-93835664D01*
X140402091Y-93813914D01*
X140392593Y-93756757D01*
X140351314Y-93716098D01*
X140293494Y-93687187D01*
X140239384Y-93633078D01*
X140173107Y-93533661D01*
X140171557Y-93532436D01*
X140170947Y-93530559D01*
X140148957Y-93514582D01*
X140127642Y-93497743D01*
X140125670Y-93497663D01*
X140124072Y-93496502D01*
X140096886Y-93496502D01*
X140069749Y-93495407D01*
X140068106Y-93496502D01*
X140066132Y-93496502D01*
X140044153Y-93512470D01*
X140021540Y-93527546D01*
X140020854Y-93529398D01*
X140019257Y-93530559D01*
X140010861Y-93556398D01*
X140001428Y-93581885D01*
X140001962Y-93583786D01*
X140001352Y-93585664D01*
X140001352Y-94241914D01*
X139880816Y-94241914D01*
X139825711Y-94259819D01*
X139791654Y-94306694D01*
X139791654Y-94364634D01*
X139662211Y-94364634D01*
X139668131Y-94353013D01*
X139678632Y-94342513D01*
X139680955Y-94327845D01*
X139687696Y-94314616D01*
X139685373Y-94299952D01*
X139687697Y-94285286D01*
X139680955Y-94272055D01*
X139678633Y-94257388D01*
X139668132Y-94246887D01*
X139661393Y-94233660D01*
X139625679Y-94197945D01*
X139612450Y-94191204D01*
X139601948Y-94180702D01*
X139594476Y-94179518D01*
X139588357Y-94175073D01*
X139580791Y-94175073D01*
X139574054Y-94171640D01*
X139559387Y-94173962D01*
X139544720Y-94171640D01*
X139537983Y-94175073D01*
X139530417Y-94175073D01*
X139524297Y-94179518D01*
X139516826Y-94180702D01*
X139506323Y-94191204D01*
X139493095Y-94197945D01*
X139457381Y-94233660D01*
X139450641Y-94246887D01*
X139440141Y-94257388D01*
X139437817Y-94272056D01*
X139431077Y-94285286D01*
X139433399Y-94299949D01*
X139431077Y-94314615D01*
X138974566Y-94314615D01*
X138974566Y-94179414D01*
X139237958Y-94179414D01*
X139238312Y-94179298D01*
X139238670Y-94179412D01*
X139265907Y-94170332D01*
X139293063Y-94161509D01*
X139293282Y-94161207D01*
X139293637Y-94161089D01*
X139310300Y-94137784D01*
X139327120Y-94114634D01*
X139327120Y-94114260D01*
X139327337Y-94113957D01*
X139327120Y-94085382D01*
X139327120Y-94056694D01*
X139326899Y-94056390D01*
X139326897Y-94056018D01*
X139148326Y-93520304D01*
X139113914Y-93473689D01*
X139058675Y-93456202D01*
X139003708Y-93474525D01*
X138970008Y-93521657D01*
X138970448Y-93579596D01*
X139107887Y-93991914D01*
X138974566Y-93991914D01*
X138974566Y-93835664D01*
X138956661Y-93780559D01*
X138909786Y-93746502D01*
X138851846Y-93746502D01*
X138804971Y-93780559D01*
X138787066Y-93835664D01*
X138787066Y-93991914D01*
X138773673Y-93991914D01*
X138718568Y-94009819D01*
X138684511Y-94056694D01*
X138684511Y-94114634D01*
X138577368Y-94114634D01*
X138577368Y-93349059D01*
X141224566Y-93349059D01*
X141224566Y-94536557D01*
G37*
G36*
X140929923Y-101555571D02*
G01*
X140760091Y-101555571D01*
X140722062Y-101536557D01*
X140707866Y-101522360D01*
X140688852Y-101484331D01*
X140688852Y-101421452D01*
X140707866Y-101383423D01*
X140722061Y-101369228D01*
X140760091Y-101350214D01*
X140929923Y-101350214D01*
X140929923Y-101555571D01*
G37*
G36*
X141224566Y-102207357D02*
G01*
X138575111Y-102207357D01*
X138575111Y-101235691D01*
X138682254Y-101235691D01*
X138684511Y-101260502D01*
X138684511Y-101285434D01*
X138687103Y-101289002D01*
X138687503Y-101293394D01*
X139008931Y-102043393D01*
X139047095Y-102086990D01*
X139103596Y-102099828D01*
X139156851Y-102077005D01*
X139186520Y-102027236D01*
X139182716Y-101985415D01*
X139431077Y-101985415D01*
X139437818Y-101998646D01*
X139440142Y-102013313D01*
X139450641Y-102023812D01*
X139457382Y-102037041D01*
X139493096Y-102072755D01*
X139506323Y-102079494D01*
X139516825Y-102089996D01*
X139524296Y-102091179D01*
X139530417Y-102095626D01*
X139537983Y-102095626D01*
X139544721Y-102099059D01*
X139559384Y-102096736D01*
X139574052Y-102099060D01*
X139580792Y-102095626D01*
X139588357Y-102095626D01*
X139594477Y-102091179D01*
X139601949Y-102089996D01*
X139612449Y-102079495D01*
X139625678Y-102072755D01*
X139661392Y-102037041D01*
X139662211Y-102035434D01*
X139791654Y-102035434D01*
X139825711Y-102082309D01*
X139880816Y-102100214D01*
X140309387Y-102100214D01*
X140364492Y-102082309D01*
X140398549Y-102035434D01*
X140398549Y-101977494D01*
X140364492Y-101930619D01*
X140309387Y-101912714D01*
X140188852Y-101912714D01*
X140188852Y-101511815D01*
X140196032Y-101518887D01*
X140267459Y-101554602D01*
X140324754Y-101563232D01*
X140376179Y-101536537D01*
X140391216Y-101506464D01*
X140501352Y-101506464D01*
X140508029Y-101527016D01*
X140511249Y-101548390D01*
X140546963Y-101619818D01*
X140557626Y-101630644D01*
X140564524Y-101644182D01*
X140600238Y-101679897D01*
X140613775Y-101686795D01*
X140624604Y-101697460D01*
X140696033Y-101733174D01*
X140717406Y-101736392D01*
X140737959Y-101743071D01*
X140929923Y-101743071D01*
X140929923Y-102006464D01*
X140947828Y-102061569D01*
X140994703Y-102095626D01*
X141052643Y-102095626D01*
X141099518Y-102061569D01*
X141117423Y-102006464D01*
X141117423Y-101256464D01*
X141112835Y-101242343D01*
X141112835Y-101227494D01*
X141104106Y-101215480D01*
X141099518Y-101201359D01*
X141087505Y-101192631D01*
X141078778Y-101180619D01*
X141064656Y-101176030D01*
X141052643Y-101167302D01*
X141037793Y-101167302D01*
X141023673Y-101162714D01*
X140737959Y-101162714D01*
X140717406Y-101169392D01*
X140696033Y-101172611D01*
X140624604Y-101208325D01*
X140613776Y-101218989D01*
X140600239Y-101225887D01*
X140564525Y-101261601D01*
X140557627Y-101275138D01*
X140546963Y-101285966D01*
X140511249Y-101357395D01*
X140508030Y-101378766D01*
X140501352Y-101399321D01*
X140501352Y-101506464D01*
X140391216Y-101506464D01*
X140402091Y-101484714D01*
X140392593Y-101427557D01*
X140351314Y-101386898D01*
X140293494Y-101357987D01*
X140239384Y-101303878D01*
X140173107Y-101204461D01*
X140171557Y-101203236D01*
X140170947Y-101201359D01*
X140148957Y-101185382D01*
X140127642Y-101168543D01*
X140125670Y-101168463D01*
X140124072Y-101167302D01*
X140096886Y-101167302D01*
X140069749Y-101166207D01*
X140068106Y-101167302D01*
X140066132Y-101167302D01*
X140044153Y-101183270D01*
X140021540Y-101198346D01*
X140020854Y-101200198D01*
X140019257Y-101201359D01*
X140010861Y-101227198D01*
X140001428Y-101252685D01*
X140001962Y-101254586D01*
X140001352Y-101256464D01*
X140001352Y-101912714D01*
X139880816Y-101912714D01*
X139825711Y-101930619D01*
X139791654Y-101977494D01*
X139791654Y-102035434D01*
X139662211Y-102035434D01*
X139668131Y-102023813D01*
X139678632Y-102013313D01*
X139680955Y-101998645D01*
X139687696Y-101985416D01*
X139685373Y-101970752D01*
X139687697Y-101956086D01*
X139680955Y-101942855D01*
X139678633Y-101928188D01*
X139668132Y-101917687D01*
X139661393Y-101904460D01*
X139625679Y-101868745D01*
X139612450Y-101862004D01*
X139601948Y-101851502D01*
X139594476Y-101850318D01*
X139588357Y-101845873D01*
X139580791Y-101845873D01*
X139574054Y-101842440D01*
X139559387Y-101844762D01*
X139544720Y-101842440D01*
X139537983Y-101845873D01*
X139530417Y-101845873D01*
X139524297Y-101850318D01*
X139516826Y-101851502D01*
X139506323Y-101862004D01*
X139493095Y-101868745D01*
X139457381Y-101904460D01*
X139450641Y-101917687D01*
X139440141Y-101928188D01*
X139437817Y-101942856D01*
X139431077Y-101956086D01*
X139433399Y-101970749D01*
X139431077Y-101985415D01*
X139182716Y-101985415D01*
X139181271Y-101969534D01*
X138915849Y-101350214D01*
X139273673Y-101350214D01*
X139328778Y-101332309D01*
X139362835Y-101285434D01*
X139362835Y-101227494D01*
X139328778Y-101180619D01*
X139273673Y-101162714D01*
X138773673Y-101162714D01*
X138769479Y-101164076D01*
X138765178Y-101163099D01*
X138742262Y-101172919D01*
X138718568Y-101180619D01*
X138715976Y-101184185D01*
X138711923Y-101185923D01*
X138699162Y-101207328D01*
X138684511Y-101227494D01*
X138684511Y-101231905D01*
X138682254Y-101235691D01*
X138575111Y-101235691D01*
X138575111Y-101055571D01*
X141224566Y-101055571D01*
X141224566Y-102207357D01*
G37*
G36*
X143692171Y-88883052D02*
G01*
X143673157Y-88921080D01*
X143658960Y-88935276D01*
X143620932Y-88954291D01*
X143558053Y-88954291D01*
X143520023Y-88935276D01*
X143505828Y-88921081D01*
X143486814Y-88883052D01*
X143486814Y-88713220D01*
X143692171Y-88713220D01*
X143692171Y-88883052D01*
G37*
G36*
X146382484Y-87707923D02*
G01*
X146431102Y-87732232D01*
X146445300Y-87746431D01*
X146464314Y-87784457D01*
X146464314Y-87811623D01*
X146445300Y-87849649D01*
X146431102Y-87863848D01*
X146382484Y-87888157D01*
X146260808Y-87918576D01*
X146105320Y-87918576D01*
X145983642Y-87888156D01*
X145935024Y-87863848D01*
X145920828Y-87849651D01*
X145901814Y-87811622D01*
X145901814Y-87784458D01*
X145920828Y-87746429D01*
X145935024Y-87732232D01*
X145983642Y-87707924D01*
X146105320Y-87677505D01*
X146260808Y-87677505D01*
X146382484Y-87707923D01*
G37*
G36*
X145195492Y-87596979D02*
G01*
X145237800Y-87639287D01*
X145256814Y-87677314D01*
X145256814Y-87775908D01*
X145237800Y-87813934D01*
X145195491Y-87856244D01*
X145089022Y-87882862D01*
X144862106Y-87882862D01*
X144755636Y-87856244D01*
X144713327Y-87813934D01*
X144694314Y-87775908D01*
X144694314Y-87677315D01*
X144713328Y-87639286D01*
X144755635Y-87596979D01*
X144862106Y-87570362D01*
X145089022Y-87570362D01*
X145195492Y-87596979D01*
G37*
G36*
X143967484Y-87350781D02*
G01*
X144016102Y-87375090D01*
X144030300Y-87389289D01*
X144049314Y-87427316D01*
X144049314Y-87454481D01*
X144030300Y-87492507D01*
X144016102Y-87506706D01*
X143967484Y-87531015D01*
X143845808Y-87561434D01*
X143690320Y-87561434D01*
X143568642Y-87531014D01*
X143520024Y-87506706D01*
X143505828Y-87492509D01*
X143486814Y-87454481D01*
X143486814Y-87427316D01*
X143505828Y-87389287D01*
X143520024Y-87375090D01*
X143568642Y-87350782D01*
X143690320Y-87320363D01*
X143845808Y-87320363D01*
X143967484Y-87350781D01*
G37*
G36*
X144899671Y-85847336D02*
G01*
X144880657Y-85885364D01*
X144866460Y-85899560D01*
X144828432Y-85918575D01*
X144765553Y-85918575D01*
X144727523Y-85899560D01*
X144713328Y-85885365D01*
X144694314Y-85847336D01*
X144694314Y-85677504D01*
X144899671Y-85677504D01*
X144899671Y-85847336D01*
G37*
G36*
X143692171Y-85347337D02*
G01*
X143673157Y-85385365D01*
X143658960Y-85399561D01*
X143620932Y-85418576D01*
X143558053Y-85418576D01*
X143520023Y-85399561D01*
X143505828Y-85385366D01*
X143486814Y-85347337D01*
X143486814Y-85177505D01*
X143692171Y-85177505D01*
X143692171Y-85347337D01*
G37*
G36*
X146758957Y-92356075D02*
G01*
X143156459Y-92356075D01*
X143156459Y-92048039D01*
X144506814Y-92048039D01*
X144511509Y-92062490D01*
X144511625Y-92077685D01*
X144547339Y-92184829D01*
X144581751Y-92231444D01*
X144636990Y-92248930D01*
X144691957Y-92230608D01*
X144725657Y-92183476D01*
X144725217Y-92125536D01*
X144694314Y-92032826D01*
X144694314Y-91891599D01*
X144713328Y-91853570D01*
X144727523Y-91839375D01*
X144765553Y-91820361D01*
X144792718Y-91820361D01*
X144830746Y-91839375D01*
X144844943Y-91853572D01*
X144869251Y-91902186D01*
X144902470Y-92035063D01*
X144908012Y-92043919D01*
X144909568Y-92054251D01*
X144945282Y-92125680D01*
X144955946Y-92136508D01*
X144962845Y-92150046D01*
X144998560Y-92185760D01*
X145012097Y-92192657D01*
X145022924Y-92203321D01*
X145094352Y-92239035D01*
X145115725Y-92242253D01*
X145136278Y-92248932D01*
X145207707Y-92248932D01*
X145228259Y-92242254D01*
X145249633Y-92239035D01*
X145321061Y-92203321D01*
X145331887Y-92192657D01*
X145345425Y-92185760D01*
X145381140Y-92150046D01*
X145388038Y-92136508D01*
X145398703Y-92125680D01*
X145434417Y-92054251D01*
X145437635Y-92032877D01*
X145444314Y-92012325D01*
X145444314Y-91833754D01*
X145439618Y-91819302D01*
X145439503Y-91804108D01*
X145403789Y-91696965D01*
X145369377Y-91650350D01*
X145314138Y-91632863D01*
X145259171Y-91651185D01*
X145225471Y-91698318D01*
X145225911Y-91756257D01*
X145256814Y-91848967D01*
X145256814Y-91990193D01*
X145237800Y-92028221D01*
X145223603Y-92042417D01*
X145185575Y-92061432D01*
X145158410Y-92061432D01*
X145120381Y-92042417D01*
X145106184Y-92028221D01*
X145081875Y-91979602D01*
X145048658Y-91846730D01*
X145043114Y-91837871D01*
X145041559Y-91827541D01*
X145005844Y-91756112D01*
X144995180Y-91745285D01*
X144988283Y-91731748D01*
X144952569Y-91696034D01*
X144939030Y-91689135D01*
X144928204Y-91678472D01*
X144856776Y-91642758D01*
X144835402Y-91639538D01*
X144814850Y-91632861D01*
X144743421Y-91632861D01*
X144722868Y-91639539D01*
X144701495Y-91642758D01*
X144630066Y-91678472D01*
X144619238Y-91689136D01*
X144605701Y-91696034D01*
X144569987Y-91731748D01*
X144563089Y-91745285D01*
X144552425Y-91756113D01*
X144516711Y-91827542D01*
X144513492Y-91848913D01*
X144506814Y-91869468D01*
X144506814Y-92048039D01*
X143156459Y-92048039D01*
X143156459Y-91716252D01*
X143302807Y-91716252D01*
X143303902Y-91717894D01*
X143303902Y-91719869D01*
X143319870Y-91741847D01*
X143334946Y-91764461D01*
X143336798Y-91765146D01*
X143337959Y-91766744D01*
X143363798Y-91775139D01*
X143389285Y-91784573D01*
X143391186Y-91784038D01*
X143393064Y-91784649D01*
X144049314Y-91784649D01*
X144049314Y-91905185D01*
X144067219Y-91960290D01*
X144114094Y-91994347D01*
X144172034Y-91994347D01*
X144218909Y-91960290D01*
X144236814Y-91905185D01*
X144236814Y-91476614D01*
X144223017Y-91434152D01*
X144511402Y-91434152D01*
X144545459Y-91481027D01*
X144600564Y-91498932D01*
X145207707Y-91498932D01*
X145228259Y-91492254D01*
X145249633Y-91489035D01*
X145321061Y-91453321D01*
X145331887Y-91442657D01*
X145345425Y-91435760D01*
X145381140Y-91400046D01*
X145388038Y-91386508D01*
X145398703Y-91375680D01*
X145434417Y-91304251D01*
X145437635Y-91282877D01*
X145444314Y-91262325D01*
X145444314Y-91119468D01*
X145437635Y-91098915D01*
X145434417Y-91077542D01*
X145398703Y-91006114D01*
X145388040Y-90995288D01*
X145381142Y-90981749D01*
X145345426Y-90946034D01*
X145331887Y-90939135D01*
X145321061Y-90928472D01*
X145249633Y-90892758D01*
X145228259Y-90889538D01*
X145207707Y-90882861D01*
X144600564Y-90882861D01*
X144545459Y-90900766D01*
X144511402Y-90947641D01*
X144511402Y-91005581D01*
X144545459Y-91052456D01*
X144600564Y-91070361D01*
X145185575Y-91070361D01*
X145223602Y-91089374D01*
X145237800Y-91103573D01*
X145256814Y-91141599D01*
X145256814Y-91240193D01*
X145237800Y-91278221D01*
X145223603Y-91292417D01*
X145185575Y-91311432D01*
X144600564Y-91311432D01*
X144545459Y-91329337D01*
X144511402Y-91376212D01*
X144511402Y-91434152D01*
X144223017Y-91434152D01*
X144218909Y-91421509D01*
X144172034Y-91387452D01*
X144114094Y-91387452D01*
X144067219Y-91421509D01*
X144049314Y-91476614D01*
X144049314Y-91597149D01*
X143648415Y-91597149D01*
X143655487Y-91589969D01*
X143691202Y-91518542D01*
X143699832Y-91461247D01*
X143673137Y-91409822D01*
X143621314Y-91383910D01*
X143564157Y-91393408D01*
X143523498Y-91434687D01*
X143494587Y-91492506D01*
X143440478Y-91546616D01*
X143341061Y-91612894D01*
X143339836Y-91614443D01*
X143337959Y-91615054D01*
X143321982Y-91637043D01*
X143305143Y-91658359D01*
X143305063Y-91660330D01*
X143303902Y-91661929D01*
X143303902Y-91689114D01*
X143302807Y-91716252D01*
X143156459Y-91716252D01*
X143156459Y-91001966D01*
X143302807Y-91001966D01*
X143303902Y-91003608D01*
X143303902Y-91005583D01*
X143319870Y-91027561D01*
X143334946Y-91050175D01*
X143336798Y-91050860D01*
X143337959Y-91052458D01*
X143363798Y-91060853D01*
X143389285Y-91070287D01*
X143391186Y-91069752D01*
X143393064Y-91070363D01*
X144049314Y-91070363D01*
X144049314Y-91190899D01*
X144067219Y-91246004D01*
X144114094Y-91280061D01*
X144172034Y-91280061D01*
X144218909Y-91246004D01*
X144236814Y-91190899D01*
X144236814Y-90762328D01*
X144218909Y-90707223D01*
X144172034Y-90673166D01*
X144114094Y-90673166D01*
X144067219Y-90707223D01*
X144049314Y-90762328D01*
X144049314Y-90882863D01*
X143648415Y-90882863D01*
X143655487Y-90875683D01*
X143691202Y-90804256D01*
X143699832Y-90746961D01*
X143673137Y-90695536D01*
X143621314Y-90669624D01*
X143564157Y-90679122D01*
X143523498Y-90720401D01*
X143494587Y-90778220D01*
X143440478Y-90832330D01*
X143341061Y-90898608D01*
X143339836Y-90900157D01*
X143337959Y-90900768D01*
X143321982Y-90922757D01*
X143305143Y-90944073D01*
X143305063Y-90946044D01*
X143303902Y-90947643D01*
X143303902Y-90974828D01*
X143302807Y-91001966D01*
X143156459Y-91001966D01*
X143156459Y-90287680D01*
X143302807Y-90287680D01*
X143303902Y-90289322D01*
X143303902Y-90291297D01*
X143319870Y-90313275D01*
X143334946Y-90335889D01*
X143336798Y-90336574D01*
X143337959Y-90338172D01*
X143363798Y-90346567D01*
X143389285Y-90356001D01*
X143391186Y-90355466D01*
X143393064Y-90356077D01*
X144049314Y-90356077D01*
X144049314Y-90476613D01*
X144067219Y-90531718D01*
X144114094Y-90565775D01*
X144172034Y-90565775D01*
X144218909Y-90531718D01*
X144236814Y-90476613D01*
X144236814Y-90171813D01*
X144508777Y-90171813D01*
X144511402Y-90195761D01*
X144511402Y-90219867D01*
X144514513Y-90224149D01*
X144515090Y-90229409D01*
X144531292Y-90247244D01*
X144545459Y-90266742D01*
X144550491Y-90268377D01*
X144554051Y-90272295D01*
X144997542Y-90525718D01*
X144600564Y-90525718D01*
X144545459Y-90543623D01*
X144511402Y-90590498D01*
X144511402Y-90648438D01*
X144545459Y-90695313D01*
X144600564Y-90713218D01*
X145350564Y-90713218D01*
X145355597Y-90711582D01*
X145360779Y-90712660D01*
X145382753Y-90702758D01*
X145405669Y-90695313D01*
X145408779Y-90691032D01*
X145413605Y-90688858D01*
X145425562Y-90667932D01*
X145439726Y-90648438D01*
X145439726Y-90643145D01*
X145442351Y-90638552D01*
X145439726Y-90614603D01*
X145439726Y-90590498D01*
X145436614Y-90586215D01*
X145436038Y-90580956D01*
X145419835Y-90563120D01*
X145405669Y-90543623D01*
X145400636Y-90541987D01*
X145397077Y-90538070D01*
X144953586Y-90284647D01*
X145350564Y-90284647D01*
X145405669Y-90266742D01*
X145439726Y-90219867D01*
X145439726Y-90161927D01*
X145405669Y-90115052D01*
X145350564Y-90097147D01*
X144600564Y-90097147D01*
X144595530Y-90098782D01*
X144590349Y-90097705D01*
X144568374Y-90107606D01*
X144545459Y-90115052D01*
X144542348Y-90119332D01*
X144537523Y-90121507D01*
X144525565Y-90142432D01*
X144511402Y-90161927D01*
X144511402Y-90167219D01*
X144508777Y-90171813D01*
X144236814Y-90171813D01*
X144236814Y-90048042D01*
X144218909Y-89992937D01*
X144172034Y-89958880D01*
X144114094Y-89958880D01*
X144067219Y-89992937D01*
X144049314Y-90048042D01*
X144049314Y-90168577D01*
X143648415Y-90168577D01*
X143655487Y-90161397D01*
X143691202Y-90089970D01*
X143699832Y-90032675D01*
X143673137Y-89981250D01*
X143621314Y-89955338D01*
X143564157Y-89964836D01*
X143523498Y-90006115D01*
X143494587Y-90063934D01*
X143440478Y-90118044D01*
X143341061Y-90184322D01*
X143339836Y-90185871D01*
X143337959Y-90186482D01*
X143321982Y-90208471D01*
X143305143Y-90229787D01*
X143305063Y-90231758D01*
X143303902Y-90233357D01*
X143303902Y-90260542D01*
X143302807Y-90287680D01*
X143156459Y-90287680D01*
X143156459Y-89862724D01*
X144511402Y-89862724D01*
X144545459Y-89909599D01*
X144600564Y-89927504D01*
X145350564Y-89927504D01*
X145405669Y-89909599D01*
X145439726Y-89862724D01*
X145439726Y-89804784D01*
X145405669Y-89757909D01*
X145350564Y-89740004D01*
X144600564Y-89740004D01*
X144545459Y-89757909D01*
X144511402Y-89804784D01*
X144511402Y-89862724D01*
X143156459Y-89862724D01*
X143156459Y-89619470D01*
X143299314Y-89619470D01*
X143305992Y-89640024D01*
X143309211Y-89661396D01*
X143344925Y-89732825D01*
X143355589Y-89743652D01*
X143362487Y-89757190D01*
X143398201Y-89792904D01*
X143411738Y-89799801D01*
X143422566Y-89810466D01*
X143493995Y-89846180D01*
X143515368Y-89849398D01*
X143535921Y-89856077D01*
X143607350Y-89856077D01*
X143621801Y-89851381D01*
X143636996Y-89851266D01*
X143744139Y-89815552D01*
X143761528Y-89802714D01*
X143780783Y-89792904D01*
X144049314Y-89524372D01*
X144049314Y-89762327D01*
X144067219Y-89817432D01*
X144114094Y-89851489D01*
X144172034Y-89851489D01*
X144218909Y-89817432D01*
X144236814Y-89762327D01*
X144236814Y-89405183D01*
X144506814Y-89405183D01*
X144513491Y-89425735D01*
X144516711Y-89447109D01*
X144552425Y-89518537D01*
X144593084Y-89559817D01*
X144650241Y-89569316D01*
X144702064Y-89543404D01*
X144728760Y-89491980D01*
X144720131Y-89434685D01*
X144694314Y-89383051D01*
X144694314Y-89313252D01*
X144718218Y-89241538D01*
X144763239Y-89196518D01*
X144811856Y-89172209D01*
X144933534Y-89141790D01*
X145017593Y-89141790D01*
X145139269Y-89172208D01*
X145187889Y-89196518D01*
X145232909Y-89241538D01*
X145256814Y-89313253D01*
X145256814Y-89354254D01*
X145235374Y-89418575D01*
X145122885Y-89418575D01*
X145122885Y-89369468D01*
X145104980Y-89314363D01*
X145058105Y-89280306D01*
X145000165Y-89280306D01*
X144953290Y-89314363D01*
X144935385Y-89369468D01*
X144935385Y-89512325D01*
X144939973Y-89526445D01*
X144939973Y-89541295D01*
X144948701Y-89553308D01*
X144953290Y-89567430D01*
X144965302Y-89576157D01*
X144974030Y-89588170D01*
X144988151Y-89592758D01*
X145000165Y-89601487D01*
X145015015Y-89601487D01*
X145029135Y-89606075D01*
X145279135Y-89606075D01*
X145286328Y-89603737D01*
X145293799Y-89604921D01*
X145313360Y-89594954D01*
X145334240Y-89588170D01*
X145338686Y-89582050D01*
X145345425Y-89578617D01*
X145381140Y-89542903D01*
X145390952Y-89523645D01*
X145403789Y-89506257D01*
X145439503Y-89399114D01*
X145439618Y-89383919D01*
X145444314Y-89369468D01*
X145444314Y-89298040D01*
X145439618Y-89283588D01*
X145439503Y-89268394D01*
X145413909Y-89191610D01*
X145678602Y-89191610D01*
X145696925Y-89246577D01*
X145744057Y-89280277D01*
X145801996Y-89279837D01*
X146214314Y-89142397D01*
X146214314Y-89275720D01*
X146058064Y-89275720D01*
X146002959Y-89293625D01*
X145968902Y-89340500D01*
X145968902Y-89398440D01*
X146002959Y-89445315D01*
X146058064Y-89463220D01*
X146214314Y-89463220D01*
X146214314Y-89476612D01*
X146232219Y-89531717D01*
X146279094Y-89565774D01*
X146337034Y-89565774D01*
X146383909Y-89531717D01*
X146401814Y-89476612D01*
X146401814Y-89463220D01*
X146558064Y-89463220D01*
X146613169Y-89445315D01*
X146647226Y-89398440D01*
X146647226Y-89340500D01*
X146613169Y-89293625D01*
X146558064Y-89275720D01*
X146401814Y-89275720D01*
X146401814Y-89012327D01*
X146401698Y-89011972D01*
X146401812Y-89011615D01*
X146392732Y-88984377D01*
X146383909Y-88957222D01*
X146383607Y-88957002D01*
X146383489Y-88956648D01*
X146360184Y-88939984D01*
X146337034Y-88923165D01*
X146336660Y-88923165D01*
X146336357Y-88922948D01*
X146307783Y-88923165D01*
X146279094Y-88923165D01*
X146278790Y-88923385D01*
X146278418Y-88923388D01*
X145742704Y-89101959D01*
X145696089Y-89136371D01*
X145678602Y-89191610D01*
X145413909Y-89191610D01*
X145403789Y-89161251D01*
X145390953Y-89143863D01*
X145381141Y-89124606D01*
X145309712Y-89053177D01*
X145296174Y-89046279D01*
X145285347Y-89035615D01*
X145213918Y-88999901D01*
X145203586Y-88998345D01*
X145194730Y-88992803D01*
X145051873Y-88957089D01*
X145040232Y-88957895D01*
X145029135Y-88954290D01*
X144921992Y-88954290D01*
X144910894Y-88957895D01*
X144899255Y-88957089D01*
X144756397Y-88992803D01*
X144747540Y-88998345D01*
X144737209Y-88999901D01*
X144665781Y-89035615D01*
X144654954Y-89046278D01*
X144641416Y-89053177D01*
X144569987Y-89124606D01*
X144560176Y-89143860D01*
X144547339Y-89161250D01*
X144511625Y-89268394D01*
X144511509Y-89283588D01*
X144506814Y-89298040D01*
X144506814Y-89405183D01*
X144236814Y-89405183D01*
X144236814Y-89298041D01*
X144230029Y-89277161D01*
X144226596Y-89255479D01*
X144221246Y-89250129D01*
X144218909Y-89242936D01*
X144201150Y-89230033D01*
X144185626Y-89214509D01*
X144178154Y-89213325D01*
X144172034Y-89208879D01*
X144150076Y-89208879D01*
X144128398Y-89205446D01*
X144121660Y-89208879D01*
X144114094Y-89208879D01*
X144096330Y-89221785D01*
X144076773Y-89231750D01*
X143663850Y-89644672D01*
X143592137Y-89668577D01*
X143558053Y-89668577D01*
X143520023Y-89649562D01*
X143505828Y-89635367D01*
X143486814Y-89597338D01*
X143486814Y-89463030D01*
X143505828Y-89425001D01*
X143530783Y-89400047D01*
X143557087Y-89348422D01*
X143548024Y-89291194D01*
X143507054Y-89250224D01*
X143449826Y-89241161D01*
X143398201Y-89267465D01*
X143362487Y-89303179D01*
X143355589Y-89316716D01*
X143344925Y-89327544D01*
X143309211Y-89398973D01*
X143305992Y-89420344D01*
X143299314Y-89440899D01*
X143299314Y-89619470D01*
X143156459Y-89619470D01*
X143156459Y-88905184D01*
X143299314Y-88905184D01*
X143305992Y-88925738D01*
X143309211Y-88947110D01*
X143344925Y-89018539D01*
X143355589Y-89029366D01*
X143362487Y-89042904D01*
X143398201Y-89078618D01*
X143411738Y-89085515D01*
X143422566Y-89096180D01*
X143493995Y-89131894D01*
X143515368Y-89135112D01*
X143535921Y-89141791D01*
X143643064Y-89141791D01*
X143663616Y-89135113D01*
X143684990Y-89131894D01*
X143756418Y-89096180D01*
X143767244Y-89085516D01*
X143780782Y-89078619D01*
X143816497Y-89042905D01*
X143823395Y-89029367D01*
X143834060Y-89018539D01*
X143860861Y-88964935D01*
X144089302Y-89124844D01*
X144144714Y-89141777D01*
X144199496Y-89122905D01*
X144232722Y-89075439D01*
X144231702Y-89017507D01*
X144196826Y-88971238D01*
X143879671Y-88749229D01*
X143879671Y-88713220D01*
X144143064Y-88713220D01*
X144198169Y-88695315D01*
X144232226Y-88648440D01*
X144232226Y-88590500D01*
X144198169Y-88543625D01*
X144143064Y-88525720D01*
X143393064Y-88525720D01*
X143378944Y-88530308D01*
X143364094Y-88530308D01*
X143352080Y-88539036D01*
X143337959Y-88543625D01*
X143329231Y-88555637D01*
X143317219Y-88564365D01*
X143312630Y-88578486D01*
X143303902Y-88590500D01*
X143303902Y-88605349D01*
X143299314Y-88619470D01*
X143299314Y-88905184D01*
X143156459Y-88905184D01*
X143156459Y-88333756D01*
X143299314Y-88333756D01*
X143317219Y-88388861D01*
X143364094Y-88422918D01*
X143422034Y-88422918D01*
X143468909Y-88388861D01*
X143486814Y-88333756D01*
X143486814Y-88070363D01*
X143656457Y-88070363D01*
X143656457Y-88226613D01*
X143674362Y-88281718D01*
X143721237Y-88315775D01*
X143779177Y-88315775D01*
X143826052Y-88281718D01*
X143826949Y-88278956D01*
X144508777Y-88278956D01*
X144511402Y-88302904D01*
X144511402Y-88327010D01*
X144514513Y-88331292D01*
X144515090Y-88336552D01*
X144531292Y-88354387D01*
X144545459Y-88373885D01*
X144550491Y-88375520D01*
X144554051Y-88379438D01*
X144997542Y-88632861D01*
X144600564Y-88632861D01*
X144545459Y-88650766D01*
X144511402Y-88697641D01*
X144511402Y-88755581D01*
X144545459Y-88802456D01*
X144600564Y-88820361D01*
X145350564Y-88820361D01*
X145355597Y-88818725D01*
X145360779Y-88819803D01*
X145382753Y-88809901D01*
X145405669Y-88802456D01*
X145408779Y-88798175D01*
X145413605Y-88796001D01*
X145425562Y-88775075D01*
X145439726Y-88755581D01*
X145439726Y-88750288D01*
X145442351Y-88745695D01*
X145439726Y-88721746D01*
X145439726Y-88697641D01*
X145436614Y-88693358D01*
X145436038Y-88688099D01*
X145419835Y-88670263D01*
X145405669Y-88650766D01*
X145400636Y-88649130D01*
X145397077Y-88645213D01*
X145289525Y-88583755D01*
X145714314Y-88583755D01*
X145720992Y-88604309D01*
X145724211Y-88625681D01*
X145759925Y-88697110D01*
X145770589Y-88707937D01*
X145777487Y-88721475D01*
X145813201Y-88757189D01*
X145826738Y-88764086D01*
X145837566Y-88774751D01*
X145908995Y-88810465D01*
X145930368Y-88813683D01*
X145950921Y-88820362D01*
X146022350Y-88820362D01*
X146036801Y-88815666D01*
X146051996Y-88815551D01*
X146159139Y-88779837D01*
X146176528Y-88766999D01*
X146195783Y-88757189D01*
X146464314Y-88488658D01*
X146464314Y-88726612D01*
X146482219Y-88781717D01*
X146529094Y-88815774D01*
X146587034Y-88815774D01*
X146633909Y-88781717D01*
X146651814Y-88726612D01*
X146651814Y-88262326D01*
X146645029Y-88241446D01*
X146641596Y-88219764D01*
X146636246Y-88214414D01*
X146633909Y-88207221D01*
X146616150Y-88194318D01*
X146600626Y-88178794D01*
X146593154Y-88177610D01*
X146587034Y-88173164D01*
X146565076Y-88173164D01*
X146543398Y-88169731D01*
X146536660Y-88173164D01*
X146529094Y-88173164D01*
X146511330Y-88186070D01*
X146491773Y-88196035D01*
X146078850Y-88608957D01*
X146007137Y-88632862D01*
X145973053Y-88632862D01*
X145935023Y-88613847D01*
X145920828Y-88599652D01*
X145901814Y-88561623D01*
X145901814Y-88427315D01*
X145920828Y-88389286D01*
X145945783Y-88364332D01*
X145972087Y-88312707D01*
X145963024Y-88255479D01*
X145922054Y-88214509D01*
X145864826Y-88205446D01*
X145813201Y-88231750D01*
X145777487Y-88267464D01*
X145770589Y-88281001D01*
X145759925Y-88291829D01*
X145724211Y-88363258D01*
X145720992Y-88384629D01*
X145714314Y-88405184D01*
X145714314Y-88583755D01*
X145289525Y-88583755D01*
X144953586Y-88391790D01*
X145350564Y-88391790D01*
X145405669Y-88373885D01*
X145439726Y-88327010D01*
X145439726Y-88269070D01*
X145405669Y-88222195D01*
X145350564Y-88204290D01*
X144600564Y-88204290D01*
X144595530Y-88205925D01*
X144590349Y-88204848D01*
X144568374Y-88214749D01*
X144545459Y-88222195D01*
X144542348Y-88226475D01*
X144537523Y-88228650D01*
X144525565Y-88249575D01*
X144511402Y-88269070D01*
X144511402Y-88274362D01*
X144508777Y-88278956D01*
X143826949Y-88278956D01*
X143843957Y-88226613D01*
X143843957Y-88070363D01*
X144143064Y-88070363D01*
X144198169Y-88052458D01*
X144232226Y-88005583D01*
X144232226Y-87947643D01*
X144198169Y-87900768D01*
X144143064Y-87882863D01*
X143393064Y-87882863D01*
X143378944Y-87887451D01*
X143364094Y-87887451D01*
X143352080Y-87896179D01*
X143337959Y-87900768D01*
X143329231Y-87912780D01*
X143317219Y-87921508D01*
X143312630Y-87935629D01*
X143303902Y-87947643D01*
X143303902Y-87962492D01*
X143299314Y-87976613D01*
X143299314Y-88333756D01*
X143156459Y-88333756D01*
X143156459Y-87798040D01*
X144506814Y-87798040D01*
X144513492Y-87818594D01*
X144516711Y-87839966D01*
X144552425Y-87911395D01*
X144563088Y-87922221D01*
X144569987Y-87935761D01*
X144641416Y-88007189D01*
X144663738Y-88018562D01*
X144684969Y-88031848D01*
X144827826Y-88067563D01*
X144839467Y-88066756D01*
X144850564Y-88070362D01*
X145100564Y-88070362D01*
X145111660Y-88066756D01*
X145123302Y-88067563D01*
X145266159Y-88031848D01*
X145287389Y-88018562D01*
X145309712Y-88007189D01*
X145381141Y-87935761D01*
X145388039Y-87922221D01*
X145398703Y-87911395D01*
X145434417Y-87839966D01*
X145435352Y-87833755D01*
X145714314Y-87833755D01*
X145720991Y-87854307D01*
X145724211Y-87875681D01*
X145759925Y-87947109D01*
X145770588Y-87957935D01*
X145777486Y-87971473D01*
X145813200Y-88007188D01*
X145826737Y-88014086D01*
X145837566Y-88024751D01*
X145908995Y-88060465D01*
X145919326Y-88062020D01*
X145928183Y-88067563D01*
X146071041Y-88103277D01*
X146082680Y-88102470D01*
X146093778Y-88106076D01*
X146272350Y-88106076D01*
X146283447Y-88102470D01*
X146295088Y-88103277D01*
X146437945Y-88067563D01*
X146446801Y-88062021D01*
X146457133Y-88060465D01*
X146528561Y-88024751D01*
X146539387Y-88014087D01*
X146552926Y-88007189D01*
X146588642Y-87971474D01*
X146595540Y-87957934D01*
X146606203Y-87947109D01*
X146641917Y-87875681D01*
X146645135Y-87854307D01*
X146651814Y-87833755D01*
X146651814Y-87762326D01*
X146645135Y-87741773D01*
X146641917Y-87720400D01*
X146606203Y-87648972D01*
X146595540Y-87638146D01*
X146588642Y-87624607D01*
X146552926Y-87588892D01*
X146539387Y-87581993D01*
X146528561Y-87571330D01*
X146457133Y-87535616D01*
X146446801Y-87534059D01*
X146437945Y-87528518D01*
X146295088Y-87492804D01*
X146283447Y-87493610D01*
X146272350Y-87490005D01*
X146093778Y-87490005D01*
X146082680Y-87493610D01*
X146071041Y-87492804D01*
X145928183Y-87528518D01*
X145919326Y-87534060D01*
X145908995Y-87535616D01*
X145837566Y-87571330D01*
X145826737Y-87581994D01*
X145813200Y-87588893D01*
X145777486Y-87624608D01*
X145770588Y-87638145D01*
X145759925Y-87648972D01*
X145724211Y-87720400D01*
X145720991Y-87741773D01*
X145714314Y-87762326D01*
X145714314Y-87833755D01*
X145435352Y-87833755D01*
X145437635Y-87818592D01*
X145444314Y-87798040D01*
X145444314Y-87655183D01*
X145437635Y-87634630D01*
X145434417Y-87613257D01*
X145398703Y-87541829D01*
X145388039Y-87531002D01*
X145381141Y-87517464D01*
X145309712Y-87446035D01*
X145287398Y-87434665D01*
X145266159Y-87421375D01*
X145123302Y-87385661D01*
X145111661Y-87386467D01*
X145100564Y-87382862D01*
X144850564Y-87382862D01*
X144839466Y-87386467D01*
X144827827Y-87385661D01*
X144684969Y-87421375D01*
X144663729Y-87434665D01*
X144641416Y-87446035D01*
X144569987Y-87517464D01*
X144563088Y-87531002D01*
X144552425Y-87541829D01*
X144516711Y-87613257D01*
X144513491Y-87634630D01*
X144506814Y-87655183D01*
X144506814Y-87798040D01*
X143156459Y-87798040D01*
X143156459Y-87476613D01*
X143299314Y-87476613D01*
X143305991Y-87497165D01*
X143309211Y-87518539D01*
X143344925Y-87589967D01*
X143355588Y-87600793D01*
X143362486Y-87614331D01*
X143398200Y-87650046D01*
X143411737Y-87656944D01*
X143422566Y-87667609D01*
X143493995Y-87703323D01*
X143504326Y-87704878D01*
X143513183Y-87710421D01*
X143656041Y-87746135D01*
X143667680Y-87745328D01*
X143678778Y-87748934D01*
X143857350Y-87748934D01*
X143868447Y-87745328D01*
X143880088Y-87746135D01*
X144022945Y-87710421D01*
X144031801Y-87704879D01*
X144042133Y-87703323D01*
X144113561Y-87667609D01*
X144124387Y-87656945D01*
X144137926Y-87650047D01*
X144173642Y-87614332D01*
X144180540Y-87600792D01*
X144191203Y-87589967D01*
X144226917Y-87518539D01*
X144230135Y-87497165D01*
X144236814Y-87476613D01*
X144236814Y-87405184D01*
X144230135Y-87384631D01*
X144226917Y-87363258D01*
X144191203Y-87291830D01*
X144180540Y-87281004D01*
X144173642Y-87267465D01*
X144137926Y-87231750D01*
X144124387Y-87224851D01*
X144113561Y-87214188D01*
X144042133Y-87178474D01*
X144031801Y-87176917D01*
X144022945Y-87171376D01*
X143880088Y-87135662D01*
X143868447Y-87136468D01*
X143857350Y-87132863D01*
X143678778Y-87132863D01*
X143667680Y-87136468D01*
X143656041Y-87135662D01*
X143513183Y-87171376D01*
X143504326Y-87176918D01*
X143493995Y-87178474D01*
X143422566Y-87214188D01*
X143411737Y-87224852D01*
X143398200Y-87231751D01*
X143362486Y-87267466D01*
X143355588Y-87281003D01*
X143344925Y-87291830D01*
X143309211Y-87363258D01*
X143305991Y-87384631D01*
X143299314Y-87405184D01*
X143299314Y-87476613D01*
X143156459Y-87476613D01*
X143156459Y-86940898D01*
X143299314Y-86940898D01*
X143305172Y-86958928D01*
X143306886Y-86977809D01*
X143313918Y-86985846D01*
X143317219Y-86996003D01*
X143332555Y-87007145D01*
X143345040Y-87021414D01*
X143355453Y-87023782D01*
X143364094Y-87030060D01*
X143383054Y-87030060D01*
X143401538Y-87034264D01*
X143411353Y-87030060D01*
X143422034Y-87030060D01*
X143437372Y-87018915D01*
X143454799Y-87011452D01*
X143611924Y-86873966D01*
X143630639Y-86911396D01*
X143641303Y-86922224D01*
X143648202Y-86935762D01*
X143683917Y-86971476D01*
X143697454Y-86978373D01*
X143708281Y-86989037D01*
X143779709Y-87024751D01*
X143801082Y-87027969D01*
X143821635Y-87034648D01*
X144000207Y-87034648D01*
X144020759Y-87027970D01*
X144042133Y-87024751D01*
X144113561Y-86989037D01*
X144124387Y-86978373D01*
X144137925Y-86971476D01*
X144173640Y-86935762D01*
X144174460Y-86934153D01*
X144511402Y-86934153D01*
X144545459Y-86981028D01*
X144600564Y-86998933D01*
X145256814Y-86998933D01*
X145256814Y-87262326D01*
X145274719Y-87317431D01*
X145321594Y-87351488D01*
X145379534Y-87351488D01*
X145426409Y-87317431D01*
X145444314Y-87262326D01*
X145444314Y-87155183D01*
X145714314Y-87155183D01*
X145720992Y-87175737D01*
X145724211Y-87197109D01*
X145759925Y-87268538D01*
X145770589Y-87279365D01*
X145777487Y-87292903D01*
X145813201Y-87328617D01*
X145826738Y-87335514D01*
X145837566Y-87346179D01*
X145908995Y-87381893D01*
X145930368Y-87385111D01*
X145950921Y-87391790D01*
X146022350Y-87391790D01*
X146036801Y-87387094D01*
X146051996Y-87386979D01*
X146159139Y-87351265D01*
X146176528Y-87338427D01*
X146195783Y-87328617D01*
X146464314Y-87060085D01*
X146464314Y-87298040D01*
X146482219Y-87353145D01*
X146529094Y-87387202D01*
X146587034Y-87387202D01*
X146633909Y-87353145D01*
X146651814Y-87298040D01*
X146651814Y-86833754D01*
X146645029Y-86812874D01*
X146641596Y-86791192D01*
X146636246Y-86785842D01*
X146633909Y-86778649D01*
X146616150Y-86765746D01*
X146600626Y-86750222D01*
X146593154Y-86749038D01*
X146587034Y-86744592D01*
X146565076Y-86744592D01*
X146543398Y-86741159D01*
X146536660Y-86744592D01*
X146529094Y-86744592D01*
X146511330Y-86757498D01*
X146491773Y-86767463D01*
X146078850Y-87180385D01*
X146007137Y-87204290D01*
X145973053Y-87204290D01*
X145935023Y-87185275D01*
X145920828Y-87171080D01*
X145901814Y-87133051D01*
X145901814Y-86998743D01*
X145920828Y-86960714D01*
X145945783Y-86935760D01*
X145972087Y-86884135D01*
X145963024Y-86826907D01*
X145922054Y-86785937D01*
X145864826Y-86776874D01*
X145813201Y-86803178D01*
X145777487Y-86838892D01*
X145770589Y-86852429D01*
X145759925Y-86863257D01*
X145724211Y-86934686D01*
X145720992Y-86956057D01*
X145714314Y-86976612D01*
X145714314Y-87155183D01*
X145444314Y-87155183D01*
X145444314Y-86905183D01*
X145439726Y-86891062D01*
X145439726Y-86876213D01*
X145430997Y-86864199D01*
X145426409Y-86850078D01*
X145414396Y-86841350D01*
X145405669Y-86829338D01*
X145391547Y-86824749D01*
X145379534Y-86816021D01*
X145364684Y-86816021D01*
X145350564Y-86811433D01*
X144600564Y-86811433D01*
X144545459Y-86829338D01*
X144511402Y-86876213D01*
X144511402Y-86934153D01*
X144174460Y-86934153D01*
X144180538Y-86922224D01*
X144191203Y-86911396D01*
X144226917Y-86839967D01*
X144230135Y-86818593D01*
X144236814Y-86798041D01*
X144236814Y-86583755D01*
X144230135Y-86563202D01*
X144226917Y-86541829D01*
X144191203Y-86470401D01*
X144180540Y-86459575D01*
X144173642Y-86446036D01*
X144137926Y-86410321D01*
X144086300Y-86384016D01*
X144029073Y-86393080D01*
X143988103Y-86434050D01*
X143979039Y-86491277D01*
X144005344Y-86542903D01*
X144030300Y-86567860D01*
X144049314Y-86605886D01*
X144049314Y-86775909D01*
X144030300Y-86813937D01*
X144016103Y-86828133D01*
X143978075Y-86847148D01*
X143843767Y-86847148D01*
X143805738Y-86828133D01*
X143791541Y-86813937D01*
X143772528Y-86775909D01*
X143772528Y-86690898D01*
X143766669Y-86672868D01*
X143764956Y-86653986D01*
X143757922Y-86645947D01*
X143754623Y-86635793D01*
X143739287Y-86624651D01*
X143726802Y-86610382D01*
X143716387Y-86608013D01*
X143707748Y-86601736D01*
X143688789Y-86601736D01*
X143670305Y-86597532D01*
X143660489Y-86601736D01*
X143649808Y-86601736D01*
X143634469Y-86612880D01*
X143617043Y-86620344D01*
X143486814Y-86734294D01*
X143486814Y-86476612D01*
X143468909Y-86421507D01*
X143422034Y-86387450D01*
X143364094Y-86387450D01*
X143317219Y-86421507D01*
X143299314Y-86476612D01*
X143299314Y-86940898D01*
X143156459Y-86940898D01*
X143156459Y-85977324D01*
X143263602Y-85977324D01*
X143281925Y-86032291D01*
X143329057Y-86065991D01*
X143386996Y-86065551D01*
X143799314Y-85928111D01*
X143799314Y-86061434D01*
X143643064Y-86061434D01*
X143587959Y-86079339D01*
X143553902Y-86126214D01*
X143553902Y-86184154D01*
X143587959Y-86231029D01*
X143643064Y-86248934D01*
X143799314Y-86248934D01*
X143799314Y-86262326D01*
X143817219Y-86317431D01*
X143864094Y-86351488D01*
X143922034Y-86351488D01*
X143968909Y-86317431D01*
X143986814Y-86262326D01*
X143986814Y-86248934D01*
X144143064Y-86248934D01*
X144198169Y-86231029D01*
X144232226Y-86184154D01*
X144232226Y-86126214D01*
X144198169Y-86079339D01*
X144143064Y-86061434D01*
X143986814Y-86061434D01*
X143986814Y-85869468D01*
X144506814Y-85869468D01*
X144513492Y-85890022D01*
X144516711Y-85911394D01*
X144552425Y-85982823D01*
X144563089Y-85993650D01*
X144569987Y-86007188D01*
X144605701Y-86042902D01*
X144619238Y-86049799D01*
X144630066Y-86060464D01*
X144701495Y-86096178D01*
X144722868Y-86099396D01*
X144743421Y-86106075D01*
X144850564Y-86106075D01*
X144871116Y-86099397D01*
X144892490Y-86096178D01*
X144963918Y-86060464D01*
X144974744Y-86049800D01*
X144988282Y-86042903D01*
X145023997Y-86007189D01*
X145030895Y-85993651D01*
X145041560Y-85982823D01*
X145068361Y-85929219D01*
X145296802Y-86089128D01*
X145352214Y-86106061D01*
X145406996Y-86087189D01*
X145440222Y-86039723D01*
X145439740Y-86012326D01*
X145714314Y-86012326D01*
X145732219Y-86067431D01*
X145779094Y-86101488D01*
X145837034Y-86101488D01*
X145883909Y-86067431D01*
X145901814Y-86012326D01*
X145901814Y-85748933D01*
X146071457Y-85748933D01*
X146071457Y-85905183D01*
X146089362Y-85960288D01*
X146136237Y-85994345D01*
X146194177Y-85994345D01*
X146241052Y-85960288D01*
X146258957Y-85905183D01*
X146258957Y-85748933D01*
X146464314Y-85748933D01*
X146464314Y-86012326D01*
X146482219Y-86067431D01*
X146529094Y-86101488D01*
X146587034Y-86101488D01*
X146633909Y-86067431D01*
X146651814Y-86012326D01*
X146651814Y-85655183D01*
X146647226Y-85641062D01*
X146647226Y-85626213D01*
X146638497Y-85614199D01*
X146633909Y-85600078D01*
X146621896Y-85591350D01*
X146613169Y-85579338D01*
X146599047Y-85574749D01*
X146587034Y-85566021D01*
X146572184Y-85566021D01*
X146558064Y-85561433D01*
X145808064Y-85561433D01*
X145793944Y-85566021D01*
X145779094Y-85566021D01*
X145767080Y-85574749D01*
X145752959Y-85579338D01*
X145744231Y-85591350D01*
X145732219Y-85600078D01*
X145727630Y-85614199D01*
X145718902Y-85626213D01*
X145718902Y-85641062D01*
X145714314Y-85655183D01*
X145714314Y-86012326D01*
X145439740Y-86012326D01*
X145439202Y-85981791D01*
X145404326Y-85935522D01*
X145087171Y-85713513D01*
X145087171Y-85677504D01*
X145350564Y-85677504D01*
X145405669Y-85659599D01*
X145439726Y-85612724D01*
X145439726Y-85554784D01*
X145405669Y-85507909D01*
X145350564Y-85490004D01*
X144600564Y-85490004D01*
X144586444Y-85494592D01*
X144571594Y-85494592D01*
X144559580Y-85503320D01*
X144545459Y-85507909D01*
X144536731Y-85519921D01*
X144524719Y-85528649D01*
X144520130Y-85542770D01*
X144511402Y-85554784D01*
X144511402Y-85569633D01*
X144506814Y-85583754D01*
X144506814Y-85869468D01*
X143986814Y-85869468D01*
X143986814Y-85798041D01*
X143986698Y-85797686D01*
X143986812Y-85797329D01*
X143977732Y-85770091D01*
X143968909Y-85742936D01*
X143968607Y-85742716D01*
X143968489Y-85742362D01*
X143945184Y-85725698D01*
X143922034Y-85708879D01*
X143921660Y-85708879D01*
X143921357Y-85708662D01*
X143892783Y-85708879D01*
X143864094Y-85708879D01*
X143863790Y-85709099D01*
X143863418Y-85709102D01*
X143327704Y-85887673D01*
X143281089Y-85922085D01*
X143263602Y-85977324D01*
X143156459Y-85977324D01*
X143156459Y-85369469D01*
X143299314Y-85369469D01*
X143305992Y-85390023D01*
X143309211Y-85411395D01*
X143344925Y-85482824D01*
X143355589Y-85493651D01*
X143362487Y-85507189D01*
X143398201Y-85542903D01*
X143411738Y-85549800D01*
X143422566Y-85560465D01*
X143493995Y-85596179D01*
X143515368Y-85599397D01*
X143535921Y-85606076D01*
X143643064Y-85606076D01*
X143663616Y-85599398D01*
X143684990Y-85596179D01*
X143756418Y-85560465D01*
X143767244Y-85549801D01*
X143780782Y-85542904D01*
X143816497Y-85507190D01*
X143823395Y-85493652D01*
X143834060Y-85482824D01*
X143869774Y-85411395D01*
X143872992Y-85390021D01*
X143879671Y-85369469D01*
X143879671Y-85262326D01*
X144506814Y-85262326D01*
X144524719Y-85317431D01*
X144571594Y-85351488D01*
X144629534Y-85351488D01*
X144676409Y-85317431D01*
X144694314Y-85262326D01*
X144694314Y-84998933D01*
X144863957Y-84998933D01*
X144863957Y-85155183D01*
X144881862Y-85210288D01*
X144928737Y-85244345D01*
X144986677Y-85244345D01*
X145033552Y-85210288D01*
X145051457Y-85155183D01*
X145051457Y-84998933D01*
X145256814Y-84998933D01*
X145256814Y-85262326D01*
X145274719Y-85317431D01*
X145321594Y-85351488D01*
X145379534Y-85351488D01*
X145426409Y-85317431D01*
X145444314Y-85262326D01*
X145444314Y-84905183D01*
X145439726Y-84891062D01*
X145439726Y-84876213D01*
X145430997Y-84864199D01*
X145426509Y-84850385D01*
X145716277Y-84850385D01*
X145718902Y-84874333D01*
X145718902Y-84898439D01*
X145722013Y-84902721D01*
X145722590Y-84907981D01*
X145738792Y-84925816D01*
X145752959Y-84945314D01*
X145757991Y-84946949D01*
X145761551Y-84950867D01*
X146205042Y-85204290D01*
X145808064Y-85204290D01*
X145752959Y-85222195D01*
X145718902Y-85269070D01*
X145718902Y-85327010D01*
X145752959Y-85373885D01*
X145808064Y-85391790D01*
X146558064Y-85391790D01*
X146563097Y-85390154D01*
X146568279Y-85391232D01*
X146590253Y-85381330D01*
X146613169Y-85373885D01*
X146616279Y-85369604D01*
X146621105Y-85367430D01*
X146633062Y-85346504D01*
X146647226Y-85327010D01*
X146647226Y-85321717D01*
X146649851Y-85317124D01*
X146647226Y-85293175D01*
X146647226Y-85269070D01*
X146644114Y-85264787D01*
X146643538Y-85259528D01*
X146627335Y-85241692D01*
X146613169Y-85222195D01*
X146608136Y-85220559D01*
X146604577Y-85216642D01*
X146161086Y-84963219D01*
X146558064Y-84963219D01*
X146613169Y-84945314D01*
X146647226Y-84898439D01*
X146647226Y-84840499D01*
X146613169Y-84793624D01*
X146558064Y-84775719D01*
X145808064Y-84775719D01*
X145803030Y-84777354D01*
X145797849Y-84776277D01*
X145775874Y-84786178D01*
X145752959Y-84793624D01*
X145749848Y-84797904D01*
X145745023Y-84800079D01*
X145733065Y-84821004D01*
X145718902Y-84840499D01*
X145718902Y-84845791D01*
X145716277Y-84850385D01*
X145426509Y-84850385D01*
X145426409Y-84850078D01*
X145414396Y-84841350D01*
X145405669Y-84829338D01*
X145391547Y-84824749D01*
X145379534Y-84816021D01*
X145364684Y-84816021D01*
X145350564Y-84811433D01*
X144600564Y-84811433D01*
X144586444Y-84816021D01*
X144571594Y-84816021D01*
X144559580Y-84824749D01*
X144545459Y-84829338D01*
X144536731Y-84841350D01*
X144524719Y-84850078D01*
X144520130Y-84864199D01*
X144511402Y-84876213D01*
X144511402Y-84891062D01*
X144506814Y-84905183D01*
X144506814Y-85262326D01*
X143879671Y-85262326D01*
X143879671Y-85177505D01*
X144143064Y-85177505D01*
X144198169Y-85159600D01*
X144232226Y-85112725D01*
X144232226Y-85054785D01*
X144198169Y-85007910D01*
X144143064Y-84990005D01*
X143393064Y-84990005D01*
X143378944Y-84994593D01*
X143364094Y-84994593D01*
X143352080Y-85003321D01*
X143337959Y-85007910D01*
X143329231Y-85019922D01*
X143317219Y-85028650D01*
X143312630Y-85042771D01*
X143303902Y-85054785D01*
X143303902Y-85069634D01*
X143299314Y-85083755D01*
X143299314Y-85369469D01*
X143156459Y-85369469D01*
X143156459Y-84655183D01*
X143299314Y-84655183D01*
X143304009Y-84669634D01*
X143304125Y-84684829D01*
X143339839Y-84791973D01*
X143374251Y-84838588D01*
X143429490Y-84856074D01*
X143484457Y-84837752D01*
X143518157Y-84790620D01*
X143517717Y-84732680D01*
X143486814Y-84639970D01*
X143486814Y-84498743D01*
X143505828Y-84460714D01*
X143520023Y-84446519D01*
X143558053Y-84427505D01*
X143585218Y-84427505D01*
X143623246Y-84446519D01*
X143637443Y-84460716D01*
X143661751Y-84509330D01*
X143694970Y-84642207D01*
X143700512Y-84651063D01*
X143702068Y-84661395D01*
X143737782Y-84732824D01*
X143748446Y-84743652D01*
X143755345Y-84757190D01*
X143791060Y-84792904D01*
X143804597Y-84799801D01*
X143815424Y-84810465D01*
X143886852Y-84846179D01*
X143908225Y-84849397D01*
X143928778Y-84856076D01*
X144000207Y-84856076D01*
X144020759Y-84849398D01*
X144042133Y-84846179D01*
X144113561Y-84810465D01*
X144124387Y-84799801D01*
X144137925Y-84792904D01*
X144173640Y-84757190D01*
X144180538Y-84743652D01*
X144191203Y-84732824D01*
X144226917Y-84661395D01*
X144230135Y-84640021D01*
X144236814Y-84619469D01*
X144236814Y-84619468D01*
X144506814Y-84619468D01*
X144510831Y-84631831D01*
X144510307Y-84644822D01*
X144519563Y-84658707D01*
X144524719Y-84674573D01*
X144535233Y-84682212D01*
X144542446Y-84693031D01*
X144558096Y-84698823D01*
X144571594Y-84708630D01*
X144584594Y-84708630D01*
X144596785Y-84713142D01*
X144612848Y-84708630D01*
X144629534Y-84708630D01*
X144640051Y-84700988D01*
X144652567Y-84697473D01*
X145256814Y-84294641D01*
X145256814Y-84619468D01*
X145274719Y-84674573D01*
X145321594Y-84708630D01*
X145379534Y-84708630D01*
X145426409Y-84674573D01*
X145444314Y-84619468D01*
X145444314Y-84541296D01*
X145718902Y-84541296D01*
X145752959Y-84588171D01*
X145808064Y-84606076D01*
X146415207Y-84606076D01*
X146435759Y-84599398D01*
X146457133Y-84596179D01*
X146528561Y-84560465D01*
X146539387Y-84549801D01*
X146552925Y-84542904D01*
X146588640Y-84507190D01*
X146595538Y-84493652D01*
X146606203Y-84482824D01*
X146641917Y-84411395D01*
X146645135Y-84390021D01*
X146651814Y-84369469D01*
X146651814Y-84226612D01*
X146645135Y-84206059D01*
X146641917Y-84184686D01*
X146606203Y-84113258D01*
X146595540Y-84102432D01*
X146588642Y-84088893D01*
X146552926Y-84053178D01*
X146539387Y-84046279D01*
X146528561Y-84035616D01*
X146457133Y-83999902D01*
X146435759Y-83996682D01*
X146415207Y-83990005D01*
X145808064Y-83990005D01*
X145752959Y-84007910D01*
X145718902Y-84054785D01*
X145718902Y-84112725D01*
X145752959Y-84159600D01*
X145808064Y-84177505D01*
X146393075Y-84177505D01*
X146431102Y-84196518D01*
X146445300Y-84210717D01*
X146464314Y-84248743D01*
X146464314Y-84347337D01*
X146445300Y-84385365D01*
X146431103Y-84399561D01*
X146393075Y-84418576D01*
X145808064Y-84418576D01*
X145752959Y-84436481D01*
X145718902Y-84483356D01*
X145718902Y-84541296D01*
X145444314Y-84541296D01*
X145444314Y-84119468D01*
X145440297Y-84107105D01*
X145440821Y-84094114D01*
X145431564Y-84080228D01*
X145426409Y-84064363D01*
X145415894Y-84056723D01*
X145408682Y-84045905D01*
X145393031Y-84040112D01*
X145379534Y-84030306D01*
X145366534Y-84030306D01*
X145354343Y-84025794D01*
X145338280Y-84030306D01*
X145321594Y-84030306D01*
X145311076Y-84037947D01*
X145298561Y-84041463D01*
X144694314Y-84444294D01*
X144694314Y-84119468D01*
X144676409Y-84064363D01*
X144629534Y-84030306D01*
X144571594Y-84030306D01*
X144524719Y-84064363D01*
X144506814Y-84119468D01*
X144506814Y-84619468D01*
X144236814Y-84619468D01*
X144236814Y-84440898D01*
X144232118Y-84426446D01*
X144232003Y-84411252D01*
X144196289Y-84304109D01*
X144161877Y-84257494D01*
X144106638Y-84240007D01*
X144051671Y-84258329D01*
X144017971Y-84305462D01*
X144018411Y-84363401D01*
X144049314Y-84456111D01*
X144049314Y-84597337D01*
X144030300Y-84635365D01*
X144016103Y-84649561D01*
X143978075Y-84668576D01*
X143950910Y-84668576D01*
X143912881Y-84649561D01*
X143898684Y-84635365D01*
X143874375Y-84586746D01*
X143841158Y-84453874D01*
X143835614Y-84445015D01*
X143834059Y-84434685D01*
X143798344Y-84363256D01*
X143787680Y-84352429D01*
X143780783Y-84338892D01*
X143745069Y-84303178D01*
X143731530Y-84296279D01*
X143720704Y-84285616D01*
X143649276Y-84249902D01*
X143627902Y-84246682D01*
X143607350Y-84240005D01*
X143535921Y-84240005D01*
X143515368Y-84246683D01*
X143493995Y-84249902D01*
X143422566Y-84285616D01*
X143411738Y-84296280D01*
X143398201Y-84303178D01*
X143362487Y-84338892D01*
X143355589Y-84352429D01*
X143344925Y-84363257D01*
X143309211Y-84434686D01*
X143305992Y-84456057D01*
X143299314Y-84476612D01*
X143299314Y-84655183D01*
X143156459Y-84655183D01*
X143156459Y-84023779D01*
X143300016Y-84023779D01*
X143303902Y-84032106D01*
X143303902Y-84041296D01*
X143315891Y-84057798D01*
X143324518Y-84076283D01*
X143332557Y-84080736D01*
X143337959Y-84088171D01*
X143357358Y-84094474D01*
X143375203Y-84104359D01*
X143384324Y-84103236D01*
X143393064Y-84106076D01*
X144143064Y-84106076D01*
X144198169Y-84088171D01*
X144232226Y-84041296D01*
X144232226Y-83983356D01*
X144198169Y-83936481D01*
X144143064Y-83918576D01*
X143815648Y-83918576D01*
X143920877Y-83869469D01*
X144506814Y-83869469D01*
X144524719Y-83924574D01*
X144571594Y-83958631D01*
X144629534Y-83958631D01*
X144676409Y-83924574D01*
X144694314Y-83869469D01*
X144694314Y-83606076D01*
X144863957Y-83606076D01*
X144863957Y-83762326D01*
X144881862Y-83817431D01*
X144928737Y-83851488D01*
X144986677Y-83851488D01*
X145033552Y-83817431D01*
X145051457Y-83762326D01*
X145051457Y-83606076D01*
X145256814Y-83606076D01*
X145256814Y-83869469D01*
X145274719Y-83924574D01*
X145321594Y-83958631D01*
X145379534Y-83958631D01*
X145426409Y-83924574D01*
X145444314Y-83869469D01*
X145444314Y-83755582D01*
X145718902Y-83755582D01*
X145752959Y-83802457D01*
X145808064Y-83820362D01*
X146343778Y-83820362D01*
X146358229Y-83815666D01*
X146373425Y-83815551D01*
X146480568Y-83779836D01*
X146497954Y-83767000D01*
X146517212Y-83757189D01*
X146588641Y-83685761D01*
X146598453Y-83666501D01*
X146611289Y-83649115D01*
X146647003Y-83541972D01*
X146647118Y-83526777D01*
X146651814Y-83512326D01*
X146651814Y-83440897D01*
X146633909Y-83385792D01*
X146587034Y-83351735D01*
X146529094Y-83351735D01*
X146482219Y-83385792D01*
X146464314Y-83440897D01*
X146464314Y-83497112D01*
X146440409Y-83568825D01*
X146400278Y-83608956D01*
X146328564Y-83632862D01*
X145808064Y-83632862D01*
X145752959Y-83650767D01*
X145718902Y-83697642D01*
X145718902Y-83755582D01*
X145444314Y-83755582D01*
X145444314Y-83512326D01*
X145439726Y-83498205D01*
X145439726Y-83483356D01*
X145430997Y-83471342D01*
X145426409Y-83457221D01*
X145414396Y-83448493D01*
X145405669Y-83436481D01*
X145391547Y-83431892D01*
X145379534Y-83423164D01*
X145364684Y-83423164D01*
X145350564Y-83418576D01*
X144600564Y-83418576D01*
X144586444Y-83423164D01*
X144571594Y-83423164D01*
X144559580Y-83431892D01*
X144545459Y-83436481D01*
X144536731Y-83448493D01*
X144524719Y-83457221D01*
X144520130Y-83471342D01*
X144511402Y-83483356D01*
X144511402Y-83498205D01*
X144506814Y-83512326D01*
X144506814Y-83869469D01*
X143920877Y-83869469D01*
X143968423Y-83847281D01*
X143981581Y-83835002D01*
X143997324Y-83826283D01*
X144002257Y-83815710D01*
X144010787Y-83807752D01*
X144014215Y-83790087D01*
X144021826Y-83773779D01*
X144019603Y-83762326D01*
X144021826Y-83750873D01*
X144014215Y-83734564D01*
X144010787Y-83716900D01*
X144002257Y-83708941D01*
X143997324Y-83698369D01*
X143981581Y-83689649D01*
X143968423Y-83677371D01*
X143815648Y-83606076D01*
X144143064Y-83606076D01*
X144198169Y-83588171D01*
X144232226Y-83541296D01*
X144232226Y-83483356D01*
X144198169Y-83436481D01*
X144143064Y-83418576D01*
X143393064Y-83418576D01*
X143384324Y-83421415D01*
X143375203Y-83420293D01*
X143357358Y-83430177D01*
X143337959Y-83436481D01*
X143332557Y-83443915D01*
X143324518Y-83448369D01*
X143315891Y-83466853D01*
X143303902Y-83483356D01*
X143303902Y-83492545D01*
X143300016Y-83500873D01*
X143303902Y-83520895D01*
X143303902Y-83541296D01*
X143309304Y-83548731D01*
X143311055Y-83557752D01*
X143325968Y-83571668D01*
X143337959Y-83588171D01*
X143346697Y-83591010D01*
X143353418Y-83597281D01*
X143707085Y-83762326D01*
X143353418Y-83927371D01*
X143346697Y-83933641D01*
X143337959Y-83936481D01*
X143325968Y-83952983D01*
X143311055Y-83966900D01*
X143309304Y-83975920D01*
X143303902Y-83983356D01*
X143303902Y-84003756D01*
X143300016Y-84023779D01*
X143156459Y-84023779D01*
X143156459Y-83244592D01*
X146758957Y-83244592D01*
X146758957Y-92356075D01*
G37*
D10*
G36*
X148086750Y-80025382D02*
G01*
X146604762Y-80025382D01*
X146604762Y-79809649D01*
X146751345Y-79809649D01*
X146785627Y-79861073D01*
X146843588Y-79882525D01*
X146903089Y-79865811D01*
X147347619Y-79569457D01*
X147792149Y-79865811D01*
X147851650Y-79882525D01*
X147909611Y-79861073D01*
X147943893Y-79809649D01*
X147941402Y-79747896D01*
X147903089Y-79699401D01*
X147527896Y-79449273D01*
X147903089Y-79199145D01*
X147941402Y-79150650D01*
X147943893Y-79088897D01*
X147909611Y-79037473D01*
X147851650Y-79016021D01*
X147792149Y-79032735D01*
X147347618Y-79329088D01*
X146903089Y-79032735D01*
X146843588Y-79016021D01*
X146785627Y-79037473D01*
X146751345Y-79088897D01*
X146753836Y-79150650D01*
X146792149Y-79199145D01*
X147167341Y-79449273D01*
X146792149Y-79699401D01*
X146753836Y-79747896D01*
X146751345Y-79809649D01*
X146604762Y-79809649D01*
X146604762Y-78877844D01*
X146747619Y-78877844D01*
X146766717Y-78936623D01*
X146816717Y-78972950D01*
X146878521Y-78972950D01*
X146928521Y-78936623D01*
X146947619Y-78877844D01*
X146947619Y-78692130D01*
X147847619Y-78692130D01*
X147906398Y-78673032D01*
X147942725Y-78623032D01*
X147942725Y-78561228D01*
X147906398Y-78511228D01*
X147847619Y-78492130D01*
X146947619Y-78492130D01*
X146947619Y-78306416D01*
X146928521Y-78247637D01*
X146878521Y-78211310D01*
X146816717Y-78211310D01*
X146766717Y-78247637D01*
X146747619Y-78306416D01*
X146747619Y-78877844D01*
X146604762Y-78877844D01*
X146604762Y-78068453D01*
X148086750Y-78068453D01*
X148086750Y-80025382D01*
G37*
M02*
