%TF.GenerationSoftware,KiCad,Pcbnew,7.0.7*%
%TF.CreationDate,2024-07-05T12:18:51-04:00*%
%TF.ProjectId,MSP430FR21_Breakout,4d535034-3330-4465-9232-315f42726561,rev?*%
%TF.SameCoordinates,Original*%
%TF.FileFunction,Paste,Top*%
%TF.FilePolarity,Positive*%
%FSLAX46Y46*%
G04 Gerber Fmt 4.6, Leading zero omitted, Abs format (unit mm)*
G04 Created by KiCad (PCBNEW 7.0.7) date 2024-07-05 12:18:51*
%MOMM*%
%LPD*%
G01*
G04 APERTURE LIST*
G04 Aperture macros list*
%AMRoundRect*
0 Rectangle with rounded corners*
0 $1 Rounding radius*
0 $2 $3 $4 $5 $6 $7 $8 $9 X,Y pos of 4 corners*
0 Add a 4 corners polygon primitive as box body*
4,1,4,$2,$3,$4,$5,$6,$7,$8,$9,$2,$3,0*
0 Add four circle primitives for the rounded corners*
1,1,$1+$1,$2,$3*
1,1,$1+$1,$4,$5*
1,1,$1+$1,$6,$7*
1,1,$1+$1,$8,$9*
0 Add four rect primitives between the rounded corners*
20,1,$1+$1,$2,$3,$4,$5,0*
20,1,$1+$1,$4,$5,$6,$7,0*
20,1,$1+$1,$6,$7,$8,$9,0*
20,1,$1+$1,$8,$9,$2,$3,0*%
G04 Aperture macros list end*
%ADD10RoundRect,0.225000X-0.250000X0.225000X-0.250000X-0.225000X0.250000X-0.225000X0.250000X0.225000X0*%
%ADD11RoundRect,0.100000X0.637500X0.100000X-0.637500X0.100000X-0.637500X-0.100000X0.637500X-0.100000X0*%
%ADD12RoundRect,0.225000X0.250000X-0.225000X0.250000X0.225000X-0.250000X0.225000X-0.250000X-0.225000X0*%
%ADD13RoundRect,0.150000X-0.512500X-0.150000X0.512500X-0.150000X0.512500X0.150000X-0.512500X0.150000X0*%
%ADD14R,1.750000X1.800000*%
%ADD15RoundRect,0.237500X-0.237500X0.250000X-0.237500X-0.250000X0.237500X-0.250000X0.237500X0.250000X0*%
%ADD16RoundRect,0.237500X0.237500X-0.287500X0.237500X0.287500X-0.237500X0.287500X-0.237500X-0.287500X0*%
%ADD17RoundRect,0.250000X-0.475000X0.250000X-0.475000X-0.250000X0.475000X-0.250000X0.475000X0.250000X0*%
%ADD18RoundRect,0.225000X-0.225000X-0.250000X0.225000X-0.250000X0.225000X0.250000X-0.225000X0.250000X0*%
%ADD19RoundRect,0.225000X0.225000X0.250000X-0.225000X0.250000X-0.225000X-0.250000X0.225000X-0.250000X0*%
G04 APERTURE END LIST*
D10*
%TO.C,C6*%
X138684000Y-79248000D03*
X138684000Y-80798000D03*
%TD*%
D11*
%TO.C,U1*%
X147896500Y-89143000D03*
X147896500Y-88493000D03*
X147896500Y-87843000D03*
X147896500Y-87193000D03*
X147896500Y-86543000D03*
X147896500Y-85893000D03*
X147896500Y-85243000D03*
X147896500Y-84593000D03*
X142171500Y-84593000D03*
X142171500Y-85243000D03*
X142171500Y-85893000D03*
X142171500Y-86543000D03*
X142171500Y-87193000D03*
X142171500Y-87843000D03*
X142171500Y-88493000D03*
X142171500Y-89143000D03*
%TD*%
D12*
%TO.C,C5*%
X151892000Y-80798000D03*
X151892000Y-79248000D03*
%TD*%
D13*
%TO.C,U2*%
X141224000Y-78994000D03*
X141224000Y-79944000D03*
X141224000Y-80894000D03*
X143499000Y-80894000D03*
X143499000Y-78994000D03*
%TD*%
D14*
%TO.C,Y1*%
X146405000Y-91440000D03*
X143155000Y-91440000D03*
%TD*%
D15*
%TO.C,R2*%
X149606000Y-94488000D03*
X149606000Y-96313000D03*
%TD*%
D16*
%TO.C,D2*%
X139954000Y-102334000D03*
X139954000Y-100584000D03*
%TD*%
D10*
%TO.C,C3*%
X140716000Y-90932000D03*
X140716000Y-92482000D03*
%TD*%
D17*
%TO.C,C1*%
X146050000Y-78994000D03*
X146050000Y-80894000D03*
%TD*%
D16*
%TO.C,D1*%
X149606000Y-102334000D03*
X149606000Y-100584000D03*
%TD*%
D18*
%TO.C,C2*%
X146786000Y-82804000D03*
X148336000Y-82804000D03*
%TD*%
D12*
%TO.C,C4*%
X148844000Y-92482000D03*
X148844000Y-90932000D03*
%TD*%
D15*
%TO.C,R3*%
X139954000Y-94488000D03*
X139954000Y-96313000D03*
%TD*%
D19*
%TO.C,C7*%
X142748000Y-82550000D03*
X141198000Y-82550000D03*
%TD*%
D15*
%TO.C,R1*%
X149098000Y-78994000D03*
X149098000Y-80819000D03*
%TD*%
M02*
